<mxfile host="65bd71144e">
    <diagram id="32CRQqV7sVFc78E8xpjL" name="Page-1">
        <mxGraphModel dx="2188" dy="1836" grid="1" gridSize="10" guides="1" tooltips="1" connect="1" arrows="1" fold="1" page="1" pageScale="1" pageWidth="827" pageHeight="1169" math="0" shadow="0">
            <root>
                <mxCell id="0"/>
                <mxCell id="1" parent="0"/>
                <mxCell id="8" style="edgeStyle=none;html=1;exitX=1;exitY=0.5;exitDx=0;exitDy=0;entryX=0;entryY=0.25;entryDx=0;entryDy=0;" parent="1" source="2" target="3" edge="1">
                    <mxGeometry relative="1" as="geometry"/>
                </mxCell>
                <mxCell id="79" style="edgeStyle=none;html=1;exitX=1;exitY=1;exitDx=0;exitDy=0;entryX=0.25;entryY=0;entryDx=0;entryDy=0;" parent="1" source="2" target="4" edge="1">
                    <mxGeometry relative="1" as="geometry"/>
                </mxCell>
                <mxCell id="2" value="Social Media App" style="rounded=1;whiteSpace=wrap;html=1;" parent="1" vertex="1">
                    <mxGeometry x="-140" y="-100" width="130" height="55" as="geometry"/>
                </mxCell>
                <mxCell id="10" style="edgeStyle=none;html=1;exitX=1;exitY=1;exitDx=0;exitDy=0;entryX=0;entryY=0.25;entryDx=0;entryDy=0;" parent="1" source="3" target="9" edge="1">
                    <mxGeometry relative="1" as="geometry"/>
                </mxCell>
                <mxCell id="3" value="Login" style="rounded=1;whiteSpace=wrap;html=1;" parent="1" vertex="1">
                    <mxGeometry x="150" y="-15" width="120" height="40" as="geometry"/>
                </mxCell>
                <mxCell id="11" style="edgeStyle=none;html=1;exitX=1;exitY=0.75;exitDx=0;exitDy=0;" parent="1" source="4" edge="1">
                    <mxGeometry relative="1" as="geometry">
                        <mxPoint x="350" y="60" as="targetPoint"/>
                    </mxGeometry>
                </mxCell>
                <mxCell id="68" style="edgeStyle=none;html=1;exitX=0;exitY=0.5;exitDx=0;exitDy=0;entryX=1;entryY=0.5;entryDx=0;entryDy=0;" parent="1" source="4" target="63" edge="1">
                    <mxGeometry relative="1" as="geometry"/>
                </mxCell>
                <mxCell id="4" value="Sign Up" style="rounded=1;whiteSpace=wrap;html=1;" parent="1" vertex="1">
                    <mxGeometry x="110" y="100" width="120" height="40" as="geometry"/>
                </mxCell>
                <mxCell id="35" style="edgeStyle=none;html=1;exitX=1;exitY=0.5;exitDx=0;exitDy=0;entryX=0;entryY=0.25;entryDx=0;entryDy=0;" parent="1" source="9" target="33" edge="1">
                    <mxGeometry relative="1" as="geometry"/>
                </mxCell>
                <mxCell id="9" value="Home page" style="rounded=1;whiteSpace=wrap;html=1;" parent="1" vertex="1">
                    <mxGeometry x="350" y="40" width="120" height="40" as="geometry"/>
                </mxCell>
                <mxCell id="12" value="Post" style="rounded=1;whiteSpace=wrap;html=1;" parent="1" vertex="1">
                    <mxGeometry x="440" y="175" width="120" height="40" as="geometry"/>
                </mxCell>
                <mxCell id="17" value="Update" style="ellipse;whiteSpace=wrap;html=1;" parent="1" vertex="1">
                    <mxGeometry x="490" y="300" width="120" height="30" as="geometry"/>
                </mxCell>
                <mxCell id="22" style="edgeStyle=none;html=1;exitX=0;exitY=0.5;exitDx=0;exitDy=0;entryX=1;entryY=0.5;entryDx=0;entryDy=0;" parent="1" source="18" target="12" edge="1">
                    <mxGeometry relative="1" as="geometry"/>
                </mxCell>
                <mxCell id="18" value="Delete" style="ellipse;whiteSpace=wrap;html=1;" parent="1" vertex="1">
                    <mxGeometry x="710" y="215" width="120" height="30" as="geometry"/>
                </mxCell>
                <mxCell id="21" style="edgeStyle=none;html=1;exitX=0.5;exitY=0;exitDx=0;exitDy=0;entryX=0.675;entryY=0.975;entryDx=0;entryDy=0;entryPerimeter=0;" parent="1" source="17" target="12" edge="1">
                    <mxGeometry relative="1" as="geometry"/>
                </mxCell>
                <mxCell id="61" style="edgeStyle=none;html=1;exitX=0.5;exitY=0;exitDx=0;exitDy=0;" parent="1" source="23" target="60" edge="1">
                    <mxGeometry relative="1" as="geometry"/>
                </mxCell>
                <mxCell id="23" value="Comments" style="rounded=1;whiteSpace=wrap;html=1;" parent="1" vertex="1">
                    <mxGeometry x="255" y="490" width="110" height="40" as="geometry"/>
                </mxCell>
                <mxCell id="28" style="edgeStyle=none;html=1;exitX=0.5;exitY=0;exitDx=0;exitDy=0;" parent="1" source="25" target="23" edge="1">
                    <mxGeometry relative="1" as="geometry">
                        <mxPoint x="160" y="360" as="targetPoint"/>
                    </mxGeometry>
                </mxCell>
                <mxCell id="25" value="New comment" style="ellipse;whiteSpace=wrap;html=1;" parent="1" vertex="1">
                    <mxGeometry x="170" y="610" width="120" height="50" as="geometry"/>
                </mxCell>
                <mxCell id="29" style="edgeStyle=none;html=1;exitX=0.5;exitY=0;exitDx=0;exitDy=0;entryX=0.75;entryY=1;entryDx=0;entryDy=0;" parent="1" source="26" target="23" edge="1">
                    <mxGeometry relative="1" as="geometry"/>
                </mxCell>
                <mxCell id="26" value="Update comment" style="ellipse;whiteSpace=wrap;html=1;" parent="1" vertex="1">
                    <mxGeometry x="380" y="600" width="120" height="50" as="geometry"/>
                </mxCell>
                <mxCell id="30" style="edgeStyle=none;html=1;exitX=0;exitY=0.5;exitDx=0;exitDy=0;entryX=1;entryY=0.5;entryDx=0;entryDy=0;" parent="1" source="27" target="23" edge="1">
                    <mxGeometry relative="1" as="geometry"/>
                </mxCell>
                <mxCell id="27" value="Delete comment" style="ellipse;whiteSpace=wrap;html=1;" parent="1" vertex="1">
                    <mxGeometry x="480" y="500" width="120" height="50" as="geometry"/>
                </mxCell>
                <mxCell id="42" style="edgeStyle=none;html=1;exitX=1;exitY=1;exitDx=0;exitDy=0;entryX=0;entryY=0.5;entryDx=0;entryDy=0;" parent="1" source="33" target="39" edge="1">
                    <mxGeometry relative="1" as="geometry"/>
                </mxCell>
                <mxCell id="54" style="edgeStyle=none;html=1;exitX=1;exitY=0;exitDx=0;exitDy=0;entryX=0;entryY=0.75;entryDx=0;entryDy=0;" parent="1" source="33" target="46" edge="1">
                    <mxGeometry relative="1" as="geometry"/>
                </mxCell>
                <mxCell id="33" value="User" style="rounded=1;whiteSpace=wrap;html=1;" parent="1" vertex="1">
                    <mxGeometry x="520" y="-50" width="120" height="30" as="geometry"/>
                </mxCell>
                <mxCell id="39" value="Delete Account" style="ellipse;whiteSpace=wrap;html=1;" parent="1" vertex="1">
                    <mxGeometry x="730" y="-15" width="120" height="45" as="geometry"/>
                </mxCell>
                <mxCell id="40" style="edgeStyle=none;html=1;exitX=0.75;exitY=1;exitDx=0;exitDy=0;entryX=0.417;entryY=0.025;entryDx=0;entryDy=0;entryPerimeter=0;" parent="1" source="9" target="12" edge="1">
                    <mxGeometry relative="1" as="geometry"/>
                </mxCell>
                <mxCell id="41" value="Log out" style="ellipse;whiteSpace=wrap;html=1;" parent="1" vertex="1">
                    <mxGeometry x="580" y="60" width="120" height="45" as="geometry"/>
                </mxCell>
                <mxCell id="43" style="edgeStyle=none;html=1;exitX=0.75;exitY=1;exitDx=0;exitDy=0;entryX=0.008;entryY=0.378;entryDx=0;entryDy=0;entryPerimeter=0;" parent="1" source="33" target="41" edge="1">
                    <mxGeometry relative="1" as="geometry"/>
                </mxCell>
                <mxCell id="44" value="Forget Password" style="ellipse;whiteSpace=wrap;html=1;" parent="1" vertex="1">
                    <mxGeometry x="320" y="-90" width="120" height="40" as="geometry"/>
                </mxCell>
                <mxCell id="45" style="edgeStyle=none;html=1;exitX=1;exitY=0;exitDx=0;exitDy=0;entryX=0.433;entryY=1.02;entryDx=0;entryDy=0;entryPerimeter=0;" parent="1" source="3" target="44" edge="1">
                    <mxGeometry relative="1" as="geometry"/>
                </mxCell>
                <mxCell id="51" style="edgeStyle=none;html=1;exitX=1;exitY=0.25;exitDx=0;exitDy=0;entryX=0;entryY=1;entryDx=0;entryDy=0;" parent="1" source="46" target="47" edge="1">
                    <mxGeometry relative="1" as="geometry"/>
                </mxCell>
                <mxCell id="52" style="edgeStyle=none;html=1;exitX=1;exitY=0.75;exitDx=0;exitDy=0;entryX=0;entryY=0.5;entryDx=0;entryDy=0;" parent="1" source="46" target="48" edge="1">
                    <mxGeometry relative="1" as="geometry"/>
                </mxCell>
                <mxCell id="53" style="edgeStyle=none;html=1;exitX=1;exitY=1;exitDx=0;exitDy=0;entryX=0;entryY=0.5;entryDx=0;entryDy=0;" parent="1" source="46" target="50" edge="1">
                    <mxGeometry relative="1" as="geometry"/>
                </mxCell>
                <mxCell id="46" value="Update user" style="rounded=1;whiteSpace=wrap;html=1;" parent="1" vertex="1">
                    <mxGeometry x="707" y="-100" width="120" height="30" as="geometry"/>
                </mxCell>
                <mxCell id="47" value="User name" style="ellipse;whiteSpace=wrap;html=1;" parent="1" vertex="1">
                    <mxGeometry x="920" y="-150" width="120" height="40" as="geometry"/>
                </mxCell>
                <mxCell id="48" value="Email" style="ellipse;whiteSpace=wrap;html=1;" parent="1" vertex="1">
                    <mxGeometry x="1000" y="-70" width="120" height="40" as="geometry"/>
                </mxCell>
                <mxCell id="50" value="Password" style="ellipse;whiteSpace=wrap;html=1;" parent="1" vertex="1">
                    <mxGeometry x="1040" width="120" height="50" as="geometry"/>
                </mxCell>
                <mxCell id="55" value="Email" style="ellipse;whiteSpace=wrap;html=1;" parent="1" vertex="1">
                    <mxGeometry x="230" y="-145" width="120" height="30" as="geometry"/>
                </mxCell>
                <mxCell id="56" value="Password" style="ellipse;whiteSpace=wrap;html=1;" parent="1" vertex="1">
                    <mxGeometry x="70" y="-130" width="120" height="30" as="geometry"/>
                </mxCell>
                <mxCell id="57" style="edgeStyle=none;html=1;exitX=0.25;exitY=0;exitDx=0;exitDy=0;entryX=0.425;entryY=0.933;entryDx=0;entryDy=0;entryPerimeter=0;" parent="1" source="3" target="56" edge="1">
                    <mxGeometry relative="1" as="geometry"/>
                </mxCell>
                <mxCell id="58" style="edgeStyle=none;html=1;exitX=0.5;exitY=0;exitDx=0;exitDy=0;entryX=0.317;entryY=1.033;entryDx=0;entryDy=0;entryPerimeter=0;" parent="1" source="3" target="55" edge="1">
                    <mxGeometry relative="1" as="geometry"/>
                </mxCell>
                <mxCell id="62" style="edgeStyle=none;html=1;exitX=1;exitY=0.25;exitDx=0;exitDy=0;entryX=0;entryY=1;entryDx=0;entryDy=0;" parent="1" source="60" target="12" edge="1">
                    <mxGeometry relative="1" as="geometry"/>
                </mxCell>
                <mxCell id="60" value="New post" style="rounded=1;whiteSpace=wrap;html=1;" parent="1" vertex="1">
                    <mxGeometry x="250" y="320" width="120" height="30" as="geometry"/>
                </mxCell>
                <mxCell id="63" value="User name" style="ellipse;whiteSpace=wrap;html=1;" parent="1" vertex="1">
                    <mxGeometry x="-100" y="140" width="120" height="30" as="geometry"/>
                </mxCell>
                <mxCell id="64" value="Email" style="ellipse;whiteSpace=wrap;html=1;" parent="1" vertex="1">
                    <mxGeometry x="10" y="185" width="120" height="30" as="geometry"/>
                </mxCell>
                <mxCell id="65" value="Password" style="ellipse;whiteSpace=wrap;html=1;" parent="1" vertex="1">
                    <mxGeometry x="180" y="200" width="120" height="35" as="geometry"/>
                </mxCell>
                <mxCell id="66" style="edgeStyle=none;html=1;exitX=0;exitY=1;exitDx=0;exitDy=0;entryX=0.675;entryY=0.167;entryDx=0;entryDy=0;entryPerimeter=0;" parent="1" source="4" target="64" edge="1">
                    <mxGeometry relative="1" as="geometry"/>
                </mxCell>
                <mxCell id="67" style="edgeStyle=none;html=1;exitX=0.75;exitY=1;exitDx=0;exitDy=0;entryX=0.383;entryY=0.114;entryDx=0;entryDy=0;entryPerimeter=0;" parent="1" source="4" target="65" edge="1">
                    <mxGeometry relative="1" as="geometry"/>
                </mxCell>
                <mxCell id="76" style="edgeStyle=none;html=1;exitX=1;exitY=0.5;exitDx=0;exitDy=0;entryX=0;entryY=0;entryDx=0;entryDy=0;" parent="1" source="69" target="60" edge="1">
                    <mxGeometry relative="1" as="geometry"/>
                </mxCell>
                <mxCell id="69" value="Title" style="ellipse;whiteSpace=wrap;html=1;" parent="1" vertex="1">
                    <mxGeometry x="70" y="290" width="120" height="40" as="geometry"/>
                </mxCell>
                <mxCell id="77" style="edgeStyle=none;html=1;exitX=0;exitY=0.5;exitDx=0;exitDy=0;entryX=1;entryY=0.75;entryDx=0;entryDy=0;" parent="1" source="70" target="60" edge="1">
                    <mxGeometry relative="1" as="geometry"/>
                </mxCell>
                <mxCell id="70" value="Content" style="ellipse;whiteSpace=wrap;html=1;" parent="1" vertex="1">
                    <mxGeometry x="400" y="370" width="120" height="40" as="geometry"/>
                </mxCell>
                <mxCell id="74" style="edgeStyle=none;html=1;exitX=1;exitY=0.5;exitDx=0;exitDy=0;entryX=0;entryY=1;entryDx=0;entryDy=0;" parent="1" source="71" target="60" edge="1">
                    <mxGeometry relative="1" as="geometry"/>
                </mxCell>
                <mxCell id="71" value="User" style="ellipse;whiteSpace=wrap;html=1;" parent="1" vertex="1">
                    <mxGeometry x="50" y="370" width="120" height="30" as="geometry"/>
                </mxCell>
                <mxCell id="75" style="edgeStyle=none;html=1;exitX=1;exitY=0;exitDx=0;exitDy=0;entryX=0.25;entryY=1;entryDx=0;entryDy=0;" parent="1" source="72" target="60" edge="1">
                    <mxGeometry relative="1" as="geometry"/>
                </mxCell>
                <mxCell id="72" value="Image" style="ellipse;whiteSpace=wrap;html=1;" parent="1" vertex="1">
                    <mxGeometry x="130" y="420" width="120" height="40" as="geometry"/>
                </mxCell>
                <mxCell id="80" value="" style="rounded=1;whiteSpace=wrap;html=1;fillColor=#ADD0FF;" vertex="1" parent="1">
                    <mxGeometry x="-230" y="-700" width="910" height="60" as="geometry"/>
                </mxCell>
                <mxCell id="81" value="&lt;b&gt;Login&lt;/b&gt;" style="rounded=1;whiteSpace=wrap;html=1;strokeColor=#908CFF;fillColor=#7E5EFF;" vertex="1" parent="1">
                    <mxGeometry x="590" y="-685" width="70" height="30" as="geometry"/>
                </mxCell>
                <mxCell id="82" value="Home" style="rounded=1;whiteSpace=wrap;html=1;" vertex="1" parent="1">
                    <mxGeometry x="120" y="-685" width="70" height="30" as="geometry"/>
                </mxCell>
                <mxCell id="83" value="" style="rounded=0;whiteSpace=wrap;html=1;strokeColor=#FFEFFA;fillColor=#999FFF;shadow=0;" vertex="1" parent="1">
                    <mxGeometry x="-340" y="-745" width="1160" height="585" as="geometry"/>
                </mxCell>
                <mxCell id="84" value="" style="rounded=1;whiteSpace=wrap;html=1;fillColor=#C5BAFF;" vertex="1" parent="1">
                    <mxGeometry x="-340" y="-745" width="1160" height="60" as="geometry"/>
                </mxCell>
                <mxCell id="85" value="&lt;font color=&quot;#b0ff14&quot; style=&quot;font-size: 18px;&quot;&gt;Login&lt;/font&gt;" style="rounded=1;whiteSpace=wrap;html=1;fillColor=#4B1EFF;" vertex="1" parent="1">
                    <mxGeometry x="700" y="-725" width="90" height="30" as="geometry"/>
                </mxCell>
                <mxCell id="89" value="&lt;h2&gt;&lt;font color=&quot;#fff9fc&quot;&gt;Skills&lt;/font&gt;&lt;/h2&gt;" style="text;html=1;align=center;verticalAlign=middle;whiteSpace=wrap;rounded=0;" vertex="1" parent="1">
                    <mxGeometry x="460" y="-725" width="60" height="30" as="geometry"/>
                </mxCell>
                <mxCell id="90" value="&lt;h2&gt;&lt;font color=&quot;#ffffff&quot;&gt;Education&lt;/font&gt;&lt;/h2&gt;" style="text;html=1;align=center;verticalAlign=middle;whiteSpace=wrap;rounded=0;" vertex="1" parent="1">
                    <mxGeometry x="550" y="-727.5" width="100" height="35" as="geometry"/>
                </mxCell>
                <mxCell id="91" value="&lt;h1 style=&quot;margin-top: 0px;&quot;&gt;&lt;font color=&quot;#aaffb6&quot;&gt;Full stack Developer&lt;/font&gt;&lt;/h1&gt;&lt;div&gt;&lt;br&gt;&lt;/div&gt;&lt;div&gt;&lt;br&gt;&lt;/div&gt;&lt;p&gt;&lt;font style=&quot;font-size: 18px;&quot;&gt;Motivated and detail-oriented Junior Backend Developer with over 2.5 years of hands-on&lt;/font&gt;&lt;/p&gt;&lt;p&gt;&lt;font size=&quot;3&quot;&gt;experience in building and maintaining server-side applications. Skilled in Node.js with a solid&lt;/font&gt;&lt;/p&gt;&lt;p&gt;&lt;font size=&quot;3&quot;&gt;understanding of CRUD operations, relational and NoSQL databases.&lt;/font&gt;&lt;/p&gt;" style="text;html=1;whiteSpace=wrap;overflow=hidden;rounded=0;shadow=1;" vertex="1" parent="1">
                    <mxGeometry x="-255" y="-640" width="360" height="254" as="geometry"/>
                </mxCell>
                <mxCell id="92" value="&lt;h2&gt;&lt;font color=&quot;#f3ffdb&quot;&gt;&lt;b style=&quot;&quot;&gt;Portfolio&lt;/b&gt;&lt;/font&gt;&lt;/h2&gt;" style="text;html=1;align=center;verticalAlign=middle;whiteSpace=wrap;rounded=0;" vertex="1" parent="1">
                    <mxGeometry x="-290" y="-725" width="60" height="30" as="geometry"/>
                </mxCell>
                <mxCell id="94" value="&lt;h2&gt;&lt;font color=&quot;#fff9fc&quot;&gt;Experience&lt;/font&gt;&lt;/h2&gt;" style="text;html=1;align=center;verticalAlign=middle;whiteSpace=wrap;rounded=0;" vertex="1" parent="1">
                    <mxGeometry x="330" y="-727.5" width="100" height="35" as="geometry"/>
                </mxCell>
                <mxCell id="96" value="" style="shape=image;imageAspect=0;aspect=fixed;verticalLabelPosition=bottom;verticalAlign=top;image=data:image/jpeg,/9j/4AAQSkZJRgABAQAAAQABAAD/2wBDAAEBAQEBAQEBAQEBAQEBAQEBAQEBAQEBAQEBAQEBAQEBAQEBAQEBAQEBAQEBAQEBAQEBAQEBAQEBAQEBAQEBAQH/2wBDAQEBAQEBAQEBAQEBAQEBAQEBAQEBAQEBAQEBAQEBAQEBAQEBAQEBAQEBAQEBAQEBAQEBAQEBAQEBAQEBAQEBAQH/wAARCAGxAZQDASIAAhEBAxEB/8QAHwAAAQUBAQEBAQEAAAAAAAAAAAECAwQFBgcICQoL/8QAtRAAAgEDAwIEAwUFBAQAAAF9AQIDAAQRBRIhMUEGE1FhByJxFDKBkaEII0KxwRVS0fAkM2JyggkKFhcYGRolJicoKSo0NTY3ODk6Q0RFRkdISUpTVFVWV1hZWmNkZWZnaGlqc3R1dnd4eXqDhIWGh4iJipKTlJWWl5iZmqKjpKWmp6ipqrKztLW2t7i5usLDxMXGx8jJytLT1NXW19jZ2uHi4+Tl5ufo6erx8vP09fb3+Pn6/8QAHwEAAwEBAQEBAQEBAQAAAAAAAAECAwQFBgcICQoL/8QAtREAAgECBAQDBAcFBAQAAQJ3AAECAxEEBSExBhJBUQdhcRMiMoEIFEKRobHBCSMzUvAVYnLRChYkNOEl8RcYGRomJygpKjU2Nzg5OkNERUZHSElKU1RVVldYWVpjZGVmZ2hpanN0dXZ3eHl6goOEhYaHiImKkpOUlZaXmJmaoqOkpaanqKmqsrO0tba3uLm6wsPExcbHyMnK0tPU1dbX2Nna4uPk5ebn6Onq8vP09fb3+Pn6/9oADAMBAAIRAxEAPwD+9/A+mBg8DjqcgkZ753df1pCCc5HuCDhhnABB2k9Bn6HAOeChHHJJHbpyNpz/AFwSe3IJpc5GMnJBw3fGeg6cgY7dPfBq411eKSe6SXMm/OTb123Sd03Z2RnVw1PlbtF2T0a/m0dvv/rpz/ieQQ+HdfkJyI9F1N843AhbGc/NkcjH3vXB61/PvrkkclzJLFGiK+JliBG3lRtWNccRgHCDoAoUlSCK/oA8a/L4R8UbSVz4e1jJHVQ1hOGO7tnJ9T169/59/FhMWq3qIoUefIVCAKq/MfkVeCAFyEGPujgV9bkSbjiLXvJwaS3Vo69Wt35p91Y+MzmjGFSKSVkmnbS1lf08l1Wz6m7+x1bx3n7ZfhY5K/2bovii6UqqqrySeH5baRCACQIhdMWyfmJTDHlq/RX9uzxl4a0P4U3WmancWbancX1nc2NvNdSQ/Z2tXef7dMkJ3vCgQx+VKpjmaThWKED85P2PLuGy/a60i7bIeLwx42YKFIQomiWc7NIVJJfMTYBUE5LYwpz4x+0R8brH446z4i1PxVqsdpoVtq9natpS25W4j2okttY7BcMt1Fhvs083yRSSSMjYVi1fy59JDitZdleL4co0ufEZxBRq1HJ/ucLTrKc5RXWpUqQhCMZNKK55q+iPKzC0ctaVuaqpwd9lGyUpa6c1+VpK1nd3tqvk668dWnjTxz4u0uXXbeOz8OfDz+0Ib2H7WobxC+sSR3NqsUkKKTDpzJcgxtIjQKW2Rv5ePm3xT8SrzToLPRL6A6jZaVJa6093awr591qEq2v2d5AwiuJt0sds8Nrhd0sir5eJHYdb8QvB0ek/EnV/Fei3M8GjS6XZaRZaHFdiws9R/tpiLq9vrMTOlvc6PZI9pZRwQvHdvNGrKIt80XzV4yubH4iW2tad8Nrx9b+IHhV7vXNe8PQ/2la3V1qei3h1C3069e1hkvbLS5rexjSW5tYpi0UUsNvukYAfw9QTdSm2vek1dy91LnfLeUm7Rg5tLmbsmm5PR2+Epx5ebmi21urP7Tu1p5a2Tb7bq/oOqfHnw9beC9Q+JV1od3c61D4hTwzCsUs+jSaTNpuq2Taxu0i5jhkmdra6eZovLZbmWDbGzErJXPeNr/w9qXwvu/E2r+JP7MHiC6u/E+nExOkAhgvrGKG/uZF/fKLibR1EFs6bLcJcySSw8rL674e1PwT8TPhTbeLPiL4B1LwV4t8dppeoa5ol7LDqFjpfiTRnaay8RaRBfWz6lpJkaIQ3On3ck/2lGL3HlthB4X4ksNI8TaRqGhHwrY3cD+JPDdtcvqImSysdBk1ya51W3sYLSWOFP7VhvLmSDCgRLE8bQMsxK+5hJxcuWS1jVcZWfNdxdm4tJxcbxaVm0007tO50p2SavFc2z2tdbX1XnfVL4ldHyP8ADr4v6R4M+InxV8TeKdP0/W9I1XwLBNpWkahZJrNvqviS4FzBo995bstqwnt2gupWvv3ccEETRN5k0av9Tfs2XPg7x/Y+Mba90hr/AFPxTB/Z0H9jxyWt1p9ysUlt5trNauklvLAxWOVnZoVEKKE2ZdoPG3gv4dXPxg8A6lD4c0Oa11XU4vC99ZHQ4HtRbaLBNf6XfayHlgiGl6RHYvaPKLWeScz20bMyLsH3b8PPFPg/4X+HZvF/g7wZ4VsfEXirxFdadruoolna2mn6TpllZAW+m2yELp8+qXTG6vDBCHkJhBkZQ4Hu4uVKtCMKcWny7KKW2jfKtL9FK9uu6PXwiSkm7WVk+j1SSu1d/Fa1tb6vy+/P+CTfjLSfhZ4utvh5e3+pWc7y3uieI4dSZ7m6n1hUa2tZZI4BMqCS8htUVgTjMk0zqFOz+jbxFoGjeKNG1Hw94g0611bRtXtJrLUNPvYhPbXVvOhR45UYd1YMGXa8bYZGBAI/DT9g/wAD/CPxp43bxf4lltPDvinTfsPiLw9pIlt4oNZkutSvTfagl3csbi+a2uooEmhhby0N4jSu5IVf3nG1wCBwRlSBwA2ckHJGOeDyCDkdRX9b+CGMnDh9YWpV5lTq1HCN23TbcNEvs2duiv0T3P0/L4xqYSEdHyppdW2/dd3bSz2k2tW7Nq7PwV/aM/Z/1b9nbxVHLp0V9qfwq16Xb4Y1j97cP4fupGd5PDOvucsHjBDaRqZfbfWuLabZd27NNyHgbx7qfhvVLLU7C9a2msZYpLaRG2bWQArkqQEGGwRvOQXBU81++HjDwh4c8deHdV8J+KtLttX0PWbRrW/sblCwdHAKyI+Q8E8TbZYJoWWWGQCSNlPI/C34+fATxF+z34seyma71n4ea5cNN4N8VMqK6Fh5zeHNe8slY9X08Hy7e7bZBq9pGt0ghuluLdf6Fo4p1Iezkk520envLS7Xnu5LS6e25nXw8qT91NJ9eq8r31S2fSzSex+u3wN+OGk/FPSYLa6mht/FFrbg3drvCLeIvy/arZHKsCcqZ4QCUdjt3Jg19DduT0JOM4APIwSfUkkjAODxwa/nj+HvxH1Lwdrmm6tp148E9lOsyvG5Q/KobaX+UPGwADAna6khxjOf2n+CXxs0P4uaBFJG62XiOzi26npcjxFpCoAN9bbGZXtpyA20YaJ2Kuq4BPBi4RjflSS10XR338k9NO+q0OrB1ZPRylZbvTut09HtbS38z219zOM5IGOfU9TngD/ZK7sKMAA524AcucDdySe2M9enbJwfTtjnHLcDOBjK84ZQRkg8jJPPAwTnbjoQeXfMc5wB1BPfGeeD1yD1xkdc7iK8iMX7SKvuqjfXTsk/zVt9PP0ZzShJ3s7rXfdtN2769PVnyj+2jdLbfAjV9zsgn8T+CoPkxvcf8JRpkrR8kAZSFyQrbjtKpvcoj/i1dySM87qSFBO1fl7gcBS+TjJG4jHB5yBn9gv26Lq2X4M2dnJLh7rx34YARZAD59jFqmswI46qhk0xWwR823ADE7T+NF/M5kCfciZH85zw+TnaqbuCRgE9gCOM9fvcgj/slS+l5u67e6nfbXXrfbzPhM4b+sx7a7Lfff8AC/mVf2a7Fr39tf4Z3Ul1Kg0n/hZGsgocwRy6Z8GfHLRMVb7ymZ0bPVHfdxwR9pf8Es77+2/DPi6/DSzLdfGbx3MLh0WPzGht9Jk87aGJG4kgbc/K5+6AVHx9+yz5Z/ac1HWfKP8AxIfhr8YNXtQhMq25h8ByaY06/Kucx6m8OGADPcYAJ2lvub/gmBpsFp4JuZrGI22n3nxA8f6hDBLGwmSEPYWFsJJS43SutnJK48sbUfBJOWHy2Ou8dim76Pe2yTl+G17bdVdo+gwMb4fDWemi84tWffbpro27Jo/Xw4Hbpn16njtk8EnJJPYnvULNkkEMu3IGccnPUYJOD74PfFS5BOMHPIwcLk4PJBIGByMcdOgNfHX7UP7TOmfCXTZfCvhieHUfiNq1nIyRJtlt/CunOPLbWtVwGUXDlgulacC0t1Ir3Eix2tvLJWWGpuTUYLdLfRxez67avfrotdF0ZjN8jcXoklzdNW7ev5W1fS8f7Tf7S1n8K7A+FPCUttqfj7UUCTgShrbwrp86NjUdRdNxGoXGCmk2HEksivdT+XbQFn/GzV9ZmvLu7vLu6nvbu7uJri8uZXM93c3cztJPcTzMS0rFmO+RzuG5QBsUAYGt+MdR1W+vL+/vJry4urlri9uriSS4ur67lYh7iedwpleVV7gBAQikIigfOfxU+Kj+HWHhzw88V74x1NFaK2hinu4tIhun8iK5uYrfzJJrueX5dP05AJ7yf+FYl3t9BGdLB0Xq03rKTteTVmlbVpJpqKWiT5tXdr5hYWpiK8U4tq/XotW7qyld3vpey02Zq/Ff4sx+HFGi6EJZfFmqw+TCwt1uF0iC4Zoba9liQlprudz5en2qK9xeThdsXkIzN+n/APwTq/4J93fhMaX+0B8edPaXxjqIOq+CPAmrotxd+HY7k+ZF4m8Ybw8U3im/LPdWWnIZY9AtJolkk/tBpobOv+wJ/wAE6rrw8umfHz9oG1S78eajPDrngrwRqkC3beG1eGJbLxL4qMsjx3Hia4h/eWeiIrWfhyLy1kluNSeZbX9r7W1EA3NI08rqokmbC7mTdghU2qgwSqhFCqApC55rzq+OlWT5ZNR1SV2lbbfTs7uy7a7v1KWWezlG695tO61b1va993bRWXaytd29oXaBwABgbQ2M4IOAOOM8cY+ooYjg9MY7YxnBORxgemeRxwQCKUYXgH3x0BJz128e56E7eoIFBI6gYyc/TIPXt0B4xj9TXne0XMldt36NNW1++/8AXl61TDXpSu38LS020Si9O2zvbutblWYHawGBkk5HuDg88d8+mT1NfzB/tX6k0n7RPxykMDTSDx/NYnc+4MsGh6Pbr5gGQqRqioEAdsjO0jOP6erqKSW3njil8mV45EjkKkhGIYK5AwSBwflxk5A4GT/LX+0RfvN8Xvivc3cgluZPij42hlkU7Gka1127tY3fex2BI4EjTIIWJB8x4J+lyKS9rVX93VL4mvivHo1rqt2rs+KzLDzVSnUktItq91az8r3vu+mmmtj0D9knT31H4weD4JEWY2n9taz9kSTykmi0vSrm4naV5Fwi2qsZth2tK6oicttP7JeNLuTW7DxxPJcL5tx4SthoFmJDAunXdraSR3b3Hl5jnia7ukZ3BLmGMoBnAP5S/sH6db3Pxlt9YmVWtvDngPxpqUtu6k+e90uk2u6WQFNscSXNxIzBuVBQsgBI/TPxhMJNQ1G6mlgfTbexW10e306UCznuLxvMu5nfY8txNbsVhkjklkjCwkRnnzB34lr20lvyx0e35bqyVr73stEyqMeamn23vo5Wba6baaba6eR+b0fhnx7pN5b6Zf6vo91HC0SrLa6ReQyTSBkUs8k+qXCjewPmfuFzvIRVBBH0r/wTp+2ap8dP2jNZ1KWN7pNA8IQHZGwWNtR8SeMprsws7ERqZtNjZo1B3ARMXwig874rfZdG6hjKvEzHBi8wltwCHaCwKBwCSAxGSORkLof8EybyUfF/9pbSriPdcWHhn4O3H2l3fzXj1NfGV0IpI8mI/vjNdean72R7lkcBI4xXzOcNuME3vLRLrd6K721b7bNaJI9/J4/vlZX0b2Sbu769fdfTZbpXR+yPO3HdhncAwBOeDnnPIwSQpyOQcYowSCeDnJBAJOOc4OMbgMY9PpTSwX1GTz2yOpByct0Pt1PrlxU9iMEknIGccbQBnbhT1wCeck8V4rTWkXbe99VfrZ73Vm29bo+r1W3bvdvS9rOzet303QwjA6be/c569lBHZgeMnLZPHCk56ldxG4dQvTjGRnB4OcfUEnh+SCBkkkdypBK57ZJ6deMDoeaCSVzkY64AJPbvkDjGDjnjPphJylJe6knGW9tFFXStezta6aslfvdC1fupct29ui3s+rulu7aaboacDOTkZIyB1HBYYHUAEcj5vUccuPzEgEY5yCcHJOTzycAYwRkjB5zkhvHJzwcgfLk8gDO7PTJJzkA9xQSMYB74yT1x0ycnPI64OCAPvAYclrdPpZJPfmd9Vu7dNVpo2uhZd00/O/by5r69LLq3oKpIG3bwpYMeByTuIJJAOOuDknOMgBRTSGOcHI479eMZzk+g4P8AL5SuWBxzklgQAxxjrgluOoGCQcfQ5BjBBI5HBJwMjGBgEjPQE9/wBDd3Z+e+iv6dN766pK/XUq2ivrZLr91+t+3XS4487sZ+nAORkcHJxwMc4JBBOMmm4J5JABY5Jzxg88MTktgHHGM7ScdFLA9eST93jA5OMMGG7pzkemTk5pOc8n+LpgjBwQpGD0xknBU4IHOTitdO7TXlfp+HW/zSFfpu11vt+m3VXdnquoA8g8nGORuz1yPmHUYyRg5OeeMYDkk8kHGCQG5Oc5yM8YOOpPfg8BA2CR83UnGAO7EjB5zxnqF2kYPBJUDg5xx/sqCeOcg5HXPpzntg0tdV5LZK9l9/on0aa6in6X76vZefZd9+ndI5HAIXHUHjn2BHHGPQegopCH6pgqeQSce38DAY4+v14oqXu9ZfKUl+CjZX3stFcpLRbryUnb5WdvuJcZ64/wAf8/45zwKaRkjOcA5wcYz/AAnrnucZz2A46eNQftB/CC4GU8a6VgrnLSMv3sheqjrjIPTpV9Pjf8K5vu+MdIByOTOF6gdyMbcckkgnA55BrzqFZqrH3la9kmnq3dp26t21i7a2b0NasWoSTTWi7W3v+nfc6jx7IsfgzxXK24hPDmsu4VQWb/QLjcAmSNxGRgY3HgjnA/n48VkprF38xYrcuuGXG7DL6BiAOCuFO0BTkE1+2PxH+M3w5fwP4nhsvFmmTXl3ompWtlFBJ9okae5tJY4v3SEM6qx3N84yisOWIr8PfEN5FLqtzKrb4ZpZXDuAoZSxKhdxIBJIAxyQQBnnP6Hw/Nck5Py6JSfupOyW1m9UteqR+e56pe0jvduTa1tdy22/l+fVaXZynwQ8ZR+A/jxrPi2WRI0sfB3ju3trhmHl2+o6h4ceHS5pRIpjWEXscAmdtyxxFztkzg/F3x106OSw8f8Aw0gTTrHV9l5P5txdg3uqXxQ/ao7e4VnM90xKXCReagdAUtgrqmfv39lyy8EXX7QWrXPxCbTIvB8HgnxrbXsOqEixu7m6h0q0hgeJo9slxHZNqBi27ZEJZ4QXXNfHP7aPgv4deEPGnijx/wDDf4lxeNfDkX/CSxweGoLaNdR02+1PRLi2gtbq4/s2Fp7PTZ7+O5025sWW4mNstvcTNKsstfxV9I9LEcVUVzwmqeHprlcryi5Sk7tbuLaT1vZrtc+fzGX+yUVzQS5mlDmXOnvdJ68rejlZpNW2sz4IvfF/jfwh4Dnufir4R1zQNWsfCCapBK0kDz63Y6Xe2cUXiLw8vmpPloby2M0MshlhXesayNGS31p4b1Pwkv8AYVqJbjS/i3q/h+y1zxNrmh6Zb2VvaWZhk/tG21SZLSVL+0voL2KI/bW4d2a2WVnYx/Jvw38R3vxg+IGk+B9YudOt3+H3w/1Y2cmv3Mt9dalounzWl9eSb0jj2RTXeoWyQafsm/1MkxfZE617h4guvClhYeJ9RsL2+/tuEpaR6jazwuLTTYrFwY2tWt47tZLqJFe3kNx5CxKwEDkB6/lzFYdxrRily3b3bs09bcu2kr21atKzinqfMuKTleOlm9Hqm2rta27Naad1ey7vWfA3hP8A4lt3da/JCmsr4nubbTW8tY/I0uzs1/tF7v5Ft1GpzxRT2wjkLC5UiSNVBb558D2GoaNbpa+M9F0Pb/wmmga/4qsbfUNRubHWdP8AD6aj/ZyrdvBYDL/b445re2uDbSsgGZlVtvm+t/GbTPFWnXFtda5JJPpM+l6bJeRXsdjc2Wk+LZJ1+yzLdmVIZHuNDjVGhhdxMAZYmVFZe7+KfxU1LTvhp458GaN4W1TxNfWVpotr4TtdPtbK/wBSfXL/AF3Sk+0XktrFC0aiJXFxLJttVtpNieUJC6+phcLVhG1mm2nGLVrJpLdtK19VL3VbRO2pMW7Rdm0t1p8Scte26V2t1dK9j0bQR8NfCnim61nxXPaeIfEHjO7n8Q2HgwubTTtM8KOqxypbXUIS6Nw+o3NtBIlpJi2tvs6yzSNdCOPxn4i6bFHeaXpWg3erppnjT4k2+oaattJE0PhlY0v76a3MDJEZrCMJHpls17JMoNyjSrII026Gl/DqTV5bPxN4+0zV9L+Idxp/hLR9HtZ207S9L8GWljey3uuyWm3c+oxa7fTaZdaiLmcxfY9CihiaQSBl+Sv2hPHGueA9fsPhpJqWp+ONSsbSfXtd13SdPtdL07S7rU77UDHpdtqn269uZJLbRxpcztAkTJLdv5IIir6/JMsWKqxc7ysrNWemvR6uVnorbbJWXMe/goymoNpLRJ63V2kt7a6u6Xm3e5+s2i/HHX/Dvxl+Fc+lahb3ln4W8LXnhy6sNNv7S6t7e5GsrqCpeR2DPBaSRxi4YrL5lxLLcN/q0SOv7A/hJrWp+I/hx4M1/WJLSW+1fw/puoSPZBxbvFeQJPbY8wbjJ5DxiUgBfNLhBtAJ/wA+X4C/FbQvDOn6RK2ivD4x8R6vc/8ACNeHy11Klp4T0jTdNW61PVtQuoJ5bq9vdUvpmSaFrTbbR+W9u0z+aP6dv+CaX7YGp3GuTfCvx74rstc0zUdL0+XQZxNqtunhK6tpLiCDSDZX0t5p1rpt5bbDafZL1JCIE86JuCv7Z4eZthskzGpha0/Y060lCL5rU1U5tL6uzadk76d7PT7bK8XGlL2V3bSLvLRN2S2TbbfTs03bW370kZUgDGeg7ev4A/ie/tXF+P8AwB4X+JvhXVvBni/TYtT0TV4DDNGw2yW8vBhvbKdf3ltd2zgTW9xGQ8ciqeeUbsEdXUMhBUqGVt3Dbju6g9GGCMHJ5A9nYyBySwGDkt2AKk4x36DjgnpjB/o7D5lZRcZKatFXi27LltF3V3d7vdrZ31Z9T7KNemny9Ekr79VtdRva+789Gfzc/tI/Av8AaZ/Z28WPYeDf2cfHn7TPgO+uZf7A8WfDHxDo9trcFmQTFa+MPDV5plxLYX9qrLby3unyXGm6i8T3UYtGkNnFJ8BvG/7aNl4itW0j9gv47eGtTinhbTtY8SeOfDOg6bbM7jzV1IXnhqC3uLJ4yyTwrcxDYQpdW2yJ/SEQM8qeMYHbqM4HQEYwc8c8jnlF45VRnI+ZgQTgYIbg9CMDrxgYPQd1bHqpT0d3ZJ7X6u7ei8kr7IiGG9m78vTRptWalZ3TVn3XzltdHnXww8Q/EPxH4cju/iZ8PY/hz4lXal1pFr4q0jxdp8pK8zWeqaX5J2gY8yK6s7dkdisT3CIZKl+KvxP8JfB3wJ4i+IfjXUBp+geHbGW8n2BXu7yVU/0fTtPgZlNzqF7MUt7SBWHmSSKGZEDOvoROck9cY254ycDqcZOTg4JAHIODX4L/APBbTSvi7qPhXwTL4H1nb4d0+01G5vPDs6f6Fd6rG5ePULh4mSXzYok+zwvN5yRNJujiZmYHPDv2lSLte6td6eiWu972W4sQ1CE7e8097pWXV+eqduXdW+fnfhX49eMP2jPhX8Y/in4tjksxrH7UPhzSfDWifazNHofhrRfh94oez0+AgvEjQo8T3rQgiS7mlkJKlVrzzU4JHWUsWKZR1RQGIz945IUg9DkHGRggEkVzH7GVrqdp+wNo+t61ataap4t/aFvtU8i4V/OFk3gGY2qzEMqK4imJeRAysTwBkV2lwZBG5xHlVJDBizKVB+YAjofulM5bO7g8j9EyeLhg5u2im12SfKmtXfTsld37HweaT58S7N6xS6aNt2VtNbf8G1i7+ypbO/xL+OGsxSGKfw7+zr8YXbgKskl3b6HDHJkndH5TWTAvtIYYUHJOP0G/4JY2a3v7PfhDX7mZXutZvvG+uW0cbq8gt7rxE9qZZJACMCRXVYyScE4JBOfgD9mm+iTwr+2z4ngCf2hpXwB13RrVp49gSfVr7VrS4+YuTtle3iZc8tjcMEYr9Dv+CXGltpv7P3gKKNGWxi8M6qlmZAqsI28Sz44VurhC0h27dwyoAIJ+Oxb5sVi5bJN36Wd57u1rWs/N7u59NgVfDYZLRq19ZXeyu9NU9uyWvW59qftD+NfH/wAP/hJ4q8V/DTwPqXxA8WabZl7XQNFlsRqnkMrrc6hYWl9NDHql1ZRYeHTI5FnuZGUqGjSTb/M34z+Jv7WWu6pqOoSf8E9v2vdbudQuJbq61Wc6ZJJrM0xLm/aQ+GpHhR+dkBNwsUe1ImWNBn+s8EDjgA8nJHJbvjJHJA6Hv05pCq5yVwMA8ADcMkgHcMcgNnGQQzEHIFYYfEKkkk1e2/W1ruyetu+9mtOrPUq4eFSPvQ5ovZa33V7a7NJ6W0SP4zX139tbX9ZsdD0P/gnd+0N4asr+d7e+8Z+IrS71D+xFIRI5INF0jw7Al0FmEj3HnXsDAhHjZQGWv2A/4J5/8E8NS8K3afH79ovSlk8e3V61/wCC/h/qsQlfwyucp4k8WGWW4Fz4quWZvsGl7fs2g2ccLSG41CdzbftbP5jLiNQsjcK74ITJAyOcttAwFGFBAHAXh0MKxIqDOFCksSSxYDDEncSS3JJ3ZIPRc5HNi8ZOq7XbV1aKas0/TTfW2jS23sXQwdKDclBJNN3lrpqkr36drqSWl9hIbcQhgrE+bIWZnZmOXHRSSAqAKAEQCNVXpwczDAXOd3ckZxkAg5A5AJ6gnAOASOaaehIzgd8nhjk8ggHqACCBkjjruBj5iOgGNu4gDJPI+YcYwM5HBPWog5Ri1qm9FurX+G+r0i03vfXZ3saypRbTVuVNeWm29r733e/e4o4wWAzt69MkgH3POePYfdFO5z0BIJGCSMAfTuQBnpwSevWMA87c5xwc/Kcjnkg8j15yR1B6P55A3EggcN1wBjBwR1+VgTnHAGBik/dlCfxe8k1q0t1fps762623Y6kbxa5dUmtNrJfK3TdN7CHGATgZPU89Q3HTgEDg5GDgAbiK/lF+NOtWus/EDx7qMVqssV18QPiBdSMjNuZW8Za2qOC2C26JIwOA3y4wABn+rMysGmaRDFDCciV2UCT5dzSLhhtjj5U7wCWUnBADn+TDxDcLf3r6jLakS6i0+qXMKxshWbVJ5b24B2g4Lz3DHew3EEgnPNfScP1XPFVbJKKhytuyV3FtbvRJ6JdtLJ6HyOd04xpRs9b8t9NGpaJp/i1ffR7n2d/wT7jlX4keI5bO2cyy+AdVhu7oyp9nsdL/ALRsZLudRMgQy3ESyQJvDEsECrhc1+nHizTNIj8GwebqT3OsQ21tIqQQqlsIYlILJ0Bdyd00y8M2UHOGb4p/4Jv6RaSeJfG80gj2TaJoNnGJnHzf6ff3UscUXDSAGJDLgorKq87a/RL4z6bY2Og397bW89pdQzWcDSBImt54L+8iV7WOVSnkKFzcbPLIJhAGCRXp4ipFYnkd3KSUla2nLeKUnfVN6r/wF23POoxaoc2mj0jfa12rLbRu/bXufBniCDbZ3soiI8mCeQvgn5Y43k5BbII2cY4yeR62/wDgl/owbx1+1h4tZZJJLnxZ4A8KW9zlRC1j4e8IRXsVrFtYrm2udauUfac5YfxZweJboppWqmPb5hsLxF8xQF/eWsyhzzgBiV6LycDcucjsf+CUcK3Pwi+LuvrPHNFrnx08YeSqKwnhj0eGw0jy52dVV2L2jNEULKIyo3cmvnM4d3BXaXNaV/NJtt7/AIKz07X97J0udtraHvP0d91bpvb02ufqWQTkLwQcgkMxHAyTg4IJwScDkYyBxSk5HQZJyOeAfmUrzkHH57iMnGVKE4HQdMk54I+XG4ADoDxjPBPbml2jBGWC/wAOGI45IJAJBxuOc55zg4JB8m9leV3/ACXu+uy7KzT1S6H0atdaLRLW/WSVtXrtp16LawZ6ZPOOnB/LC89CM4z3yOcoRkLyQAGK5xnJyeD25HuMgZGMkKenB65PUjt2J4GQTjJHoOSDTTt4BDAFuCCTjOR97PfJzznpk9KULtye0ruzsrLSL72d1dafnoVLVaNtrRO6b0ezb3tfr5dgAYsW+U4ySCpOSSMdQB9c9RnOSRlcZ6gcdcZA4I6DIPqfUnlc8ZXPoRyeW3Y5Gc9QeuB3JOTwetHHXkgE9TgHGT26gkAfXH4tt93Zuy7u7er29HslbTQW1011en2t1Zp6XjvpfTfybQoOTg4xgEnPTuSM8k56EkjI7UHJXPQ4BJB7YBB+ViGxntyeRnrR68sx4GS2MdtvO3PTrxyAAOQKU4HfPAyAxAxjp6kd+c9M5xzSu0t3r0tdNLbdWtpvdaaK6YWu29LP7tNFv138rJa6gMBSQeBk4BOMZPJyT3YEg8gdOpwjYOMlsfQD6HPGMjBI5APfsHDOMEEjockHPXnOPToR16gcA0pOBwD16A888nru498HqM9a0i3ytvV3ellb7KVrvpvrZajumtOi6K+tl0X5DCFypxjnIGVOOeuMk+w7jHtQSAdxGWPJ5IC/L1JJA5z74OPc0meR17YO4YBPQZGeQQOB7EAA5pwGdvORggEk9eSTtcA5wRjjpt64qtbK7W+yWq7arT7vTZInTXRO+r2372Tu/JdBm12JKjgcdM/yIAPOSMcEmipA0YHJOfoR29EYD+Z9T2BSv5P70vwv/XzLUnZe6n58sVf5XP4hPEVl8W7WbTxb6zqsNvrU9vYBzdXW2C/lQxrBHJGUVBPuEsfmHjDFcJtxrS+FPjRBpdpef2zrE1y4Kidby9tvLK/KYjtnJleORSqtkPzjAav308S/saaXbRXEiQpFDfTRuA1q8i297aJEsFxapmUeYZFCkhVyi7sAgY2fAX7KUeteHLzRLyOFb7TirxPJAUmfzFLLPucsdzP84zgnOA+OvkU4WV2vhbk3yvfVXSa1s7pJvVvTSxvWkpKSTuktVpbXltJej3f4H4YfB3/hbdl8QfDtz4n1bVZNFsLTWm1OG4vrq7tXFzoN9Fa7I5XYSOt/NAsW75lxvGMZH1tcyzsskjW8kkaAFJTDLslcnBOQuHw3J24xkj5dua+5fGf7H0suk6jaXFvJbyxQ3aT3Fo93Y3Swxs/CXVm8MsDttUrNBOkgYrsdeDX4x/Ff9grxf4a+I83/AArj9tT9pT4eaVPYx3+r+E5vEUXizT9DeZU+0Q2Uuu30DXlkbhWWJtSDSQI+DNIy7l9BcXZdw7hva46bhDmUeblbd3orcqc+aL17KMXqfF5xhnUmrXa+He99Wrprrf3r9Vpfoe1aVeQ6Nr2v6hqtzNYWkGn6zfkSw/NctBaeZHp8Ss0ZinviqwxP86KzglWTJPyLrXh7Xfip8ZPD+k/DgaTqXhfxzc3XirVdJb7ddaz4T8P6Ra+Xs8TXjm00bRZtSD3FxD9olnnW3smdwglXFbwn4K+Mnga68R/CT4ofFu3+Jvh7VNd0geDfGviGwiufFTRap9qubt4dT8PRWguhEtpGt3Y38V7BA7A2bKzAN9OaX/ZXw78HWfhzwDe+EYpdUniHi3Xtav77T/EmvzygxXaRWdtGIBpNkFktrWO4vxdXfmyvIAqiM/x/4u5zhuIOKfr2EcquHnRowjOMX9nnu17qe8k2mru66qx8njsFJuMV03sndbJ2Si2v8tLPdfOXi74aeCPhfqFr4qsrjw8+rpHNaavfmMS3EljO6WMi6fqkCossVvcxIs8c7vbzIUkB+U7vnXxf4i0SbTfEeqQx2t3enS7i1Go2EK+dJZ6E1ztnllRQl1/Z63zoXkmbZbum7fGiCvf9Z8SJb3Xiz4fXllpF7J438A6pYXmmX3ka3aRa5bmfU9Iv9MmaWIwG4uIba0leLPkQXcmQQrsPlrxf4ch+A/wr8Y6PY+Mrzxfb6vex+JrYeJrC1tI4o9RstMj8X6HIlixF1o8H2G/ktIIW3CIxR3DDe8lfmn9k+1q05OEuZy0i4y5rNx11jolfVLRtLazOGWVzlK6jK6Tv7t3ZrVtdFolonrruee2Hw48C/GHwfpHibwZp+j+HPEnh6ONvEstvcTXr/EjTvCckNs8FyJWvYrHWbDWdVW6mlRIY7u2nnggt4ZYE3df8WdT1DwVqC674G06XxDqUWsW9p4gXSZJL7VdZtzah3udN0LTUM9lDDd2d1va5V1azgYyeSwRk560+JGjeG/ix4as/Efg2ytfhj8S/AGqWei2+j3+meFI/CH23UdOuLjXNT0uOxtrPUpp49Pe0t0neye8vdRdmu90MbJ5l4Qlvj4w8aXfhHVbOWxk1N9Jt9Yk8ua5ktYJ9XVdGt4Jr67tDb3VhcTPNJa75JhG8kjMqRlfZWSVFGUpU5ckI31Ur+7ok3azjZt8q0tpFW2hZVOzfLdabxdrO13Zaq1r9Ena3VP2L4peNm8SfDy18QQeL7zSdW8P+ItJubawuIp7e9nvtRtrq2ltL63WR7hbODT1cpb3Evls7oyvFJsNfFfx/1XxRqd18Pbbw5Oghv9Hudb8T6nJboksuozX40nTIbmdA0lystrotzMsEkjCBUADYkJP1r4k+ER8SeEdVujrGmt4qS0GoWekz6ELPQ5r22MNxHo8qW11LM0gt4ZIIb5APLlKHGwGvf/hl4D+FHiXwNc+FPiH8NlvNcltLOB/E1wlxaN4Vnu7e4aW58N6nPNIl7O8bqk00lqkVtDG0MKpJJvX6HIqMKFJTUJy99xVou97u6Wml1bXS60vqethcDKNNNJpX7P5K3wp6vVdddGkj5L8A/s7fEPVfBnw98Z6T8X7W+8Va/qQtPEfhq58OQaR4b8L+CZ7G5u4Z7jXmvZ9cvNUj1GO1a9jthDZMhFtFaAIrQfqz4A+J+gfAS507SI9Ti1vTrvU7Cyl8Vx2UVpJqV/a6JbztiOKd3ghjCTRwRXM0jqiwIzedK5b8+tY+IMHgPx5r/gSDVLKTwB4ct9F0XTNe0m2kj0m41K9sLnXH07UNSeGKWTVLLR2017ll3Ay3MiGJXXC+g+IPHeteH9HsbDw7Cktr4uaC0meaKFpYmMKXtw3l3e6YgRCLy5FijcuQvyjNXi8NjFjIOkpwd+ZcsJRbTfNF+6rprRdX5nXSp1KVdRXwqze92lte9ra9d2ld66H7zax/wUf+JHgbwNa+LNF/tXxroOmxWEGr3EF1pSy6cbmVILZWg1LyjMY1MZnZPNCknAIyF4ix/wCC0erXAUXFvqlkxLDJtPDzSA8t94xXCNgDC7A56EjnA/N34J61Z+OvD2t/Dq4uPtZukinzdAySOSkciQQrbtDA8czllR5PMaIxtsd2K7V1T9lNvtctzZ2EylXt0SB458hXEYOxE2g7SwKsyjG0g5JBr964MxGLr5ZD6zOpKrTajJ6trl91L3mndPTyWt29D9GyZ+0w7lO71tZpvy62eml/k1dbfqjZ/wDBZh0KGa11GUpsSR77RtLhjLPyDG8FwEmj2kuGVIeq/IzNit1P+Cylq6FwtrbIscju9xpCjDx8PHuV8I+Q2UkRnII6ZG38mr79lC7NtHDd2c/mzttdoFlCfcCcblZVAI2lsD5zvJ5IriZ/2XpLeykhjjuxPJC0nmOsrxqAmEWQnhivzRszKVdlBJAYFfuKXPp8TV1fte9rXvbR/hdaaHpVVHVWWkVpaOjb0tbfXrbZu9mz+jv9lH9vXxd+0N4U8V/E64g0Oz8DWHiRvDPh23jsGh1HUJrOCT+0L+eVrtsQNcIYIYhbK2ImcuchBD+2PLP8XfAvh67kNrDBJY6xPOtvIVWT7Duk+zhJDITvAZWBlXe4jAA3HPyb+wZ8HYfB37JPwr0yB5YWu9CufFeq2qsJLh9Z1nWdSvJknnCK00Vp5xto8qjGJEZtzZLfVPjbw7HdeH7W1kN68Nj4e1y5gtEQC3El+8MAmllYsRsIGyJFXeGMjgDmvpMvi+am21yq92rta3t00eu+ltLPt8/mF4xmk0l3T08lonZ9E1s9O7PlnRILLw1+zD4D8DJbfZ7vSviFquoXCh44YgqeD9OslJtyTKsnm3QMSq3lrGsjZdSoPkk13bYk8uYErtLs+d2wqQNoBVeuQpwVwSWJwCPfPiZoVxofhDQL6aNTZ67rGpxWTKwDQNpWn6XbXc8ysjZEimMR56qvGTmvnSS5jaMt+6ZFTYBzvKbWBzk42lNyE5ypzuwcEfpGCqQhhOWz3d9VdvlSvd6OyV7+ej3PhMVQnUr8y5m72W/RtddmtebuztPgS0Nt8GP26ZswwX958JdHFlGJY1kubaPVfEY1SSJDywilm08TSIG8tpolchmFfqr/AME+dKtdM+A/gB45JGmbwdaSyxvkRxNqGoXV3IkcecFSyAqSNx3N90Ma/DrwtqGp6X4Y/aAu4QraYvwo1KxnSMuYGbV/iF4As7WCVgRkzRi9Q4C7hvVQCzEftL+yDeT6Z8Evhuscu0/8Ir4WLltys0k8F3PgDcxC5kU4ztO1doztNfGYuLnWrvld5Tas7NNNu2i3XLZvz2Xf6jDN04Udb8sej1Xuxa7ad+r0snqfoyAOpHPrjGQT0PAwOmVJJJHfilK9yeh+XA4GD7dcfLnBwQei14V4j8bajYzqXu2sI5Fl8mFJSlxdSRQ4kOwMZIYlaUFmBALBMLuBJ4fTfiprFtukmuZWB2qUnKyhmGF25lCnBBJDDliDk9McTwM97yvbs23tfl/LTRp7aNnesba99k91Z66WSXTXRvR330PqzB4Y/wAOQPTAwPyBwM7hjAJpdoBH3eOeOD90g7cjHHpjPJPpXyxffHu5sLjU1VbS4Gn2VncmKaLypy000UDhAjorKS8hHLY25A4JHb6b8Z9PulV7izWNGZS0kcuwAYVs4ZSd53AgeZ7E5yDccBa8kr3T6q/a23Xd+nmCxrly23v0tpa/Rbpq/wA+yVz3A45wcEjJxkkbSBzzngEE4zx156G3HUjGOMg5xx0PT5QMHkYJzgkk14/J8aPCUSrJIt2R5whcosbhG4Adj5pwhJIUkHOwnjjHVaN8QPDeu21xd2N2xFs+ydJInjZDuYA9cMrLghlySMbQCcBSw0t3Frl2b2T8+q+aer87q/resXd3bdk7WfbzVvNXWr1Wq7TBGfQ7T1DDAxn6jAA4ycDsMErnjPGByCcnpjk4xjOMn8jyOcO28SaHezpbW+o20lyEVhB5ihsMMggNg7io9uMELzxtiWNx8kiuQM8Nu4BHJwScds9+QCOax9im1zXfvJLmWnV6O6aeiTT912S6XNXXupN2bt6KzXS29tr+m6Zx/j+91Ww8Ia/daPb2ct3Fpl+xl1C4a3s7S3W1na5vpzGrTTJawI0v2eLy3mIVPNjBMifzHvFpEVlpsjQyzSTabZu8sszyB/8AQo8LsSONlbkEjd8zZXcVFf0OftM/FXQvhZ8NNWk1lLmV/Fdlq/hjS1tBC7pfahpF4EkmE8sB+zxkjzPKLShCNi8AD+cK71QRQW9vFG062MMNpHJIqoZUto44o2PlnPmMFU7AcD1IAr6HJKahOrKS0ktNk7pK2tt93by77/L5veagkna7ily7Xlu7XV73SfSx+mf/AAT8Nzqmu+P20/T7a1ttE0/SHvrmAut+BcW2pm3iRXkkDeYFaNvs4SSMuCxY/MPvX45arGPBFlZMlxF593Y3McdxEyMIEglm8uYSsZTcQE7yCQV2HcmVJHx9/wAExwbjw/8AFXUTZxia58SaRZNOGYFLO10YzRKVYESsJ7mTgHIDZY9z9W/tGajanS9I024aOTULfUpbmPbFNEq272k1vGfNLGJ5N0hQxLkjJPyrhTvVqJ4zlkk1C0oyurpODSbVtVzPZtNJ2StquelTaoJpNLXS1tN7/kr6/m18J+LboQeHfEd40yfZ7DQda1GSaUBFS30/Tbm8kIJ6BIoHKhiys3yjkgV6p/wSCspB+x1pfiGa4a4m8ZfEH4geJWGzakX27X5kiRU8tSHZEWSTJk+dyEIGVHzP+0Te/YPgV8ar4AJLpXw18SajCplaINJFHBG8LlWDskkMs6FFYs5ODnkN91f8ExdCj8P/ALDPwCt0Ll9Q8KS6xJ50IhlaTVNRvbhsrj5lKldkhJZlKsp714GcOPtoRveN7tdbKy9O176J6+R9BlMHGD0ts2mt29vO/m9NL6o+81Knb65OfmAx2PBIzxj15BJINSEA5HHvg5zwO446fjz9KaRlQME57HI6Hn7xHGAck5GPUgUKfpyTz6kdCfqAeQSOMZ7V503dK2qu9Vrun+m/n01PcTslHfrzJXV9ndpevo10EYcKQOARnrwPXgHJzgc8ckmjpgnAPv0+7jjBIB4GScE9MHnDm6e3U8gHHRuTj1zjIGOp60zoo4yNuQ2OBlsYOd3PQA/xEj+62XHbTa6a9N3bfW260s+pL0d+2ujtZXvZ303bt59w2gn7wByeWGRz05IHY8DJ+XHfNAAIGM9DkgY6kKeigd+vHHPJxk4HOM5OfXGAO4Py49QPfHSnYHG1R8o7dDk4B9jwSSc8gAAdTL3dlpeXrs9Vq7avRWs1fW2zaurXvbZ6a6O12tUtd9Hor6CZyR0yCTkFm46ADI5HGMA59QMHCNwcHgkDB6c4HXBOepGccDPocGQcgHHpkleMEDI7YxyM/e4znig9GPBDbeNo55Byx3dSCBhtvI75IDUVZK/RdE47evNp0VrJ7aIXrayVtdN7dFu9Oml2lvdgxyeGIJ4+mMZ6jJPPU+wOMk045yAOckDG5s8ZyevB/Xk444KEgbScYPbBOF+XIGTt47ZI7BeadwOensPTgA4x7dugBJ4Gam+lltqu2u93rp6+9/kb7Xs9EttbvqrOz2l1bS+yMJUn5QTtGR+WANwxtxyOMknqMk5UkHGcgYBJyR1OOME84x+Tcg0fKvPGG3ZzweQfXGOSc+hHOCAaUEEnHX8+RxnhiMkEdQMcgE5prunZfeunS97J6Prqmrjttomklom2urvpbX9fIUBccFiOx3Ecdsg55x789RxRRg5O0EjOM7eOMDIywOD16cZxRRzP/n3J+d6ev3tP7+wuRvX2k1fppp+AwxRSKA6I4G0jcoIz6gYwCMn6YwM8GmeTDGxkjhQPtAZgqqxAYYXeBkqBk4IOMAcEZaXPQ5XBHXIGTx/CVHHPseoxxRuU55HX17f/AK+OOnPfpySxEFaK5UmrpXS19L7vZvXbRLQ1jCevm5La1k+j3+/d72RDPb21zHJBcQxyxyqVeOZEdXXqQVIwwHfOc45xXhviz9mX4FeN5r648R/DXQb251HYNQuoPt2lXV4IwEj+0XGk3tjPL5SqBFukOzHyFea91cxSYVhu5yAckA4Iyw+63XAVgQSQBzyHLxkAjrgA44x14HOMfrnNcGIoYTFw5a9GlVhzLScYzV7t9dOnXd2fR35K+DlUauk7K12rO3a+61+/o1ex8XJ/wT2/ZFi1GDV4fhMsWrW0hlttTTxt8R1vYn6fJcjxiZQoxhY2JiTOAgBNcxqX/BMv9jHV3t5dU+Ek97NZXD3NpPP8Q/icJrWWS4+1SmOSPxmpZZZizMsocEO6AjJNffOcDOeOmTyBk+2MnPHT2A70HI4DKAMn5uuMdcAgADA5/DnrXmz4c4erNOrleEqSirxc8PTk4vdcui2lq2m7/I5J5WpNScItq+ySv/wy7u+t+p+X5/4JA/sMRa7D4k0v4Ya1oerwSLLFd6d8QPGkk4ZOIts2pazqN1CkZJG23uIllUmO482JnjNXxh/wSE/ZB8aRQRX2nfEKyitmuDHHYeOLsRtHdp5d5b7Ly0viLa8XcLm2Rkjn3HzUf5cfqSM4JGwjJGMYGM9zlgMckjB59DRxyBgk4wMjgEYOOOg+Y9OTn1rnlwvw/KSksuwynFaP2UE4p/FbZ3TtqtlutERHKV/z7itNbqztva6bat1627n4sePf+CGn7KXjzxJr3iS58X/GbSJ9f8L2Xg64s9M8UaK9lZ6BZahbaotnpkeo+Gr46cZb+0W4nuLTybiUyTxtN5crrXmPhX/g3f8A2OfBt5BqGk/EL9oR7u1ku7u3mvfHOi3CW2pXJYLqENufC32RLi2gkntYwIDG1vPPHIjGRif31wfbOcjA7cZBOOuQCfuggY5PNDrxgHBPGR97P94HkD8iB9MCplwvk8oODw1Lknq4uKfMtfn3S2VtkNZZFKX7tK6Wy+9NdU3q7atKztu/xT1P/gin8IZfDeoaBoHxf+IGizX5iC6zcaD4Lv8AUrUJdpeSSQTadpOgul1ctH5U1wkkbPCXQoUklWTg/FP/AAQ40LxJoEWhp+1D470144JbX+1YPAXh86g0Utu8BVfJ1u0gyI5MhpI5cMAU2N81fvTjbg7hnG0biBuPB64z3ye345ym4gA/KAc478LjI4698beh4IJIAVPhPIqKUaWDpwitbRS1a1bSvd9/WyXUI5W0uX2aV3e9ra30sr8rvZ3V09tmfgH8OP8AghD4P8D6Te6Pr37QusfEa0uriO5gi8W/CXwbdQ2E8EU0MV3ap/abObwwyeVNczSyzSQqsfmKhIbzb4kf8G7/AIR+JVxfz3v7U3jXQI764laK00XwFpaw2lvKwZ4rCSbxQbrTs4CbbG4t41GBEqMdzf0igEg5wSe47HByBwcjp1I44B9VO498Y7464J+uBjBJPHUk9iR4ayv2jqPCw9pFWi32baunfRtJLTZ9lqz+zVzJumn0bcbvVvfZWt3677K/4wfA3/gjx4a+CWleFNFsfjpr3iix8I6ZZ6VZDXvAumSX1xZ2k3mslxqJ8RzXpd/mXeZX8pcBAFAWvu5/2T/CV01u+o38UpiSDzFsdHg02OVreZJIj5SXFwyKFURsZJZ5XwGaQksp+sTnGeM465xjGfUZIPXr168Zpkbl2kBidPKfZmRR+8IRH3Rnd8yAuFy2DvVsqcZr18vy3C4FSjSgoRk+Zxilu7tttu2/66bM9bCU3Qg4Rdk0n5u+7V/lHTZXtofMN5+yv4Dv2vJLqysBPNGkdrcQWs8ckbLIHZ5kN08MkjjcpWGGFNrDCqwOeevf2P8AwZc28kEb2aGS1W3Zn0yJidvJkVkdHiLFm3BQQFOBg4YfYZ7/AExjt9OcjnOMHr0ORSc5wO3c98/TuPdcYwfY+nH2VltdStbljZq3e+i2S01fW7ubSc27vVW16u916XVtN7/mfMnw6/Zr0X4feBdN8GW2qG4Nhpy2Ed39kVI1KbtrJB5hYRhnLBN46kFskk7Gr/Aiz1LTbmyXUo4p30mTTreVoJljhnl8sG9aGG4i890CBo45HaIsVJVjzX0Id2OgIzx69s55wQCc9iBnk8KEyeQcgY45IJxnJyOnB9OOo5r0cNVUHGKVk09XZ3UrWsrqzvtZPZ2214MVRclonZdUlpvqle/XS/kfkt+1f8APjjd+GfBnhz4V+FLTxdZ6Bd6vqOrXX9oWtnLci6aMRWGnafcOsi3L7I3M0t0I1EJRcl2cfBtp8Bf2rkjNvqPwN1iIvMbeO0Eti7vNLwj3E0F5JHFaoDt3+c7FiC5UYr+lVxkkfUDPOB17YHPXtz15rF1vX9H8O2E2p63f2umWEC/vLm6kWNVznEaKwJllY5CRRq0khPyqTX0lDH1IxVJUnUvolFyjfVJe7FO9tk1rq/n85iMKlK9tNddNFfZ63Tvq11d1qfhpo/7F3x/8L/BH4w6LqPhSy8QeJfiJoHgGfw9baLqkUk2nX1l4tg8Qa7peopfLaKj2EVrb+XNE0kdwVMYZ+tfoB8EfCOtfDP4Z+Gbbxlpx8PvpHh/w3p12dRaG3hsp7LS4obiJ5DI0eFunMauG2uwYKTwTa+I/7ZfhbQLe6h8LW/224VXEWoaipitd65G9LUPHPKvQqHaLfjABztP5mfFX9ozxj49mml1TxDqV5brOClmG8vTogDhBbadG62kQDFCJBG0vyZaSRgxPdQweIqvmrUYU1J35W5OdveaTik0rXTTlJSW6Td0sJVeSPKpN8radnpok7Jb33Vlsr66M/SbxZ8Z/hLp2q3Otaj4gtNREgwsNtayXBijEZR4FaZURC7R/wtjBLZDEV88az+1f8Mbi8A0HwvrdyYZCIVu3trOGeTefLHk2pv5ZYmkxxuhkbAUOgYV+Wnjn4g6H4L8I6h8Tfin4stvCXgDRPOl1HUdUu1iW6eONpItP0qCWRft+p3Coxjt4clOXbagYH+aT9sH/AILSfFjxjq114M/Zs1TUPhL8N7OS5t7XWfDNx9l8deKFd2jlvtW19YTew2jxiNbWws3tooFlkkjCzLFIOmeEs0ktYxsttHbWzej3aXV72aCE53vrZ26d/wA01ez6WbP7IPiV+1d8PvATXGvfEzXPCfw/g1fyzZxeLNfh0y91EwOHS30vR5fL1C9Ak3ECG2aNSRwV6/Omqf8ABXP9lrQ4J7LVviTpiRq4W3lstM1C8hkQmIrKZIw1wkYBfCxxOQYyrDla/wA9Lxr8fviX4z1K71rxP4o8Tazqtyyl9U1nUb/VNQkc4LbrzUJri6Vm2h5F80kjezMWJx5de+OPEE43y6hfzP8AeG6e5DIx65zIoDZJAAwOTu7tULBpbWl5aJ6WdtdWr6O6WttXc2jKVud6pPSys9dnpotNFdJNaan+oB8Ev22fgH8XZ7a78I+O/DfjOxE8N3caTomsR2niA2cUhkZzomprb3zw7UYEQh5hubcGwtfbfgD4o2/i+91ZfD9xpkdlcpMtj4fsrlLeW1tlkdz/AKK8gmuLhmffNOBcTH5d2xURF/ycfhb+0H4++Hev6b4g8M+Ldc0LUtNmgu7O90vV9R0+8tZYHZrdopbWaI7QQSUcOjYAeMruU/2H/sM/tzTftHfCWy8YHUI7D4pfD+eCx8bJpyvp51iJ2j+weKoIIXUW91N5q22sLAI7We5ZLxI4/tDRAWCjJu6/Szau9Nt9G7tdtbIUq007pvVu9tN3Za20a+F277pH9X2gprcPibUJ40uD5UEBERSRBBssllYwZwHLrMgIcOu9OFzhq2z4u1uyh1C8MjxGLTY0nN0zQJJ815NDgLtAyWjR9pV8AgMBgj44/Zv/AOCg9zImneHfiqbXWrYLDZReILdbeLW7cjOJNVQMtvqUQiEcbXEUdvdB0LSLOWLD9WfCPivwP8Q9J/tfwve6Rrdi7KlwIo7eSW3lYbvIvYGTzIJgG3hJkyVYOrFCrnyMXhZ0G3OjJRUnyzUuaG2nMmrp2tdO1nsd1Ctz6Nq+mret18Pk+z66ao/Kf9v7xBrHi/wx8IY9NnDjTdUu9T1mEbSkVm+iWVspClt8zTXUkmwktiMtk/MpP5t7LKPdFNdafG43InnT20bsYzkt5cjKyuBxuVSRnGBu4/qQ1XwT4M8Qxxxa94S8Ma1EgPkx6toWl6kkanGQiXdpMqA7VBCBcgAEADjlx8EPg0jqw+E/w1VkZihPgjwzuQ8ltpOl5Ukk+/J69saGL+r811vezTS7vruu6Wq0CthXXlflvdbvXbte135Lt9/xN/wTysmi+F+vXumRwR2V38QrtdTktopDPdCLStIjtmhuROFFvAzMJl8mVmZlIdNrk+0ftPwxRW/hwbjNMXvGZnnkEgjVoW+eJNkCqm8GNghlADIMKDu+qtD8O6B4asv7O8OaJpGg6f5rzGx0XTbLS7MyyY3yfZrGGGHzWCrvk2ZbCkluQJtQ0fSNVaP+09J07UfJ3tE1/Y2175BYcvEJ45fLPA+YYLYGeQK462ZQjU53Kzd+i1T/AFW/ntZW11p5c+SzSaVlezWm+i/O2ye2un8+P7Zt3/Zn7Kvx61BXw8XgtY5AsmyZ0vtZ0y1NvEu4SSPKJVTy4zuZWbdld2f2G/YyuYrz9lH9nueDTJNGib4TeC/K0+QpI8QXSLVPNdkZgPtRBuiuTs80BlDKQPSfGPgn4PReHNUk8beCPAlz4beOI6tb6t4S0XULC4T7TEbdLm0k026W7Y3ZiMKmGSQzFDGA6qRg/DP4ieFNb1q+8E+C9O0vTfC3h3QNKl8Px2IttMgNmTcW09lY6GoiltrTTTFBDsS1ihgEqIyRFlVvnsZj1Vrx966urK/TV+e/VX9NdvZwmEdKk2kklG8nZJdrPVuSt3aslbbQ9uJGOh5PfA6nkEngEjgY6dMDgAUZOTkDI4xg8Z9ucg8ngE5wAKfjpyevOAPbuSMY9ME9Oe9HscfT/P41287cVqrJJqytpa/4bbbW8yObWyS7LdfK+ml/+H6jXOMe/bnqASPocjOcjAzyBupueADhRnGMZJAxngnjnI6E9OMmnFsYPHfHTlsZGB1IAyT2x7jg7ZHuMZABALA8/MMHgEg427lGMnNJ2ivWXWza0tfra/oXrotNNGl992tbf3U9Fv1EHB6EkD7uQWxnjjA684AP1GSMhGexHTJ3EdzgMdoAGeMEYIznjghHfGRkZ4C5AwW5xnr046AErk4pCBxwCSeAByVGegwTkZ7AfewSM5p2Wjla7s0lZJ21tp1Wzd7b6O1nLVkt+z2Wju9bNPXbZ2b8rB83JJOMtjoSAcDrnHTJHA5C8A5y4AjIBJwATu4ywGQeCQGBxk4IzgEc0vYdCeSeCMYAwRx1zx64B4ppOADt28nJGD/dxnkdMbTj9cCoUm37rSau0921v11faL7K66pNR91u7bdtG+ltn5KOjejb1W4hzyBkHgkBiT+HBGBg5A47kY6qxbuOuCBgkHA6HafXgA44Bx0zQeTnOTg8YOQBgdQSeM4OAQCOQCQaXvyCDnnHIzjucnqcHpg4PPer1lDmteydpdW27q2iu9XdeTfUNOm+jVr2vrZerWj1vpfqKD9emcnBHXpx345GMDpk0vt+vf8ATj9P0pvOe7cDJ4/XvnueTnJOOadz07evv9Ov+P4Vnfrfy6J9rWWivbbtqgSd9NXe+mzdrbp3Vtbq3Ta2o3Lc/L39R/n8/wCWKKG354iLAcZJHqfUcfT1zRUtO73++P6xbBp33h/4DH/5IoSTMVyu1jxtXOBjJIx1wM5PGBnJ6kmq89xJFEzxxmQgp8m7+E/exjgkcnBx1C5J6/xY23/BWH9ou5tpTD8SPGepW8RVJryy1e4ZzOzbnKSWLiWEtkhYt8VpEAoEaAnOrN/wU3/aE1e2+wSfE74hWF2CPIdfEupQSz8Aq6PDNFDKCg35ZXkQ7twyA9fm9fP1GaUdWou2sXd67XVvhSfe2p93Q4axU+W06LjdXTjU1V2mrK1krb3vd2Z/Y/aeIdPuL6Kweez/ALTf7R5dtDPHcXCQwMoleYIMwbW2q6PtDSYVSSOLF7qd1Hf6dbQSWixXU5WUT7lmeGNJDMIQMASAqGViNpXcSejV/FpYftu/HCwnl1HTfFHja11aQsslxpGsazZ6xcoWH7pZ9JuoZ5RMdrtFI7I7Zkl3MMn27wv/AMFS/wBo/Txb2t14n8R6wLON3ki1jSNJ1a8iDRvE0I1e8sJb+2ufKZ4/MF2LzuZDisKHEkHeMpO7knvH731vZbKza16HZU4UrxkpQcJQlBrllCfuza92UXdq0V72rv032/rjvdVhRLq2S6EdwtvI6yBTIsJ8o7ZH2huVJ3KDkuchQelWNM1GC9sre5t5TLFNGu1iCjEgANuVvmXJ+8rcqcg55x/JTP8A8Fc/H/hyd/7T1y0jkvUMMdn4j8Pa5rFvmOMvuZtBuYL0yxr8qFpCkYyVTnK+qeDf+CzfjvVvJh0+/wDhS8emKFNhBY+IrWVHnAD/AGtNQ19b+GRw5kxPEzRKR5YBAI74cRwcnd6a/BJvTzdtezt87HNU4arqHLBNy5ruUo2WkLWSXve9K1lqo6tX6f1EXmo21jbS3d5NFb20A3yzSNhI0BC5c8ADJGW4A6scE0j6hbRgGS5gQOFZC0kagh8bMFmAO7oCevQc8V/Npf8A/BaXxVZfaBfSfDG0cGKJrbyLxSpkYLsmFxqsUjecf9UQY0YswBYYzx+of8FbfEutX0tzc6F8Pbm2SzaN2uZfFNjEIWVWSVXtfEKwoihCsbQ4KKzMDlgyuPENOcrptu+l29nJKTvbW7s2mrd9Fc51w5i4RbrRUN3eDUm9LdWrWkveabXK9bNM/qEF1ESUEke4EgqHAOSNxBGSRgAD6HnvVSLWLGYyLFfW0hQuros8bMhjyH3KG3AKRzwOMZ9a/lx0f/gsDcXpuYrfw34NuZtMdo57yxvPHu+HcrK4NzcajfpKrKRE0paQBWaISAvivYtF/wCCqUEljHLF4F0SItGskl1Y+KNSDMhC+YBFdaZKUAXJZWDOgwm4BiTpXz+nRTlPrr8Xy0urLlbT16Pa2o8Pw7Ou5RUmrdVCMlfqtJdb6O9766po/ooh1mzuZmhhuYp3RXYlTldkZUFt23BG5gAASSMnJwcaCXCOAyMpU4IORnnBGevbDYIHuM9f5+tJ/wCCt3hiN5Ix4K0R/JAi+1Q+MzKwlZQWguoY7BEtpFVshLhchjkRqTmtw/8ABYPwvJcQwab4V0iOe0uAb23i8W2zKuyFZRG6QaZNMW8ks+2TywF2/wAJyOelxJTlK0pK6vs213066dNbX13sa1uF8VD4YTVrL3oq2176NvV7aLlT959T97BKEPX2AAGenIGM8Yz0OcHkYHE3mHOAVPtnoBk4Bzg4HAx68Z6V+Iui/wDBYbwA0JubrwJdahslmhJ0jxRpd0NwWJj5qTWkDRSod48skbY/vAnp3un/APBXj4OXPlfavCWs25kieQRxa3pdyysSihZNkaRxgE/M+8jg9TjPoUuIMLNO84300uouK9ZJd1JJaWuru551Th/M07rCzmkleSSd32sndPVLW33WP16aRf4flORnPfnpgY6DIIB9TyRTWmGASeB0OQBz75z2yM/1r8ytL/4KjfAe7SJ73SvFNmrxhi1v/Y2pCNyOY38rU4C3zHAYAAjaRgNisTXP+CofwX8i5bSbHxcJoB50P2rS7CP7WoHCAprMixHcedzsxAyACRi6meUFC6qRk9bWbTSW6Vo2be6392/bWaWRY+c+V4eVNRunKastL3V+tvJel1c/Uwz8nLfdOCNxyCAc5+nGPfoOMiUT5Py7SDzkkdMZB49RjGTgjoa/Jvwz/wAFLPg9PambxPfeItOvJLid47RNJtb2KO13Fot9xFqobeRkvEkUmzYNjuDXpnh//go98AJ1dtZ1XxBYRTXRTTz/AGBeXXmWJZUjupxbSTyIpJO9FgLRAEYOOIoZzCpLkc2k2vtRabdnytW921t93d3tfTTEZDiaUHNR9pZK6jGV7uztG9k2rNt3SS112P0dWQMPQk47+w7Hjnnt1696UMDk5znPGOMcd/mx2Od2MHn2+G5v2/P2arHS7y/Pj/7XcxxXkunWUPhzxNBcag8KNJHZxG50eCBbhyNhDzrEShO/jAfpP7enwAvpNNtJ/iJoVrfXFxZxXFu8WqMqNdvzCkqWTpH5IdfMluDGjFWK45FfR5fWVbEUoRespXWl00r6LV2WyXm09NTw8Vhp0KdWUo2UY3d2lq1dJd3fR9mme4/HH41aF8FvDUWqahC+oaxqk0lloWjQvtku7lYWeS4nkIKw2VmqCS6lyWYFYoleR1C/jD8V/wBpDxJ40lub/V9WmuZmEkSwRyyx2Vom7fHbWVnGwjgCuQdwTzZhgzzSFQRzv7U37RqfFD4m67qGnXF0mh6VPLoPhxWd/JlsbIyJJewRMAbc3l2zz78BnVYjnaBt+Ib7XLq5nQq7eRKHkkkeTDlyGBIJGNxB4Zjukxk45z+v5PlSjRjUcV7SSUnJpcyb1UYt3skt7avW7vY+BxuM96ST0T0XRN6t7Lm1vZO9vWx6jr/jS41BmaWaaXLK4YfMWyn7w7CdoygYD51wCccAgecXvxV8N+E4Jdc8SpPcaJphke70+JXkkujApuFhRo4maHznRUecKFj3AbwCQeT1HU5BEYreVl8wOiusoDM2CykcYbfjIB+UcDHLZ+Tf2pby8s/g944bSnEmrt4X10adDcLKYkvLPSbnU7+6cqOWTTrW8aHL7llMRj/eKBXtVaEacL6KSi7LRX0u1a+mrb95t2PPo81WpFXW7Ta0a2aWu3RWduut2z8MP2oP2pvjp+3F8QfEN7f6/Nonwq0nU9SsPAvwy02W3tdHtNHtbua1t5ri0htYN+oXpXz5JZWBJUSsGuAJRy/gb9m7wTpOl20/i22uNT1rxHcLBoz206iDR00oSyX8l1aZZ5p7+SW2trZZo9nmQTbsghW6L4FfCv4u+Jra1g8I/ATxR42mkMeqrJpEV8LxZbuGSIwTTGaGJUPmNPGsoVRNHvO/Bx9+W37Iv7TPw48Ef8LH+Inwj8UeFZdaupH03w3d7tSdNPilKWxubmNDbWt2R5RW3kaNJSZTCSqOw8d1Iymkml71rpvdJpet1dX0srW2R9DHDpK7gndPptflWibTtr272Piyf9nHwatrdX0NhNDd3e63aNp9Pa1kW0m+0NdQ2McYktFidlijEqLHckuY9oVgfF/Ef7MMWrXN3ILGxivF3tZW+nn7Ooso/JMf2xGjSLz5Q7NNsZ1iOwGQ9B972HwK+OGq6fqXjDVfgXeW/hW2uobRdb12WGET63fDULrSkt/PSS1tpo50keCaGbZajb5nzeUh5a8s4NPkuNDaO2OsadaONTt5Lu5v5Yp5ZIo57eDWZcypHA8wRpGVBIFEcBCgtUyjPRt2bW9lK66K7tJ+em+7VrmnJC0oyio620VknZ6Oy969tL6aq7Vj8ZPHfwS8QeHSdSsYTeaU15dWZmg8uUW09q22S3mCklUUBgkuPLflVYAAH9Cv+CS3j/VPB3xx1vwzPdT22m674WvhqVrHLcRrJbwyQwBGRHWOdfOktv3EqFGkVXHzqCul8WfCEUnhePdYa7Hpiz3TFrW38rTYpGMaywxzwqsV1OFSB7kSqbwwS24kYxiI1c/YS+H10nxB8e+KrWJkn8N6f4d0qaER8ta6xeahettcjIkEekWMkqRFJIyE83K3C7tKU1GpaW32Xp+f+K+jVrfeYVMKuTnSasntaWnVWbtpo2tt2j+hXRfE9zp2oefBcvbfMoRUyMDGGeTJJKMAcZIYEZ2jHP2x+z/+1P40+FviO11TTNUkjnYiO6t/M86z1Cz8wSG01CAHy7q0KgFVcia2cmS2lhc5r88NGBmtY/NMPmtGvnhIwxKoq4Ru5JJXefvDBZiWzjrPtstjHZm0iVGxvEyttZRklojzgKhb7zkhcBc4UYeKpKrTk2lJNPSyd72sm33td/munLGXI1dbtap3VrWXZLXq7er0P7Cf2d/2h/C/x+8JjVdMCab4g0/bDrvh97iOWe0lYlUvLR1OZ9PvNrSW0pVXXBjlVXU5+hgAScsBgdMdO/A5HODzhT2POK/kp/Zm/aR8RfBvxzoPivTpnuorK8jj1nRQyR/2zokziPUrKMu0cSXQj3T2UjlQbmIDeBLIT/UPo3xGsPGOhaH4g8MW0uo6N4ktdPv9Lv4JonjubC++dJA8bFUcIsiTfNmGRGUkOor8yz1zwUnvy667JXel+trO1rq+jT7/AFOXU1iIxSV21pJtWVldtX0Vt3bZPpc9NeZIgpJwHZUU4PGVLDcTjqFOAe4A68UxpFxwp77d2FUqc4GOCcnj1AzjvjkfEdhLf6cYEvprINKGk2FpWaMgK8Uca/OzDoirnL8AA1xd1eeI9JtRaSXSTiEeXG6ttvGAGIVclmGVJ5ZiFBHGc18Tjc3UbJySaScbSe+61fW/uvvfVdT3sNgHXsoTjdN3TUvhXVct0+ztdW1vc7Lx5qdhpfhHX9R1QS/YLTTZpJ1hi82VmyqQrBCocyzGUxCCMoQ0pQEYyR4npPjT4e+D/G3w+8KPpRm+J3xBt76bRdMFhDJq2keGo47aXX9QurmKEy6Zo0DWcTyNM0UN5dGK3VmlcCvHvj7+0za/C/S5PCs5sfEPimLw7qHi7VQ+rWum2uj2OiwNqVpbapCiz3M+pazPZm00rRrOEXt45EoQIA9eUf8ABM3wL4u8QeFdX/aa+K3iS+8UfFb4v2tk13qGq3ct7P4d8JxyXOoaf4Q0L7RLK+maJbTXMDPaQiJZbq1d2UsWryMPmMq+KopNvmqJdNLSu3a/RO21l3vt01sH9Xwk5TaeujjzcrTj7t9NE5XeqvZJW2b/AFdz+OMc5HPHUduvUcY5Ham5PIJGeOgJwOfT+I+5A6cjrRyCDngdgSOTgDgEjKhjyBkHgHkinYycEHHGMHB54GQM8A4BAPf0HP6PH3Y0207SUflstt7foz5Z/Fppd9dd769d+26626Ic7QM/Me/fgEkDk5JwMnjp0o6AYxlehO4HggDuD/vH7pHOMfNTcngHJ5xlcgcgA8gHnPJLZxg+py4knuRyCQOQegDYwBxkkAYGemOQNJatWsm7dfhTbu9FZ6bdk9C+l7a/DfRve/y+e17DduSduB1B5z1A9CcY9Bgg9qdjJxnHG7Hc854PXr34x+Ipu4gcY46buPXr8wOOnU5GSOMYC9W+oI4yMDJx2PPHrkdxSqK6jFb8srK/baz6tvbbXfsZtu7V005eTa0S6Lrs2r3ava+rGYgfKpYjbkAbMbj3z9eevYHnioY0mV5PMkDxkIUXCblKjDsSFQOCfmzzjLBSF4E6kEYBLAZGTjPXPXkcdMg/X0pDuB7McdTjk4524wcDqOAOe5NclGm3Uk+Z+7dNNN9dPRXdrvd7pK5rJpJ9dLJLzVlfvbdW1b3GkdDk7iwGASAc4Y5IxkckA5x0DUpxuGcgE/NweBtBBzggEEHnGR2z2cwJ5+bksTknJycAgk4PAzyMZ7HNNcAElcjnOPr7g5ycEnoOuCM4rutJJX15V077LRfy3d7Xu1uJaJfZXy3ejVul7K/V6aoXLZ+YYB6ADp056/MOQdpfJHAGc0oYnHXqQOD146jA25PHLc8dDmmjoM7unJBycjqeC2QeVBOfu9xzSgn5Q2ccY424LYHfpkEjpjGMkng5yfvyu9LRaa0Wq2+G/u2XN692hJa6fJ3V+7b7papq2js07Kw4HrkE88YKjj0+oOQaKQyBCQGK98KxXGeeRuHJ6kkZPFFJSg0ndf8AgcF+Dd16PXuLlT1tvro1b5aM/hsvvBqeNb7TY/B0VsJLyzmtLuO0vdGmtZEurhZrJUktJfKXFqYFV7oiSTerRkBgK2NV+DGt6X4XnsNX+Gui2VxawpBL4ugnZtRgmG7y5pruGeezt3X5/kdI8yfNuwpFV/il8Oxe6nc36+BnnuJxLNdXU1mZXnmcSZUSGPehKnbCE2BUEYiOEFeE3lv47isotNbRr610+ygtrSxVvtTtEoQQx4klYu8rQqQzMdxIOck4P8x4nMZ1G3GtFWs17y1urbrXW99rJp7KyP6ew2CjTim8LV93q4PpZe97r2+Jtbc1ne9z3Xw1+zV458US296+nTQRXEcc9nfNFLDDe20m8xXULouLiKYj91PCzxyBCVZgM131n+xbrmkx3Gp6Yks8940pkla7uZohPKxMoQSkQhgSRtDou98EsRiuB+HXjv4neCNVl1u2skv0FmmjaZZa49ymmzCCOO206T7PFNDiaOKNWSOJizD5HY7mJ7VPjF8dNAsJLK+8XeNFVtrNp9prd/baLbyuwmuFtdPR2gijLFh5cO5Rn5mYgsfNVTEzk+SsvedklLZpbu2tl0ad1d99PRqUINJunK9rr3bfErdUrJW7OST6JGXqn7JnjiaxvPtcc6XM7TmCRXXa0gQrAwjQ8GNS0y7dxZ0GTgqK4e1+E2u6BeT6L40XVdYtrTTJ51klt4Zr68uI4lW2gNxKgdEfcFJd9oyQMk5r3Wy/aO+N72gSy8bat4fs7eB4PIiS0ns0P2dkilml1GxvzDtJBZUQAPx5bAEHgtF+NHxO1TxFp+seP9e1bxNplp5zzaTdiGLTrmKW3ltkjmsrKC3t5BbiYTQvbwDbMiSxhXBJ9bDPFxpNymny2cnd2tZuyu07tK+yWul2jy5/VlVVOUObmkrO1mlu+mr2Sd7tdnofLWpfDG5tZ7bVbPTFsiZ5kSwtrVI/Lij2os22NNoaYExFymWYOcHdzzPiS3l03Q9Q8zw9q01wsZk+1hRIrlikUcbQiFFiRc+Um0l2d1ABZQG/ULwl4A8M/FKaS4/tjxLpsyW7zQwiGa3tbZrwSRLLbzyxyvLJbIwMKkggqkpjJUA++eD/ANj74c+H9VTxB4j8c6z4ueywq6RqT6eLE6g0R+z3Vzdx28V1K0EhVguQXZSA+MkdGGxs1UUpN62jZO7te7tbfrd2vfWzTMsfQozo2hC1tL2imtNbaaWunpezu9bs/FH4dfDzx43g/VbLT7LXNJ0HxVqy6lqNhJBOI7jyW8yOOUmIOIgUSVIWYKJgrqAyqRqp8NPEOi3ZtZdPvZLaPgQNbyq6CUbyhcLuBJKnAyNuBnsf6Z/C/hD4a2NmlrqPhy2utLNvK3lWPlrIGdMRGJ0Vy2JirNGQSV3KBkrj568R/st22va1qF/oviy1tra5Mk9vpVxoizSW7O5ZIDfC5jd3MfyZ8rCBQdrAc9uY4t+xhJNtdkt1vZatvS71TaSfZHl5RQhGvNSVrWvfbRtSlsrrRX35Vrtt+FEPgG6lmlt73QooIJgskJWBs5G/cJiQCzDHBy3zZfGMgy6d8LtL0r7ZDb6ZY2sGpRmO7SG3igkn2koyyCNI3csrkO5yXjLA4HLfsDf/ALLvxX1jxEND8HWNhbabpsAnvb/U9OnvJL2aV9ptLOC1AMcQiR5Zp5TgPNBHECyyMuvF+zT8QrPVLbw9qcXhTTNKj/0nUNcuNOmu9RaVdwNlBYzfZxZkFlcTyzuHiJCxb+R4lLFTlJqN1fSLTtvrZXd1pte0uqV3Y+oqxwkeRyjCTjFPlTWl3bmlHe0ns27aWW7R+NM/hW50Tetrbm1UoLaK3ii8uGOMqqo207tjSADcGUbsL1FYqeDtSj8h9Oge3llJ3+WzqHeTLOFjVeBGRkHj5jjjrX9A99+zP4DitVOuamstysLCS4g0m0SB3ZQFLRSyyYXaoAw5b5Q2VJBPlzfsseGZZp307xJYQRR+bLBLJ4YEkQc4O1mhvowdxJCspVlClsnLE9PtcRS1k3yyad3fRK1tG/eu+r6aW906KNfL6sHGNKHM2rrlildLWV1HRaN776W6H4YW+ha1bX1zDpmiajNJPco13daZa3/mxyFQBc3F1bqTDG8cf715pI4HRQjsQcHZGn+K0v7nTbK71CVwVlNik5vpYGkCMii2ieWZDMg3IiRhmVwQCa/ZG5/Zbnszfy2HjTSojcwGGd7TRNTs7i4SRSssNx9l1CX7TGcggShhgBSrEVnWXws8faHb2RsLjw1qKabIxinltHgEQSRZLeS2W4s57mMuAPPSS5Rhnad+AtdSx/Mo66rRu73u1e/fskldWT0R5eMw1CcnKlGKi0k1ZWTbk7vS6vutrbbH5GzeE/iHZxw6rBp3ix4SkSvDd2WqWDo5VcKkNxFbltzMB5ewheVdscVyOua3458NaxqEFxNfZgAjnhM4kS2vQI3dC674hcxbjHIkMkio6NEcuhA/dfUtY+PWuQyabqn/AAqwaZ9nW3xP/akZlhRFUiWGGCOMK+SGXawHG0A4z8weLf2Wtd8Z6pcahdL4GslupLm5njtLvW9sk0gZ1KxJ4dmjRSWGR5hZUJyxr1MHi71IcvdO927tSSu9b7W2ueFjaEfYuNknHSyWvwt3XfZdb6vTofj3b/GPxqk0+pf2xrxitprhBa3E8H2MyvLLG8hUW4R2gB2xHI42E73JNfX37Or+NPE3iRfEesazcf2F4cso9ZSDykEOoahcsINMtJXITdFBIGvJrdDmQRoWJUkN6rd/sX22j6Pa6HqURuvEd7ZyyXKR2wSNHeQzmPT1mCt5SINscsuZJFUykhyRXoWieG9J8AeELfw4tq9leOUn1KOZ0jkmlhCKkZZTlSmCCAZFQueVGc/tHBeCqY3G0aln7OnZylZ8t7uzut23e91ZKy3vb8e4mxFPD4evB8rnJpJJxTS196731b81py3MbWL2+uGkJyPNkyXXzCVYltpeQBmJClmzn+I5OcVlKUtzFB52WCqsjHBCuNu+XCsFdlPQnBOMYGRnP1vWLaKeKCE5/eeW6Rq/I35B4DKUUEgsSpHDE7M1y+q6vp2nW/2i+uY4Htop5W86QIm8q4XLyfK5VCGPOWIwSlfv0K1PDUoxTXuxtd20dlZrTmT6Wta9nfQ/Jo4epiajklKV5e7Gze3Wy1l0Wy+53Ouv9XhsZprlES4W0wqj5DFM5jOVkdDgkBlynVCV7nI+Vvif4+ubvxN4M0HU7W3ewn0fxXe3T/2Vp+qwI/naPbWi6haanDcWrxoHuo44pYZDIss+IjtDx8r48/aV8AeE2aK513TpLtlmklRZxtA4D4GQqtHEDuDMM428jBHzhefGbxT8ZPif4N8D/s7+D7P45fEjxQU0Gx8DaTrkum6jp5CS6nc65eX0lpJolro9jDbx22pvqF/A6T3mnRxB3uQB83mmcU4U52qw0uviWmr0Ssk9HZvW7+R9flPDONxVSHs8POV9U1CVuknzNq1vvdrXskr+lXvxT8fadmz0jxH4r0yztp2khj8O6tqXhoiZ5GfdjQrjTooogmRsRVhwMGMgCtnQv2jPj7pK3Fva/GX4xR2l7FF9os7jxvq9/BcRxyOUhmGpy3hMUTzS7MMrqshCMAWB9P0j9hT/AIKjahcn7d+wrYtK0zzMZPjf4LsEjEjDa523W4Ju3EFjnAwURRhu8n/4J4/8FLNryx/sR6C8pQGWO3/aD8AKJYsqzRqstxCyOxy2UYk7TuwQM/KQzqmppc190mk2k9Oyaaet03ffZn2M+E8coxvCEXZOSlUgml9ltXbs++nex5rbftEfFbVraPTPFPj7xTr9s7OYLTxOLPVrGOJZGZY/s1zbPbyxgsxja5jnlR8eXIuxcbsPjzVoNA1bQ77wd4D1PTNcRhetfeDdKh1d7dlQBZ9VtZLTUJCTl4VjaFoxgRqY1Ga2ofsJ/wDBT7R557q3/YH1O9HyNHb6N8Z/h/fvGUUBohKmpruVgclvl3SE7AxVq8/1/wCAH/BQDTZrm28Tf8E9f2qJbi3KvNJ4a/s3xTpsTIiqWtr+2mk+3JtUlRF5jqrBN4VQldqzmnJ8ylo9Lu6TtHS2jVt1d2aemuhxS4Xxim4+zg2rP3ZQbatffn5vvj666Ho3hePwBpHht/DI+G3h6ayvdRXVbnVItS1CPV5NXW0WzWaaC4W9tZbdYT5bGJYnMaQwySOkMSj9Bv8AgnD/AMExfhV8aNU+NniGXxZ4i8JWmqtoWpaVYaJYaOba2vri1ns9UV/PjMlzHH5NpNtQ22zz4ixLMVr8P/E3xi8efBm5t7X40fsv/tM/CW3kk+zpf+PPAN3oumOylMu2oasdN0xAyup2i5QsgVkZxIDX9M//AARE/aG8A+Ndc8Q+FtD1Jhd6poRkhsr5IYrxpbM21w3mpb3N1EZFVZFVhJJE6IWWRhg1osw5oTcKjVRRune76WspLW6uuZrVa9mcWMyivhqcvaU5R1s7w2XLe6TVtFq2m76paHU+Mf8Agj38UfDct7c/D34h+F/Gtm0bLaad4gsJfDWqKq4Eavf2/wBvsbiZoxt4ggVXBYn5q/PX4pfBjx98JfEF54B+Ivhi+0HX7W3jvTFMY7mxvLG6DmG/0jUbbfa39kXjljeWBt0UiNFPHE6ulf2WEdT2xkcH8cAc8dMHrkAZNfif/wAFjtFi0fwd8LviZZ2EE+p6drepeGdRP+ruLrRb+3jvNiyjOWtbiBriONxg7nRcF8115fmFStWhRrcrjNSSkrp80Y35XurPVaLm5npdNnymKoSjey2s/d0vvqk9Vffsj8Ep5dR0hhHEJXgjfAnXjZFkjDsQPkP91iSoBJxwT9S6V+2R8avg/wCA/Cw8D+ONY0DQ/D+p36NpVsNOutOnvNVUzvm2vbC8JikxcTKglFqJZGnSISkOfliw8Wadr1jJqtjMXSO4EEkMqnMe8sfKuY1YsrYO6NwpSQZZGZTg6uo6TBrfhvWLKBjcyrFb3lpbhRGFlEiLJjAMbSFHLom8E7CANy7T8zx9QtldevSVpU4t9U0o2bWml0rOzaS5brqfW8G0o1cfh6NZJwm3FqUdGpaWVr6N3u2rO71skfRt1/wU6/aMXVfDvip/Gevuvh3VH1qPSri5c6BrUlzbXluttr+m2P2Bb3S7Rrvz1sVZIxJbwMQDErDP8f8A/BXz9p/UoLY2nifQPDJBkcP4X8IaXFNqUrxJ5Ikm159bAhAYugxE7PwJOcD431j4e+L9B0mWXXfD1/Ba+QslvJOERVSQDyhhJWy3zD9ydsh+UldpzXhN94Oubp5544ZCp84JG5RCu4HBWJiuMZGCBkZAYfPX8yyzCrXqcrqN+81yt6b2ctHfV6veL0s0z97qcPYKlBThSp3UFaUYpJJpTslGzer1btd666o+np/+Ch/xO8SW8ngD/hLY7LXPGvxM+HGoap4r/wCEe0MeJA0fj3Qr3Xp9U1YWU093b32nQT2cVlBDBDG8kNtGskbiB/7Lv2WfDsGh/BfwK66W2mXWqaFaaldR3NrLY3j/AGzdPEbm1kjhlt2MTq3ktDFtyfkBzX8Ov7B/wdfx9+3n+zLp9zpJudEtfin4c8S6nHexL9mvofDa6nrMtq6OG84D+zTdMi8gW65Cqcj/AECbGBba2igRQqxwqgQMzACIBAFLFnAAXCljuIGWOcmvsuH8JOriKdRu6hO6bTve60VtEkk2ryvbWzbPy7iWpCnP2ENLtyaWi5YtxS3SvdPSzutHaxc9iCQM7RyfU88EFiRjcRnp25KYGemCMdjg8DqcEcHB5AwwOOKcPlwM5JyPfnoOByBk/wCyCBgEYwMRn7yhs5OcEkehB5K8Y55x3zX6nFtJJaJLRbaaK+t33t67WsfDtauVuVa22VtN3u92lrpe/QbyCCFwQTjBxjk8liQpONvI78+uHAAn3Oe5PA5yM8dAD8vH45oyAenbA+7jk9uh98dPqeKAMAcZOeg4IBIzjJIHGccn8eKTldtX193rstWl/np5bBZfO8UltZ+b1TV7yTV/O60EIPTg8nGcZzgkA8dODjkdSB0pTnjGMHkk+/JAIznP1HXPGQaAG6sM8DGOAASBgEkDI5J6ZIzuxxSdgDwRyWOAR1AJ5wQQPm5wDweORdlJfFaVnZd9NE/zvdb7grNtqzeq1admrb2s3/i+5WFxt5yT+PQdDn2xk4wO3JpmAeOc7gMgZAB4OAMAc5JJx0B9cv3EnoQD09O/TuQccE8nB7AU3PU8EDp8+cnHBUkAg4JGB9D0NKiuTm5rXb0drPTZXdotJt6Xv0VxarR66uzW79NbOz6/EuiY7O0nuBz6k5boBjJxngDkA8CkHHPAy23gN0PcgjHXjjOOMGk+XBJxzjHAGMgcLxnH3iT6E8kcUEbc4HXLZwMZ9Txw3GMfdAGFOABV3fM7uy0Xl1em26tvpoO73em7XVa6fN6K17Xu7dbP6dPXIOOp/IcdeSOcDr1qMqRnk9SSQT6EjrkHuc46gDOBTgw3bSecZ4BIA9SwGB7btpOO/Wlwfmzg56ZHGCAAMfifwOQM5JyT1b3vfru1om0+qW/daW0TC3vXtbRtdtNW0n8N1e6v5oTy1fkgkjjnf06joPfn3yOtFHA6kA45wdoz6gDA/SisHyJvffvH/Id+09PSP6q/3n4ADwvBdtDLqCRLNAA0OyGGRv3YTbHtdWygYHKsOWYu+S2Rqx6Q1lcm9tUsIjOwEqNYWGxwQFK+W1q8e1lJVykYUkkHPAPejR5o4omMbkTpJNExTYGSJgkzjPBjjYhXcDYJPl3FuBHJpwYIUfftQFxj5FkOPkVhgEcbScAZ4Hc1/A9XNK/uydSeu2rV1J81lrazi09NFe91dH+mMcHk80oxo0GryjKUIxdmk4yUnGLim5Jx96zbXwtp26vwLF4DfTLiw8SeD/Cd+j5SKG98O6RJbS25tj5iXaSWxjmRphHxIGwo7A8YWo/Df4d6tZTajqvw98DTWIfy7bSJfCmky6YsJRkHk2v2YwWxBYKZoRHIeV3hjgQW1m0RZ24VVK91BJyx4bHfGACQDgHNXL6S4OlXMU9zNHapA6xiMO7RBzkuiRBpHbJLYQF2YepzXs4XOKsqdON2uSLcXFpPndormd76avd3t7x81jOG8vVetXo2ftpUlUhOUpRjThF89OitYw53Zy0tdOXNzPlOW1T4TfCq+0vEvgnQLGe7PkQvYWShYolQ7QLXzZECAoAdo+6Bt5UZ8y8J/s6fD+/1US33gvTbixvbefUYXiikkmgsrS7ksXuCkcxEMKXEYU+aVYDbj5WUt9OeGoF1JbfTJowzQQyM14ykTCExkH5So28HduLKykkd9tegeBdFtdOtr6AxYvbnwhqAEzMoZbKbUo5XjXI8vzDO8TbSFOAxbuK/Rcvryq5RXqyqJyUW+7fLd3+TWj0Su3urH5NxDg6eDzalThTi6alH3XeMbOVOLaa1bvO66XVnrdrzDTvhFoOhjT9O8E6f4astMeRGvnvbWdntVLKJLi0FpNHLNe+WJI4lu5DFCWL/AD/cbv3+FPg3UftUMM92bmNklbaNkbogXYuxxllkbCuQeSTknBzu6PpBhSM5MWJCfLC8EYG0gE9+oyDyOma621ZoJSyKpzlG4GcEMcg5AyCpx257cGvj45xUhNPma5pPeWq87rSy36Pa/W/RjcHRfNGGrh0smrqSW/mrpNXV1u3cqaH8I9NuLW2GlsYGhicTpJGrK0gKYEQUocZBBBGVGTu2g55Cz8A+Motd1Wy1TTNPhsLPZHp1/cWNvBd6hGA73Plm31G5MlkgeCOGWe1trgypIoVo8ges6BeXNlf29yZuIJllETMxEjHICHaOSAxAOT7HjI7K+ttR1rWzOPJV7m28zhvkRFTcu45XDuBknn5tuc5r2amcRr4VLmftFLkdmrSjJau+jjK6Sbi7O6aa2Pja0auCx03J0Y4V051HUd1KnODT5WlfmioyU5TSVrqKT6eBz+CZobyK+uD9knj2LD9nJ2qsbZO4HOX4ypbBOfZlGZrHga/1HypILhrp5rsLcG7Zv9WI3ZfLCt5kjGQJCirhRv8AM4ClT9HWXhjUL/8AdyxDqxcuTjg9cEEnbgY7HrjAwbVz4eW0urGIcvFInnAgjChgAoYgZLYyBy3BGARgZZdiJzqx5r2lNRv0fN7ut9G0++r3btYurmeFclRVWEqsacm4ws3yqN9XrZNK8eaT95ptR0Pz/wBA8Nap4yi8aaesdzpkXh/xbc+GrGaXzfNuxYLbQXt2qTkkLDqH2q1QK7CRYN4chq62H4S61p9skY1AbXjcvJJGFVTkBQ21vNB3ghgEKhTuyxzj1v4aaQlrot1qKM9wdY8W6zqk7OIy8019qWo6lMqBVABBeRkIySqbmbIybeu3bRXKnT7gvD+7MykkCNj8zIQwHRlOGIwTxjcpFfR8QVlhaWHtOzcI2WiaVorTW9lrdat6OyTu/R4dp/Wp1EoJuTbbmm4xSV1G8X7k2mrOSSm00ru547p3w9uILlrS6v4XCRo90zW/mJAHeTb+8KqZHKqGRVYZU4Lk5DWp/h/pt1aXkay6lGkM0qxAWkKteYGxHUmV444X5kU73+QAfe+U+p2kzzv8qbVchWzyzyZAI5PCqB0wTuzgHGa6KQzRCO3n5AwoAVQehCgjbyMgDuQO46V4lDHKcLqWidrvS907XtpF/K+y3PbxODpwqKD5btNyhzWfu6yklqpdrOySad0z5hl+Al7qMUc51rSmV3QTWsl1Atxb25XaQiqB50wYBTAjIqqCzShsrVhfgnb+F4riOfVUuZXZpLKC1tBMs1q/InuZY7uRoAFbHk+QzkYztAyfoYWypvEkSiQjDhgeGB7kbGbBPI3Y5BGATmW0hsFeRWTM7KdpAZigwDzySvONo4xkn3r18FmUYTV001yrmcrxVtHdWvFyVpd7rXVnl4rK1OnJxnzJ2laEFp7rfxRk0+VvWTS51aLskm/jzx78GLvT9EvfiJqOu2Fta+HtLutRnSbzYp4I7SPZGjF0MamSZ4beDLBHeZFJAU1+N/j3xdc3l/cxRbVe6Kq6Rud0LykyOAqZfKn75BVcDAyADX7lftca9H4e+BWtW0QkE3iPU9N0EMFZh5Lu+o3G7AKeWi2USsCMKZUOWZa/mh+P3xr8B/BW21XxB4r1Uo8FvPPBplkr3er30tnAZDY6fZRI9xNdSgksFjdIYvMnlKRRyEf1L4d4unTyr2z5VKSupNxuturd7t3baukpLS+p/O3GGXVJ5nPDwTn2ST5b7tPSze7b0W17X07fxT4i0Lwjouo+INY1KHTtG0ewa71vWrpjDp9lAp3NLc3bgxxhiBjcwd2URxqznafzDT4ifH/9vn4jz/Cb9jr4Z+M/HD2cqrqmvWqRaL4Y0zTpBIYdS8W+J9QCaf4esXTbPFb3Mp1S6iYKtrCH3V9K/swfsAftX/8ABWHU9G+KnxnvNZ+Af7HNlqkd74N8JpA0HjT4kQRFWTVNP0+VBBbrcxxx/wDFQ6i80VsjudNhExRh/Wh+y9+zD8Iv2R/hrYfCL4NeAdM8G+G7B/PvRbhbrVde1AKC+qa/qjobnU76UgSM9y7eU+3YFIXH0+ZZtNxlyScUlJaPfSLt662avqtEdfD/AA3SpSVXERT+H3JJJrXmVtNl631tqj8A/wBnr/g3l0e/tYNf/a9+Mt3rmrlI7y58E/CvybbSrW4mi/e2Fx401hry7vlBxHcT6fbRowVgjiPhv2q/Zq/YU/ZC/Y0aTVvgb8KNE8LeJ7qxlsLjxXd3d3rniaa2uvK+1j+1NQldIPtAhTzBaxxEgOkSBGcD6717SNXeGSe1jfEh8oLG+0DCnIYHgYI4AxkjaSPmNeD+J31uyV45YZzIqs8akttBTgPjJHynChAcZYZwME/mGdZpWSnaU1dS01stW9NbLo7b36H7bkOAwq5UqcEnGOnupLRWWiule97rWzvoe4WvidTcBoLhHiVVjKhtpIQ7gVHOMtwB054HJFd/pnjC3l+V8+ZtA5bJAJwCSQGxgYIOCABzgZPwNL4l1ZHt5HSZIY5F3hQytyrq+VjO4YOzcNuMYwTglfQtL8T3zwBRI20NlTuKu6srYRmXJDLggFsH5s84zX55U4hxNCrZTa125mttXpzaaXs0ndX6n3ssiwGMopOmlJ/aio7WWukFePb3tL6WWh9oyeLLeKNmJ2gDls+mDggdfTnpnJ6cZEvjawwZmuRG7ArEqs2GkGRtLEAIxz/Ft3rkjPUfNZ8SXlzZmMyyxGNfvhznbjaFbC8ZJIO3nnPOQT5rq3iy/t2WIuypFlhHvbgjLA4OAVUHaGzySAB0A9jBcRYipyL2u7ule9t7O/NrZtdNezseXV4awOGjJqCcntN2tbtZx62s/K6Su2z6O+Ieh+EPivol54b8V2ltruk38TRXFhq0Zv7KYfcYmO78yMM3zrlB1IGCDmvw++Jv/BPv4ifs+/Fr/hc/7GOvaX4L1kJPbyeD7gC30DUrW4dZxBG9vKkdhPFcswR0iEaGXEqMcqf0rtPiNdwSCEzP5ZID7Qx2s5OMSBCDz1OSQD8rcZHQS63qesEOHMsbFDtIDlg/B+bBEZbAyWwSCSSeQPsMHmc2k5t2k0tZdXra99tLq19Hay1S+LznIsLiVKnyxV+ZJKyto43TWqvG9l2Vrp7/AJO6Z/wWp/aJ/Z+8RDwH8fNG1Xw/4ptJ0tpLTxbYLPpGqpGZI1Oj6xEqxys8UQDhpY5VcgshEiFvOv2tv+CuGiftdeB7TwDPb6ToV9pouNSt9NVJY5NXuWikgkks7h2ljJjt+Bbi4ErNu8tWKsB9cftofsq+HP2iPh/rfh/xRpe7zrdn0/VYN8Oq6NfxxkQXenXf+uhlhKg4R1jY4BAR81/E38f/AIV/Ev8AZu+Ko+HXjG+1VtNZmuvA/i91k8jVVE8kMdpc3iExJqKNEsrROySjcSNxGK+xyrN6LrQjJQU0lyttJ3+F630b1SWunW5+PZ5wdUwTniKHPUo6uV1JqN+Z2erveOkV89tD9m/gJNr3xR+OHwo+HWgXkemXXxC8deG/h/czXn2i4srWLxLqcVlcXktnCVWZ9OgM11EqtHIHicGQRsRX29o8Wp+DPiR4k8CeILO3XUvDHinW/B2r27P59tdah4e1S70q5WOZlVXtZ2tnnhYxg+W6JIgdWx86f8EMfD/xD+JP7U/7PHif4hfDzxFD4b0zxJ4tuvC3xQu/D97D4W8V6v4I0zVLXVNG/tS4t47S88QaLcahbXC3NvJJ5tsYZjumSQj6E+LGvwa78fPiT4mjnMFtqvxx8aa3ZyQkRvLZxeOL9mZvlP8Ax8R2zBiV3eVIysAQRXqZ9KOOybM6d4y5cFWqxsk78qnJpvdPlh+e+h5PDqlhc0wcZKzniKUI2umnOUVF66LVrRXvvZXseoaxoPhaztJ5U8LaHYmYyF2htLKFZFPLZIi/eMMbl3dCNuAWNedXeneHp7ITR6LpEUERJZrNYY2kB4VpNiFSVyHVeGJIPTBr9D/EnwfstS06JZbIW1zkMITbL8wnjWTIQEH5A4OPkHBG0jCn5q8T/A+x8G6J4gvrK3uL1kt7+7UXDgx2MJtpHnkwwULDaBZLj5zJiOMgsdoz/FeAzHD1swqUlLlmq8oxipXek3pHTZPSy7211a/qLMMpxmGwKrVE1BUYzcrO1uRNLpZ9WteZbW1PQ/8AgnP4R0LVv2wvgimm2TQyaE/jXxNdzQrsUQ6Z4G8SWg37EIZTqesacCWKKxkPVsJX9YCjag6YxjA4BPABPy5A5Iyfckd6/mX/AOCN3wR+IFj8dtW+KvizxMb3w3H4G19PCOhiygie2Ou32nQXs82oiSS5vo3gitmt45NqWu11RRuAr+moAgHqDnI4HTJ7Zxn8SOcbuMD9/wCHMPy0VLl19x6baxSVmrpOOqfVSd02rtfzZxJiPaY6avteP/k0m2rbNu2i0Wu4mDwN2R26dVznABAGMHgA9TkHHD88Z/nkdemcjI/KmjgKoA3EngDvzyMDuT265JxS5OM9Tj35P44PXP8APNfWO7bdrK+lno+ll5p79HvskfOp3VrKzut7XSXR+t1rpuvQBP8As4ORwcngjPYdOeBzxzjNLx/j9f8AODR/geOeCfoRyMdffij/ADzSsrt21drvq7bDT2W3S1vhS1T7NXVu1rpBR78d/qenT/POPajIHXjp19+g+vtSdcc8DPHPU49D2x3z3otpbXt8rW3BWb1tZ3atZdf5tG9bpL0W2om3rjABIIx68g5HBBPfBwRtPrQR3xjGeh6jAGOPu/gPm5BIHBd19fxoPQ+vbqfX07eufwqm9uysl6JL+r2utdQVlpunbR367We6vbdLT0uRgKBgrjBGT0HJY4Bzjkkt3OOozmnnJ6Edx179vb65pCpI65OD0XoTngZIyTxg4IHHU5FO49+3bvxnpnAGffOM4HZSltd3ertp3svNvf8Apgla6aduiWl1vfre13omnu92IcHHOCM4GcA5znIHU5xz1HPNKMHA7YxkEeuOOmOPfqDkikAzg9AAR75646ewznB+bPXNHAyflGAC3PI4HY8njH4cgYrGTkpaOV7pJdNba27bp+T8gtburJJappdb21atbRa6SSasQyRbmJEjgccANjgY/wD19ee5FFSjDZOO+OR+nOen880VboqTbtUd9dFK3ystiWk3e0lfW3JPS/pFr8WfkWjwrZmEqgkaBY5JpFG54VZnS3R9pcQguz+UzCMuWYLknNJo/Ks3RLYOZWKnCHcFOMBSAPmHTI5HXjIz5tP8ZdSsfN0zWvgB8RrTXFOQumeMvh3qWku3J8oahdX+j3AdFIYk6YU3EBCeSLkPx3s7SOzXUv2evjctxuTzTpOq/CzVIAWJ27JJPGGnzSOV/wBYjWkQR2KBmGJD/DU+Gcw5IwlBRkoJczcvhe8XaLtok9Eld3vbQ/u6PFuW04OcKOKkp1XVklGkuaS5mm1HERfLKVktHZK3Kk7vsntrlhHDd26xrArFVLKkmDhgrbfvMoJBbJGAOuaYsd00g2OjlsBT/wA8zg7ixGOTnjAGB15IFcjrXx+8KWiObb4RfH6TWZlmjg0m78DaDcKLln8uCG51LTPF+pafEZiwYTec8aKGeTy8BK5TS/2i/B7rt1j4W/HXwxdowE0eoeBNKvLeV1XdM9jeWPidoLi1DEosrCOZjgNbRncK2w+QYmnKMZpbv3uZST1XLFySsnZbNR0Se7O6nxhgKlBzcalN25fZyouMlKes5KnObnZyd1NOSm76KKufSfh+E6fBq1+sYNxa6Xqt68rFfJeK20i9lijbBzg3CxMxyGVFzgCvTfC91EfCvhTV2tJGm1XwykktyQqoHlNtKIJVdRIHLFmIA2hQcjJUH5z8OfHf4b32n3rJa+OdPttY0bWdIt5fEPgjV9Lgjv7vSbmOG2MlqdTCPNLLHb/aJ1trRZHAFyxViO61/wCJ/g7wXH4XtfEN/qWjaHp/h2y0q6v7S2m1fSFvpoorh7p7PSbe91YzWaI1tcSS26wKof7OJirbf0fA4OVPJq1H3VUnBx5U7tapRd+rbbb10jfR2Py7Pcyjjc5p1Eqjw9oy5pJq6jGanFRfvRtJJpJczsnZppv2osglSWxEL3isSjPEWtdoQKN8bDkh2PykLkgYwOReigm80C5WIyTLulEcaoFYYLEIuAgYcFSeQSF6ZHmWh/tE/s++IrW9XS/iBa3S+HbBNS1e/vtF8TaJBHHPeQWFo9oNQ0S1OoNPd3EUSQWqzz7d0zRrGrY0ofi98IIbuOe6+Inh9BPGJYEkbVbW4KbgN3k3enW8gXcAoYDDDJyBk18bi8kxSmnGF48924yjy9E7rpuk3rsrJnI8yoyUrxrU5qnOMXUo1XUmk+enGMkkows3UUJ2lFNau7S9esLCFp0ERQ7QASmMZyByG5YgZ6DGc9M16Ho2iXM6QvLEYpMkfe3kIGOCWQYAIwQuBgls+3jGn/Fj4UPcN9l+InhGT9ws4DapAmFZguxpH2RrIMnchcOmQNoJ49U0j4xfDIwgL468NzrBGzTfY9UtLgR4IBLvDLIqqufmOQBwDtJGXhcqxMZONSjOMN3Jp8lrtPz13TXR2tbb47O8fiXBfV+ao2nF3jL2i0d7Q5VfXSSd1ovIoeMR8b/D+oJe/D7Q/h/4z0aV7aO40TxBreseENbtSRILm5ttbt9I8R6dewgtHILW40yydY1cJPNIVzLHB4olVbzxRb2Nlq9zbh5NN0jUZtU0zTWjTBt7bUrrS9HuLx94aSS4l062IZwix7FVj31t8RvAN0qiHxf4eJkTzAratZRyeWQTvCPMr7cZbcRtAyRjBNeUeOfjJ8NtOsbuS08VaTqd80M9pYWei3tpqlwb2ZTDFJKtrOwt4IpXieeSZk2LkorspFfQ4LLJRdKSm1GNVOzmrLdu0dG9Nr35dGk9D57LcViliH7TBpVJRcJVY4ecak01FRUnrBWtd2SlJXcnayMzwJoSWPgfRWhjVdrXdyS7Z2hLO6LYLD5iWkY7hyMhlOMivHPs13q2p3f2eBpcOWZIlyETcVBOBw2SRuJIBYAjkGvaND+1x+EPAdlDKzi7s9ca5uPMCpNcLpbw20JQndIsksjSRKCvzQ8gNgV5bDZaxpL3jxRPEs6mCfMTbpEZt5GWAK4KghkwSFBJPbq40w3MstSU3TjR9/2au78isrW+J3SvJpu9+iP07gzEzis5cZYeOIlOnTwyry5IWVSUZ6p88kmny8qaTioycbmhp0FzZ39ur2+yS1dXMUwCmYxEOoZcrtOcZJGWHOSAM6sck19dzvcZIZpN20cxksWwpOdoyWCjG3aQMYIJ5yGa6LrK4me4XLAsC3BUY6/MQBwcgAkYIBGD0GnXEonjSaPy1lIZmn/d5J+cqxPyqThlyAxJxng4r5XC0p2STqKKmm7q6eijFS91JuPwy1u2u/vH0OLTSnWk6E6vsFBzjOzSUpVJOHNUcuWTalH3W224NuCsm6kFM7bC+9AAylCPujAYsPl3HrhSaw7KUw3U6yR4ExDK4AG4hQDhiRnaCCccc8N0NdGZXuVu8KzOZZHXATZHCXISINwTsGBkrlsFiwzgVb7SZLJrZXkXzrmCK6ZVGWgSYBkjdiWRXKnopYbcHjcCPTpYWcpucW5LntKSTSTb5U7XXVp6KV7baIyp4qjSoqjWcVOcJKEHJOcvZ0lWlZpqKUU1q5cuttb2X59f8FJ/iRo/wl+DPh/xf4juJW0nRbzXNZ/sa2jjudS1rVFsba18OaHptu0ga51HW9SuYtPtIRG26WYg5K7j+Bn7Ev7LXiT44fEzxj8R/iv9k8QeKbnVdQT4garMEvvDXgKPVHW7l+AngHzYVtZtcs7SRLT4ueJ7CKRYJ2k8IaTfFFv7ib2b/gvj+0/4usv2sf2Rf2bPhLZQN4pjTTvEsNrdRNqUMPiTxg2o6D4T1q5sSUt7m98JWgv/ABjZrOzRf2pp9gzKEjaUfTXw/wDij4E/ZA8H/s6/ATwzpOh6z4n+KGo6z4d0LxD478fad8M/AtjeaJZT634l8WeO/Guo2OuajLqut3AeeKzi0iW6v768WI3IZ4mr+iuG8XUwmVYShGTTahdq6TbjBPRpO7eutrK/MrO5+U4/BRxeY1cROHLL3p8suWyV52vy3jzRSXw3ut72Z+5Hwva00PQtIs7VYEt9Ms4dPtbW1tktrOxtLWOOG3tLG2jSK3t7a2jQRxQwokSooCLtBrrdW8YaHoCXWr61PHZWUSySvLIjO5SMbiY4lVnmfAz+7QqCAWZQu4fz3fHv/gpJ+1d8DvjBpXwB+Hfws/Zw+MHjHxRpmnah4Vk+EnizxV8W7S7/ALQkkWePU72fU/A9voSaQyJNq19qmnWdnDbMskVzO7BX1B8a/wDgpZ4s8i6+JNz+xZ8PbRIQ7aRejxpr2o2byiVFtZrPw5pviGxe5CqGk2ao8QygMoc7B+g4OhUxzjTs5XSXVpty30676q6aaSejSKShSpSmktHZTd2rtXX2bp6OV1peyS6H7gTftIfDC8gCrrEFnC/zB7sGOVo13I8hiZQYsg4KuAVI78sJrLxl8L/E4fHiTQ53ZFEYmu4rcOj4cbBciHzGLL/yy3rkHcRkEfzkfELx3+0xornUNa/4ZY8fLPDcRTQeG9S+NXgHVRGVIVrOd/Duo6TFPG2GMl1ZSBVTCpIWAHzSf2w/Fmk6hDouu/Cj4kaH9luEf+2/hz4x8N/F61ZDFOJVn0HXl+EfiUW5Z7c7tL/ta8MgeCCzlaRWry8+4YrqnOSouUYpybtda62equrbaN36nu5VmcYySUnFtrVSs1daO+t+jtbRb6M/q51Hwb4Rct9neynWVmaFrdllLAnPyEswIBK4I6k88gmuBvfB8dncq6q7KXzsVlU/LwisuFAGCGJOcMMYxg1+PX7OH7cGg/EHWtF0Dwn8RrbXr/TFMeseH9XsNY8KeNNMEal0TU/CHia1stWjZGV1murBtV06N0VRqUpZGb9UrH4w2uotCpWO5xGrzPyFLkDMZPIyvPIGGA5IJG78Fz3LqtCu48kovnaTV1Zc7dna7s+utk1a93Z/rWUY+E4KMqyk7NWlyJ35U7xSsl/e3fM7pbneJosxlSE2625O5hK4LgEED/WAryFORglmJC5DdLX/AAq+11YqXltJvNUMXyZCz8k5Bk34XKr+7XoeBxivNte+LVlD5YafZKfL2bBHEoUEZBJ6EMDg5ICDkg4FfPnjH9sbSvhmRc6rqun6faq04jm1C+s9PtYlh3Hcbu+uILdMAAyB3QR8k7a9Ph3Lq2KqRjThOpPVxiottNaW072bS3TvpeyOHO8yhQhryx07pq/frb3radGj7gs/gE7xedC0a7ThkeMLuYMdoVkyrKnBAKklSfmGc12mlfCSO0Ry58p0QqFQqqoVAALKvzKGOGI2tgNgN0z+Ri/8Fm/hXppFpP8AE34WgpJNDcpba9ruv3Vu8LLGC1t4E8J+NpJJDkeYqnzFDK3lHzFzaP8AwV4+CF609xF8X/D7CU4kZPAXx3jjWJkHKSN8Ig74C4ctAmCowrMSF/TP7KqYfDRlUpSTS2knG11dW2aab1VrtXvorH59PMPb1W3KLTlok5XVnrfpzOz2dmnZNo/RHx1p6Q2t9phCSJEkwdXXlS2RuQAnKk9Ry+Ac7TkD8WP2y/2Evh9+1t4B8X+GtZgj0zX4LG5v/C3iO1iQXek+IbKJ59PvbaZUMkbeei7gNodQUlOwsR9Daf8A8FHP2XvG3iFdHk/aP+E0E2owLC9vr+p678P760u8KdjQ/EXw94SmuYp1YsXtkmUDmRoy2K9OtfFnhPWLOW98GeNfBXjCG9jLxSeF/F/h3xEjx8jbjRtTvGwQRhmVe68EMB5McTUoV42VnFJ76u2nS2itps9urNsTSp4nC1Y6NSjtPRu60s720votPyR/PP8AsE/8FO/j5/wTAi8e/sc/FLwv4Zv5rXxNrfibwV4n1/Q7ueOG+v7MaTN4s8Kagt9bQpJqFnDp41C03SPDPCxkjKyMW9S8EeP9J8UPY6taXKXiR3E+oTTxhrlpJZ3mvZpGAkkkDSzSvM3mMSTKy7m+9Xf/APBTX9jqD9oP4WaprGg6K2jfFHwoJfEPg/VmgNrPPcadEz3Gmi4yryw39vHNDJFiUSKSVzKqLX4hfsB/GLxdqPjC18B6l51vq1xLd6OtjfSjfZ6qqTW0dvcRmI/8e90fLLKjq4QNGzR7Wb6/D5zCvgMZTqv3/qWIu7q7/cYi3rL3o+7Z7O+x+aSyGeHzbA4iFvZ/XqLSSfu2xEJLZ6ap7aq3yf8Adlo8M+qeHfCNxIzme88OeGtSuJZFPmNdX2iadfTAuSFcK9w6FM5PABJHPn/xwh0SPw5eaHCJLrXPEWga19sW3WFLPTdGvbSXR4vtMquWS9unluzCBHkNGssvlxAOfpCz8LxaZpPhKETJaadDonhm3jlOGIt4NIsIRG8aMdzCOPZjICvngbRnwv4221naeHPE13YRKJhpl+Le9hhVctDaSvCZpiq73jz5iq7HCjKqfu1/EeSU8RDiPlnv9bqXV2/+X1R3Sb2s/dlu7tJWSP6q4ixFGvw3zwk/dwkW5KPuz/dumo8ySV+dNyi7SslLRLX6y/4Jx6PZWWm2kqweTcw/D/TYo9vmskdvPdwuVLsoQyZiQMwf94ULKWUsa/VftjPUYyMenUds9/rwe4r4E/Yf8OLovhm2McqlLfwX4c0xgAS0rwpK3nSPjkspAIzjdnAr76ORjAGDyckjA7kcHPcnJAHPIA4/sTIY8uFhe+0Lfclrovlp+Nz+I86bljqutlzSd3rprbXe2ur9AwOpAOBjJ6j68d/r1FKOgyMHuOT+uBn8OPxzSZGM9QeOhJORnpjJxzxjtgkHofdGfU5P9emSOAcZzz+Fe7Oylbbtre9/yfddDy4Rb80na60tbZ/f269Fe4Yzj2IPbt9RSj/P4D1/x5NJkcZ7+4U9P9rGMfnzjAo5PQr2yCe3U8jj6dfUZ6VL0V7/APA9fLzKu9bX5lp0dle+t9/S1+nQbuD7gpVijAEEcq2ATnqQwBBHHfsDy/jscg88nP8AnkH04xwO4eDjr15GP15OenbI9MZNJkY7AZ46AfhjjHf16+1TF35u19Pmhrd3dr773V+jutNXpJW1b7hgkcnn2OM/p6H0GcdaOeAMdsk5Jx3zjjn19fWjAPoR+Y7j8aM4zhc8DIXGcZJOOOgxnjJ/OqDTdbrRbXs5NWuvOys7K1knfcJGOSBnufUHjGcd8fX1waTgDJJweMEnGM9sZxnJOT25JNDcAk5Iz1G7OSeMkZxySBjvjALGkO1ecYIGQTzzhiRk+5z15yRzzUuF2nezd4rW195aeaa307dR2bvdu+1l0Vk1rvvfRpbK+ughTc6Pll2BhgHAbI6sOjY6DdgjkgU/kg5I3c4wMAZ6YyWPqDnrg8c00DJBz0LHGecHjkEE/gCMd8mn/wCR/n6Z/Cly2fNJ6rb5f0xO6WycVo7q99tVtfXe9t7PYjLoDktycn5d2OSeeAP1GcY9jRUnzDOGwD259B7j0oqubtNfh/mL3nrGTSeqXvO3ldNLR32R+anhvwXcavrms6X4v8EP4N0sWpvdN1LWdU0zVNYuBY6hHCWaGxjubPToJ4gJju1Brpo5FR4ojHIa9GsfgZoGrWy65o2ryPbz3Mktjd2M6wxp5DmMSxMUKlFkjJVgcFV3jggV6h4mtdc1S4u5Nbt7Gz0ScvFYaY8Zm1GeGJov9L1G5jna3iW5ZZJI7COORoYjAbmcT+dbw2dE1RrBJLVmVNP8oxQwoFRIVUEKIlHyhFXCAAbcYXgEkfzfj8RSoYypSnfltZST5Zap8raS5VHvpzPR2skj9thicbWy+liMJUpqfuyqUGo1qdk0pqE5e86r5r2i+RKDjdtpniOrfBTSdRja2l1DXm1CHMkusJe215czzMAEkuDe2k8ThF4AVQTz83AA8P8AG37Klt41urMy/ELUbN9PJSXTm0KztkkzkCaPU7RIZg4OCyeWkTDOAqcH7js9VsLC5LRK0sTwiCV5pCzGRWZmlEah2bIKK3zDoT25p6qIpxIbS2/fyBsz/Mduc4KjB+bBOf5dq8328eVuLjJqUm0lo0np8MLt22k1snrsdtLHYp1FSqQqQg405RqtxinJpqoqlOpUahBae5CalZxUbWaPjXQf2ffHXhO3u9Mbx1Y6tpv2QwW8U3hPTUvY4iAMpeJqLB5F+8ZHVnlYMoQbtlbGg/BLWPNuJtS1q2fy2QzS3sJtYJEbcx8qVHe2BAXBiQEKMKxGRn6jgt1tYYxcRPNHIjJcCQksmRlCjfMVZWJYnDAgYI5qleWcBiwk5eNVQ8rglQMYkIxuKZ5wSMggnIJrVZk6UFFK6bblBySvpe7bV3p216NLVvpjVdSorvlkrRhWVPmg7aTag5ytLbSU0teaLa0Xgtx8DbC+guGtzpDwxTQz2kkqLJItzbBjHLBIsTqGxKQHjIGdpwDzVrSPAHjfT7i9Cx2N3ILFLLS5/t0kAtmW4BkuliNlcfamMQKRLK0Ue8gmQKOfdodVs47e2to4U8xbrOzjBjCBVAOOjkAlMcYABxnL7y/kF4jKSjK+GIGVH+zg5xheQhB5GcjgHalmWG927hUcpQTsktZa8vvQT0VtWrO190OdTFucoSp8kWqrg6jauqfLGMrQm24ybu3q0nyRdkeUeHvh3bSagdK8dtpHn3EEt40d3Ppxkkhimh3zxx3EarIsbSIJFjVgrMokUg8+na94R8OReB9QTwvoegS31y4t7KaDS9MTzoPNQTeW620SmN41YkpuVtoK5wrV1Wn6bpWv60BqdklxPY6Emo2/2uJHjU3N1c2oljWSMsXY2Ugk8zMbLsIRicjib34k2lnDcaXiKaSAvGJmjWNwRLIuI41YIGRU2BVAG0A4wRn62v8AVaOBp1qkacFUjO0nG7vyJ9Nmui6ttqyaR4GHwmOzXGzo4WnUrzw88NUr0oSUYxjKdRt8zbc1dWavpFKKTs2vB2+Fc97pFrYXHhTSI9Qd7n7Vdiy06KWa3mCiBd5U7ERg2GJ3KzFsDnGLo3wAstJ1G1vIvD1it3bXUU00KSwbJCsigyMEeOE7sFyB12rwRtr3Ow8TaKZt/mTNJcgxzCVtzOHI+Xcu1VAwNqgKQuVAyST0cWq6XFG7W77GeRPvHLEKQoIDNnABPXBB+Yd8+DSrUZSclOm1F6JNXWl07OKTk73jd3SummfQ1MrxOFk4yw1a7hbWnJLmbtJy95tJWurX5lK90rI7PXvAvhjxf4Vt9D1gNBHbZu7FrG9ktLzTbgII45bK4tZIpoHjG4KY2G0sScht1fF2r/A3xjba/dLpvxX+LsVjJNss2TxLeT26W8W4xwq9yZEfb5jAMS5XuwXIr6x1TUtKeEfZrmRJHhK5VGH70MWctk4KHOe+4dxhhUPhyO9u4J44rg/2fFNuluH2t5ZOW3BSMJyDtVAckfNneCdcwq0sXOjBU4ucIK86bUk1a9pRu0rJtvqtU9Ejiy2lictw+KxNSo5UJ1LuhjKDpKm6kpqTozipSlKUlGKp3/edlNtnyPL8L/jFptvt034qePgq6k0rX2oR6PfX0lttEZtpJ73TZoxaxuhkiCRiTezsSVJBNQ8A/Ha4MQ0743+JI0KGZYtR8JeE78rPIPu/bBoLO0I6RxzDCLkAkGvrzxPp72wilkuJHgkhIjZHbaHJw5dG3KrPuBLDOAxAwRtrnoNRjtpDBEEAQR7mCMrSAABVLLxwGJCsQFXrycV5NbD06cnTfNBK0viTvez2slqrOLbvdXvor+3hMXPE4eniadDD1pe8k405RcYQXK4ucm5JqVk4qF07La58mQeHv2l9MgR9T+KcGrxTFSiH4feGdLvI2Ukr5tzBCqTfPhZN8BLxgKu0MaoXlt+1OjpPb/F3wz9mJ5ivPht4fvJDgsRE0kUolKKpEYCBcAbVVSK+1571JEV5QjLGP9W/Oz5s5PDAgEnI6cHnAAHEyfDXXU8W2moaBqcn9m+IXS+vIHkNx/ZLQKPPazjlvbcLbzRspEMSbo5QzYkztPqZXgo1Klk3Pls1ot7pLRXv2uk23r1OTG42EaKdelSou82t5Rbj701zPVPkkpyu1Fu1k0kl/Fv/AMFJPBnxN0L/AILWfs2+L/ivrdtdpr3weg8caJ4m0/RDpGkS/wDCC+GPFltqFnbaQbyRLa4sYZJl2JcxM1xNHO4jHTif2gfiN4T+IfxB8H/B74taNbeMbrT/AIS634vGl2l3Nokvgfxh8XGtL3wY0V1Gk1wNT8J+ErbSp7iefCnVLhw8TKJM/ux/wWq/Yh8TeO/C/wCz/wDtSWviGWbW/wBnb4s2Fp44WSzMn2f4D/Ea7t/Dfj6NJIDI7QaTa3pvZZZ4XCwTzyFQIc1+WP7Pn7F1n448V+PP2tPHOoLrPir43eO/EXibwxp1uUfStF+H+mazeaP4FtbdZOT52iada3IQKkUcMkSJngH9HoT9lDD0rOLjKN1J6O1m3ZvWS25dG9NHqly4ClHEwnUjKFSDUoc0dk4LZNpXai1K6vd3s5RZ8b/sO/ENPCrfErxDdlf+Ev8ADv8AZHw4n1BreO0vI7Fbi+vNVaOOOMeXHqt7aW0lx5TKWihjRyY3Yr+gPhX4xal431e60ywOoazqSBHg0jToLi/uTg+WWSK3SVkDFsl2CopAXd3Hxq37P+seEP2qP2vvhjZWRtm1qXwP8bPCYjd9r6D4otJNL1uGztiuZl0/WnDSeQwtrdZpEG1gqjV0z9n/AOKsHiDTPDt1r2v+EPBXim6WHxTqPhu7u7fWLrTo5BIlvcXiRpLYW1xPJ5crRzFlgWQq0ZIZP3Lg+FKpiMPzWd4xum2rt2s+qTXZPdtNJWv5WKpShRqppNc8lpZrVPl0TSi9L7X30SZ9W/GC61mxFtb3useE9KvmtpWm0y78d+BbW/QuwKiaxuPEsV3DdLgfuJY4pGkIi2hmFflt4m+JktvrLW0WpzWt+Lwxx3NvPFJ9oQseVuoJJbdAGChZIZ5EOQySFDkv/aB+C/hv4ZfG/wAa6dY2S2vh+LwZpWveA9Tlt5tXs9bvjeaVpuoafc6vew3ivqoe8nuUtNnny36RkhFLOvjuk/AbxH4Z+A0fjG/e7bxPqvjTUHPhc2skxsPDLtcf2NKJ1DPb3t2IJLg2gxEkDjAIHzfsWfcO0VkMsZGVNyqU5vkaTlT5YpKVt+WX2bqyesrOyPGwDqPEJWdrvWzStdNJWaST1s3a9rPSyOr8Xw2vjbTHlvdS1DTfGemxvqHhXxvo15c6b4q0HW7UC5t7qx1y2C3Ue5YTDNG8kkU6SEyxsowW/CD9rb9s/wCJoHhPRP2lviNbp4cu7bTr4i505Lu/1DSWeMzXmpRaZHephQgcxyRx3JYtKkpjVx03wj8F6lq/h6bWdauEttO0O21G91BNTR4j5GnW7yyRSkopC7A6NJ8uBuIJ4r70/wCCJv7EMnxT8Eab8RtUiXWU8Qan4g8Wa/JDZMlnpVnqetXY8NaO99KV+138Olh7i7jVAYnuYULO0Ss/8c8S4SCxE6cYQk+dr4btpzltzdE0366vTb9HwCqQlGcp1IQjF3fNZKyjZavlTd7O13rZ20PjH4r/ALaf7bvwh8NWmj33xr1XxHr95rF2z6h4o0bQNeNppE9vDDaW9rcajYPdQypdtJIZVZWVc7cNhKz/AATFfeN3tvFPxv1i6+Ini1IYJL+58UzTXelwXV2XuPJtdGuJDp9kyCQoTawAfLjO7r9u/wDBdL9leb4ByfDfxtpuiXVt4a8WajDp9hexwf8AEue/0+4t5LzTby6jB+y3MlkZLiGGVf30NtIUXzGUn4m8aeHbmzW4W1vCktzarehkRhp6QmASW8huVI3ghgYzGrK2cg5DV91wLlmHn7N+xp+0jLX3Up6uLbsrWezTV7K7Xn4ub4mpKpVtOU6bi3CSblG0Xte7Tad1vfm3O68bX+na3qOmRaJb6Po9rotvc+RbaBp1np9pHDctCFQpbBIS8JtkxO6mY7iz4Vq9e+HeivPAl7qDm9SVvkkdl2xoqrtJ5AcHLNuBJ+X14HxLoFtqmi/DTxX4y1nT9X1e8ttd0/RFtoNbOhaVY6dexzeRqSXK2lxLfxyXyWluyIbdk81wZnZlRfTF/aP8HeDPDHhDwt4m+DXjiaDUnnbT9d8BeO/ENr4lhmMjwS3Fra6k2p6bqsFvd5SOz1CJ7JiVRniydn6RxLw5VeBeIpU17OEE5NNJLmTa3967kuWLdle6bPBwmJjCpaafvTTV09W59Xdu2q1tdPeyZ9+3+neCtR0WfQ/E/hHw54i0y6SQtbazo+n6iJGlVVlIku7eSZA2B/qpkK4+XnBr8rP2gPhz8Jf2TfjF8Fv2gPCfw4s/Enw3fxTeTeNfhBP4v8Q+BNDvdR0zTZr2Kzh8W+HluNZ0vSbx2W/a3jt7mFWh8iZXiHz/AEYvxZ1ZLHTta8L+Jh8QvA95IyK+uabB4Y+JPhi4kuZbdtO8T6Dam80zU1sp4hC+r6bPZrKu1prBGzI/zn+2RNrnxp079n/4S26B7vxx8W4oZ3tgBIuhzaNLDrc7sEmQxWlvKrSO0Q2MyhiycD8FzGgqE5ylZWUm7tJpq+l3a7urLonfvc+mlTlUoqMVKLnJRbV762uvd1T95LtdaPS6/TL9kz49+L/jv8YPH2rP8LfFH7P/AMG/FH7Oz/Ff4ZfBV/iX4r+LNj4lXw3rcA134h6XN4z03TNV023m8Pam94uladbRg2GnfajC3mKT+QnibS9J+CH/AAUk8HRaDIYfC3jfxl4fnsnjiEYd/EGqQWzeRC4MkiHUr+2SJgxMgmEwYL1+1/Cn7SGo/Bj9tv8AZbv/ABNBJY+D7bV5/gxepKGt7D/hXfj7SP8AhAp9HkkEluqQQWl1Y3UTgrG72ayGMOxNeHab8KdY+NX/AAUu/YY+GWF1DWrX4j6FYeO3t7TbDa+HfhB4j0688R6jCu0Nb27WvhO7SDzRMsqvHK5Jk2n5Z5p7OjjHKpy82FxCldxjHkdOTlrootptaO99L3av0f2TVc6CjBzcJQav7zTheWu13eEXzt6OXM37rv8A2Yah8c45QvhRfhf8Y7bVLctaxT3fgZJtA/0GCO3do73TNW1O6LXDRtLGslhDGrSlGcFSX+Yfj38dvC/h7wPrGl31h4l0vVrhZYbeLX/D+s6RZai6xyiSxivLu3SQzXBJiVFjPmkqEYLnH66X/i7TLpjfXelLHLPLLJJaWdzHdQmDcRGN0trblWaMK3EbbGJQmTkn5J/aEtfB/j+bw1oyeCIotTudRVYZbm5iuokgSWJ5ZTILRDDJ5atJ5SR5d9qNKibpK/HchwuDq51z0qkak/avlXvN2c3Ldq172V5NNaJWbsfSZ7mGZU8jnSr0K1Gk6M3Jz9k4xk4RvCUoyUpN68kowtJJtyWifpn/AARx+OniT9or9nrVviN4j8KP4Sca/F4eg06eYyTq+jWxgvR88UMqwi63PbGaJWeF1YgE4P6+KAQcAnOeemScg4x0H3jg46ntxXyB+xX4N0bwn8KLqfRrNbKLWvEWoXEiRQrBBJ9g26XDLHCrOke9Lc+Y6kmVsSHBYgfX/Xn5gTyOvB7npnJx3OOTjrmv6fyhcuEg7aWVrK2zTWm67O/RPc/lrMZe0xVRt7Sa/vPsrdtH5K1nrs0MfXHIAxksPXo3Psx47kYGacAe/wCWCQRyPTB9wB1xgcU0cbvvBsZAByAAMZB/vZ6YHAHPanZwMjB6c9uMZJ9SB6DnGM9K9WU7zSvpypW0tfdPVJ9Xs7vqcUettu/a9ur263trqumo1uuc/TGQcZAxwckH3IyQM96U5Krjgg5OQfoFHz5yOoYkHJHBxQDk4I5H0wODkZzkH6g56AkClOQRgcZH8znsRjpz65zUydtHZK27drprS199dLb31+Ep7uzba1jf7m7Ldaet3va4p54zge3JHfjn+vfOfU7c9f06j+mfxwfag9iDke2Dng4GexGO+Kbk84OSA3bvnA7exHpkeuKmNo3i2k7pJ9NVay7tNWt1butBXvq02tGlonfX8E9PXrZ3Th+HU9Pr/P196RlODnqMcjtnsMZPPtnjJxQCT1Uj05GT+AOR6c9wfSmkcfM2PcAZznqM9OozwcDoT30/rp+lxN3vfSyvazeqemqSt0bSvbrpqKCScdj1BGcMBngnGfXp34JI5U5wOR2Hb8eCeeowDjPQE8igeuRnHb0JJJzjOO36c0Ek4wD2wAMk4OCegx0/DqSSRWNR2lfayVna9r9beu/bR+ld3po0pe8u2mz31d7XT0b0Q1SMnGTk/eIGeAMj/dB4HVuuTnIDsnHUkH0H5EZ/rn8qQ5BBIyW4GOMDJ6ZIyeOccEDnO2lwMdR1yCec5I4HoeoHOOn0OqfNCN922rWSbcVurd/+D5hvF6Xv8r67fK19N+lxAp7PgdgRnsPQf4f1JTWJBI3qOmASM9B6j/H8+AVyyc227SWuyUWl83r/AMOZ+0gtGldb6JfoeQ+MZozbxKiRu7jCg8uoY8Oo2jYhwc5GOcZ5BrzaXz7r7NawgA42n5SASG+ZAQBzk/L2YAZY8modZ8c+CNDs9MtfFPjvS9OvorC2W4uNf1Sw0+5uXK72muBI1vDA8vmo2CkSBSpijWPaKj0b4keAI7hbi28SaFqUERjzNY6lY3qeW7KiyobeZxKCzrgxbgpJxnnP8z50o4jHylzxjGXKm7rm3vupfFqltZrqj9sy6jVwWXunDD1a1Wiq00vZVIxbalBO8ly8r5fdtrZ6pSsdjZeD7xVjSSIFnUh7gEF4wQDhRggZ9RwcAV1dv4XuI1wbtQANyKiFmDDhdxbOF3YySG4JHFdZFLG6KQ6neN+ckjYcDgKcAcdOSQWHTiri7WGCepwR6DORzx26cdOT616GEyeM6cbScm79Wm9Fsk02lfmSe9nfofKYnO8fUbT5Kabd1Gnp7r7TTatZxTW6Tvq2zzK+0C+EDkxiQ7i7OjByy4wVYcep4zkHOBxzy99ZcTQxQPF5gICjLMoB9MA/McgYGcHaQTgt7oy5XG0N9Rk44znoMHnpjkZIIwBk3mnQz72VQkpVx5qjkHHJ4IBIwcMc4J3Aeix+QVoU+eM72Svpe0eV2lHtJ/Dr8SetpI6cFxBVpySrQi0m3Fwk4xUuaOsoXaaTinprFaJWbR82w2eyTUEljFveW8bS2rvkGQrtLIAflGMZGThioGDkAz2V3PLcCSWRfNZfnQKCrSMCCq5BKHB56twFHOQfRNZ0WNZFMkR2oxXzEXLOr5AZieXfd2ygXA/Dno9KtUvRIgeKJQixI6guxKMGfjIxnGfQZ5yc18jLB4iniKEUuW1WP8y5rS5rz10Ufh5nZbRtc+4pZphsVRnUkpNzpaWjCpGLilGUIyUlNKpK1Tkt7rUrtHZ6NbtqWoancXI2JLoGkWJltJ5opd1realcsgePay5W6j3hT8w3K3AIr4w8U7n17UJoWUQz3N0qR7MPGbe4mgUF0LYD7N2MEgEcY3Z+ttDu9UTU9es9Lks40sns2uPt0byveWgsY5ZTpywzwGGQTyiJ5LkTxh1banQn5J8YM9trt1C4JZ7iW52Eowj82WST5iEBYZYqNvJXLMDkk/b5/VvkeESc3NSlzWb1b5Ul0vZp6u2ibWyPV8Oo+yz3NWnBUnhcP7Onomm1Undwkvdb5rq0pXStLl1MzTri4hd5DhnjBQ5OFWQjIILH7yjlQPlIOBya6Wy1Vo5QXd3YhdhIARSSSRuxn5QQOpHPHKg1U1HQrqygt7mdmWHUrKK+tlWHbGcMVkXzMAB1ZgST90EYBy4NO2heWQQ7RHJgBWdTvPRmCqdq7ip2qWDAAZ5HFfEwqV6bUW5JuKbTdneVnF3vq5J3W949UfqFWeFxkJ1oOnUi1OLlDVLkvCaur6wmpqUUktLOzav6RpssF3cE3sxFt5cmDGRuVwm9M5yCN2MjaWGRzztNiz1jVo2OkabdhUuHGFZjDDHvOPMnKgEoEXcR8xYDCndg1zElo0NtBJHIyPEpeVPLCq7Fj8rSAEtkLuZmz3GMdejsLWSGxTVr6O3jiu43jsot5FxOoyplcrysO7gZ2lhlgwFehRq1nJRVk4KUpOMmnyycY+801pdKOl/ia1dz5TF0sMlJzcaqqyjTw+HqU1KCr0+f2c6dOUXzTs3Vk1JJRgnJxjrLbuNamvQdEilMtpDIfMuZnG+WWFAJrgs2SkLYbyoQWKxqpbLFq53UbiS32tGzLE2xk3th5FZQRKQCeWHzBCOh69KhZ7mC2aGERRLcsPNdoUkcQgq3lxSMwKM7Da0hEmB8qqGbcuff27iH7SxaUMpgjfcXVNoUFiG5G0YGc4+7+FV69Wa95tyv7zvdQjFtKC3bUdEm9Fe2qYsHhKOHklFU40OZpKycsRVlCLqVZWioQqVJqUbLSMI3im0jd07WJQ8StIroSEdfmb5eMhsgYO0c5OM8Amu+1HXtU0vRNQ1Lw5bxXmvWPhDxTqeiWlwHMc99ZactxZwEg7QlzcpGjqo4ViMjqPNtPtQljbEjJlkkaWSV1Ekr78FAoVSOABtVs5DAkZYn3XRfIg0qKVoIBIlheqJHB3hWhXciMxOd7LtcEEEAdcV9fw0pKonKVrU+Zbtx0bdpaNNPbtsujPleJ/Yexg4UedyxDouFouMk5U1eStqmm7pa2aWiuj8CYv8AgolJ+0H4S1TX/FfgLVYvC62l9oPie0uYxdaNPZ3UktjqejalbRs1tf2sjRO1zb3MJVYQPNVSCD3vw+03Qdb07wv/AMI3o9jpfhW70+0n0ex0eCG20qw0q4lZreDTbWCNVgs0VmSKKNVCAZIXivjT4K3+nfCXwD+0i+qaZZ6ppcP7RfxAhtNJuwXs0tPtDzm2k2vE62paUkJE8B2NmOVPvD7d/ZV1201z4afDrxJBpunaZHf6Klwml2Kytpenxpf3sa2dolxNdS/Z4kj+RZLiXG4gsVNfT4XEOpUlebfLNaPW1m3fV35vK+umt7n0uKwOHwVChGhSjTi6UHFKKiknTg5JJJLRNq6T9Vc5X9uP9n6L4N+Nf2cv22/Dnhe48QeFPBFnqfwf/aS0vSbR7m/b4NeNJI5bPxqYYVZ5W8Ca6Y9Tnd0KR2gPC8kZHxB+GWleItKsPEXg69sNV0jU7BL7QNe0aSO407UtOuIhPBJb3NszRvvjYCRCwaJiY5FUllr9rvCviXR9c8OnR7uC31GwvLOSyvbC9ggubK7s7iNoZra5t5Q8U1vIjPG8ciFXVirhhuB+D/iR+xrpHgYazr/7N/xF1D4Mf2jdS6nqXw31vSk8efBW/vXUu723hN77SPEXhCS7lLC4m8JeI7KBFbcunMPlP61kXEmGy6lSrOpFqCippvlknFJOST6tJfjy3SufGxoV6mJq4avQn79So6M4x5ozhJvlUlZtONklNXTWjs0r/h98Qfg/48tFlawaxjuZ5PLSfU4pZ0jg3K0phQRSIkzSGNkLgR5B5B5GZ4J/Zv8AiH4i0uPS/EurN4jLawNSs1HmRxxzJFNBawSJEEWSzsoZnWK3lZomkKzDEyKa/QjxJoPxx1BpLTV/AHwc1u6tS0i6rofxW13wfpM02DGJTo3iX4a+I9SgiYfN5D6tdOh4W4kxivOI/Cvx91CRfDmrfFf4W/AzQbhnjvpvhFo2rfE34qXtpKwJsrPxf4wj0Hwd4cmkQbDqNp4N1G8iJBi8gsS31+K8ZMHVwlTB1J0/ZKlKEWneblKPLZqzvZrS3m2m2elh+HakbT9lK7km24Wd0lrorJLbto762Pg74xfAi1+IHjrwV+w18Kbu0Hxp+Mt0lx8WfENltuLX4N/BewZZvFuu6jJYTMbbXdas1/s7SYbgosZnYTxs9xEr/wBUf7MP7P3w6/Zy+E/hH4R/CPw5Fo3grwdpVppOnboohf6o8EQWfWNVuIkRrrUL+ZHnuJdqJuk2xpGoKn4d/YM/Y3+FPwP8UeNvFnhHQ9Tk1/x/LbS+KfG3i3V7vxJ428QWNkwe1ttX13UJORPdPNqF7BYWtlaS3DRDyBFbwov692ut6LZSR2KzQRiFQFIZeCuOuD1PIGO5HJ61+D4/OI43GTxKqQhTlVajdxvK8nZRlfSKvZqyd3q1ZoXEE6mDjDB4bD1cRXdFVqsYKco0qbekpKMbucrLlWloLmSben5v/wDBUr9mGz/a6/ZC+KfwXSCG38ZPpQ8V/DW/kCrLYePfDmb3R2t7g5MH9ooJ9MmCHMkd0UJOSK/mO+Bvw2svj3+zV4W1htKlX4gfCkXnwz+Lnh9kb+1NI8U+E3aylvbi3MZkFjfWqxPFcMpRLiC5RirP5cf9rXxUgstb8N3M1jeJHqFqDLbPDIN29AG52gtkFRtIww/vDrX8yfxW+BnxJ+Dv7YGt/Hz9nnxF4d8Ky/FfRLM/ED4a+M4Hj+Gnj3xVp897FrKXlzZqX8N3uvWD2U9tq6RXFvBqIvGu4biK6UR+7w9xespzaNKpNewqRi41IyjpaW19fh+D0dtm7GW5d/aWQutClUp1qNacK1OopRcalr3jzJTcJxfNZK6mnFN2Z+XHjLQPDXhnwzrPwy+IOjTQaFrEYU65bfbLWFoGaSW2jmniaZba4tWjjkFwqxCKRRsPz5HSeDvgr4S0O78BeK3g1HULfQNDsW8NNq5g1TS57eVVvItTmMlrHLd3U7eTdBrieWNnVJJI3lZhX6LfEO00HxPcfaPGvwY+IPwxvpbGS01rTb3w7ceNfA899JdHfdeHvGXhKxv9Pk0uWOcgR3VtbTRwxI2GG/b6Ppmt/s4R6Bp+mTXkniG5sLWCzg0fQfDuv3F5GLaMRJbx6eumLcgRhFhRPJQsVK8Flx+wVONvr+GrUfbw9nKOsVJWlFqy5tN7aWT00sr6vxXk9WlOnN0WpRa+y9Nbpq+tm09k9dG2rW/PDw5+yDbfF7xjrniyza63TweddSyJaWFhHiOQztHb2UFqgjKq0s1zMZSqBmLhcKeD/Z6/Zbf4q/Gnxt8UdJSS/wDhf+z8t58PPC2uyGRLDWvH2pxwHxde6N8zRXUGkR20Vgl2gUtIZCflaOv2L0z9n748/tNaa3w4+EHhbxB+zJ8D9cjgj8e/Gfx7p0WnfEjxLoMkjC90L4aeCGjW+0eO9jV4P7a1uVZPLcOqIjCFvtrWfgR8Lf2avgx4Y+DHwm0I6V4R8H6W9pax3M4vdX1a9unM+qeIvEGoBVOo69rN80l7qF20aoZZCkEUMEccSfiXF2Op2qzi1Z+6rO6bblezsnpbVNKzbte6Z9LltKM8RToNXnGKqy0XuRukk22tZNvljronJtLQ/m3/AGzP2W7L4gfBfxfq3hvR7+6+JPgq50HxH4Dj0qKd9RvfEOma/p0sen20EID3DXUAmRIchjKEIPBz+gn/AAS6/Zfg1r9oz9pP9snxv4Pu/C3i7VJNP8EfCjwrrejX2jzeDPDmraDpOtePfEeL+GAwap4p8SX97bwRtmSGzSeJXZCK0PilrVt4I0+x13yZJhF4ksJ4reGJ3nnltxPepFAkSMzXLeTujQIzF0IUbzxz3j79pT9rO0+HR8bf2HdaD4ZuhPPYW96l9Hf7o7N3tLnU45PJknlIgUFHYpGVMRbIOPyjMsS/7PqxvKXtINL3ukktFdXhd8q0vdJW2PusJlsqk+aLjD3tJSjzJJODfu6J3SS5bqLsru17/urNBug8sj/VowDRkbiQc9cHcT0+i+vJ8M1u3+3/ABi+FmhmNhHf2/izVrmVGyIrbStPlhhgnDE4kluJ43QYwVQAYY8Zv7G3iHxh44/Za+CnjTx/PLP4y8U+GZdc1iWZPI3C+1S6kssxglY447URrGp3MsSqHeQ7ifULvSYofjt4bklCLc2vgbXrogSIoCT32nxK6R7SRll2lw+Nrrv+9kfJ8D0pvPanNdpNXbb0k5N2ad9e7S109T57j2vCGTVkpXaqVI9uflly3ikrqLmm1yuyt8NlY/Sb4JWsll8PtLgkghtI1utQ+yQQQrCBbm8kCMyIdrPIweZ3xkh9xJOa9aJIXIGSByBgc4zjJ457biPwGTXD/DmIQ+CPDqquwPYrNyc7TNLJMTlsnDlwwU/hgAV22MAgjAOc5ySeRgkj0AGeCScnnFf1Xl0XDDU1bdXs2m27atPZ62XS19T+TsS3PEVJXsnKTXX7b6buzTu+noM3KQWIfqMgZJzxwAvUAkDOexA7gvOOMDpwpHrnByB1wBkkgk9s8kKRkkAEepO7aQcHqPukkj1AJwMbuU+UsF5PcEH5RkdG7YIB6jGT1GRnvfxptJ2Sey7K6Xe1mu1upik9Fp1fMrJavTzbfps7C4XsMDDA544GF45OQcHPPHQdwFBUDsAPfgAk9+vb3x05zmjuBxjkkcd/1wT19/qaRsHAzjdgEHOGHXGMgA+5HGT061nN3fva+83p2fe19bbNWt2B7vpa7fa2m6TbaT6PltdWT1FADewHAHQAHB6jOOfmBBHf05Xp0yQBj8uOxOSBj6Zx60ZXIAIOQTwcjOecE8nGec88EcUdQR6+hxzn/wDXTkra6abOyur2ektflpu3qhtXu1va1tLK77dLK7u+onYHJAJOASMbj78g5yDgHj09WjGMFuCcY3bsZ98AjJPUjr8o7CngdAQCP4ix4HbIGQScnoDx16AgtyDgrzjkE5/McZP4dwOtQ20049Vt5c1pf9upaWte7uJuyv1SVk73ertZuzsraprr1TA7QQMktj19CevTDFWz1JJGF91xnOOcehP6gEdyBgnByAewowc8dOp5A6Ee2Tnp3wBk5pnynGTw2SSQeR3GAQ2PY9Rxz1Be+suVt2vrqnqlFXsrpdN9dmw0teVmn5bap25bJJ289beVhwBLgepHOQMj0IA6ZHORj7uCeQrcFW5yQcDqOSRwQOgIPBJJyPSlAJIxwSOuR8uAMAYPJIJx6AAAZxhDxwu3nn+I/dOccHPbpuBHqcg1UZc1rdNGrdLd1stFtq7W2uaaXd9VtomnfRpJPV23bWjv5D8L6N+B4689WGOeo6Z/IFN8sNztcjjG1gBj6evf1555yKKHTbbftaav010JtLpC611vFX1fc/Krx18OfCfii6Fxd+CvD3iadNRmvL6OTUI5bX7UbaGyhuJBqM8FxeTL5cO4BvKQRqgiWJAKxv8AhR/hDTokutI+APhD7Y6b5HXxDdx6kblUVTdJFZkwxJM4DhYrhI49xVkds564GOJ7zURbQpJIVjuJVALSFTgKSfv8knB4xwoxnG3a3sN5bmCLckjxmN5GBO4HnYNw7EkjJPJLDGOf5ChmMa1eU5xblKSabcdVd6K8dO3RW87H9d4nhxxoxjSqR5Ie7O8ZNRcqcW3LkqJtJ+9s7XtFPWR5TY+DH0G4SdfB3iHQQ9sVcaf4+8faaFuZQWTbc2viAJahGXavk2m1lO7ygcAe0fCTwt4xuYJrq48W/EWK1nklS0P/AAsTXNbWzto5sCB/7fv9TimLqdiyra20yIu6NwfmqV5raztY4o5dzRDCRbmcjczb2y2csSSTyDz3xgV7TUzptxE0cn2WMzKI4LZjGjSZXBKIAiuzbgMg8g5IGSPfwuaU6dWMXzNJRtadnpZWum09WrrS6Vt9vn8Twr7ehKVP2KmrtOrh7w92T5moOMZNNbNtq/fQ63xr4d+JEcSw6B8SvihpNx9nllDQzeG9TsTNEyBLUyT+H7nUlebczRvLfzqzp5bRBGDrz0UX7W+oxJaaT470qDTreBEubzVfBWk3PiG62FfMNrfRtbaTFeTAeWXn0OWCLe8nkyuoU8x8TPEd1dQ6HBa6nLFKfESWtrPBIYlur77DIY7SZ5AhkjRiWL7wfMiDbsEivsfwvO9noWn2NpcyaheS2cMk92zrdFblvLW5XzELIo8zeEXcvOeiqxH2UZRxVGPvyWmlpOT1e6vdPXquZpvVJ7fnWaYT6jU5XQw1Soml71LlpK15OeqTgorZNtt6JOzT+VtT8KftXX1t/Zll48l0FgZ5IdWhs/DWvSOJJTKBc2mueDWETjd5ASG5eCOMKsKQhRult/hz+1ytmrP8XtNu7mGN2Sa58I+BLTzfKUtFFLEvhGWY/aGAR5YymwnzFxwp+6LC1u9hkvp3mld2ZE+WNYEIIVAEC78Akku0hyOTkYFLWUm8nzIg/wC6O4+WxVsDACnBG8HccAgk7sEd65MyymlhMPHEtzVkm2klJpWkm27u6d24u2iuzyKebznWhQjRwSXNbndNunfZ2SlSvz7cz1u043tr8xab8SdO0bT/ABaLvTtcttb0zS0l17XPFVnHomlXd3C4tp7TSb+Ozgtb+VNsl5bWOn2yieLao2u5YfJfiDW/ixdN/b0V74XuILhlEUfiP4X3jpb2VxIXhne90nxxod3JcFcxxgwoscZ3Sq8xRh+imueH7TWG028vLO11C4s5GnsnvI47mSxlkR4TPbJOsnkyNE7IZYlUkEqTgmsC8GrWW8SSxOiKwEcsEDBsnA48vso4JOMkEjpjwsxq+1wtGkpS5F70ZKEWne8ryV0k3qtHr1sj7HIsxjhatStShSqYiu1CUKmJrUpR5E6Nqc1Fz5VZRjzK0Ypcrl8T+Nk1n44azotkF1P4LLp+jKy21tdeE/iA00gkZWG6RfF80lqdqKu8S3Y3EkB9oZedufiF8S4b5Ym8J/BLWrmGPDrbeOPFuiypKhChnS503UGG5lx9lkQSJkD7Q+Fz9g3OpXZdwzxyAAnyDDEsfAwF2IijGScZBA44PQ5zO17YzW1vpmnHULxJ0trqawtVCyojNHjMYVlLgNucHBJK5Oc+bhEq1Vp1XKTild0YTvyq0VonZqNoxirRio+8+r+o9vOFNt4OEIOcpWp5hXpxpe1fPVmrShKo3Jyq1JO7lJ+6r3S8U07V/jbfWMU+ofCr4a/Y5o4mgGlfEvXDcHcuSftF34UuYFU5A2tBIy5LZbgVasde+KUplj1L4SeFkSGB4bND8VL6WOPY6qBI8nw/tyFYNI8bJDJtwFKFSCPWdGu01G0sotStpI4rXQZdSubcSm2IvoBaK8YWIxnapkYBUwg2ndnKbdOwm0jUTayCI2quuzEvmrLtBIwWZixHG/uWABzj73o1cOo1IOThHS2qinK1nraNuVyd7JScWnpsznp4hxjWiqWIlTptyc6dWteHtIucWuac5ynOnBKXI4pKy1u4niEHiH4imcxL8KPCoihKo4f4p6gZZTuy32RF+HXlOkanBMssJZvkAIG4XG1/x/Ash/4U/HOodmhSz8eWV2inbjMiX2g6VsDPggRySuEJ3BWULXvUWi2ElwsMkEbQCVljaN5opWOcgqS24ndwNxI3EkVsNp+nPDNLaxPi1kWBxcXJEgfaGYFRwCMqAclu/Q06WD53Jv2W+vuRT25m0m7uyWrvb4dLmFXN6cZQUVjVzcjlJ15yjebcYqWqs3JtW5VytNKS1PBtO8X+NJR9mn+BF3cNEoeCb/hNNBjaOYhSoRfKhiCM4J3+YznIG1s5r1fwtf6j4zubS38U+A7rwra6bZt5sN1qenapZy6iXTb5Mlq0ksqoquwklWPk7dr8k9Bp15biV1hs7kFWWKd5iqIFIzviQkyZXGRkqD0xk5rehurdDIkEl6sXl8SIImcMxJJYbCowQApAyOT3Jr6DAtUeS84OLdpRUY3nZ3jGTspPW/P007I8DH1JzlUcKWIjPlcqdR16s/ZyqcsJzhFzcYPlUXBKN5XlJNOx/Pt8cPgPNoHjf9ob4aRvbW0fjfXY/iV4Fjvbq2tbbU7wW5stb0e2djCs1+9olleR27znzgZgFBDYZ+zdc3Hhr4QeENAvNPTQtW8Orqek3+kRTeallNBq19I8SOZZN26J4WCLK6Rb9kfyIoH6v/tDfBrwb8U7PRtS8XeGbfxFB4e1K21drW7jUi9SwnW5jt2Cxo7LLMhhuVzie1lmt2Ta4Wvyck0my+H+r+L9E0m0aw01/EN9qul6YunJpMGi2F9IjDT4INqnyrZxJtkbc8gfGSqjHZQqOnDESTsk21ZO6i22tWt1tdXta6fvH6DQxn17CYBzkueMYUqmqladPlg1a7+O3Ouazs2mtIn2r8PviNcW98kH2jaoC5BcbNrgjIQsG+QhmJwpUkA4JO36J1HxNpd9b7L2eGdGRWkDOrAbQGRcZ++CB/Ce5wMg1+VWmeK2trgyrIUcNGY5Gfcz7sn5j14xyFwB94KOMenW/wATJZocPclgE8tQZCcDByrYIBO3kMcknIIOcjwsbn9SleHPJxlprK6Vr2vqtbtJXX90+wwGU0qsYSnFXSupxVrLRNN2v02bV+ZaaHrfj220a8+03MIUKGYokbbMFshc/eIwCWUZIXHbqPBfB3gTSdd8eWt1r2rDQ/DGmyPfavqLyAutpbjzpIYjJkefdSLHAgZWCh2YYK4F+DWbzVbwqZBIkpAjUSbguSMHCgBlbBUHcOo+bAr16/8AhDqPiPwXqNvaSiO5vbTC/Z1KkMfmBfaRuBOAygFm79zXm4PEVcTUcneSUlJxvPWzaabT6rRptOyd7bnq4ihSoxUFJ0uaLjzrl5oNxcVNcycOaD2umk7SadrPyz42/wDBSD9nD4K6hZeCtA+Jng/RLxnS3kTVtf06yumHzoBOtxMDDGQvyk4fcclugFfS/wBszSfEtjaalpniG2vrW5iSW3v7PUYrq1ukkJAeG4glkjlTdkHD8E5YDAB/DH9oP/gnlMvjjXNR8WfBPwZq2k3t7c38/iiec32sXtw7bt66e8ZWIDa2RPKQMnbGXZWqp8NPhnrHhHwtF4Z8H6PNoWnaZdmCCz06Nre3to5cSMXtU2qvmB2dpF4D5JblSNMZSrTSk5VE+Z+6rRgo3VnCPMmrK3MrPm6NtjwdPCUWkoQqJx/eVqijVrVZcvvSq1JwvNt2ad0lF8qhFJI/cfU/28fDPhXWdOtfEPi/RNK0y5mjtZJdY1iwtBmTB27Li4jbL/MqEbc5XB6BvXPiPZ/DP42fDy31/wAD+JtLvdYtAl+sENzFcQ3MThjcLC8chZh83yOjNyFcgpux/LD8VP2G9D+K3ioeLvFega5rV5aMYpJdGv8AUIb68uY1MiwSE3aW0yqrqpil3RBNg2Ec1+pX/BOv9m34j+Dhc6Z4f8F+OfB3gTT5Ptb3PjK7W2M07KiR2Wl2UVxK0qOsbyySxhIxHsMhO6POsXUoKnUSnUmkuZNNcrTupQfM23aykmlpo1om6qxo1bqPLRUZqUvZqmo1Y2a5KqcIxlFN3urSi2pRk72Pu/wHpPiCyMcOmeKL/SLiKZUaJpVe0HlMVWOSKYSfJknJXYwDEK3Ga+tPBFn4tmmibV9Y04neN13YxtbSSRbyR5m6WU+YQSCd2SGVgB90fN3i20bw/r7AmSGRW8yU/MN7OcZK9CQUwXP1AByTpaX8SJ7WLy47khGDRszbQQeo8tnDFcNycA7gTnjAPRS4pxVCt7Lnlyre0vktW1fdxWid9bK2nLiclpVaSlywbTTul36K6tbmt1u79D9Mz4th0/SV8tUe6hgWJ5WlGcrxncT8xOOD3wOTzn4O+MXjOXWb65jkuGUeYQUBJVhuI55Pyg8EHsvJIIz59ffGm9s0MP2/fFIdsqgh98e0kZIGMsSHC88qPlIGB4b4m8dRajeEmcq1wzKAp5YLyrEADCkEAFSW4xkAiu6vmdTMYRc5SaTXK+ijorNbN3XK5yd77X6/PwyylgakpQglKpJuUpNub1aUVdO0VK6UY2Sfex8Sft0+Ita0vSPhbpPhbV7rRNck8ejxTDf6ddC3vrRPD9owiYqUmNzbXEt9tkhUoWSPAkA+Wu0Hi34lfFj9nTUtK1rU9V1vW9e1nQPCmk3epNJcynU9Zvk0qOa33gEeSl41yywRooSMAKNuav8AiPwP4P8Ajb8XNf0bxnr974b0n4Z+AI/Es2qaZoF3rOppGsc+p6rFbZT7C+zT4EZbUgzh5IpRhVGPs/8AZ48DW/xfufDUHw/8L+IvAvwj8I6SL/SNd8RW403xN4l1SQCGPxe1vDIH0cyqmPD8ShbjLtexjEPmHws3qwhyUk0m0vdum9NX8Ss203d/DZ3bSSPbwtaNLB1a9R8sKfNKU5XUI7JWb1u5cqioqV3pFN6H6KeCPBv/AAhfgDwV4bs7DyLTw14a0nSIoEiKxWvlWyPMjqo+REllfKswIwCTnk5mnQLq/wAYpJpHinaw8E2umxsYE8yKG91K4uJkjlI3iNvs8TOrEruRTgFQRDZfs16PPE23x/8AFFb6D95DrcXxM8WR3ELBd21kn1WeK4K4xulikkACgMDg1peC/h5rHgPxONut6l4nvdRERW81nV77Wb+7SE5zNc6hdXc7BR8hRfKt0diUjjbIGnCGGjHMp1lHlU2ne6eqkuquuyjqlo+tr/knHOOdTLZ0+aMuSUm3GM4W5+ea5lJJ895SbtrbdRdkfpl4aso7HQdEsoVPlWunWcCknnaLdCM7sscnIIHIJ9MVuHOcbQRgc9TnJyMZ9ACOuTjsDUcICRwJgLiJQFXp8qIpxz0GSACc4xyam6DJOMdT0/Hjp9RgDjJ71/Q+Ev8AV6Sdr2t3cru60+TStZ7uzVj+dak25txt8Wz2s2762vorW9dUxgHcjryM/LyMkAjpk8YPU89AeDBBOOvGRyc4H8PzYxk4GMD1I6BTv4JyRkY5A46ZGc7lB6DgkZB6UcfLg5ycYyTzg4AwOvGeSR34NdrlFNLd20Vr3XVLyaaSfSzb1B779kmtXdNtJq2qXmttV2EUYG3jA6bTyc9CTuJz65zz3OKd3Axng8nn0xz2PU89TikUdccc4xnI47+x9f1p3Y+3b16cD3+uOB1rFWXd2vv5N7rr6X7eYrpNuybb1ffmtdPSz2tray80NHIAOcgkjtgZPHQcc+gJ4PrTh39j+fAJ/nz+vWkByASRz07Yz2GfXrS9Bx65OfXp79APTuaXM5W6LtppvZafeO+3dvVPpq9FpfRpX9OwhIHfJzgDPUnJPtwFPUg8cd6bwoweR2+UDgHAyATnA2gEAk9SAeKX5iD69sYz2HU5xjnAJPHQjpQR8n3jkDOR3OD6np74PoeuaUr7xve2lmk1Z2d3vrul5Cu9eyT6PV311363XRbNrYXPX1+70IGQQRwRj05xzk460hAB6AgnPIxgnGMk8ggc45U545xgJUgr1wMNhufTHUYODjjn16gUrcEN246gnqCeeQR39wBxkMcU0pfFstU3+dlu+9/vGlB7vrorOztHRX79b25el+g3kNkbiCcbRkjnuQoXJUA4yTzjPOAXcDg4JI9OuQcnGPYgn6jnNYjWOr/2st+NXkOn+WkK6ItrZx2ykupuLya8eGa/ubgKcQxQ3FpbIoKukzkOuyTxnJGDzwSCAeRngAnjg5wCT345qtaOHjJtvS0npvZ3Su2rau6et1dbJXtvo3a9ld367bXeu26fXyHfTBHvx+mCRx64PtjBJUZ25OB1PoevfHzdzz+PaivnZ57BTmueCtKW9RJ7veztvd6dGiuR+TPy4tGuI7Z4pp1eW4HlyuFTagVQWVYwmcMFGHyWLZJYD5Rctr//AEJbJkJkEuEbZ8gX5s5IA+bHZioKg5Jzg9uPDdnFdwCGQ3IK5nV42/cl8lfODjGc/wAOQTGRwCFIW58O2/nxwR20imWNJJ2KlIg0gy7oFwBEeqqcHt2JP8vLBYikk9nzcqjdyerTbvbdu6d7JW01R/aLzrLq7tG8oy/f816ceWVLmg+Ze0TS5W4pNe8rJRtJSfPi3KEzBvOmAVgEQEhlUAmNBhT82Cd24DDZJ61kw+a106yyFg8u5ldPnDFhgfLtCjOSR0AH3cYA6vVfDHmRpJFe3TrausmyzuryxYlGIZJWtJoVuoXJTzbe4MsEhIV4CQd2jo1jJe3HlGFbcSR4muCvmJCkaMZJmJReXCtsXqC2OozXfhqE3WhG1ve62d3d6p3V7fabdk02kc08yorDVq3PGrBRalZOEqcY2ajKEryV+dOKhFttLe8TgvG2iG/i8AQxRR3On3XxG0qzvJHt97xwS2N07rCGx5bnyUjEnIYFkbcGwftLwNpNlobRaTpdvaWllavcbIbGCO1hbZgMxghIjZmbLbto4KnGBx45rFx/Y3hPwrqd0IbSKHW7dyZoFMlxLKv7t4sgmKd5PKhjlB3liOhr1rwVqVmmiaXqSRyH7SLq4Zncz4Sa6mjcNMhIwAhxuDeWCEbkE1+o5ZFUqeHjKXK6bpybvbR2vvfdu7StdK+qbZ+J8Q1pYmWKlCKl7SeIowhBprmhLl5pNttSte8dWpSS0kmj2fblSRwARng9D0wexx2ySMc54rI1G3FwFUyMu1slVxtkU/ejcHAKke45UHk4FX7aeOeBJonJiZQw6g844K/wnpwccnnmsfU72GBJVdwrlGKqN2WGGPGMEHJyc4I6Z717HFM6UstpqElrHm0ajolp66p6XkrNK72Pz3CQre35YRlzxk9FFtp25XdNN2V9e2u268p8VWN5fXq3+jXU2n6hp1tdW4cM0sCR3BiVpDYlha3UymNWtjPFKI3yoAMjV574atUs7O/juNR8RaprlzfyT3s2uy3E7XBCY3W8G8WOnWkY2iO2sLe0tVXlomk3MfYUvbKVLgSSgHYD8pAY4cDDMQckNjAAByOvOa5R9Okhv4/LaGcXil5RFzJFG7YCsFZWBkAByR0J4PFfltalVqQpyi3JSupK/NyuVopqCa961pX5fiu0kkfpOXVlTpzoVYeylRhTdKUo8s6ipJ1Z051XTfNS1lLlcoS1jHnbOLvIJHUTBUaRgwjIUBtxPQhcFVCqqkA87jyOaXTLfUyYw1usmBMyhnUCMxgku7NgoGVsAEglR1PJr0S/t7PS0R5IYZpNkhEQ5UHKjY+cAFcgjJzg9MHNc1Ki3VrqMVpFHLc3VlcIIEk2RZlCI6ELhSEUk7STv+7xlgdMuw86WKSlNtp+9GN1pybp7O7XW73vdWPWjmcq+Gl7OjanfljUqRTj8UYuy0cVCDu5O13ZLS7OTM13e6g6w22iNpK6fNbm9gj26ks0s8MlxZSSRyHNuRbRSYfb5jMD9xQK07KO2nuPMiiVRCoR0HTcoKg8jksAuRkDHBJPFeY+HNDuNK8e6/NcGSIz+H7GIwk7IGJutq3YjXMZudsUdoZWUSfZ4YYQdkaKPVtPWKItFlSHnYBi2T8xG4njAJJ4yQNqkDoa9HGTqSrxbbslpe101aySSu7pve3r27YKNLD1VTveWqcG7SU21Uk1d3douyuuVaxSW+rZNJJKw2tCInzDJK+XJ+Vm28/KoZiqAnqnC4KVLq9naXmny2ly8qpKWNz5M89sGyOskttNDN8yEh9si4A5Y5yK00sVrOBHL5pVlVYlzukyoJKrgnblgu4qBn/ZOQ/Wn1fT7OGW20I6nHfXCRSJNex2z2KuQBcFZEZrhRvLGFdpcgnAHFaU6nuzTu+VO7SbSelrpK/92yk7K+jTueXU/i0JpqKqSj7ON4wlNp3kr1NZWTlNqUVDmv7ykrEPhvT9I0mwa20uXzIFH7mJrqS5ZAoACLJNJJNJGgUrukkcqcgnOMbgnnjRhG4j3sC4yeg5KjncMjI6k4GM8ZPPQXllYzQRXv2W2vJWdVhG3zAF5YlA25FAG3LEDkEc5FGpaxeS30YhtbO30tXETTNLI19cyMRtW3gRQirklcNK7sANoJ6dFOs1G/wtONoq6eurbvdq2z9XFXFUw86ldrllUhN8zq1HBw9y6io2cVNae64rXRt2sy1q0N1qNtNYW11DZGeCVUmkhEiQzsp+zTncQNsMoSR0ORIBhjwSf5tPEXi/xPB+0X+0J8KvGt+95458K32lXXzanJqcF5pmpxpPptxbySAyW9lLaPEyxsImR1dXDMNx/oQ8X634ltZn03S7VpdO1axuLSe9t5msr7TXkTyxd2l01ndRB4vM34lXomYgXAI/k++NvjcfDb/gsb+0p4avbi+uIvE3gj4cWED3UxuY3iXwrp199suLq5zM1zLMpUkZiZDJFGsYyte9QXtaFWOrapO9721d0kr66pyTdrpW6HsZY54dxUpU40pyjOEY6ylKLXtJuVnaTUo03BropJ6XPpWTxLKzT7HaCe28yFkUqwPlEocEblIYAYYlsnGScVb8N+IpfPRZ5Djl2BYkEKSoxuJbkgdDtOBkbckeZanLDYX92Y2DxXEhmld03bYCzSGNAv7vbtwAD0AA4xtMFrqy3UyTWEiiHOQFDKvlhtxGTk5Cnke2cAZx+cZnTqe3lHaPNfonZN2fa2tu/VX3X7NlVWLoQ6XgldNXVtm1e0t73s7cz30P0O+GNtFdXlvfSiFowQR5zJsOD8oBOOT1CgN/d5zmvq+++N/hbwVo6wTywy3ezyILdWRHmnGdwRud2MEng7eO3FfjH4v+NT+DdCiktr6WCS3kYeVHMRkiJm3MI8OyoeM52gE8HNeKeEf2pfBN54q/tf4j+JI7uWxsp49K8NpqEMT32oXsiDz7wvKXhWC3RvLEEat5jvjAbK/S8O0ouPvN3b9bWVn01fS+qet2rnmZzUlOSSs4puzu7Jq+1tWlK7s09e5+rvivVfE/xn1TVLLw94a1HVrdGKpJb2kjpayzNGpk8xEYyQhifnJwnI9SPn/VfgF4/wDDOpxxXuj6haPqbSq+63aNJ5JJE8sIFjiAaJSwG0bgrYLgHFcHcftfyT+G4ni8ajwvoxCx2+geFLp9IMyQLHHE+q3dk0N1qE0gIDC8mkR2UtsG0Zg8I/tweIdOs9UjtPHWvXFiyeUovdQlvltXBKrNZPcySNbzPuYYDD5sSD5lBH09fCUm/eabdkrKLj31T1TvZ2bWu2hzYN4hwcly8ut0/apt7t3iml/hta9r2Wh6jq3gHxj8L4NKn1rw9dx2N3LcXMNzLZN8rPCqmQSyRFTO6BU+clljVWA7j66+GH7QvhdNIh0i5kjtJ44pUDPKCPNjJgwxIyG3IdyuQ24cbcgV+cum/tn+Jrpp4x8Q7rXYmlMraJ4xlt/EOmS7HYvFFFqSzy2UjqpjD280bpljGQOK8p8bfG7wHqlxqWu6M8HhHWHY3moaNb6gX02S/kZ2mnsFkdmW0uRiYwOzGGZpNrFCBXPi8LCNJNaNJ66J8y6p7a3e97RT3Y1WnGrFVFvLXWbhZaq6a3aa0eyWl0j9Ifiv4mttWup7iC4gaXG5OAXAJbI5Jc4zkHrkdOSa+Sdd8cNpiurSj5FZwA3DclcbiSGGBwoyOMZ4wPkvQv2nX8QapBA9wjyGI21wjyB33wO8S3CsJD5iSwpG7gdOATnk7/irW59bDzQzDy1iJ3hvlyQOURcDBPTjqGJPevzvGYaaxTcbpN6taq15db9XZ99mtbn1dKtCeFXMkny21d1rqm1fW9k1rtq2mzuNb+LH7pWExLMchEkLBTu5I5UfMQTvG1sk5JGM0NM+If8Aa1xbxJkznykQRtmRndjnABYsdpG0HJPJz85r5lnt7uWOSVfN3ISpdmJUEtlQwPLYA4UegycgitqHxNb+A/C/irx9exRSr4Q8Ka7qIMnlxxm4h0y4+zO5OFBe7eFIgcTMxCxncwr38HGVKjzNO0U2uZNWtGOttm1ZvXSTd7I+TzCtGVWMU0k2r6p6t730t72y7O2p+ln7JGiSXeq+P/GV1cQQz+OvFbaJHbDVJLh7mxsYbfw2LO70zyglvFfRRuwVJZla1Z2l2EOF/XnwzBa6DoEmnWcccS+Ysl1PGsURmmVBGigRRoiQW0KLb2cChkhtkSJT1ZvzS/Ya/Zeh+D3wu8AeNfHOreLNa+KHiLwlonibV9F1u9sZNE8J674k09NQ1FbC2s7G0nuLiMXZWF9SkmksEkaIBp0L1+gttcTTOI4jLmVinkJlncnIGFXI3H+8QQMnOBgj8y4l4mlPHShQTtFOnZSdr3a1Su22+q05bJ9j26WAVfBQUrKnCca3NK3LJwd+bST0hdqLkuVTTm7Wud3H4gf7MrCRWMdzHC0G475FkO1ypG3gHgngnoR0JpeCp2P7R1lpNvcyraTeFFgDSOXSF7m+eOZeqtGxBVW27XYKTn5s1xcttJFIVfzoZRh4nTI2uGBRmBIGQD17evGB3/gScaN+03b3F5KkNlrXhrwra2yOiyxG/wBVuESJSSX8u5uJiFRlUFGdCzBCSfvPDivVxM5zqXcrxT1bauk0ldaK107LT1bt+SeKVClhsBTVNxtUdSceXlstEtk25au6bbvdr4Uj9MI0WONUA4jUKmTk7VACjn5sgY5OSSDnPJpcgrkjGRzuzuzu4wCo6cfez69SKQEkZ49D78DjjnvngevYElSAByDz1ByDnPTnHQ5GTgkAZ6V/S2BcnSpdNI9b/C7dNtLW7K9tGz+ZpL97JLV3e+nn+W219B3AIJBJHcYDfgSCB69KQckq2Dg5HGSAcgYHHI5xnOeeO5M8jJHJIwOMY9cn/HkHnPVMN1yueMjk8c9P/r/l6d0vjj0tbrpbX8GCv0trpdXclbotbp977O24735/zwOw9Pf07Um7rjnrzj24xyvXOeTgjrjrQcnI4AwAMcHpz0x368g+nqAY/E/e5yMgAY6nBz+nbGKhq7lZprftvp89Wx3unprHe+2vdaa9NE1GzvbQNoOAQCB0BA49D09B9PYUtNJwD3wCR+AHHqT/AI0455xjrxnpjPHTvjr7/iBKSTa7q/yWgNXs2mna1lrZd/SVk+9rK9w/z/8AX/zz7UDORjjGeOg7c5zxgkfjQD159vx6/wCc45HrikPbHXBGOo6d/wCEDnHf1BGAaOmujurf+BfqtBq9tW/na+r2j1WtvitHfdjD84IK5BBJwSCTnPJBUjPT3xyCCRSuc7kPG4Fcq208jnDKRg5Kgbeh5yCACuBkcKRkMDzkMD154PBIUZOSfpTcnAJ4OOvHc9uMAg4wQRu6A81nWnyU7vX3W2092+iXlsvm207CuuZNtO3Rc1trvpd+Vt+trDiemOnOfm6ZHBXJPQg5J5IHtxTmuI7O2eaVyIreNpXdgXbES5LEAFnbAPAUlmJCgkjLb+9tdMsrnUb6eK2s7G2uLu8upWKRW9rbRNNPPI5wixwxI8rN1AVixIAx8EN8d/EvxF+ImjeH/CWqz6bb6rrC2Gli2VcNpyG4vLrUr+3kEkFx5Wn2k1wsc8bRbvKhcL5pr894izqVJyoU21KStdX2srJau1r6W3X97QJ1IrkWt3JWSerd3a68t0/vPoy4+Kfiq7nlfw78PdY1PTkkeEXkuy3Ms0bHftjZgwQKUxkZBLKcFSAV6jNZ3sZjSxmjihWMArKrFjJubcw2KFAYbSQAo3biFAIFFfleIzTHKvVT+sStOS5oOHK9tY31t66731OyNGbind6rp/wzPwjC/tfx3M9zZ/HP4gXWxwiC48MfD+5tJ1QHdm3uPB0lsw2r5ikRhifvMCBjUj1z9s2wVbu4+Mt3LFNGX/4nHwt8AzIkcYO5onsdH0lmlyTkSfIFUnCgkV+mnhXRvENp4ctJf7c1K4F5JPPE11M07xxGeQKjNJvLllwdzEswO4cDFa2rWviayKh50ZfJj8uV4YZRuOCxZpInYkA8BmwDjgjBrLFYWULy569rptWTSTvpzJttNu+qSad207n9AUc1oTnGm8LlVRtzhCLnOlOXs1aScVCMFJPSau3eK5W0rH5yafcftb6x4Z1G70b4seErm5SSNBBffDTRIpHWaOQPcWL2tyI5Z45iDLE4lYrskVRkk3PDvi79rTRLRV13VPhzqVz5bIxk+G9/pt3eSRxSEtNJFrkNsqklDM0NvGFQMUTPFff7XeqQFFWS3mvNhaMTWdrHE2RxlY4hIBkAlQ4bjjGaztR1KHUcwz2Ogaq0sUZWZrK3vrZZmwHJ+Z1JXHMZYNhssw3AMqNJRkpKrUfK1HWDslvrpb5bN9W1Z6VsbKonSeAwijP3rwxDTk4tJ3vZzdkmm2n0S2t4L4F8VfHX4rWv9k+N9B8PnT9Pntbm21Lw5pWpabHbywPIjKkt5d3McjSqQUEeDGqhulUbj9ozxp4PuZ/B2j/BbUNU0/RZLuyt9fm8RW+m6fqMcU8ksnk2cdhNOsvnGRMbCsjYcyhCzD6PsNL8UrZ6fBb65dpa2q3Bt1t9M0yytYJMDyY54IoUDxWYCx2kaRxosePMllPzmHVLu9zJp+u6J4Z1VbgqGeTSkjSf5QHlmDO4MjNknbtXnAJwte/9ZlCkm6klL3VeUVLmUVpGNkmrbq6acb2eh4H1dVqjpU8Lh3CNSco0qFeVOdJ8zc5S9onzSm3zNJv3l7ze5xekftW6vY2lgdY+D3iS1sbwOsF5beItCvklmhj/ANIS3iZreeSNHIQ5ROoLAbcV5/4l/bV8P6feTnUPhJ8W7gOHWKSwsPD9zDI0YOUjYa0rn5Qx5UhQrZ2hTj1I+HvB1tI95D4K8M2d0IWjhvI4Jo2jEh3uqlJgFUkghEAUuVGQQDVa+07QprVbabRdIuolZ3jg8u5EfmspDu0gmJYliPl3YKk428k55jj6mIw1KnzqSirK8ZPrrZOytqtFp3a0KwnD9GFWpWeGq05TupOOIhed2paNNxTezs7t9VseCab+3H8PtYuvssXw0+M9tdmM/u4PDGlag8qohM2Y7LXdw8ohSxwxOQy8KSNNf20vh9pcOpXVt4O+LdlqEY2CW++HGoXsF4PmLiKTSry6VJlXMWXnY78ErhcVW1rTfD+keKLydNC0TTY7KzspbQ6ZugdryZfMuWaCd5Z2WMukLhtkeANucmvY/Dq6R/wjsWt3uh6OLG9EEaz3Op21nK/2qVoLWWGxuLfEsl5PE8dttnaS4kwscTHAPDGhKNKM4tc6i5OSVuW0b3jro+Vuz1fRPVo754elBclRVZU5yhT9m5xlKfNN2hLn0nFtWs5RSSTT+E8m8O/te+AfFqov/CHfFnRIri4nkjth8NPEt8JfLMSz3r3FhYlArK6iRSZPK4DOxYA93d/GvwDqMY8J6TqfjDRtY8UXEWi6dqVz4R17SEsmu3iil1BNQvbAW8RtVZnDTBWjdCpUKd1dGI/B412NLvQ9RudPtoBDaww3KfYIryZkM4ms4LVXindY0LSSXDIw48vPI7K6g+HmpXkV3Z+HrbVdQ0SGS1jhgeza7sizq8lsHkU+QXKbnUMoDIocg9YwcZRqufPSck/tc7k9k7JKyXLdJK+710NMTS9nTjTjhsxhScXKLisM6TnFN++pSU5u7i3zWTcFFe6cF8S/in8K/hHqVlN4i1rU7uO90+DSJNY03TbzxKkUtlNLJJLqTaNDdTQuWkAZUgYLIHAVMbB5XY/tgfs7XF9JYw+M9ZeUOSWTwL4yeI7lQpFHs0ZnLuSQMRqGIwSB19Z8V/DbwP8AE+IQPpkunrCxnklVNPSOW7aMboJHiVzI0QEW/ABkP8bRg1laR+zj4G8KSxXU+hJqSpF+5njNmYdw3B0kQRtK5fAUKBwAwJGeOnFRnUrNwhBxtdSi3KMU9op6NpLWzWj3aurrDyo0aMaVXFYhV5RUfZtU4Vas1f3uVxdO/vXcYzSSUbXtYytO/as/ZruLtSnxh8N6ZeWoR5LHxHFqvh2/jVvmWRbTWNOtJpATgZRXVdoJwCufQJ/jP8JPG10fDGmfEHw1rOuiCK/t9P0XxOyap5EkSTR3TLpUsNyiNFIs23crhJEZ40yKdY2ng/w4j3j+GNBTUHDpBfWelwRiC1mby4rRIy9y0kkbI28hVDMWJVcknOj0nwpfR3dlNo+o2lvczTalc3cNobc6jcSDDXd3JbRRTSl3O0eWIYoYoY0D7BgZ3lGm4x5E58zlZTSTtaKbd1zJJ9bRbWregnhoyrxrVo4pqi4qjOTw0ptqXNK3s7ycG3ZtpSl73u21fLavqPwp8IahZz+KviTYeH5b+72wN4k8QFzFKyFlhSe52tHHt3MJb5zJJgs0zL06LWPj/wDADw3ZwK3xn8DKjIuy6ttTTX0iZmClpTpjXCRqNwOZpkCplvurVzw98NoLiGO2c+D7zTHeWCGz1HwtsnuI5VaNozczXl1NJLMrMJ7kqDIGY42lRXCeKP2fPhjb6vDobWMOj3l/FJqL6doum3E9mtpCireTyukKrDAHwimc+Zh/LAZhitMLGfSnGV7K/NJvf1erV7dbq+zuY4vEUatdUXi68XCLn7FU6eqVlf3qcXo7bOyVk9Wd5pnx4/Z41hQkPxm+HhnABYXPi/QbWKYPlQUW5v0KEDIZJQkqgjIyMH+Kr/grZLDF/wAFuvhN/wAIH4ssNZ0n462XwU0ZNS0HU7TUtNaxj/tLS9R8u9sJZoXu92miAojkFZ/m5Civ6vNa/Y+0wXudK8Nafeafc27qZXOnLmJtwEy205WYiQHcgEJABx1zX4Mf8FOP2Gdf8Eft8f8ABJX4+eHPDEo8GWXxq0b4VeOryzjt/sGm6suuya74XlvjaM8dvFfWr3tpaCZRulheGIEsoP3GVUXNuNWMIJ0pNuz97lpycU3qldtK7a1XZ64wqQhNVKeJq1bz5I05uDUZSlHm5UlFu0Yv3baaxTbicnpviyLVrKeN1ntHt5bjSry1nSaK4gktJntruCWGfEsU0cqOrDC52k8oSxt2Gp22njepcqHdWXjbtwETOOMZI+Yck53HGRWd+1bYn4UeN5vFOnQTTaR4j1C5GqRo4W2h1G5meU3SgsFaS6nklWXcpMkrx7MuefKPD/jK01e3intrgNmNQ0QIYDIyoJ/hAIJYrzlWGMA5+QzbAr20vdUW3e9uqXV763uraaNJbn6zkuLl7Km/su13fZKyT2sr3SstrXv0Oq8baJceLiLaCRlW4VldFbqkoGQMDbk4BxycE+uSeE/2Mf2aLy/0e++KXwi8NzeMJbgXWkePbyzt7k6ilzG+zSNbDoytnbusLhmBiMTwtH8yEdHZGciOaHDbVWQqoLEb8bWCqC3J5GAeMk8c10VzcT3+lyWkolljkILRKrmPzFUqjlSSjyJk4bBIJJ784YCVTDNpNtK97XT89ultZbJ6J6o9qsqVZpuzldtrS+1rJ7t230VvmfRE/wCwP+yL8R/CbwI2o+A9ctiwm1DwZdLp7XEYQBImggkhSQbgArybsrwDkLj5fvv+CS3w/ttRmuvBX7Q/j7SJbmQQmyn1jxFHG6JHNIJLiL+05LS7k2Iwk/dsxwrJtVC1eSeKvFfxn8Hu0ngu6mv7VUISxvftELxtHs2Ik8RVzGwVgEkjdVOGOMDdz2n/ALWX7RGmWWnf2/4L3XyXcq2gg1RZjbFozbLOzSWSZLRPL5iFmWMHblmJx7UsW5ODcnrZW1b5tHZu2i00dnva6udWHp0403Zq2uiWuitq7rf0vbXXQ+tNA/4JGfDjRo11nxn+0v4+tVZ42e00SRLu4u40Tc37/Up5W04yyLtVLeHOcyM3OK8V+NH7AvwCvA6nxT8R30qxnka0KeONYtdV1ifygPLlktbuEeRIVj+SOPyYd8pRFzg+ba1+0J+0Jr18bc2Bt1mePybq7vJri3QOFyzWcSRn93uLFd4XkEcE7vVtFuvE+o28V14h1aS9vViIaWRRFErlBu8qIEpHHudiiKGYHkYIyJxGLnyRitb82nnp63815LZ7+dXhFVVNeWl9Ekul77Le/na92l8mWXwdu/h5r8Fzp95eS6dbRxW6QzXMskkMKgCNHuJy8szhFQSSMxkZizMWOSfoT+27iPSTHE4NwUURDIbOQSQx4zk/fIweWyFPNX9ctpJJCAwcZbdLt+V8gYZQy4IVuzEjPODzjzrUrqCwkKvIuVJY5ZGKggAjblgqdDtAJJ5ywJrzlgnXqqTi97N2el9Xo7at2vp1drJGVbHKlTcVJxsn5JO3ZaLyWzW17HWQThbfEbrC94xkZWkYx+ayYYY3D7u1gqr64xu6Z9j4bHxm+LHwW/ZrtkupbT4ofEPw0vi/7DgxyeFtB1SDXPEf2984+xvp9hPC8RO11KrINrFq8N8e/FPSPCllPfXt7bRx2KK6KJEileRisUEMMYYyyS3EzpDEiL5sruqorHAr9WP+CT37PHxt1fV9e/ac1bXdD8F3tgdT8O/D+41Lw/Dq1wIfEaW0+oXGnwaj5LJLZ6PHbRPdOjIk+oTQqpVa9z+yZSw81GL1ptO2vKrWbUU9baaPV7qy1fweZZyqNS/NG6btzXSlLVWbs2lZ6ySuk/d1Sa/f7V/Dah7m7lhaEyyM0Max7VSHOyOJSucJDEqKpGANoHA2iuWk04whfJkaB1YOJUUB1YBiGD43LtJOCAB0GNpIFeHS/jdY6dJFdfF3RvFF60hZR4l8HWUsOeWZ0l0680423ysFZUGFVQThl54668R/GvREimudG+GGvK6mTdHZazbKApXCOI9TmV9y/PtLc/dHHzV+LZnwNiquPlUi/ZqU2+aUZKTTbbXutx2d1d3Xa+p9HlnFU3hlCqo1HFaQp1I+zUFTilG1eEJaJe83zc13Jc17Ho1rYXl7GTEVbyo1+0zybW2REqHkYuPmOw5AySTkgc12Hwls9P8AGfxku1nZryTwvr+mzi8hASOePQ9PF1pTfffdsuooWlCYVtiEknNeWeFPHHxd8Ttc6NqHgbwDpNle2txb2uoaWdViENxsZrWK4jVJw0FzIFRmLKUZxg4Bz337Jdtc+HPib4hstctJ4df8TG5uDHbebLY2MWlWRWYPLLteNJS0YTzFGXkjjwMLj9O4Hyh5VVdKU+Zy5fealHXZJJvXRN37vzPzTxBzSeYYKEpU1S5XNQpqcaijHvzQilZu2nSyWqsfpfgjAByCVI9+meew4JAwfTPAypHyg7sDA4A7qcEDgkg4HbrkDPSlx9T1BBJ9uPx4yR6YAHWm/d6EjAxgYwfzHHPTp0GAcAV+9YLSnTtFfZ23ttfe1n1W6lZ7Wv8Ag1RWcpWe+71u3e+3V767aWQpJGOCQQcDBznOeSCOOQMdRnrgYKICoKs+9gTzgDAJOFAHHGCOMZxnAoA7gZPGAMjPJ6dOD0HXIBwR2UD5iQvXbySSeARkdsknp6Hkk8ntnG0lvqktdGmk3qnr1t6kJ6K+97dbpaO7sls++vRX1FP1Of8AP4dcdc9x3oHIBznrjnODyDjPYZwBjFA64Hbjtx3HoBgduvIJ9aUgEYPIHPpz0/HtWbdk32/Xb8dCkm7p3Xy0u92r6pvW61S1sNJHbJPTjt09eMgc8joOe1KpBHGTwfc5yePqSD+vFKAB0x+Hr0598foRSbRkHuAcfjz/ADz7c/lmpNtNWvZ9X/W9nrp0Dlst38m122v10/QOeOMZXOfQ+h/z19MGlx347cHuMnPTp+J+lIAcY7nPT35IHTnsPftS7e2Ocbe56YBxn9QR9RWqeurstG3brrfX1+7zFHdp295pa3267vv638mhvUckDqQecDBPB6HP6nkcYzSEkZyclcY5xycZ4GACcgDBJAB5J3VBHeWk889rDc28tzaGMXNvHLFJcW3moXh8+GNjLAZYyWi8xU3oQyZXIMjOQSOAuDn1J4YEDIPAxnrj6Yz5Gb4qnTo259d3fRpWbe1tG9XrrZehUoxUrrazsu7Sd13+HW6tr3Pl79rfxtp/hv4T6roEs962u+Ont/DmgaXpVtLe6lq0kl1bzajZwW0A8x4JtNjube6disKQ3BMrLHuz8ufs9+E9f8E+KbTxr4i02GTUf7Fv9L03w/aYuLu1lvp7dmmlngVopbkwW6QFIA+0O4DkZFfUXxEurHxJrUd1JaW8knh9r20s75VDypHLIv2hEdyFjWRoELMgZ2CrtYbttavwk/4R/Vdb8TT2er2Wp3fhC7i0rV7e2uI7kaRqk1ot2ba7kj3Qw3UdpKjvbCQS2wlC3CI/A/G8wr/Wswl72isrtSdnFNrVRa2963Nza/CkjkgpVMRBRWkettnprtbvo9ztID8SdWjF7b3WiaNBKf3Nlf6RcT3Sx4BEkrLqEOwuWIEbRhgFBblsArMv/izqUl5OvhX4b+LvGGkwSNAmv6eNOsdMvZ4z++Omvqd5aS6hZISqx6jbRvZXLiRbeaVYmYlcMqdJN31d9Xyzd3u9ban0CpaL3E9N3OV/wdvkttibw1ZRjw3oT36y2dxaQszWqSsqROSzBJEXbvG0qo3KwBOCoION28js5YGddsjzujKp37SRxhlP3V5G4lQCMlsACuRvbTxrIb0Wl14UhthPI8Ntd22tveRxOd6rdGK/VfMwwwY1EYAyiqMqMW21zxda2k9qyeEZL1FmiLJdav8AZ3uCzrEFjkVpkUMVEitPuU58t8YavTr4OrGfK4LlcXHm5eZ3s4pqL06Wd+jvZM+vjGdWTrU6kpTjVlPk5lGMYzkqjjzys/ilzXTlz2+NJnW2+kaddzZt4Y45fMDXTqCv7wfwjIG5SMj5T0GPm610N1oWnS+TJLBH5kChInbapx6EkAgEDB7kcHknPk1lqXxFEQEzeCRINouoJLTXokysg3m3nW6lQoR80buN4GNyEjB6Fdc8RTK7vDp0EKkLaxWd3NfCaRCxcOskUTrvX5AFXC7vvMRU0sFtai7yspJQdrr3lZK62d0/5np5a1o42dWKjiZU407qMnWba5o+8nJatP4UmnGMV8S1b6lLWNDJCs1qkOGYqXQsAcYwd2Rgj5hj+IEA5rlb7T7O9unhuLSGS3QYFwn3snOdpX51bB+XHqQOSa4b/hNPEy3N7Z3vgHTr6SKVwJ9O8VSae7IxD8w6npSwCSKMgSFr5FLgsSqk4ln8W39sgnPgjxYbUKJJrnTr3wLq9vAAGZ2kFl4w+3SRqUKsY7NmJwNu3IFVcLUkklSTte6b1Wul1NKKvqk72lZppLV9eFcqdScvaVIVHD3ZcsYpySV6kKlKpNylsveS913aepqXPh3R3cQws0O0sAHbBL85+YkZxyDkAkEAjg1z2p+GpDIq2TxKkeMuSCGxtz0OBu5OOSOATWiPFqahZpfjS5oXVndbK4W1W9nEfRTHDezRo7NtHzSjaWzurAl8fTJLc/b/AAJ44SNfK2yaNpKa6jiUsGmig02d7gRpwTtt5XIO4qQhFcE8IruPIleS6Si5PolZtWTV7O1kuqaPo6OLxlGCk6kpwjCXMpypVUptq8lblbbTv7ytGWjaZ5f8UPB+j+bqesqmjw65caVphnlnCNrF1Z6RHJFFp+mzGTAtQ8897dQiPdK4EudseK7i18HeH/Efh74a6nqGk6fLrenaBpt3pd3cWcM13pxBa5tprd5Ud4GCzF1dApXe2GBOTh+IfiV4Rs9UsbjUvDfju2lubWfSkh1L4eeO7e3W3l4a4vLs+GZbKJAA7B0uTMIxtVfm216loWseE9QttFt9A1ixuJtP0i3gisCZIdTjijREjim067WC+hgEUbjdLAjNwQAAQ206EvYuLWicU7pxdua+lknpZK3q32M5Yv2dXDTjJ80VVkuVwmnOpQcVCcVKdk21rK3aLSTZwu/S4NaudAFy11qklut9cWyROZUV2CRTSMASkR2MolyY1b5WcOyqXnQZoJn1CxMlvcySIJI4xhHVG5DAAKQ4I3nOSTk1q6nqvhrT/GdlNZeMPDPh6+vmtobrRrxNOt9Z1h7SO8aK0a9vLxZRarNcRzxxJAjBkWPzWEgQ+waXY3M9xCmo2dnNZzfMhtgZGWdwXDNNE+0xspBOQBnncy4B5KOFbk1FP47KUV7qUk3unz6vTVJ720udeJzt0qanUpLSmpyhUmoVm4JqfLTlB0et4qNV3ik90jwbU9Qn8NwJJHZXMry3bu7RwYheSZkDb2XJVlIxGBlm3AbdqgnoNLfX/ENlPLJpcY025liSwtLh5Flu7faDPJOgj8uPa28JEBIH2nJAdcfSN3pFncWb2c1pFLb4DGHaqj5CrLs4ADFgBj5cZJrz+7v5jdvDZGNPsylvIWRN9siKAAypuKqwUsAcIyAkZBrunguVpybalGKtGN3JWtezt7ve7Sl12PHw2f8A11TVLC0qdSm3L2laonCMbe5Z8vNzTk3faMUrwbloeSa74euruSKKGxfT2jVkhOzy0UqxTZuAA28DaAOQTnnArofDmh6vaWVyLg78xrhdy7iFDDJz1DMQcLkZbnkAV1B8XW87PbXF5olzco8Zt7Y3llM5c7BhhFMzxDc2A0wQFiQMkMam1Tx3oHhHRL/xF451XTPDuh2wKz3upXMUFujRqrPHAcl5tq4A2RsGxg4BrtwuQYjGVIxoQqS5rctqc92tna8OVqX+btZixOc140Wp08OuVxTUa0pqVpppR5owlzaN3nJWasm7pEFhY6nbQjUZLd1WF1lVYYTMGRGIIVeB5jbR1bI+9gcCq2kWMfiTWbvxprRWyurbTJtKTTY5VZobKOVp3eSTf5bSP8jM42JHjbkLyPzs+Lf/AAVg+HejDUfD3wM8I6p8VNUsJJbSbU7aKOHQllQB5T9qleKwWKDevnNPqEbAMFSEy5jr8uPif+2f8W/GVrJJ428XWvh+x1i+2WngLwhqUunWVv8AbWVI7a9ls2tYb2eRisZWN5Sz45ZsV91lHhrj58tSvLkpOzcJKzbXV6p22SWl3o9Hr8ric+VSpKckoVG5U6c4ybkqU53km5PRtpKUle11a7en7ra78Yvhb4Q1TxHq3ijxd4Q8P2EbvbrI2qS6hciK13RSmaO1tZUhO2Pcu65IbOcqpr8qvit/wUu/Z4+OfjzwT+zN8MPCs3xY03xZ8UfB8nh74kXuny6N4b8PeIPD2ri+k8b+GJTJ/aerQ6BLB5MOppDb2Us88loJpEmevw3+J37Stt4g8a/EmEXRk0P4MWMXhSx068U3+l6r8RfEG2K81F7OJVgubPwrbTRQsZBKhnad18xlArgP+CbX2vxV+0Lp/wAVtWa8a61XxrHY6LDdHEeneFvC8t7Fb2tjCQRbf2hLC8/kRRxmYTKzR4VQfpq3C1HLaFWSk3OnBu7SSel2nq1Z690reh6OWZl9ZrUqcrOPPBxjs3NT913ST5l3T1bd73P1f/aj8LW/inTdU0+SMlbiCVGfYGJfdvEkQf7rKUR1LEYbG7lQB+H9/e+JPgxrslrfTXN/o8N4oW5aMM8cTyfK0iou4ooPOY8DJBIAJr+gf4kINQNyJQi5iOJG2lQozyzFlGAQM4wSMAKTX5r/ABa8AWmrrf280EMxdicmPzHkD8HB27gQCSNoIyOTzX5Hm0YutNafElo79XbV2Wt720VtE76H7llEZqjDTTlvZpvdrd6JK7fndJbIZ8IfinoGvvatLdK9u5VP9argrkDdsY7vLVSGYDnbyECmvsaMeG2ggmFzavFIMRyRyIuWDL1L4XALKCp59FLMMfhX4y8F+Kfh5exTeD5rmG1SaSWOMySGUTyxPHhfmjdYoY3kd13lQq5IIUEcjYftm+KPDd+un6rPd3lrpitHPLKZHg3LtWU7lBUHei5Ydwi53ECuOhgnVtypN+jvZ+Sa16tP3eu616MRmCw0+Wbsmt2v+Dvpfpdp3ukfvpd3fhcyxs5tn+z7i8TCM7lXIRdrkZLdhkOQBjLHdXmXirWPB95c2iR29lbKN9w7MkavtjXBUqUHzM7qFIDY44BY1+Tkn7cuj6pbzySyvZidYhbSXDNG08hHljGS2DG/msxJACbfm3OAeV1P9qaDz1uZtSFzaxgxywIzrOrnY6kZHKlsqB02gvgDaa9OOV1eW/KrpXdru1ut10e776K5x/6xUYtpVE1zNWTXLtrtr7ztda3ltZaL9rPDui+ANXge68yB7zki2BdHXGS7MWHzEp93aSdoyeCRXQjStATzLbTwjnIDYEbMIy2eSGJUZUgkAbv4hzX46eHf2z/Dmk2avPeBJhlJ4o7hfPVSwVWIVmLZb5WVclSOcnGNrVP249H0ks0N3sLpHgrJun/fHcgKj52ZSNwXLMoyxUZXPLWwU1ON00k/ysm0tu3btvqtlnEKy5lNXcU9W7c22is9U9W/u6n6C/FC+0Lw5bSzyTQQlUYoEdcM+45wRkbScDccKMH7uSK/Nr4pftAeHtDnkhjvre4vZtyQQW0gmkadvlAYRAnJJUgEHIyWxxXzb8Qfjr8SfjBq81npUxOmx/6JEls0qPJKUaTczhki3oZYwd5VWchc5Ug9x8Iv2abqXU4NY8UyS313JJDMIJ5knWOcNuJBUtGBhhuIc4HB27Tj0MLh4qUU2r39bbtt73VnbR7ve5zVq7nSqSWzi2nv3t6pLpqrK900ke4fs4/CjU/itrkPjbx1C8+nLJHJp+m3KSR2+FdHE8sLg5KMiGMhYyMkAhia/pW+Dn7e37Mf7Mnwa0jwR4z8I+PNauvAMWv6r418QeFdMh1Gw0T+1tXuZrOfVrOEz3iWVtpLaZAblrNoofLUH5VNfl18NNItPD+lJHBGkFvFAixKqhDkDLgLxnc+7ayjkEcZAr82viv8b9Y8H/HTXrzRdam0a7vtevrKHUrcRt9kiVjZQrOkqm1vLWGbzRJbzJLFdQtPGymOU7v0rIsppYui+aCkrJbXSurXTteO3S7ezsfkfE+OdCUVzON3zJ81r6u3vau38qSaaVn1P62/BH/BVv8A4J3fFW203/hD/izY6Fd6gkUsE/iWHydMkM6b939pQPKqRoTlpZLdUXIMgQE7ftLwZ4s0DxVpZ1Xwvrfg/wAY+H3EdxFqWi6rpuqW7pMwkR45YpGdwyuHVXjAwcAFVGf4DPi5+zH8NfiP8JdW+Jnwi8Mad4B+La+F28YaP4g+G8uq6PpviPXrO3TUbzS9Y8KSXEul29rqxjn8tdOtYIbKaVGiAjTCw/sVftpftOeA9f0/w7a+I9f0qbQ1S51Ka5vJ7OzihhZGmtppCzpcu7jyUt0WUPIRkIjMRzZtwOqk1WpJrlV7KLtfVrZpaN2Wj1d2+hzZVxbDDU/YVo86d7zlJSltsm4ydr3tZ6PZaWP9BnxP4tfQbO1GlxpZPMZWklgWHawZRtjSIjaq8MxlXDjkKwwa7v8AZn1HSvEGoXWsWlxa314g1L7TeRGGdkBmgjkt1mG9grOUZ1jk2Aw7Nu0cfij8Ev8AgolpPjy30Dw58bLPTNCuZ1trSHxRFpeoaeLqCYRxCae1W3h+3PMxyJ9PEkzK+5I5yNrfon/wT7bX2+IfxNuf7Ourb4ctfa1B8OJQpki1Tw7e+IHuLLxBPO0heZtRAmZR5cP2OJEikRZN+PmqeTYnLq3tKkPd0UZKL0Sai7t6J81nd2Ta00tfn4gzbB5hhF9Xcuaz5+aSlzSlJW6RTSSfLomttz9cVck9gc5OThTkY7YHtz0H1FAcE/dYEd/4GGcZyCVAO8FdxUkdjhsZernUY9Kv30hbZtUW1uDp63TMts155bC3+0tEryCETFWlKZcqrADLCrtmJktYEuZlnnSNBNMmEWSQY3sqbshCxbapJIQAHcc5+iw2LcMRGDvZJbW2dlK/S97Ndteuh+f1Irkk01Ztr7lv2tql5O1rlj5epIGCMEHHKjgEtzuUAAgY6Ac/MCYbq3K7Qo6k89weT/FjAOeC3OcBx74J6cHjHtjrz34BHrnFN6kfKDjDA5yM5Bxj2HcAkg9+levLExbjpK7vZvVp3V3o+rjtrfZJnNGF00t7K7fe6ba6atJvzXS9gBU7iAcZOQeApwDgZ+6DxwOAeeDmlwSRkspVicDHzDsG4JwAATggg55weQjJycZJycE5PPynqMH14PXrjOXZB5GO4498e547fz7VcqlknbVptXXXv8m9ndaspReivd31vf131u+umiDp1/l0/T8e/X8AhG4bc4JzyCAwGCMjPA69SCM9ORS+vH/1/wDPSkGMg5G7pweSOv0wDn361kpXSlqrPo7O+ut+3lruiL7bXbstdHrbSwi4xwc+/rnnPcD34H055Q5JAO4YwN3UkhQOM9gByCwJHbotKBjlVGeRkk4xn8ecYx6HJBGaQnjJyWA4wSMg8jJ+Xbg5HQYOT6UVq6jRbsraWVr62vZ97Xe3W99LXmMJc2sbWd215NtWld3u9Nr7+SG7UVndVRWkK+YyKA7EA7WZgQWIGAM9gBxzWZrVz9m0zUbhcAwWVzKCQcZSF23ZXLYwMEgZA68YNLPbztfW9+dQltrS1jn86yVLcQXDyhCk08zKZF+zhW2qjqp3ktkKoHLax408JKJtPk8V6HZXDq8TyTXtm0cTMpBVzLILfcQRmKR8MDyp7/l/E+bqlTlGba33dm481Nd9Gouq1fblj3O+lCPMnOzWjfZJ2b1tq2rXfS/Q+L/GniebTNMnRJJrW4uJrq1mLo8VzAkbeWs6MTu3ud0qSKiuIzHIpxghn7LPw98y3+Nsupy6hf8Ah3xZ8QLXxTc2LymObxHBJ4P0TTjpl0PMSSXTRc6fdJPA84i1dWWO7BtZJ4pan7UXw68b/wDCM3HjH4d+INB1g6prfhbRJU1RIFttJl8TeI9L8NrrdrNp4Md7BaSanBJcWMpiLIJJRcrsKt9ofD3wlaeDvC2kaLaT2l7d2en6bZ6rrENna2c2r3VnbRW81/dpaKoa4lCMwDs7RgiPewya/gHwYyX6RuK8dvEbjLxVziphuA44LNMo4MyHCZlhquSYvD180ccox2AyrC1ZxwdXA5ZQp4zHYvHOONr47FV6MV7NckftszeQRyPL45dSg8bOrN4io4WnDltzwm+WyWtoJPZ80G22l0mm6ddW0UyzX0rrJcNNbW32a0t0020eOIQ6ZElupQx2gUqr7mJLEKfLCAFXtsik7ZBIpJIaQlmA6bcrwQMcd+xor+w5YqXNK1NWcpNe89nJyS0dtE0tNNNND5e7evPFeV2rdLW5dLW2/wCHfytoni+z1mO+in8T6jpZiO2WeZUluJEALuqh12woqlQEG/YclgOtcXr/AIh8OwanNFovxUt9JLBPKu9U02HUIEuDEPmMk5tIGmZyWMXmcZBUMQRXKNLqsdylpaaV5EUkkji6ZFYFQxDM+8kqpAGOMNyQQpBFXTPFOiQXMun6xpiW0k1zKjXHlp5DOGKcvjbtdANwCqiZx0XB/aK+UwbuopJtPZN633u/dTv0vdaXPQoZi4pJSaSto1ptbVNNNrZdraLt6hZeHvG2qW9rcn4haHrcrJA5aOweyeYMquzfZoGkijVTmMB2BYDzM4ArtfC/hHxPFDLJBqOgCSD7ktrdS21xbzOqO8UiGzeJVZWGNshDEKCAVyaunReHprR/7KtNA1N1WaJLiyvbrTr5EVjgPFdR21sWIQuqrIT83zDOErpdGt9IvrGS0+0XNlJcT5IhaOdFVCwJdzNtBKHcSuMH1B3VNPKYp35Y2vbRta2va+9tlra3TzqeYOTaU7N2s5KDVr3eia63vfdb9i1b+DfE2o2+pfbNQtYp7gqQ6TC4SaNMkZmUbwcKg+aJdwYEjaAtcLB8PtO060uNQ1PXr2C3munVpdB01tXmlETnajTaXFf3JSF8/ujErRlHBUbSB20di9oYpLDVJISwkWQiQ7pvLmkjjkfy3cIPJKYbecHccbdubt34Z166srRtI17UdMktpjdC7intLmefziXeGeS/RkeF41ddu8NGrEqM8BTyeL5m4O+t7q6sl72q0tqopvV9uoo5nU5mva2T+HlShKLirJJpNWbtZNPRabHB3HhnwKltc3X/AAmyxSxxLKo1sfYJVjK/d8q7gtbohueVicrnAAIxSaX4asNPa1vlvUuLK8ZJole6mhtWHlsfMSRcDlQeFU79205Jr6D0i2lurcS6nplnJcxRhBdn7LK9wwyCxdA/l5IBOOO6gkVk3dvpc0zafc27WU/7xracKjHfIQCLdXjJ2sGAyBgkhQMEmuKtkkHpCMYq38stJK+vV3W1nZSbu3Zad2FzqrD2kKkqlSNrK7pyajJPn0Sg3bd31Ts3dmfo+n2ZtoBp+qeS0e+R7e2ZZIRvUJsMcqyHCOM9ULvk85YDOkstbW7vbT+0raQz7pLLzrZIWjCpyshjO04K71baCQpyTgVlT3c/hi5eM2E7sspXzWiLLJE6PJv3QF1j4X5lfBySo25yaB8cQ3kjcSo0a+YU8p2AVGVTIGADOCZF+VTkAE7CoJGEsmc4RjyS0abs2k7qzWqsujum9dL9BQxnLWnP2impxtF1KcJOL5uZNKDSlGLsm520dlcuWnhbW5TqVvqZh1NLtI3QSRW8kUTxuW3KkuVJzgKvQ8EnoVoBx4Ot54p7q4N8zI9mksZl2qeSoVSYFUMjAIBuVVIVjgAbgt7e4vvDmpy6/faco1Ge8dEZoLK6gg066iltJDMyq6u9xCCjK5LiMqFkXK+PfEP4oeCtAuLyTxFr1hpthC0qrPqFzFBKFDEBkjLlnQqGUFCzKygMFY4OuH4ZqVpx5KU97JvV9XfSK3d1r33sXiM3lapCU6couMfcjBxUpJcrfvOUbW3jFx0Wt9DvNV+KLWtrslsBG8ymNJY1dkkXYQ5dVbeo3Er6FiQvBJb538deNfg74H0nTda+INtYW8dvPc3H2CO3vhr2usJDIbW0htLmGbyVkcM11cstqADGGkClF8P+If7Xfw68LaXe67o1smsR2ltKNOvdSf7DphuYoy0UzC4cS3KhnWUAbIXiBbzTuVW/En4w/tTeH/Feqaz4p8TfENPEmqs8lxcQ6bNqZsbaeVXVbZ9UubKHSnt7dIxF9g0WfUXtmiS3lWFmTd+hZLwDSruM8VBpQSaUo20bTau9Nnu1vZrTU+erZw6EJwpuMeZyb5Wt2rpN35nbXyV9F1X6keMP23/D2g2F9r2ieBvD+laZJPqEGn/2j/auo6hKIQ7q1vY3F82m5tUaOSS4a0nELbEjAcpv/IP44/8ABQPVPiOs91eoda0e3vJLWMTao1tbRwqQ88UNjEk8xidlKzQ+Vb+aBuZiCQvxd+0x8c/E8XwGk1SwutR03VfHj3sGmXErNb3ujeDU8m0tWs4PKS40261yf7ffTRzqlzDC8ckrRvcNGPzP0zxfPL4StdNgkvJDbfuUiSfY5YBR5rO7EFGVsM5IBcNgkZNfdYXIcFl1RRo4eEUrLmlGKlvok3tok1ZO930Wnl1M2q1IWc5pXvy3erS23do8r6t6pW1Vj9f/ABB+08+vaRaWsPiDwv4GsGtjbQWWj+FInkWANGbeKBf7S02JZQiszz3Ind3/AHqAdT80SfEfSvFPxETWIWmv9O8Aadq/jCee+lyk0mgaXdXtmyxlWt1M1+kXllQWSUxqu/dXxC9sL6TSr7UL6422oEawi7d13BQNy4Y5CnKn+FmBAyMMey0++Gn/AA7+Mut6dO1qX8M2+gxzhjulfV7tTMj7+UT7NaNyecnbg5xXsSUYKSdtEpJJXVktUmldJXafd2aOB4ipKp1to+aV3az0jpfTr0bbvueN/DTxpNrPw58XarLLJ5virxT4h8TTySMyTsLm9vtVNtIWKuZTmKN9+CQuzhRiv0j/AGAdeg034h/A7R4ohZHxB480vRrFthdJLyTStXv5jksZFJ+zMxkKuCHIkORz+Pvw/wBXjHgVtPjhCeTNPG4YshJkSQMC6HBZyCDjkAgEAnFfoR+x14js4fjX+zbK96sCWvxh0eyhLmQq15rfh3XtC02J2T5YMaje2wUynLAqME8D5HP5R+o4yySfs5f4Vyxu7NpavRX0UtV3PruG5N47CXbalVp3SbaS5k2mpPTRp7p3eux/Q34xlbyZGuC7DbJl1PTKsoL7SN20KSqHIAXgE7K+QvFZikuJFk3TRK4EcsY+4TgAEMCxDFuduRnP91hX0r4o1bdFL5gC8SRgSKM+YFJbKkH7vGEwAAT82Oa+fNaMMkoaJgsmGIeNlA3g5w4JBUBQQMkAbgMYNfytnOLca9RptPnkknr9qT2b2fRu10rKy1P67yjA82Fptx0lFO+t3otXtpay2s3b1PANf8IwXqym5ijbzEYRl1VlYgMpBCAgPgfMSBnPQivhT4y/sm2V/aahrOgxqJhayu+nQEQxXRmu7e7uLiX/AJZyNCkTmLIUr83IJXH6TXzIrlVkQNKzBicSRsBhnbZtO3nnC4Ynpk5FZV4bQwtC6CQYcNuQlQpC75IySPkIBTBG4A4IKkk8uWZ37KqlNtRuk1Jrl03avrG76XellsZZtkHt6bSTu1va8r2a3Su0mlp922v8zfj3wdrlvqv9jrER9heeWNooZB5IRgHBJCgo5K7AoA4YhgevFXuka3BNNIk1w4FuUKxuSLmd0T5yWXAijdCAQxbIOMAk1/QN4t+BfhTxPf399HZ2sd3PFJGJBGrRgOw3QlNjttZlRmKnGFU9M4+YtQ/ZnsIpbq1nsY4UEpWIQRkxhW4LocR7UZVycbSCfvdRX3NLPMHONlJJ2VtY331tqlo7+600+mp8FPhTMHL3VJq7e7T1lqrPRaL16qx+V3grwb4o1lk8m0Z/9IVFuAJGjhkBRn8vafncDqpOC2AuTjH0n4V/Z38V65f299qflNYTalkNIJFkltYxs4UNwePlDfKAGHPy192eHPgrofhAWySxRR4YOsKqApLEDzCdhycJl13EDJOcH5vctJ0m1UW0NjapthQKFRAkaqPmDZwpHy7huPI74yK87G5pTldR5Wt1dJO2m7Wuu/K/vPcwHDdaEf3ik1Fr+ayu4rW76JJdm2nvv5J8Nvg1p+ipbxGJGePcwDRxxxIzNuw7kA5GVCtkg7d2NxG76+8I6DDbyRxRxJNjarMxAhhw2CQz7fMwMYwRkr0IJxS0rTrWAws7ed/HsjDCNZsglHYZd2x8zEbULDbzgivUbG2XyBOFCOFCxJgLGoYnYRwMZycknkDk8gGMHjIznGye7etuqbu7Xeqta2ulrLc9TF5bGlQaatZbNWfw7taLTa+lnq9zoDcpYaTdvuVXghn/AHpO1SsefurgCHChgxLZPUY7fz1ftOakrePb2aC5crNrs168bEsVku7lrtlDqSPLUyH5CylAB1IyP3M+KmvS+H/hp4y1m1gaa40nwpr2p+XCyQs622n3Eh2CQhQVZSF+bcWxtBYjP89fxz1GLUr60vQ7iaaKye4OcBpmjjP7xyEImUt5b4UGRl6HIav3Pg5qWGUnq5JNJ3X2Vt53V23botD+dOPpqGLVOOjjGztpa72StfTV3Vru6Wx9Y+B/jpqvwx0f4dT291H5P/CS2enTQvI0tu9neasLJLeeJSxjieznRJFICFGdQrJjHAfGe41zw78R/jP4K8ItZz6j4Zmh8XWls+24v5fAusLJqVlf6fbyAPJNawS7rk2scrQxLlXVQxHzPqeqfabTwrZOJX2avaTLsXdIRFcrLuA4JKugKnDAMM8da/Qnx9L8OtSvvDPxX1TTLaL4g6D4Mg0G51ZZfs8Otada6bJb28GqRDbFPst5GhYYcyr8iqxYk/d1YRnTd7XWiTa/k0dttG3533V9T82dWUZJXadntJLT4brXaWjS0ad23ds+e/2Sv2gL+08d6f4c8TTvqGj6xdQ2EkUzuj20kk8cSTQyggRTW2fOjZ0KIy/vCI/nH9On7HH7eXj/APZn+I154FuLxr7S5fsWrQaZfA3NlrfhnV132l3CscwewuYpW2zujgtOBKRIudv8fnwRsIrj41acsCxRIl6LyJEJ8ooZvLXYCCPNbaAuMg5Bwc7T+yvxHu9Wjk0PxtpOqGx1XwnYaZZ3k0KR7Z7CBwWiuZSpzZmOeW2umLJJarsuIFDRYXz6+S0sXRtKEXd3V1Z77vTW7Wz+Ssrmn1yUVyyk7SWiba1fvaeemmlmtNnc/uG+H/7dNj8R/AS+KfBGi6v4jvtIgNz4t8OWPhvWtR8Q6Zc3NzNbrpkWmaRb6hJNG/yz2GrwtJYTQlEnER8zb9leGPiX4av7fQoZvEGLvXFkW1tdc0690DWPtxZJG06TTb+ysXjmgDmItJsYyIEVZGYsv8V37Jv7VXjP4WeMPDvxL+H3iCI3sEbWOraXDfyXttMiEx3eg+JtOhkVLyMF2kjaQblBju7G5ikMctf0q/DH/gqP8NNXPh20+K3hy68CPrvl2sXiTS7+HXPDaagImmaO+inTT9a09ZkjeSAQWerKUDK0+Y3NfGYnhWrTrOrTk7JystU3rzJaK3xW1SS72bHPEpxUeZXtd6pO3RvTRp2eq0vvqfqawlynlsqKHy29RlkyMpz0z1znjBxnkCG4uljkijjlt1cSKZklcKwtsOGdFByWDBMDpjIPOKxPCvjLwn440i317wh4h0fxHpN2geHUNIvre+tnBC5y8Dt5bjOHjk2SISQ6L0ro/LizudFLDkMwBKk99xHUYGMZI6ggKDXDWyvE0XzXfu+q/S7d3dXVrbWa1mlWTkl3XTvro+l763b669EZttremXs0sMFwHlt2CyRlJY3BbkY3KgkQhckoXAwM4JArUDoSwVlYqcHB7ntz7Z646DsQaMKCp2jABGAMHnGcZGAMKeSOen1b5EQZyIkBc7nOwKXYAKCxAyxHI54HXrUclTRSl8Ks+Z3s9Lu7s76a3S3777Sevu31afR/8M9Gr6PyH7jnnbzjoCeuCACOc4IBxwSOeCBSZwO3HOMYPRumefqQMDvxRjqQAMgAZHI9uvRSDg8HGD8xOFXbkfNycEd8YI244xnIJznkknnpjf2do3SbW+2nq3unrfbtoYvmlpdpNt9FZb9tHfa1rCFRuLEtnglWOeOSMYBPIz/e3YwAMYADgEjGcBeeSp6YJyQM544AyMjIHCkHAH64474BwDj07ZGegpvlrl2wpyeSB1zgncQOeMgAfLxnua5sVTk8M1fZ3i+q0d20rdLJJd7vXQ1i2p2VmrLprzdHe92uXd2Wrt5jJmCIS5GzHzsRkEEgfMBwB0ySMYz2r4L/AGzdP+F/w2+FHi74t+M/EuoeD9G8NWLO9rpEFtcHVdQu5BHaaXpmlA2kt7q2p3ckcNvAl4iKDLM6rDFI6/er7dpGQM5yOe44PHA47ngnIHOK/nj/AOC83xB1LSPB3wY8C20t4NN1fUvEvii7tIH8u3v7/Qbe2sdMS4UA+Z9kk1C4uIQwKo+JMhgGH4hxxQqww1Sq1dt8sVd3Td9+j32v1tK2iWdevGnSqNpNxgmru3vtuNt1fu07XaVm7WOA/Z0+KfhP4ga1YalaS+PNb+DtvrtqPiJ4Zu4PEfh7QpLHUI57Sa7bQruexj1yTR7mS21W9n0GDUoCunKS0smwH9t/hJ4g8LfDnwjreh69f+HdD0fwrZ3/AIqXxaJ4ING8QeCJXnuLTxJJqQWOG5utOtYzpuuSOxlS4tElYD7Sij8R/wDgn14M8N6f+y/4I8TaHEbrX/GV/wCLr3xdqt0rTaguq6V4o1jS4NFKyjzrSx07TLWzeKxiWOGZ7qS52ytKWr7e0/8AZj+Pf7RV2svxB1Gz+F/wx8B6tZXXwy8PalY2viDxF4mmsZrS8kvddisryzh07wPq+pWEN4nhy/W4vryF/NuFtJMFvCyLJq8sLCu6V3KN0rLW6W7VKnd2vHWU9LJO/vMyfHuvRnSqybSk2m7y5Wn2bs3uu1veTsrP6D8RfGr9oXWdXurn9n/4H23jD4aJ5celeKvEWsf8IpL4guZY0vLzUtL0zXn03UZNGdruOGz1B7UQXskNxNbSSweXIxXUL43vPBaroPxHtfjPa+KLcB7o+DNFu/EnhO6hb5ILvw9qWlWTgaZKI2WKz1CCz1OzdJLe5ttiQzzlet/ZEvtVFF9Y8r93y26aHv8Atqa0Tp26c0E3825K7+R6v438MabpGlo+kxSXV55TB1VYWknjAH70kGNFbksdoCsCzALgBvnO50ZfEV1Fo5srWzuFIDeYiK0rKC2ZTCz53HCN90qWOAQMV5Tqv7fXhyCc3TaVDLaeRDE91MsEkEKMuGWCzW7FzMACvmOsZAYMqjEYJ5+7/bT+Dl9Pp9xeSf8ACNz7/On1Cy0W4vJpZCFEhFnJf2iMshAO1J1BDHZjla/WFm9Kasqivot7qybbSk05O6vZNW6X6rujls0knG+mtrNtq/S6u1sml0PrnSvh9FZaa90zppbwwEziOVmiUjaNse4xmQ5JwyqN4GeBWCdSe1N5Fo9/Pf2W5WmmURbYslUKcvuVgwJKgYXBAzkE+D6j+2L8M9dDXdpqFhf2lpuO7+y9W0e6SI5iSG/trqa4VJXKnpE5Vh8pkUKTzOkftF/DPTJLy+bxrpeiWFxNIx0r+x9UYz3JmTFq0tym+KEtJIZbqKGYPsYW8LK0YHRSzCm3pNXd3u7ra3MmtUr3s76630ScTy+Su3HpZLZO936rvfa/3H2Fa6ndx6ddN/Z95cxaZDvkuTmKOZGEb7Y3YgsyuQuwe+A3IGpo/iLV5J/s9z4a1W205NPa7mSFbm4dxGwtpUdGZklGJ1by4wGUZKI3FebeHP2tPhVc6c+m3V15Z81Wtr2O60W2tD5CeZIbiTxDqGhQWsduYzI4uJgrowSKQyEhfV7H9pn4Ry/ZbN/GnhS8lnjndhDr2gSny7eJXlLi31K4tN+eTGl1I20Ep5gUMer67SejnFXae7Ta3UXpdpW/lT1tqc0sFUV7U3K1r30vs3JXaV+1uqva2pv+H/GtvHfHTdKS8jiju0tZLeezliVm7mNHCggqxywCqOSXADNXod1rmn6gZ4JIbyO400mTzkVYl84L8oSQN8oYHgDcM7c4IGfMLf8AaB+EKxpdadq+jzPMqzXKQXOmwyxxZCCUmaeFZ2CgFY1kLMuTxtJrasvjb8O9TinvbO806+06NRJNdWd5YXN0oUNIxm0+GR7lAgVjvYbGwMMRgnuwdJY2ajF36NRbV1fre2179G9Eny3OWveheUqbg7ac0o8zeq15d7xV7N3e+x6jZ3OoX32Zhp0UVpJGplluJ3eTbtxhYxFhzgfxld27cTjIPmni7TL2wuBqVnpNvqoSeTEVpbKssapGMApEpciMKTgKdzjAJLADQb42/C9NGl1tvFmmJYw7lZPNK3AZePJS1z5zSZGNoXKjltvQ/lN+1n/wUlt1s9X8BfCKERebFdW+q+JZb8wX4tVtmZxp8FtHJ9nW4d0txM15CyhpJDOhVYJvrsFkbqSjD2EpJNXnUtCK0Tdt7+UYpre7tqeO8fyy+KzdtE7vd26pebjq7J2T0N/44/te3XgS4k0zw9Il5rkEl5DGZY4prTSbyQSQygwzrKJriJyj+X5SxQMuHLEhR+P/AMQPize6jeXPjb4t+KYtUSO4mubTR59TFxLfzsVML3tvBtijh88yMbJI4pGWJYY4iZA4+bdf+J3i7xo+oWD+MIPCFtiRmuYLAa5eSFpTGGjt1vtIjM5MryytLqM4yvmSlnBVvmXxJ4Y8R3Uk8mqeNdb8TafH/qx5Gm2U1wUARJN8Nq93bKHjkUQC72oFJ3s5DV9phMkoUY39lFuNteWPro++tl0+b056mOqSavJ2et9V3V73dm42WyTsr6nceJ/ixqHxr+Il1/a2rXFt4R8OiaK30qMLJGZngjaJDbskenx6hKoDSJtlTRrPyo4llu5pJxzdzb6Pe64saafDbujpHHdyDzbmOME4UzSRqf3jMSQj7Tjk4HHmHh+ys9HnVBsjKzOVg3M/mSXJJLSZILOCMNI5Z5Cx5HJbvJ7m3jl+1ypiUKrARyAJHIB8vyB5WZ9oUltvHzBUIAz7NGlCjeys0l7ra2tpqrpvprsk7HJUnOp3SV9Wls07SstbWdk3rd22dz5y/bk1+x0vwnpGlCSKSSKIRLEu0yZZztLoC+1Np2oPmZsblB3BR+a+jeIJYbJGRiWQF5VJAChuqsxIZnAPOYwu0EMcjn3P9sXxbDrerw2EM7yCCeGOV/NdJmcSCRl+ePlVUKisGy5V0+UbWPyLBf3BgeJFjdihUHO8cAqwG4DIJBwSgXHYsC1eRipOVRpO1u+idm9Vvpe7S0W710RrRhanG6d2rrR20smndu17XafW79fWT41eE3dqiSz20jtMpiZZJlZ1JQbyRjbgAKhIIUk4DAV7b9pk/wCFE+Jo5Q0R1mdLh1lXAaK3ikjiUkEMXVpA8ZBIB5GQ2T8p6BpGo3d5bxFREkjeZN1BGSQqpGMlmH3fmZcnJ6V9f+JANP8Aha+nqi3KpaIjxxlUlDOgaR92AeccKQPmyCVA5543tLd6WWra06vTVO7SXpe1rLoaUU1JW22e2qaV1q7X7Pd30R8O/DrVY7XT72ylZZQtwWU7jgDzcYORkuS5Z2AYkAgA5Ar6T8A+MNQ8K2sPiDSRcXOqeBPEvhXx9p6W+ftLXngfxDp/iEwQKASJLmDT5LYBRlxKUxzivjTwzdTWev3UMi5jOozMRhSG/euI2VBgZwMEEnc2VPUEfSnhbWTo2p214zkwS3CxzIyKVZZCEEbrgeYkjNk5PRsEjPHzGc0pTwuIilZSpytpvo7J2Tejb6H0mR11TxOHkrLkqRlJu9rJ395/aWzb3Wlkz+nPW/HGieLbWy8U+GNQe78P+KbCz8Q6NcLIhzYarbx3iqDkhpYllaJgpOZIm3MpU15Ve6jIkYg8wsisx3O20uhyME5yC2cgA8nnGBz+Zn7I/wAeLjQV134AeJ70vF4Qup9R8C39zIS0/hHWp2urbT45JGLbdKupLm0CO7+WqooPzGvup9ftnhRlmMuWVV7KSQflBZsfdzyc5yAMgYr+TuJsNVo4qrFpx9+Tavay1as7avZ3vqmox6n9qcJ4mGJwGHkpRfNThZXTUW1DTfWy2v3Wh1U12pZ8KUAJBDDkkcDbkjg8jhgMHPYU2ZXuLQ4cOFJKjpLGzEklScbwSM7QSMg7lJwTwk2tKCzLLGEBHJ3b1bg7SCdpUjK9+T044WLxTBENrZ3AD5NygEZG4qWJdfvDOc9MhtrGvhalSdOXNfdybv7qcY9Vbr6t3Z9k8NGoo6fa62Wmt15u7SVrxelnuYd/q76ZMzq3G5syMdqDG0/Ov3cjggYwxYYAGa53U/GtvA5v98MkirgrLtwrLkqqDPQZzjBG7JwflJb4uv4r2OYhVLMchUYZz8uQSeGUfKABknJOAOR8/wAmhtdX8k1zLcPCWJRNzBAoYgDyyTlgUxznIwQcAg9FLMaqlF3lZ2u23bW0dLK70fkrpNOzYv7Pgl7yi7X1UUvJ30b91WXW720dz0NdWn1u9a6llCiVvvKCSqjOEUYwgZuACMkE9DXquiRtDbjbJHCCpbexUSMoJyM5wM524+8R0yAMeU6Pbw2UcKYjVQTjeQTgHJJLYOMBQueSSQAOBXXJrNvGZCJTGqvgDG/JIAGNzFSWCjGPmIOBjbmvVWKnVfxTdtYNvS+91a1292ntscc8JClGW1m30Su+mivrpu9E9LX29v0qZTGhjxGDw0ucbzGGAb5sEgkbl4yvGRwSepW+8hDG8xPpyOAMMC23IAxyAT1yDjINfPcHiaRHH78hY13KrMcBcA7Qik8AElSBkZIyBU8viYOGmknCRIo/1jlSJOTkguRgKFIfAC5G7ocfV5FRnVqQ6ttWvdttPtpe927b2t0R8nn1aNGjUu1ZQk9O9rtLRty79L6WsrrL/al8dR6D8E/EOmxyIl9431DSfA9jmUwySNqd9HeaqUCSLcDytIsbyWRkAAjPI2tX4a/EvUlvfEknkDzLWO9kYQycO0CkMCOTh/lXGM5GATkEV9hftJ/FqHxf4khSznNzoPgX7TBpaxy77fUPE17EttqGoqdg3DS7YPYwFhzJNOcgo+fgvV7wS3V1eMEOC7HzJAWCu24sD0JDejYYjk46f0lwzh5UMHTi04tqL1S3SirW7Na7tXdz+ROMcasVmNRxblFSkr30jZ8qT6vrzLZPVWOm8KxtrXjHSIAZFg0+YO6uVRFIUDaBueQyBwT9wLkFsEBRXvPxi1WVba20qK4Lw2tgisFZo1BRVKxMMElsDdzt3FQoAVhjzf4JaW8l6mt3iJJ9od5Fc4jkEKsTskynDLHxnBMnzMSSQKqfFjUmn1G8WG9EyzKWlQMcoVGB8zIVJHIz8hXJKkAYH2MXzRemsb379EtbdL+91emt0fEzXNeXu8vvK9tns1e11fSVrm/+yfpcOsfF6C8k+VbNUiaQLna7N5m4jITO/qNyMw2jbg1+u2sva6i+raPLEhguLfy02xmRZYwFVsxDJxtJByMt2zgV+Xn7Ftm97rN/qqwbnW5A2hl3srddoBHmBcn5cE4JJOSrH9PopWe4t2t3IuVZUYyhcMu3MkYcYGFQEgZBVsKOvPs4SmnTjdPaV02047atpOz7btptPc5aq5pJvbRWs7Wtbve7drPTZdERfDy31HwLrS3ejQ217Y3OwyWyS7buW5jZIo/OtHEa3UUduphDx3ltcRjAxIVVl+1/Bvxg8MeIjfeCPG4urD7XD5cWoachgfSr6Bd9vdR2k92Z7aWKXy2jRby482289knkfMTfI4uLPTne8uZEScMXTDfIXYBdqA7AOCSAeMqcAEA15h8RPE16LzRvFGlWplfS7gWWtC0EjzXmjyqypcWYRW82+0y5mivkVomke1jurWFmeVBVvCxmm+VP3n03SbV9bLTROz13tbU526iejb6N6Jq2lnfpfdK6bve+x+rPwT/bE+MX7JnxNsdHu/EouPDuoXJfS9Qs5h/ZepWtwFliGo2hmW3lklg4DeUBL85V43Viv9Xf7Lf7V3g39pHwzHLZz2umeMLKzgudU0ETxuLi1b5Rq2lEnzJ7FpgY5omUT2U58qXckkE0n8JvhfVoPiPbWGhTLdapfac0Nzbro0d3q8wtWkfy3tUSGOZpJMN5cTxK1sxc+W6xkH9H/wBnr9oW5+D/AIp8NyaHc6j4e8QeHb2F7WS5uplvbl4/lvLTUrC/0zTx/Z95bkW95a276uksMolDb4tq+JmOVwqQbtZ8tuZJa6PR26PTbRPValUqzi3o901FtpdFdaby10tbRJ62Z/aMTxnIwSAcAnPU4GDgYBGQc/xDHYOHQck/Xg884xzjrgdvbtXivwJ+NnhL47eAdL8beFblHLqllrumOV+2aHrkUMb3mmXiAZTaWElvMuIbq2eOaB3RwR7TjBGOOTk89+cjnHH0GemQa+ExeAcJStFqS05XpyvvfVvT1uu97r06eIUr3e19db62Wum61TV2308jOO3cfrgfj2/LH0Xr2/A+gHfnjjrzxTeGAfuBkbsg7hk5IOBg8EZyAepFAYlcj26DknA6ZI4wTkc44yQQRXA4uLUdruV1JtpJuzT11aavZbLS7sa3V31Std9Fd6K/mrX7aWYM4UE+noQOuAc5xwByeTxnA7FMsDuILDHABZSM9+oBHJ5A9eM4KGeCM84HQAkknAyMkcAZyTjjJwMin++OMjj6+nsOhOT39jVVaaUN3a2l2tb2Wm+v2tVs10SJnNQXW6tps+l/PXbfYgkO0dPm755ySQScnnru9DgenFfhp/wVW+A8H7QPxK+Cejah4nbSfC/hTR/EOoeIrLSFV/E1zJf39j9jsbGRUkGmpqcVvLFNfyh3hijY29tLK6lf2D+K3xB074b+DdV8SXzxtc28LxaTZO5Vr7VZVZbO2UIrPtaUhp2VT5cCOxAAzX476z4e+Lnxyfx5a+BdSsrv4m3/AIX1zV4NV1K5ksLeLUozBbRW9perDPFZzoLiaHQ43t0s7eeNEkkRUaSvzrP8qjmNOpQ5OdO8raae873tqpN2fNa73t28LF4mU3KmrS5t1dXSUnq2+l+j3XZ2vY/4Jw+GfBWueIfjX4I8C28Nr4U+Fvi/wvbwQRTSXdhc61K00viZop5HlkuGk+x21rNcn5bmS2uHUEOJG/b2ayRhu814lVApEb+WoXaOAFwo2gKRgjGMngV+Pf8AwSP+HEvwt8J/G/RdX0+/07xLZeMfD+na5aaoc30V1pWhz286XEjEGed51mnludoNw03mKDuyP1a8QeIfKtLoRsttBCkss92zKFitooWlnlkySFSJEkaVySFjUvg9K7cFl9PBZZTVSmouMLNOy2aSX/bqSfRvz1s8vnKhGUndP1aW/a3qvS10tRLp2S4lW3vLh4w3WOSQqG7qDyOOOhIwQaK/Ar9pr/gqanw6+KV94W8K393Fotlptm9pIkdtA14Jbi9/0+WOaKSRWu1RZogW4tmgAGACSvm6mPwkak4txvGTTupXunqdMsxd3ZOSu9fact9d7W09P8z6Sm/YL8OkSNdQXclr5jm3igiVWaIBTG1zcK6odueChRDkuQoUA+OfEX9hrTvsNra+F0uGuZp4oFlk1Ro4bDAy000Yjna5j2hhbxARNgLucD5j+kkH7PumWckcul6z4ts7eIHbYt4m1iawht2bHlw6ZLcyWSA5YHELbYyuzGWNeqaZ4EstJ05YrKK2W3i4bOSWmQBSzCQswYsDkIQMnIABOPBjiqvNeMZLRXfkmnok0nvte+t2r6H7ep4WNvaV6V3JJKHPbVNKMvdaUnbRJpXTtezPxE1X/gnZrtnaL/Y3xW8WWDT3FjfXunWtnpsVtcyQSeYI7ya4hub68tXQyZhSSDezqwZcAV4d8Yf+CXHjf4jwz30/xj8SwXEel3Fja2lvDqFj4fhvJpBMLu70/QNX0vULt1kWMSSG6aSNI1Mdu43xyf0JzaDcXlwZXYDysCMNEVVgihgRu5UhV5OM5yNqrivnX4teJ9L+Hq6LqGv6xBpsuv6xfaXpFndTmKXUrixsJ9SumtEwVdrexhknkMhTCDI3HAr0KGPlGV9XoujbS2ktf+3W3vpZ2tc1qYWlUklFwlJ8q00dndpaLV9L6aK1lufx5/F3xN+1f+wb4ttPhf4y8b+MDovjOOCHwhF4di0Pxh4d1KSzjmfxRe3mp69bSanZxO97YQiOW5tZ9rmM26yRHbL4Y+MH7V/xT1zwv4Ti8T+FPCuja/4j8OeFNL1PTPhy8+rWVz4h1C00SymnvIddFveXtxcXgknElpFbIS086SJFh/2p8dfAzwT+17+0p4SsvG0tj4p8L+ArFPFen2Nvq1tNoUTeLbW4it5LiGPSpXvdVglsUmexmu47eSIlGSGZVlH6efD39mT4ceArpbi28G6HBIZIEtLqPSbU3NpdRBEgv4I2jNlZy28MUckFzHbC5glVJIJVI3Dso4+pVqQipNty6636aNb3Wt276dbmlXAU6VJyetkrd1ZWunZ+e+y1TbaR+NnhP9mX9rLwTIrzfFa18WjCW1rpt/4A0/Tb8yHAJubyHWb5fMhJKobWwsFZN3mKw2rXpGi6ff8AhiCe/wDif8QXW7mv0tX8PeC9J1TSr1hFcr819etNcW8sO5CmdOYR3HmhZJrZMqf11/aD8S+EvhT4D1jUrKOG58UyaLJHovmT/LHqV1G1uLuUJ5Pnz2Su00ihhGZRGrL1r+WL4w+PvHOj67qGpC7e4uJJ5LqTMjGQDzDIirEC4URsA4RQdzBOeRu/ceC8kqVacsVWjJp2UE4tXWnLpe1nq/7u93ex+ZcQYmCqqEeW1mlulZbttxT0V9XfW3ofZfxm/aL1rUEm8OWLaloOiJOLZDJKPt/2aINHELh41EccxVmDvEW3MzggHa9fKXijxRbXGhnTdDiRBcB3uLsZe4uZSg3TXUxHnTMWIYCRyVPAx81eb6J8ctD+KFtNb6pJEdUsYWt7y3uA8MzXyRHzZVVlJkMjqGGPkIdsEc5841LxJPZXhWDbFC5kjK+cH8kAEx4UbsxsiHJJQByhOdtfrVDCxpQSa1SVtL221u+1mtLXdk79fjJ2lPT7TXvbvd2alpZpJXatdtWdmcVrmtXmh3E3mILp2dlJaUReWvDmQhlbcCzcJzggsx5Unjh49EEbGWVlXDNKQ8h3bzuaPAKxqF6gkYIfAjySa6XxgX161M9qwmljG6RYmQF48YDqCjOwVss/zZZeRyQK+Zte1A23mWsikMu11ywLMu0qwMSqAeFGAGBBBBVRjd1R5XH3XstHe7bv1aSTSu9NFq10staa95bWtzW1ey18mnza36pq2h6Vpvjay1fWFjgBTz3K7nO2VSrZ3FcAtnIKqrAkn74w2eu8Xai1npE2pW8sqkwSqVwUUeXt3MwJBLyAgIflGwggr3+avCM6za2hFvJHKJFEW9jGiIwISRUA/wBZIQW3PggDIAJJr3z4iXLweCDLMWJNs5jZQCFwo+8MIJFJUuHb7xblQAM8VabUnaVrXcra26JbKSSW25u1f3W9tLpXsvLXSyty6tO7v5fkv8addk1HxWkdxEJYpJXdm8xdxxk/OMvhgdoAEmDg7iGJAwdDthKeF2oqESbgzk5OV4K5GAQcA/w9QCAOd8dXkmoeO74soaOB1iR9+VAVn4KKMLIwLbx1DHBOAQO60C4j2hPLCEMQEYqN0bnoPlZgFbJyQSBwWOAa8OcnKrL3lZNN3d3dt3e23L02T0dmdC+GKetmnbvfa9u9uvW/kdrosL6bNC8mHmeKN9juFKZBbJBZipOVIG5s7gGGcge3Ce/1vw9qsarFG6QFnVs+XJ5aMwjBZid0gUkNtbOckFvlPjNsEaT7QMymMbQFZRgElRuZsbUTbhQgIYHJBJyPRdC1RprC6tQqs5ibByzRALuj+YqU5yc7hxgY6GqUkudapcujur66u6S6Lp/Tc7Su7eV+1ve6P/ybrsz4PMTWfifUoXGyRLobABkA72JJJK5BYE7wqhQoIG7ge1WUhWOGFnJkkQmNl5h3xYeLe2GIZ1bBO1gGXaCoGa8h8R288vjvUICskSvOzqAojRlZ3DFjjc2AFIYMAeoIHB9H0yOa18tnlcQmQI48sOYo3BG5UG3YVK8fOSVXjO415mKpKpGcV711Ld20cXbXdaNtq2lklZtnXhaqp1ItX0e633to7tqybautDo7nXdS+3aX4n0JhB4j8LIhKhplOo2DMGv7DzCQ+JIkklgLK4SbaxRxlG+6Phf8AtCxa/o0AvbhluSIEaOVlLM+V3r84GRhcK+3IPUZBFfnxf3UlmVvLJncySwliq7YpAq7G3DDqFYEOSTtxw4OCD0mhWbPepqWizeVaz4NzZjLOrklmePa42rvzj92FQnJO0Kp/DuMuHFXlOrGDbSctE72st9EnJdFpdt+h/RHh1xNVpcmGq1E6baUOZvmi/hcdflJPf7kn+sGneOLa6g2+ehV8P/rDgg/eLDgrjO3cQ6nAJGBkE+vCTcY3cpufn7vTa4Pc8D+LO0c55YivjDwtrWpWSoLmQyQuCiPIxXG0Z2M24MMJ/F904PRiAPSE8W7wsaztlkIXHzAoT1wpIyAAOpGTkY4YfieOyedKbXs31bum+Vax+HZ+7pZX1d/ss/ojCZlCrCDTTsknq7u8duzWzTbVz2a612V2JWfccBgCRnbvwVCDGMkfKQxGRuzgbTUTUnbBkAUPJtAEgO4My8qAuCQ3BBAyPukY58rbXkQMMljlM4I7ghhjd0xg9CQMZ75ux6uAQSVYHaACVODlioGNucFckZY53dySfGlgZwm24STTTTtvbSKvs35WSttoewsVBx5m7vltZtWatokktNXddGk77K/qv9po0eRIoA5QZJJ35BIwcYHU468DHXNdtZjJChvmCjLHIAAOCzBcfN0Azkk8Ecg15nPraQpuaUK5QsQeADu+6o5JPr1AIOBnBrlLrxY6bzaCS4l5wELYxw/IZQCM5ABJGcY4JA+gy3LalapFODfN0WiTtdtfKzSXW/Zo+dzXM6eHV5S5bJO+1rXWy3fa+99e57PL4lgsI3u7qcRgoVD7g2ByHC7icFflLZJwMjbuOD89fE/4tXOsade6BpMlxbWU1sU1DUoJHjkigDN5hW4i2mKWUMUjC4cnJUqFUjg/FniHWb+KR7u5/s+wVA8tw4c4C796qqg7nA27TweRkAAsfmjxD42m1WL+wNHSaOwSeWaSf/V3t/MyRJ9pu2J5jTyy1vbnbFGrEDMrPI/7Pwvw41KFScNIpOzSdndXfM7KyVrd/Tf8C444xiqdbD4eSvJNNptKLs77Wd2rt3a33sM1XV4LueLT9OtRFp1krLFCu94lSONseY7OjzySy5lllZhKzPliWBJ8215lWeC0gCB7qZIX5AjG4qMYcSMFk3FkO/O3aWxk4760sUsLKVpyzyLueSQyASSkLuWG3Tyyv7z5d5LOVQHPJxXBaJbS674vs4pQAizGd+QyvgrsUYK7AhJUnLKcDB2iv2nCYZUKdOmkrpK2lrXSTd/O3ofzrisRLETq1XK+rbTdtNet2na+tnfq+jPqTw/CfD3h+KZn8opapC0QRdhkaIKysM8spDEkg8fjXzz40vHa4uD5hO/eyYUNyXbdEx4LKMFicDAPyj+Ee9+LrlbexsdOt/Mhk8hZpCzbl8xE4CqD8pAUkYZMk5wAefm/xdcPGkjqxLRF2kBXG5cHne8YIJznaVxwDgAA16N2k1ZK9mut9dE2npd6tbvR9ziTvF9N7fy62TaSvq1bfV/efb37FNn5Xhy/1BI1XzLq7AdQFdCobDAplnYJkYAUkoAOctX3bp12ple4unzApITyCzSJK+QhYsdsaFwMgklE5y2Tn88/2PPETWnhJ9OlczGTUby4JIHyiWeaWGOMKNrBEcI33mY85wDn7gk1hJVMC744pyJT5GI5AVByXBB24zlc7wWUZAGK9nD83soSva+jeujv7qdtlvJuz6WbMZWc3pdXTsnq3bS6i7qV1o9tWrbieJb+fW7qCCGcxRxzP9pijBZn5LBEIIK8AvkjG49+Gr0bwfo8f7mP5JrCRUkmeVQ2wFcvuSQMGOVOAwB4IAy2F85XyIVN6ITLcIUZESQeaxLlUcsdqHaTvb5OU3fL1x0l94nms9P8lo1t4/LXKI6/K0gAV3MJYEgtgMrDYxAzgFT0RkoxstJNtN33va783bRWS31W5lFLmV2veev569E9UtLd11PT7nxpongSwuNO8GaPpmizXnOr6taW4Gr6xPG8jRx3V07s6W8EkhMVrAUtAufkEmWPj1v4+vZtUF1Nes8tvfxupEjhlc53YdAAg3FEBBXYCSdzcV5Xe69c30zQxMFjRpd5ckybsowZcA5VixYnDBiOAO3o/gXw2+sTeZPDE0QkVzcIhIO5wQpUqw8xiEZi3ChVAUgk0ny1fda1s9106p6W1tuu+gqlNNPXladtrOMt3bXqk9Nuq7n7c/sQfti/EP4B6rovizTp31/w/rNxptl4x8MTT+XBruleY0fLSZS21rS45ZJtI1JEBuGJs7xWikDL/WR8I/jP4C+NXhPTPFvgXWoL+y1G1juJLN2SLUtPlbKy219ZSHzIZ4JQ8UgAZd8ZKsRzX8Ifh3xdpfhCythqN7b2en25WJU81Q7SKX2FyVGctuVQAu7ogAAr6v8AhD+1t4r+GcMU3gT4p3fhXxFPqwj0Kwi0qx8QaduYed5V/aPLZXV3BMFdruG1vrMRjhZ3ZiT8/mWW+0XtIrllypcyi2utk1s+ys1a2j0sZUavLJ3va+ju9mk0+qVruy1cr2vY/tmGOwPzYOTnqDyDgjjtx15wc5pVxkgE8N1wMjJJIAPpwcBgeQAQK/Hb9nj/AIKf29z4L1i9/als/DfgW70Gysprbx/4Yi12bwl4oW4u4bR4rjw+66prHhjV4XkWWWCW81Gxu7c/aba7thHJbj6Esv8AgqF+xNeyGMfGbT7NuQ0l/o2vWVuzAA/LNc6fGhVi37v5sNzt71+dZnF4auua1uz00vq3a2iurPu3fW57+HpOrDSMpJuyt2ezet72W/4J7/oNg4zzjPTtg5HI556E4PPJI+XlpIztHZQc8kDae+AADgZIzntzXxTbf8FEP2N7kQtD8fPAhSRHaXztTkhkg8tdwMsLW+9d2MKG2nBBGQRWnF+3/wDscXBVYv2hPhswYZ3vr0MQCkDLLvQZLEgBRhsZJBWvJxOPSikpXSTTaaTTtyvZWkk9PR7vceIwklBvklHRtaNX3117u9td236fJH7WnxfGu/FK98I28r3OmeDJksBBFIWhfUmWI6nK6hcfaLa53WWGY7fIZSoLtX0J+xx4WNj4D17xdfRiGbxZrV1b6J52UupNA0O7ubOOdnZmDJqV4Li5TbtxEkWXkIJr8Y/FHxI0Pxb8evHenQ+PNFPhfxR8SPE97p/xGttRgj0CPwdrHibUL3T9fku5ZViggtNGnjuJLh5tnnRko+1iF/aHQ/2nv2Y9G0jR/DHhv4v/AAot9I0qxtNF0ND4+8KNKbWxto4497JqeDLIkRmmc5Mk0jll3Ma8bLq6xNas21JKTTstb2aSejv3etreTPn8Ngp1cRUk4vli7apW3asne++qurb6t6nv8Ph6Cz8UahrNlALS81m2gTUriBVQ6gbRdkMl6VIFxPHE5jjlkDSBDs3bRivhn9vD4+6r8FPBGkRaNdWGny+J5tei1rU9QMMi6d4fsdMnj2C3mYRSfb72dYpVYYMEEyb0JL19In9oz4OGe2S2+L/wvmklLKluvj/wmHaSQ7D9/VgrPnlecKwACgc1+FP/AAUn+Ieh+NPial1beL/CPifw9pWnabDZ2Om6zpV7pmirZrvd9Uul1F7G5lub2ae6VbffAEWJJ8lWSjOqrhh+SCtbm2dtF6L+aV7vfaOiO+eEcKcmk9knbZtN/LVbXairNpt6H4QfHbxZN4x+I2p67FdXUdrPaafDZLeCQXBsra3EVs7ghVAljUSxrGojWN0Vc4ySvvrwF+yV8N/H+iS+OPifBf6prXirUbrV9Ku7a/uGifw7KkEOnsHtne3dbi4hvryJoT5Zt7mHYNoFFflNWnWlUm7J3nLW0tdWv0/A8F05Xd6cm7vX2d76vrzK/rZXP7JbO38UW7SRypZzhbmYQgCVT5ROY2lcs6ElSpbaAOpCqAFOhqTTWdvvmiWIt8zmI74w5XDEfKBjPcqMjooJwO52DrhcZzkYIH+P05yDj61bm3SeKSGSNXjdWR0YZGGzyBg56jHXjqDXW8LOKfK5P+VuyUbJvW7VlbSXW/ya/WY5lzVYTqUKajGS9pyJwc1dXvrb3LuSVt73aumcbYoJoiD5ckw+X92ysMg4IYBeWwMlTtwfvAYavyj/AOCnPgY3eifCfWpryWy0zR/HH2q91XzplGiS3Wn6hE0yRqxVxfxJ9gNsIJZJGlRFV2IDfrJpPh+20exlisrZ4HbUtQv5keV5Xmnvbya6mkLyEnbK0pMaLiOKPbHGojUAfPvxl8MXXjvxb8IrW70yxudFs/iNZalqllqsEd3YT/2To+r3enxTWsuVldL4Q3cBZV2ywq275FNT7Ko4xi0+Z8vLZNaTeqvfbWzbd+10z2cFil9anUpzvRjGpKUW4JtwjeCiuaVlL3pppNRs3J30f42fBPSLvwf4rvPFvhHVJ9C0vVINJfU7C6tbO9u5kileSS2mSUWs1jIBIBFc26GSAg+dDcKrRn9gPCPxO8K6lpSW+tazZxMunyG5vJJVEErwWzZfcSrSs7mRlSN1ZjgBlOGrpvEf7N3gzVma5OkQJJIxe4isXNjA1xJG0TXDhC07xq7tIbZJkLISokDAEfmf+11pOnfAfRrDRYLq3uNU1e0uJ7TzJSs+nWsp+zTTbEfZBJcoCYZmDuIyVCpIrGvsuFskrYvH0KUoPlUoqo7O1k9btb2WzWtrp9zfM86oTwblQqKStraWztdrW0rq++0lrZI+VP2vfj8njPxNq0lndsmkWEjQadar5gR44iQ02GncKZyvnyqhYKWWMHb85/In4geLTdyXT3MSTvJuJdeXGHAMmCW3hUJLJkKpAKrkGu5+KXjz7bNdQG7lWaHzfKdmDoCyMMSFCoJJIThRsBLFmKYPxtr+tXMxaRpm2RLlY2ZVkJYlXVW+Z9rFgxZgzDGFC7s1/VmV4OODwlKlBRSjCMUkkuivd9trbvv1S/HsfiJ18TJt3am+v2fea6vdKzXy2szzbxTqh8IeIIvEuioF3TRpqSmQxRTWzOHlkAOU+0xEgq0iFWQvGzDcprtdb8S2Ws6Ymo2N2X822MkrRoWjYSIGUgryWB3KSMquf4Swz5H4ku7bU7O5hmWUNNmPzGIk5CuQE+RUBIP3pN74Lcg815f4O8Ypo1zfeB9VmkBeQ3ejXLMWY2pwLqyWMxqm63lKbHyxeKQM64jOOirWStZ6aJp6Xa5kr3ey6JK3N7qutVHs1ZNNNys9Xa6sn7vps1ZXslqz33wj4wjjnaKa4QM5eIQzzHfPFG3D7QwQbCRldpIwAeCKp+NtG0x7j+0bWRrmedW81UARbeRWjZljYswZWJzwgYHcpJKBm+adT119G8RLeMxaFJ2C5dQIlkcAliAFOcnIbgIvykBiW+hND1631mxKL9nuoZBiN3IfDojMVGz5g2QAwVsrk4Y521EK3vJ3VtF8Ste2zWmu+tra2fcI8ybbVuiT1d05NvpbfZaXMLQrJYdWU5d2aAbSZCnC72IAA4PdSCAxJ6gA12/xJvbo+DHtpEZjBbStlpOYg6K6BlRX3BYwzhmUAliWYZXHFW9x9nvYI2WMFrhmLx7wqoMFYi5bA8sgggqPvf7IUxfFrUJU8MySCVJAbXc2HYLHFIrYBIYK7cEBQpGMnOMgqu7c09buPNZ/yu9ktNNH63T1Wg1upO71W22tl5aXunvZ6I/KnxETP4r1OaKSQIt+2GLK3mlduS6KiMq5yv7vAKqp7kDZ0rU7iF0kTl9/74AP5ajOApZsAZKncvYnqQMjBuP32t6oyRhPNvJH8zOW3dCFB+XHyrjdg7t2TWy9u8A3pJlTGrk5dnLYHDbSANpyTgjPIbIwa8By1k9NXuuybs777aeitrudjbutLWS2vtd6+aXS+r7I9j0jVQ8KBrhY96L5hjJ2MjndsKnnavEZIIcdCc8V0Wi3sVveiJJJRays8QMasoAHVssGGVDBSTwWO4jsPFLDUlt5IQ8vlncyh9pKYDMAzq5ZWyCfk27cFsZxmuz0rUhcX8KxyMIlKZcYVSzZHAZdoByM4wSDnI+XEOpJPl0aVtHu1otNOtru7fnbQUWpJpdvvT2229P1PMfFUMS/EK6KFTFIuI5VfKEFwu5VcZCqCXDtksoUjsT6ja2EC2wXJd5leRTJ82zcMKQS3J3ZOFxx0GDXnHxJMmneM4758LFIgDZCuu1Scsr7SvKgHIBUByykEAjotL8QGaOM4jaMIGjK4ZlJwAEySArBjhVxsEhxwTnObS5vd1eul2lzaJNdnv8AKVzRXVtb2tr9y/LoVrwXVjKIRFvhkEgUAgqu4uhhEeG2x/NjG1vLKg5AJ3ZkGs33hK+i1CzZpVDlJITtaGNXAyjqOduDlVBQZAUnbXVam8c9ukijZubaGRj8qucHjJbIOSSccgfMQQK4W6YRRpDcLE8Ek0g3y4dd77hGhwM7VyGV23N8pJQgsK+ezPCU8TTmpRSve11zXtpL1V7WS2331Pp8mzGrg6kKkJNWelnbRSad03bR21ettOx9OeDPiN4Y8QeXbyTrZ3spAa3uFVIWkYDC790YjLMB0GCTtypyR1t2NUEs720SywJIqoYgGjHzPkB8bQvAbK7uEGW43N8Eahpl3bySX1hKVEbFlWOTlthP3NuC0eRwpCsGAbcMEHqNB+OPjLwckkMeosQ0eyS3ugtyuH271McqlWJBIVgVwQCpDYNfmOZcO05yclBOTclZKy176aWvdct+zd0fsuTceVaEYwrS5lZXk5JtpJJbOystb2vay1kz7k0972RFDIPMAPmysxD8HgFWD8g8MFx1BBAIFdfpthfyENgptUdGL4O4gZyi7cBt2QwUE7QrbnI+PNP/AGq4liEd34esJXii3rKhMUjMAp+fBKuXIcMxXc3AGeo6WL9s63023TyvCejTXE6uoNzPfmNnGeDHa3lopUqFZsruBBIckDHzU+E5VJ8qh9p2aWqt7u17p6JOSWvxaa3+x/4iVhKdPmba5Vrd3v7sbJKys09Xv7rS2R9jReEbnUFAkEsiYLt/CsavtUlioO3qCMlVzzzkVwHjTxN4K+HltO15fWl3qiALb6fbsjCXb8zNJIHcgnGG+RgGAAxgAfGnij9rbx94mhubHSprbw/BdvIHttGW6iiKrtMcQF3c3k5jGCVElzM/BPmdq8btrTX/ABFcJfaze3LJcSPkTOZJJCQCxUF95JwrLkH03dCPqsn4TjQcZTim/R6Purqz9bp2V7d/guIvEGrj1NUJKEPeSad3dXvfXVp2at11emh6d4y+KGr+Orx7e0P2exjmIt7SMBEjZ8mVndFVmypjKiQ8BSpLggrpeH9A/s6OKefy5ZTCzSy7AzHy8FbdFG0s0hLLuztUtliuwbsLSrKy092t9Ot1mvMgoxId9zKo2XTI7CMAsFZgBKSGyVwoO/etIscCPNO00SsJvs2CIVJYtCoGMqWOQCWO1tpOdxH6lgMHSoU17qSioqyS30s3ps+q69dLW/F8yzCpi6tWU5yk3eUpSbberVt9b8127bXSVirrl0rRSz+QYmWKRYYt27GNzbmLc78sAzEv8xwG28Gp8HNLbUNa1HU2hEghlWGNnR/LB35dYirjCgZVmXnI74BrnPFt+LeFRGzguisN7Msh3bVxINzAEAZJPzY+Yr0Le0/DCzj0rwcbxxGJJLae6lkZhHGJZAWiIX5SAoKoASVyuSvU160G7pvRR1Tvur/Z+/bTv5HjRiuWT0u929dOislbVra1u7exD4lvUuL/AFEmRo418yGFeGJWJ2RimVYj7pxhi2OAFFfPfi26jmSWNWLAqcKyr5xDgb1Y42nCEkkjjggiuz1/V2FxPvZTNvbaQSAZNxOASSmwnoVwcgEDnI84vCHaUzRsWGXJOw7skAHaQV6NjGxvdQCKUp2mnfzSvpqrPTfdra9tegraWv8APbT5Wt67n2J+yLBE+kvHsW4b7VKv3yJFYyFwhKg/LGjqAQU3gKSVyc/fNtpX2Uzz3U2FPyRh5EPlsowYkZE/1atkt1IcnDHaQfz7/ZGvAlnqFu8kYaPVZVDIu4/vCCoMbbdzSKp3ZZAxOBjt+huq3cUVopTbJLEkJJTADbs7l2FNo2/NkkqSOOSAT7mGl+5j7yv72mt2+a17rSy+HZ9VvY52vev1b006t8t29Leureul7My5ru2YzrtDpborBwu1/MYB1IKuAQjZUjbl13KxG4MfJ/EviZLi4NvbXDtGrvsERhVo2ZSGTKptCKuT84ZkJwvoK3jnxmthbrZ2Z23bBY28jahj8wqFEjKpJd2O1GJCqW3dFbd59odq7SC9uSysoZhJKBiQyMwGxW6gPwZFXj7pyC9a80ndX117J9umqSWqdk7PXYlpRlor3vdeez3S3XvXelrdXY9I8P2Bvbm1hZd1xO7bpvOfCxgqyK0XybpN2MsHIxuOMnFe66/430v4eeHwqyeSkVtG0kxlVpZLoqR8qxqQQSGAUM5JwGU4xXjWjTW+laTd67e3ESmNWiVNwzGqZxMi7Aytn+IyE5AOGB48Wivbr4meIA08sp0CwvM28Jkk2zyINguJFYAMrFXKAFthIZgAwWqg+W129vie/VWe7d1uursxTaSlFrdt6X00W+js7bPd3dtju7SP4hfGzWVu73xHqfh3w3ExFhpen+RH5olcKb+ea5iuXMqoFEEMYSOAeaW8xpWVP0U+AngPw98OYbOQ6vqWu343u+oaxcJqF4hkfDiNjFCkKFgmFjijAVTuVwBXzX4K0wW1tBb26wRJCSemFKAAruJG7cGwcDIORyBmvorw7qcOmLGpm81TIodUkEYHzAkE4ViM8nlWcMyK2FY1uoqacXG6SV9LqzvbR977rXsl15JxcdtNbNJptXacXbtZN/dezSR+lXhPxnpV3ZS6DrOn2up6Dq9o9hrGm3A/d31jdh4p4y2G2kwuBA4AMEyCZSdqg/g1+2Z8EPFX7PPxTvvDq+Jdfvvhz40W78YfDHXL7Uprpr7w3PdLDcaFPeK2z+0vDN3MdPvLZoo5vKMM+WVyyfp34X8WPI0So5JQkqIhkBUEbMgB3ZVQ3JLZJB74I3P2gvhTpv7WPwK1P4c6hm28W+EdSj8efDLVcxu1rrmlQhtS0ob1SV7PxHpqSwXFp56Ibm3tJQVkUsPzjivANUqlSEdk5XSbdo2uk7a26q+i1kubf6zIakZSUG1fTX4tb2TV9dVo7rXXZn88VzZeJBdSX8WuagTdkSvcLfXcb70gjjicSJcJuZY8RoflYoFI53EwrffEmCUwt4o8R42KVMmqXQDRRk7FJWcEh+FQNnAXDtJur680jwPY3WnI91FZf8S9Us5VglZTG9uixm3aFmkiidVAY5UkMwZiNxJ6zUPh1osuknUFsrcQQowkSe4SSdCowhVkZHbkkhF43bTjvX4bjMdUVWpBtpJuLTb63utGre6l0+Gz3PvJ5Sq9JT5bxa6LR3VtF16NLbl1bujn/gB+0l471L4H/tJeCfFuvtZ+Jfhx4D1rWfCOvahYtcz3fheYxTala7RLtvZ9Ckju1iSCIM9ndJ54dy0r/nPqX7TfjvTCnl6kszXEOVjW2toii44AVI07feLgkkkhWAIH2z4X8PW+ieL7PU9JCPeONQtrjTL2MzWt/o+o27WWpadrNrHIgv8ATr60me2mgklRimJY3ilSN4/lr45/ADQLvU9bvPBVtcaTYW949vpOnSFppY7UMFjgluAFBeFQY0ZfMUxqhbk4oyzHOjOok0uZrpe1lqtbat6rfz0sjzKeRxo+1bikpS0fLL1s7xV1d9L9LaK54xL+0d8RdZjEMviF3CvIv2x7fTY5IpBIGXyRBZpGkir8hwgyMbtzZNcdf/GT4kT22rrBr10Zzp2pbZFSDEsyW0rW6NGsASdjKse1WDo5wCATkyaf8Htd/tOfRri3Z7qLMjizZJowCchpHjJCswJDZO7KsrDnFcZrvhTWfD2oQ2wk815HZ2s2UgRwpIEDuWwhDBSAATkk7hyAe7FYtYiV5JSty+7JXTt7zUrNNqW1tu1tTGvlClTmrbrlas15a+6rWbv99rH9Dv7WX/BUrxP+zZ4w+Gfwj+Bul6FqHgTw78APg1Jb317awTyXN3f+Ere68xJP3qlBpz6ajlXw9wk8hyzsxK/ATxFqniHxsvh+61/TUnu9A8MaP4TtrhYTvl0vQI5bXSxMXEm6S3smhtA6kBoreIkbyxJXkOhSbb9jN3bd0qTWrb0bqRdtbK6Tsl6vw5ZHWUmknZNpWSeidt2j/aOn06OYqPNniRc4SKRkXGAMHbjIzyF/IjBBzZNBLXJuzqeqCTI2RLdbbZMNu+WFUGQQMbWcqeflBOa/NWH/AIKAeOSzRzfC/wANtKjKrJD4m1NWdhgMU8zRCqq2PlLEgbhuOc40l/4KC+IkLy33wdhWBHClbbxhHJc4BwXCS6XEgHdSZACDyx6D2auUQlzXjte1lZ3tolfRWWq3etndaJqdeNkpaK978srercXutHzb6X1P0f8AsV79sWX+0pDbpD5f2L7PbFHl4PnPL5ZnBXBwqSKuWJKkACuV1Dwbd6lL513rl3NNbXq3+lSQ2ek28ul3KrJGHgc2MqzOYZpYG+1RTAxSHkv8w+H4v+CiOnK4Sf4O+KNxyS1t4g0CSJucZVppomwecAphepxgVqQ/8FDvBH7z+0Phz40sgZfLhY3GiyiRTgeYzJeDy9pIyrclcsOhI0oZPSlON4t3a0XM3dRS1T6K1+VLR6p7GkMVVpSc4uEZRSTtGGqatbRW5Wm+bunqj7TvNJ8UtCq2etQWwUI0stzZwXLhVz5pf/UQsWXJbagVRkquen8tX7fnxuTx/wDFDxfdWd20uj6feT+H9IlRQiPa6E7WLSxRxORCtxdxXdysabRtlDFyRx+2XxC/b/8AhxcfDHx62j2PinRfFDeD9di0k6jp0UNrbapd2slhYzC/guZhuhuLmK5jMcbFvK42mv5Pvjbr8k08z6ddNcxgiCMyGQurJsDyvIzEbyVLszBjIzM7MSef1zg3IoYVrEOKcmlrLXTXZtppu1morsr9/NzDHylDl9yLcrNU1GPfV8t9d0nta90unz34s8QKJ7hBkeYqIBM28k7yzbckfeJwCckA7t2QDXg+t6ndQlmLFkZzIXK4KR7sCMlwFIkYAkpltqswJI46vWdQe+aSN4o45rZC7DAYO4ZszFwxLYBwOoDBdoAIFeM6zq9zaTIsuJ4V+eUEh3JYhVUocgog+YgqSqAYOWJP6dztJWcY6K1k+r109OrW9+x89yuT5ld7pNWfp8rPW10lpe4+6ube4Essks8hYB3mVYoY2CqVjiZAmxSoyQ2SzFSe5r52+IEclpfWniO3jMt1oN0moKiBvMljZDFJGwBSNla2lYMrKVPmFhh0Rh6bqVy/mKquGhll84bVHlvOAQE8vBAKq5KkbclQCpyCOS1u4h1K3voJolQvgRZVXeURggl0fqW3EDaCRgAfJXHWlZPfR8zu/ebT0drO0bv9V1NoraN+Z2smvJXttfS109NNFds57xWsHiTQrXV7Aj7M9ulwsyqQUMy+asb5AxJ8rxnIZsKy4wBnh/hf8Rbjw/rq6DfXUkaNJKlq0jLgGV18wEEhVJAUhiSQCcA8AWPBuqtZXGq+ENQeeSKGNr/SmZVSJYJ5iDA0ZXYyxyyZ/i2pOiqqn73kfxKsGtb0axZ4EkUwZBGhjKyJhsEhRgZAZcZGcgDB55vapO9kl3VtbPbrd3vd/n02jFOL6tu6vey0Vknvf4m16Loffk1yysLyKJZoPLZmjLch2y7H7xAOdvy8MW6bRXK/FbWYZPDZaGIsxswLoocCKVUJ8sKNxDqGVi+SXXaSoryL4XfEE6/4dMGoTDNtOIZg5bzDKEwMOzbh8hwyE7SVywIJJm+KfiG2tvDsllFctMrLKVKgRGbcGKklFXbtwM7iSUIUBccXVrJ0ZW1bV1qr21879XotO9tyYxcaiV/dd3G97Na22T2dk9unY+QLRgbi4nm/1ZmlJiUsHKvM43AAYOTnnICjjJIOe4tLMXKxtArRqgPDAMoLMeSNzMGZcPk5IySDlt1cXY2xliDGRhIQJVYB22L5hPAZgMN12yA/KwyrZzXa+H74wytCSZ32sHXhV3MCC2zoNoyygBnIbJAya8eEr76K/RW62+WjXz8tTpfvKNt1ZO3Tl1u3a1tdXu1qzOvoGs5FC25kKP8AOQcoVVjkqSp2BhzgZBPOAMCtHRrwNeW2Y2RVky0i7lO4kKkZUZjYgMQX2qMcdud6/toLwgrGSwjBYkbCVVjvB38AsMFQNwAJwobpzEcUNvfo3lSpvkV4183aoBwxX0bqyqCpwCN4+aqnuuXVXtdq99ErL1u9u2qJUbXStG6drb83d2urdVv5oT4p6ehubaflt0YiAcK21TtUYXeQcjncRjOeTwBwej3zRWyQyhy8TbEJ4MQGQHY8qxY7SVJ5OBkgc+w+MbdLrS45VVpHVAscjHJzjOQrthiCNuT/ABAhum0+IWhMFyysmHbL53KMnhTuBDDC5DHbgJgHg8nnqSavrZNSvbqot6J+u/z9C6cZzVmo3vdc1l6NO+mif36I9LtrpJ1MMk2AELKBjaWIJTaCCfm68MCMbSTnnLvbaR4kDsirISXEgBGwsCOQVaNhg7SCBuIJ44OfY6hGZg8QDFBtAeNFKAblZlJU+aoyThwfTngDXnWOVdoeZ84eUMVcSFSvyI2wInygBBztbBGCcVwT95WfnaysrOyev+Su+tkdkXKnZu7vqnHa7333s9n5bdTkZ5LrT4XhUh4w+RE25gEZjnDEtKx3AMSGIAyG3c1zt/NZ3KeXNaiZYkV5XeJI5Vyv3RLGoY9M7TuGAeO9d1qCz+TIVMYbaoB2bmVdodn3AkZOACCpX5eONtcDdyrEXSVY2kY7XjdFJdnU46qI+TyxGOCBjBzXnVsLCV/dSd371ldfe73W76a6XVzuo42UL6tpqK11aSjre2+tnZJpbeZzsmm+HmbiaZHlARo0cMhDKGBy2DGRlgzKDnODkEFSPRfD8LoJZZZ8sQjeYoWMBgAOrFclhuC7flAznqLE2kTzSEK0TKY2jAZFzGWZSdrgBjkouwuWICngAk1o2Xhlsh5hLKGdQFVmEYKLliwBKoFXaSRtLH7xOBjnhgKSlzKKumtktXtfzutbOyte3Q6Z46Tg1zXaV2rtb2vvffs3psizA2m2vliwsB5isgL7Vlcl/wCJiQMDaMHAbO0ZJHNdDYW95fSbx5lmqkqXG7cY/l+QszEooHAKDKg4Ixjbc0vwkRMjqjiMkuxUtt+VSgG51IkKDAAVuPmYAbq9HsdGt7KDzXcliSgVkO3ChdiqcYY4Ug5JODjOBx6FKlCHw6O8V5NX5ZaNddG1ppu1pfzpV5zck5NxT1Tbvd9U1azstle3V30FtLOx0a13ocvcRosjqnLA7RkvKMsyhgd65BJbA+9UEpls7pZSrNDMhcbgowhA2s7gHBDAZGMg424J4o3975twoR8okcaqm3KxshJKsApQ4+9uAIcYAyABXPazq0/2cKcjJLcIAXBVVB+ZQOcAnlRnvk8ehGcYLS0rNp205XZq+l7q1vN6Wulc45xvdNO+9n17aW1VrNa+89WjktQZ9d12OykUSQvexQsI5M5B25OSGGODuJIYggAE8D6p1KC00bwzJAHCoYI4vLZlIk2RhRjIIMhUA8hlJIb1rwL4V6Wb7xK99Mii3t1edlkIKMSAsYcqAwIIZQjM25CASVUY9h+Id6oisoYmyEw+xDgSZGF3Argr8pwSSTuByMYPTD3oJ9LpKya1b7+t1Lve60Rg046bPdq97XWi7ba22Tt1R49qMcdwjsQCwdBAFUDy2JBYucAkEnc5OSCNx74w5bBfIeWQqg2Ns6hc5yrY3HdvAGCBjHGNxyekuGgkKl7aWEonyORtXe+xgSAq+ZtBw2WJ2nqO6zQoLCcEK0SwKy4UFo2wwwjNjGVIO3kYI/u8Zy+Psmu211a//Bdr7s1jbk0397p93rf/ACPQ/wBnC5ksW1BVlEbrqkjkrhOE4UoCy79uDhFcLt34Knp9k+JvHs82l/Z7O4xdBVSR5FMTSZzgIcB2JB2jAPJG4Ma+I/gG62c2syBftOL8TIZHZiilVJjKDaVQYLAEYZichkr6K1a3adFu185BuQgABTuXDoSckcDjYCgYZXbzkerhajVNJ2VuiW13Ztbq70d+ulldXOOSXPq7KVreuie+u/5XOfiF1fXlxcamzSbXDpvZjJ+6bzE3kbdyMV+UEnBIIwRiu90xb/UZrW3KxSWqNE0ZTiQAO+V3Nt4LbARzwy7SMsa5A/Z7mV5MmEEfuyXZGOxSHTAJ4LZAxyT1YkBa63QZWsLWa9aXy0t42maVlzhIEaXJXgIAqht+MELwuTurZTevNJtW+JptrV3i2kt9OZvbyM3q5LV3vd27NrTu7JNab6dSv8RtfeX+zfCOnskVzqDxpeqodRb2UG4zySg5QPM7LBEQoYFnbk/d73wNo1rpNvaRQKpeFSNrhlDOVDFgRghfvKWfcpYAjlTXh3gcXniDWdX8U34aSfVL6dbIToo8rT1Oy1VUYDAkhjEjJuA8xi5PClfpTSAqSWwjPyiMxzGTcSZSGIbduH3CqpGuzaqhiB2rqprmjHVNa379++u+m2i3XXKfxaN3bSadv5dHvdPsmr6NaJHodjNeWsw8tBBDLKJS0YGwnGJBgKd+CQQc4GWOMnI9G0q72yxxrybhlYyiR2KLtOHk3Exhg5LKuxRtAzuwCfJrK6NvKIGU+exO0Suzb2L7tqj5gqAAMcLhuNwbOa9U0u2iSAy3dxFtIA8tSkYYyHJyAECkBeQQQT8+F+6O6m0muqtyp3S1Wiv26tL5u7aMWnJcuq10d92vPXfs0no1tZnuHh7VUsBGonw0Yij8xEXcZGzn94dqjPIZAGHK8EgV9CeCPFU2lXMF3u2tHIGDecY3RwwZZUXBOVLsT0XIIwTXxrpmo6e82y38xcKVMizTS+ZKE2FkVXKMwyCXxwc8gDB9w8JsHeF5pCYz86CRdwOGVArHsoCAqzMSSSMYCivLznC061GcHFNuFrNXWunor3TV7N6N3PUyitLD14O6tdc3Lva7Tk2rvfW1rL8+K+NHwMsF8da1daKjWui+Io7XxLAbCV2uWuL+CNryCdfL8ki3uQ9uPLALBDuJO4n4/i8BNYeL77w3Pe6itixe6WPUtWvJpFe5YrFDaWbSmG3to44AxjRUAaRiFO6QV+l/xQvdWPgHT9e06GWa70bWYbKS2RVJm028SXDAGJwZFulQx4WMDPzMxB3/AJq67r0GleObzW9SW9v9du3077Zczal5cfh/TbC4eVLa100pAs5vZ5E+3XMzT3TkeUCsSxRJ/KPEmBng82r0mnZOVtGk03JL7t22979j9xyurTxGCpt2dlG701uo7K95Jb9Oux0N/pPgTwXeGwk1S2TW5lkhmjjuCZ7R7aATXInHmMfvOX8p87Q6qqBFNcB4pv8AQb/T7ltLjaaN7p7R3hKW9xdBWjjmuLZG8stCu5kSQpHv2HYpXL1l+MdE0+4vtY8WapaatcyRpd3UwdoL6P7QWLBIpoftBlnmtTGgMzCSHPlRKNpY8DofgSPxRa6ffD4gaz4fvLzSm1260DQRoN9Jo2m3slxDZw6jLqOkakkF2pRWDgxxqZAYkbaGrxYVZQ1tJNK3Mr9N76Nvprs+rN69KD0vvs1ouW1rLR29drOzs7HsnhDwV4YsdEW/t9EsdBWWKdJYLu+tbi/kLs0kt7cy2U1zBbNKZHkEZmEgV28xFcjb5j4k+Dfwx1KDX5ZIxJrF9aLHa3FtezTyWGyZJQ9p5chjEssiBCGR8ozxhFQlT0trBq3hLU9E+HUBvvHtjq+jnUry7hvLOLWPDsQlA+2+I5bezsbX7HM8TPBFGkk92pfzHZhk8ZrmgWOq397pOleMPE3w717T7mLV9F1aS1sLnwvqQW4g/tKz1gaqJrKKBrd5Yra3RUuRceXOolCPGXRxjlVak2orS62vZrVLXtdrZtbK5n9Ui4O6Vunw2V3fdt626720srnyh4j8AeING1SSw0q1luLGKNPJkme2Eh5ZWB84SSY3KSNzd8AAACivo+WfT49Q1e1j+IHhi1trDUpbK0uPFN74ZGpatDBBb79Vjjvrg3MVlcXT3EVqkiRfLAzpEiOuSvXjObin7Oo7pO6hJp363UbP5aHmywq5pWlJK7slKySv0Sg7L5vfc/tIH7TX7I1yGntPiFqlmYGVLxdb+G/jaEwTtkCBWstK1FZJQMgqGCMQNhYNk2I/j5+y3qbyRj4veHbWJRJI8uo6J400ny0jlAjjuI7vwwXR5xsYRN2IXC5xX0r45/Zo/Zs8C3drrnjCLw14HsNLuEklWd7XTLK+2IPs41OGa1nnuliSQXMJnkiCrmQEKu6ur8I/Bj4K/E201nWPhtrfhXVtB0ea1sr7XTaQzeHBJdKRBa2esXItLC+lYrsJs57hRN+7Zg3B/Qa1CN0kut7u2luqV7Kz1e7d9D80jVi9m9G9bu2q30TWnnf5HyUfin+zW1tLJD8b/hi1lEGcTXuvR6VJKylHYw2+r2lhdP8ALJjcLdQrcLhuk8PiL4HeIbWS40r4wfCy8gOXgMnxD8KW0rI5XAjt7rV4JZHG5QVEfygtkDHH1Pffsn+CYzaQa3ZeEZLCe4ECak1naXtjaefGcTXUtvLMqwllDGWVfIUEbpEXkUtb+E2j+BLW3sfDtn8LP+EduA6Wt5qfgqx1PWrid5tn26z1WWeexhimDFYY0tGjjTDf7Q9DLsMp1o9feSS36W1vba135W1fXlr1HbrFr3Vrr711e/nbmbto2lofmx+1JcWfgnwXALTVtJ1RtcmP2V9C1jStYRIYAsjG5n0q8u4okzImYJXVzGCxQqQR+LnjXxXFcJqVg9wpvfneMMSGVVdWDwKxAZpAQpHIG4/ewa+/P23dQtdC8feIfDlta6Vp97ot5qFrqyaTDb2NvJrEJ+z3Urx2kFrFPMsqvCXKnzCrFWfAJ/GfxzrbwahHJIWkuod43gkllDksMKwVjKFDHJZRnG0tiv1vLqUcPhopaNq7WrcbJLTTXy03v0VzxptznZ82iTeiaV0+r6u1r7XuYWua2FuLiS3lIeMyZRyJEO0PwVjICk8gZUgFWYgEEnzfVtZ87zFKYbdEoZWQyNIxbcGkUFggVSAAcgkkgsRVPxXqq2zP4stPMn09GVdXVPMH2P5VRXkkjDKIy7hd0gTcWAG4hgeCk1WGfbdWzLIkkgmtZ4ZC2EI5ZmAbdlDhBubJzyVrolXs/ebvqr6Oys2td1ppZJpPzZoo9Ekr7W26ddPO66+R0N1M1pMILmR2kk3GKFZABEsjAKxAXAcctlSWJCq5Jwawr8tEJHjLMrqdsrOsnllHTGHbcGB3NuX5WXgDGWIbdX0V80bAjzEjP7wyuHMik8uQeSrMnCgBSxAXDVgahqGRtWdRcuru8D7iJNh2bySfvbS2HPXDAYOc4yqtwemr2e979mtu29rdDWySbW7TvdK7UUlF27rVb2t0vqec+MGktJbTxNHte802cpI4kLSyW8pj81CFKhU2okqqSBlA2DtOV8TSwa5oSyD53EPnRvu2H51D5YDblgGLBuSRkHAAzZ1pl1GylUMqsiPDtfDLMX+/hZAdx2jkbSFHJU8mvLtL1C4awvNKnbdJYmREjMpBMDq3kPh23qgH7tUAACpxjHHBVqWveWy1V03bW0dN9bcy6JLrcIJ6Re13JpNOysn7115bK6s1rd2KPwt1K8sp/EsKyN5cUtpIY2m/1ZkW5beONzBzG5fP+r+RQcMBXU+J9WluNPuIZnaZnyw+cv5RMhVdzOchmXGOeBjA5APn3gKQR6n4niIeN3azaU/KY1LCUAZB3JlQ4YtwS/3emeg8Szk2sqorKfNijMg2hGyfkdnJUICBz8+0ZB68Vi6z9mo7J3V9n0bVrJ235trx0RrKF5XXXVyWml07N6aNvW26SRFp5MVsoyFEqA/LyVyRjAAG0xAYZj85Uj5iRgX4JBbyv5KneWX5woYszbXY5bJHLMrNyDg9Rg1laS7vG+8oSijOZAQMjgltzclw20DeDjjgDO1aSp5bhk+Ys64ABAbZujKs2MMcDjhucZYgmoVkuZvl19fv1t2aW3KrdjWKd0k9HeztbTVpJ+euktX00NS/1Z44HjUj5kGBJhTjAzGvTkgAjljwOgIxxcV/cXl4bmXgW7MCGwcruIiY/Kq7mUBmVc9eQM1JqJyrvbMzSHyxKjPgxjABd33AqAc4+b5eQc5NYsTMzqzNEXaQ57kgcBmwQuwEAAHjrtPAzPPdpfZWlno3r7ztuk7+7bZW1VynBK9ldNbvR2td6X0W12u1lpv7ne26T6dGpVJZJELYKKNu0A4yCRjcMgsB1AGVOa8T1C0aKeVlhWU+Y3zgofL3vtKkcKFYgggAKWXkbRge22IkXTYkdij4jwFA3MRHnaAoDBUJI2OCOD/F0878R2CRTTqis8hLKXjiDljwM4AyqjJBXggq3IC5p1oqS06LReiu09LXlH5Nq7v1mC37N6X7d2cNHNcW5d2jj8vzEdCsYIAU4HzAsdozvAAAPBAJHHYaPdQXVwsM4JVt2FjIjAlUMw2ndgKzYwxwBnDDgE8u4/dpu80AAqsgUAoeVGRgEoc4ySB0C5G4UWlxLBdGUNtaRtnzHYsQZgZCd2GCFQcAbQBwAeQfNSkpL3XbV39Xpfqlte271WzOu/uqSTdlvbWNrqTs9Fp2u29V2PSf7Miu3meOMwurhow8iYKEDIMWDkAjJzuB68EYGLfeDEvUebaAyeYcuSrtGMkjOGJxgHHUjI3KDkX7HWUjRI2hVmMmVYuzKQZACynLlkAyQuDnPPJwPRoZ7aS2WF1KqyGQs2VAIX5UXGWABwGzgH07HeVNNX0XRu19dbd9rdrHNzrmVpNtbLZ9LK70V9fM8Lfwvd2xUEKXbkNvJzGVG0sMDJ6/dYBgFwDgg9RplgXXE67V+WIuqL1bgLngqwCjlQflzjvXq7wwXcTxIY2kMYZWQEFgCyIGLnAIycqCBg9z0wL6O2tohGtx5Lho0Z0EYlJlOCvJIXB8zLKVGMDO44K9i1d633SfLFNtbu2r0/DZaG0qiu/eaaW2rSTd7P8AHztt0KEUaW6PbqUCBZCDu2M5Cjc4fKsNvA25+8SzcjK8lqur4WSDe0wYMYk+eRlD4jxsBwxVg22Q525YnGRV7VLuZpZyN5WBtnmLhFAZcCTepGXbAHJzw20EAE+bXcs87sBM4iVv9YGJZslhtDY+7kFj1DbiPQUKmveWnNreUddVZtK+na+iutdTOjK8t5ON/RXu21re9o3st+r7E0VxGC0zvNIz5RoslTgthdrE5LKFCk578Z61kTPLez7XkYIAQ3muWLBvubCct3Bb73zFmGDk1PY2twwfy2Pzs7l5sKNoBGI1OMjPPzE7jymASBtaVpz3c0LsULAbBGFBZ13gDyskZO7A3HJb5lyf4YhCTk1ZpWS1Xm2720tp7ut1s7JoqcUr67Wa1vu9LO/Xrd77LoewfDDQk07SLi6ZGMtxIV5CZMcbYXkjIXa45GHBOchiTXNeLbySfXJolljJhXyljKI8QGACuGBw2CWzgkYwGDAGvabOzg0zSLaCCNEdrctISoDJtZmLRBi6kHlX+TqMdBk/OurmS91G8O7Zm6kBcnZsd23KEVRt5BVwQdmDycYrvfuRTa2UdNr3a1tfS2nmtnY5Xdt331b0t10/C3QagF3nC7zD99yCwGGUBsNjO77v+znJHGBZ1CNH0R1DLEylWbJkBGFOSzEnJOMtgjG0bhwSYAkzlY9udxIjjSPYGAxGWZEGOTjg55IDHcRSa4wXSLmZv9HkjzGyBhtJdTuWMBsbcj5yDuGTgZovdSva1lpZ6NN31srpR1Tvo7PU0XS/TTTa6ja3W+jv950XwAMnnasBJl3vGUKyFx947TsJJ2ktkEBhgZwAK+r7vTzKk0skkheCNG4ZhGrBUYKVwcNhnAIBY5GD1r5L/Z0vRDfXnDCNLu3lfC8SK75djJ0CoAueCCW3NlRivvXU57S50a5dQFLIFaRRH5pLKq5Zsg7WOVDBjgE4Pau7DSiqS0eia9227stW9Vp2T1b2OarFuzS2d1LZS11stdvL9Tw99jzQqhL7GJZZAA0m4bFBYb8fO6gbTxjPBzir431trPQn0mIyCfVZo9F258lUaV1S4ZHjBZzHAshVV5Ay5JG7GML1IdRuJXkUmB5FYQna3LcsylsMSQOoAUc8EGueuHXV/GdkzF3t9FtZ5zDIS0DXF0EjR5GPWZYo3TcCWUTPghS2bk1dcutm+rV+miuldLZ63bbd+kRjdX1vqrLTVLffTV6ea3PYvDMVvpNtCBtRYYY44lkG2MDdErSO38BIyQMnIJGe49RXV447d5x9nVXVY4PLO3fJICBIr4+VVwcYCkkAjCgmvHIL2MJHcvhrW3bMu+RyXCpg4QYxGpZVQ5O7k9iKuSa9p1l9n8Q+KHng0C2tribTNHSOVLrX71d0FmkcshjjgsILgl7mWMNJOY/s68lmrohUajpfRem2nLtZPl0T2av8sHSbm5PRuyt30S1td3ejs9G762Pc49WsvDlrDrutXUxbIEMLyqCwQyBSol3sVOTwQoIAYnapzk6d4u8R+M75Liyna10SCR1EWwjzSxIEitlUKlMgsg5JLMAqgV83/wBp6/8AErXI77U3aDSLPKWlgq7UwGQqzMoDgeSgRVTC43DkOAPe9Ine2httPtCLa23yqQjAyOyD78xw3y7cRqeShIyQCcddOptZ20V7vyT0bVrptJu2jW9g9mlJq6Sva9vtbPX7XVXdrX3srn0jod2umm1RLkSSKCfLkcqsjyAZjUREPMQT1OOhzXtHh3X5Td28lw00ERRY1jAaKHcrccoxJBBbK7Q24nDZIr5S0O8trZIgsDXEyyuHknfcVBUKWRn3EvGpBCKFzyBxkV67oOqefNHGC8iB0SFVk2Mr8YYFMctty7EsoYHgbQK1r2nB829rS+0nqlvq1sr6N/y6aq6N4TUlpqkrfO67L+Xq9Pmfoh8PvD6fFC6tPAFtLZNJ4rurLw9YLqNxLBavqd/cJb2EbybS8RN26D7SUYo7FiflJHIeMv8AghB+2vr3xI1nUdP8e/DbS/Bk6hdAsbe9v9Z1uKYeWLe2vILyx0vyJBciZnuUv3Td5JQKsYdm/A7W5dD8U+FNZhmYXug69omu2iqkUo+0aPqlveooRsB3YWwQbiNzMTgkgV/Xt4n/AGhvg862tjfW2u6kdV0e3/ttvCts0V/ps+oWu6bT73ULLUtOvba9RH3Sf2dO8ieZG6TqCGr8M42yenPHKskouSWj0Tve7Te1++tkna95H6Dk+bTpUFTSbSWtpJ6KKaXLJrWTejTsnfXVpf5/37SPg7xr8Edeu/hHqFhpvxD8ZeGLa+07xJqnwoe28R2k2q6eqRahBdak2pw2tpcW04aDULyaK4FtfLLCxjkQCvMtP+E/h+TRP+EWS78V6FfeLoPsw0q01m1uvG82l2EKzxQXVto9ta+Taszx21z/AGhrl1I12ZEVYguD/Zt4k/ZG/wCCVHiC5up7n4V/ELwnqWpy/aby/wBG8S/FZLieSS4a6LTsvivW4wjTyS3LRPbiB5Hldo2ZueAf/glt/wAEqtQn1HXtO1348+HtWv4p1utZtfHvxHF6IbpzJcxRC+0fU4oUnLlpFtIYnIxyoC4+BnlOkvgWu97aapqy0fNe7207RPalnbqOPuVkkkpJwvaz11i72a1f3K9kz+PzxF4gufht8YV+Gfh7wHrniDVfEWjaTbXqaYsOp2nh630iM6XLPr98b5YLEvP9pu70T38wMiny0YIqjqB8Cby/Oh618QfGtp4O8MeOfC6eIdIXQdPudX1myjvrqWO3GopeS21lZS28NtkW6R3AJkGeI2R/63ZP+Ca3/BL+4sP7HsfiV8RNGjuoUt7yW2vG0i+vEhhVIY7/AFN/hzFdzGMoshMt4pkm3SSFpZGdvK7/AP4I/f8ABPjXI7PTbL9rj4s/Z9L0saHo+n6p468I32maXaxB3hitre98NWUatA0jeUt1PKIywQKNgQcdPJ2qivGMVqpPmupPVpdo6Wioxve6bbb02hnEeVrmm2k2k4vfXutvJXez7n8Z/ib9nPw1418Qax4g8PWGm3Wi3Go3lrp1x4kOiw6xPbafcSWMdxdx3UpkT7QLf7REFJj8qVCPm3UV/WZq/wDwb6/sqazfzX2lft8eP9HsX2pBp66d8KLvyAg5zc3EtrLMzk7y7RfNuBDHsV7cMDJQilNxSilZSkktNrKVl6GDzZ30hVfmoOz63Wq79j3TwNrXxM/aB1x77xjqOoeAfEXiXXo7nwzf+KBrOuaVP4f01ZNNlbWvEFimlWc93b+H7O3uGSymeKdoFtbqUqrmOnda/H4iFroWrfE3XpdE8Byald+DvCUt9qGieBPF88F5fwWOq6NpF5cDTFkikhuLu3jDTzTsF8iRmA38J8T/ABne6nrF/KviXVNCvtRsjMLy51ldMtNFt49Jtvsug2Wk6Xf2vh/TJtKiElvLa+VZtBDB9kNqx3A+ieAPBPhvx3b+D9CF3r+oPpNkV1LVLCaCeKx0/wAr7RDBdeItVeKzSa8EyvFDtWaWa7byoX8xS33tXCOTS+S0bu09He1973vtbV7X/LqGLUVJrdK9trcyu3ezjr5aK1mz2jwf8XvHfw7lj1bwB4p0tbC7gli1+ws9GhvfEV9dXVtGzkavcIRZ6lFcK223t4LgyALzKTvW98Rfjs3iey8UeMdT+NXxA8OW2jWVnL4G8FxadqP2nxJrulaaITq+v6zqFpbvplrHqjNdRW8dtax3W0tYscqTxniPwL/aWjW2k6JofiiGPwxAn9u6h4a06+1T+zdOty6S6rPc6SzSieG3+Vnk+zSZDNHs4Zfkz9qXxVoug+ArDTtM8UazrtzdGNvJvGvbNdItLaJ4TpcthqcEF6l4l2D5spmureRAjW08kTpI30mT5a1OnJqKSad+XR6JWTV21qviS18kRVxKnfletl0T73+et7ejd9j8w/jx4iPirWdc1LUZp7lnuJZ3lZixmuJp3eV55M5lkaRy75JYEAvh91fnj49jbc89rJNcSEBSiK2FIJDKDn5SgLbTznawGQAR9VeMNUivLe+Ekyy75GkKF9kiOwZ95G5cOy7idgI+XJUqAa+UvGVreBJrm0uVDRJI6xM+9cMqr91ixZiBluTgZ6/er7eS5KSSs3snrdWVtfV9b7OxnHWza3ts2k7K9n20+5+Wp4Np/jG/8KavNIYoLi01CKe11PT7+ET217YXCtFPbXkLKVnWSNmaMsQ0MqR3MTRywRuvB6lHJ4aRNStrh5/Bl3dzLHchvOj0CaYFrew1SXOLWDLLBYXM2xHISENuzW14hvbIvNFqVlNAwVmaYL5atguzqjEARgICWw20pztHIPnuieJ5tBur+EyRah4f1LzbbUrO6iFxaajaz7Fe1u45VZJUlQ/e27o2KMGRgGryak5Jq7d9U03daO6hut2tXv8AI0cVzRa6XbVns2uW6emktH30vpqdA+sxwMs0MzExIJFZCpRd4GZFIyCrMFDgn5lXcCGUGrxvdP1SB5IcPeGMMrrlxOQpZwDjaACecEAZLtgnNc3qnhe0sbJr/wAHM17oBgZm0CCVp9S0JGDyv5aFmkn02FVxHJGreQm2Ngo2k+Yw+Ijo9/D/AKU/klykyuXHlkcojqxyEPzA7SfnwRk0Kp7tr8rTbSXTlV1vbZ72vdNK1tTRpuys9X5W7bO17Ppo+yeh2d/OVkaBmKTMeDGxwjk5RThvlVmBBJAyVGcgEjyDxBdnTNbt71/nZt0FyQUVmjmICZO1Q4DYYqD1yfmJGfQ/GmoI1pba5ZMq292VSUqCTHKSHDMAqkLzj5i2QfvLkE+MeMruO4s0l3uDIwUSrnBIVn3sT8w6MSQc8gcduOtOSbk9LJ3e71s9L6J3b17Xd3oaQi1vG+l+um9rPpq9no9n0t1ngqdftviZvKUxz3dl5a7vkEX2crKr5XPmeYqsNoVTGuMVreM2A0aPajC280Mc7AGKeYrSeYCd204528cDBFcp8OJ5LrTr+5ALCe8gMwIAYvbQyxGVnXL/ACBm3DkEfMxBArsdXIu7F/NdXhY7VWQ9WIPBzhcDOMjk5PHSoptSim9XrbW91a6V99Eml0stLs0knFK2uiVmrLVaWer1d7q3Rs4fw5rcAmlR5d0SuAIycFMdMPkA78ZbGRgkDleOwlvoYzJsEYklXIKSNyoxhlVjgYAAJJXG3JXnI8uvNKSyuBKv7oR/LvJKQvIWBy7kBCOdocZIyOOM0+G8vZAZJodojUAqqBGIwyjJOws20qCRkkHJ5OKTqW92+u9t7rorJf0lbZGkYxil1bSXMm2nrfe1lr136X6HoF1d20cTFwkjyqGB3MQxZDvUqQSWyeDjOVzk4ZqzYZjM6xwwplGwAhIcxhxna27BbI3Eg4LEHgAmufkuSUGdyl3w4ZTkbcK3zZYE5ONwIOMAEgYOvo0rz3EGxSAZADkKCNrBTsO4gKTzwcMpDbewlTfPazT1u2rpapWV0mtHo29bbManzc1tFdLXrd6aWvLZpP71ZH0hph8yCOHcpZApQEYZ8Z3OWHD5LBgTyeSOtYeqQF28jYXcliHEUbKCxdg7jCgY3EBiFOQCSCQD0ulwvG4Kw+bGqkl2UuRLsI2qEyFwwUkkDGDnBORXmiE0pVT9nuSWlJdSkZ2g/Lnom4MNxHzKCcAZrt5eaLu3ra7TSel1rd2bvZ6emxlVSjZRTjd3aV9+it69evRNHkGq6e4ZlMiySNGTsCYCoCGyqEDYwYKARywIzu3YPMmCVDtlQrGcn50OAysrZIIBLDGFzjrySoJX1LVdNaQXDgKmWBZBtVjjIYRjgkYO5wcBgcdhjh3hjlLwTSJHHBk7Sc/KcEs7/eO487ckjgegrmnTcZaWvZXvu7XfTqk9baat73RUJe603q2k3uk07tO3Wz102st0ZWnXQt7hhOS6bSmTkoNoGC2MLnLAgKcYyFBzg9Ut1cPKjoVwu0IWyA8Z2tiMEYH8RO4jGAfugkck9uqTxiOSMRDBI5YMcZU4+9tyeMBSCcj+FhetWj3MovWfDIPKRmICxlj8hyFBAYgqrbiAAPmABmF3JPTRN/cm32W2ml09H5NTUUk0tH8/h+9+n4dDsoNdvIo2y8rtuYArndgAYLE/fQE8FAT1AxnaY5ddt7lsywhSoK7u6MyY+cZGeNxUkZG4AYbNY9v9piKEch1dNzZKICcklicK20n93kkEdADlalzcTBHMYjbDlJZVUEosY/dhhtyxJLEMACASq5YVcm24tLR25XotV3ute9utr76GdtUumj1v30vrd7632S9CtqM1wkUvlrLHFtYsSS0eArMgUDa2F3YPXPGADnPM2UTyYleJ9uQDIgcplhuifABBQsCMggZAGAQRWxId7gvcqFZyixBtwHDfMFOFUk7TnnBHI65S0s0feZJGj2lvJKMQJS5z0XpIGOSAhwAMADBrFNO+t+Zu7ateV9V/ktn0d3Y6Irla2e7s76vZq6Wjabe1mknzXVibT7dnZxNGhLK7sJUO7aXZdoLkAAfwrgMDwDya9f8AA+hRX15HcSII/su35NnLPhSrE/Pv+XAKnAHHQZrkdH0qKTaGm/f+Ym2QKVVjlclyq4yf4W3cP0BA59/8HadHa2lw+wiSQyiXAdmdAABIX2sXywcs5JztwcYNb0o6puOt7bNNp3vpfpZbrRX1umY1W33d23fyVlFbLo9F1e9rMoeI5ns4LyWG3fK204wkZdUEX9+ReIzjqr4DE4AJIz8wTyG7uzvJEgkdopFBKKNytt5BDEnCsTtAGemcD6D8e3DW+k3SiPCTLg+WGLZ3qsjEjOSdpLEjIIBAPb52t8x3bAs5V1VSijKxqzFiEYgkMoIDAMVypOBk1dR362SWqXxX0at01X+e5mrrRq7fl0V7O297WvrrbQ6wJNJHjdiTzIyscO4M23gx5BJxuwSp7AAjHTB8VPJ/YtxIAgPkneo3MpH3FJOPm5weTy3IHBA6hULlQitvdSAGICnHG/7wHzNgowQZ6A5Bxy3iiNo9NltndWgaNgWUkhgVyVL4yuGKhiMNkkEktisPVu2vW9t/RW+86acbyV76x0bV11be3XTzVrXte+f8P/El3pOmapdWThr7yl+zgKpX90r7gy5wrDACkpjqMDqPb/gn8bL7xEup6D4inSQyPcQCRvKSSPekiRHHBJGUAyoByOpYY+UPCWoCDUo7TegjnDoFDKBIycEE4wy8lskMSSCpqpo2tDwd8T57EuottS23NuJB8vmSTDKZ4XbwQSh64Utuzu1p4jlioPovndPulrvq76aEVIN311Wtluv7zWzUn3SS05d3b7Au5msdf1FTPE6wq0p2kbtrbgoLZAI7FOp5IOTxzvhDVBfTarfGTEl1ezKwON3kQsYogoCliCqfcGeX3E5rmvE3iC1sbS81GGaE3F3b7i0bJvZ1IbB4JMnIKKRhhwc8hYfAgM0caCaG3tYopZ7qVn8uFUZTNKW3DHmSOQI0VSzSOFwAGNaKq5O6lotrWune+r2s7tWX56GLg7JpdHZ2+0k7pcumu/Xbue5y6hbwWT3ly8kenQbYxF5iE3NySCkDADcsa8s5zwBzz05OJ9f+I2otdai8j2Nt5EFpAU/0e1tbcukMdvBGixpGiKFCquMhsBzurC1TW9L1OdbaeeO00yy5UfOZZGUOQ0cf8buBIzA5YguVXaDXo3he01HVFSHw5bXWlabt/eXssZhlm3AM4O5QypIFcMz4OB8wyVx0xm7pPd6p3dlorppX87aXv2SZlKDThLRPfS65mt9V11W+lkrK1z0Cxg0/SrWO28yVVVAJLeKPaxxkKxVMtvYc5yDhQHwOneaGLu6tTBZWSwISzNMyF5EVgMESA4LsoXeeuSMkk8cnp9r4f0Yo+o6gl9eYUrBFOjLGrFi28q7EMc5GAzFsMSAMLq3PjB2t0j0yP7JaBAqu8pTd5ZYqdvzO6hsDccZXLKeK9CnUiuXVu2nlK/S7T3vbqtNtiOVKUm9nG2q7797Lv6o9U0q2tLCGN9UvBK7qyCPLSTbxkfOQchXY4zjDAAbvX1Xw3qkNosdzbRgK6ZDlQiKyHapYncu3OAFOeuQMc18y+F9U1XV7yESxhYQTamaNThghyzIwwpDthgDjZuOCCfm9ibW7TS4RpAAlfhsDaPnXazFTje7bWQyABgMZbrmuiU01a7k+W3K1Z+8/Oy023enVXE0uaLV1FWfnpunotHfpfq27s+zvhPr00GqLJdyvvM4ljbfuZI2Zdpd8ZKMcosb8qu4KpABP9HP7P8Ou+O/C7X2h29zq13BBZz3kUNnPf3YaWOKBH8tUeeXLRqpkWN1XbtfaykD+VX4favPYanpt+hZE3xSXAmChfL3ESEGRdgIX/c2Mw5HU/sj8O/g38N/j1YeD/EPi/wCKnizwb4g0fTrjRdDk8PSano1npOnxzG+i1RfFOjXME1jcTtKYJBcSLb+TEkkccnzNXwPFmHVWnCX8tld3u7bXaWiT0v6WVm2/Yy6q1KcZWty6J7tuyS10aS1W1npu7n65+I/Anj7T182/0C5tpCWaSSfTbq0BUR7sEzQr5YEb+YQxB2tyuDiuJtNa1C0tHjNvbSxvK8SmNwIvMZWLBmJKMFKMSu7C4xjbzXy/4d/YZ04+IXS/+Pfxq8Q6DOsEiHSv2idet9dumZI1je9XWtcGkot/tMscrXVusikBRggH7S0j9kzwh4U02KxsPH/7Zmn6jpFpNOsl98a9AuLSw090SO5njttQ8bSWIhS3CRGV4wXQBEODgfFRwCkk7a630vo1d203vq01otFbRHbLGOEnrfez6bvR2d9tVfXSyVkcgftO+2WWwimnlYCQwyIzbWTesq7WICycD0YnCglhV0RyB8PojxwwsvzvGpDRkSbpSTI4Izw2FG3+LI6ei+J/2SZtPstOfxH+0H+0doOlW+sadM154tu/CeqxXEUiqTbWet21tqjW8nlhIbVXvIrfzisKqcqHh8Sfs7T32kR2Gl/tV6wlvdhY7WXVT8PLSeeWAhobK41k6cZpLsyBEkSWaCJyWjLB8Cs5ZeoSi7Ky6NdFsvm3p5WTZl/aHMvJSd9Xe6T6aPV63T7tdTgFsBtBWwmQHJCqJRxk4JCkYLDDEEZ5GcdAVlSfsuftEu5/sf8Aaw8KzWCBUhN94L8LXl1EUAEkE13YaZJb3LxPlTMJHZ8ZZiaKSwtO2skn1Tkk0/S2n9eraxbaTXPZq+ns2vk3NP79T4Gt/CUM83g/w54xn8Qar4e8P2s82jeEfg9H4V1DS4Ev7hpLzVr7VrAT293d3Nx5t/evNM0lnGWdoY55HZvYLn44+FvAuiiz8NeFPEW5Jb3TfC0+qeItIe/1hoIIIJrgQWlrdTGztpIYrRZZ4llnlgleOVTl257Svhv4l068/tbw99n0/RLHVdO0yPxNNrEV4NP1K8kOrW9jp+nlvtBuLZHaR7xLVo4ncIPmiAH0h4p+G3jO2v7jxB4x0nw9fXv2bVbjXfGOm6nb2um6pp3hu3il0vUJZ7O2OlfYdegvYYbTRo5ob6a9E81/BaTG4A+xhec1ZP3nay6a9Lfmr9b3T0+QXuJrVJ3W9ny2b2SvHlbattq2730y/Anjf4c67aeCrj4ieHPiet5f+Ho5db8aNcXOleGNL1wQpd6pppt9Eme31LQhqVwbRLOfGrX0VkbxhBFJk/kl+038RZ/G2v8AiPWV+zWNvc6tcHS9Otld7Kw0gHFrb2xlmnfEcKRmMtNIzOflLkHP1D438UGPQ9eayi1i2S5sxrMVvqkpih0u2uLaKG1HlQE/Z/7QkkM1lBMzSNAQHchVFflp8QdeljVkuGWNTLKRGMsHd9xQhchigUgBsbl3DgNjd9nldJQpqVlsr+7blS6pO2lmtPefNeW2hMXKU0rtWtZbLeyXlps92k0rpnzp4v1KyhuUguppoI3dy8vlhd/mhsHcNuGjOVQNkAYx1G75z1s6ra3TySxNcW7MVF1CwyV2sykI4VmyAMgAg85Y4WvXfGLpqHmSESOUwztMDhMOdmPMboHCqp4GckttOT5hBdyXkN1p2pJEGYPsbduICblGMBSihcBwowFyNzDBPfUbcbPbZKytrvt3a/yO2Lcb2s1ttZJJJNJdnZ+miej18u8RaamtLK9qY9QlG3dbRIrYVTuKnHqEO/oDxyNwDfP/AIh0mG1Ekb20lq5WRxGflQbMykt8wRCAjGMH5i3C8mvd9c0zVNJuxPo8m9XJc22CiFQ26NEkbg4IICNzgAtxWDrOo295Z7db04JcsHJyu4uFdSpLgBZA23KsVAHJYDBrzakfe1/qz6b62a/4Y6Eua9mrtpptapJa32ez37K3Znh3hzXZtLmiazeRwrfvYnbJZCASsZJ2EMcN8jMuegKg42/FvgnTvHNoLzS5E0jX47SWZlkk2WGqTFkaOKVhEEsrhwzRpICYpJCRJsBD1BeaNp13ds9ldGxd/wB4RIpjzHG22RSnCliThSflyMBgGOLi2ms2ZihhKTxYEhMbqxRVGc7VZmdiCu44woB4ANcy5nKSsmvO2lnp99l5LVbWs5trla6qybb15dW7q9tm42u1tduVz5503WZ9KvNX8A+LorjTb+JJY4obkkNHOUdbK6t9q7Lq1MrlBPbvMm0HDlsCvJNd1S4s4b3Trlts1q7ArKSGxuYMXVtrBhnAHXGCAAFNfZHjXQdI8f2sOm+JLd1vbAFtP1izCRatp7FlIEFwB5rxoyhjC+6EgyR7AGIb5a+LXw48UaRZPqLXQ1wW0SRvqMEXlTXkSj9zJdWhZj9oWIJG7oGVypZlXcKwrxerfWy02fMlZb9HFra23Tdwemt9d+qeul1p6q+seupufBe687w3e5UM76ldlGkLMpUiMhlIPAVy8eGKkbTg45PqWoLGlrBHIgIaZpCMYUORtU7t20NGCqc4AUDGSoA8J+BMsyeF7iSSBtzavexyuCwKrFHbLsWN9pXZMZWyoYMXOTldo9qvDO8dsFzDEF3SKcKuWYk5BIJLZGSVIAJcturLD36J2s36Xvb5q+nbpY3m7xVtHotHskt3/Ld6p63TsjHnhW7SNojLInmMkhxvQPwpTJ+UAZ2qCScdeCDXO39pK6PGh8tFOFeMbHIByDIRnJAAUDc2M8bRzXVmWQrHDEsQQk/MrlD5vAYjITLDGAcPuKn5nY5rMuY5GRPJEZgVisylnL7kLIzFmVcKHIw5DdxjORUzTjJvW6Wz02urbX3aVnpu7tNlKTdNpuSStpe3u819La2bun10veyZzE1ts2DzZt2dm1GyisGA+6245Ubsk91AO0812fh5R9rto42XJliIZ2JYfMN6sArbs5IwAWHBAOCRzktnEriYhTyMnI3AyLuxgEZDZBJyevQDBrsfCFsv2+zVgFTchAb725T90sAcyE9BtHfAzSpXctfebs7rVb9e3ZX7aaIIP4ndNW310d21t32urNL+62fSFnNM1u0LyHzgN7yx5EiIQwUsGBIJJG7cAe7NnOK0olMZ2NIXbmSJlG5Ig28SEqScnaGVNrDPCHrTbdp4RvTAZ3VSy9dpGAjOSE+XOF45OMNkHFtfNWZlEJkeWPb5jFScAHzAVbAfgFC2GPBIGOK9CFpJWa631TSV9Vppq762v+JDlzPmfbTola19Vffo/kjIurQ3EckhZUDZXcxUGRvKzlF5yu4qu4MQ+W29MHzfUbQQyyibAgwSDHnzGkyNoBZWIfJxlm4U7juXg+n3CJFdQmMY8xkUq/ypEH5LIRnAUBcqVGSMg/w1h6zpjNC08EfmqjLlQAfNy4LHlxycFiCoOBzk5FOoo6dLNteacZdvVN7fO5ENW12lJt7Jpp6vW/ZdFst0r+UzW6psKKqyyO8cckjNnAw+CVUlhs34P3VOSCMECFIDAFZo0MagsrHeGYll5zhdvmAMST82MYOea3Z4BHI7ZKRookRXAcsXP+rLAksB64OFORyCKyLuKVkO2RlJBBByIizYdjk5XywMckE8gkAZrhTad9mrrrfdetlptb52NZP3FZJ2spa73lbS3RLV36qz1sy3GFYBYlDbtsrR7vnyRjIZc5JUAEck5OCMEmrPuRTF55cuzSCBcNlyCAm1ATuXC4PK5Ocrgk1bWbYWVchztRHjLlSRksCwAGNzEqoGAAQRtOKvfZVTdPLcADfGzAtgKFBzuXBKqck7RkHIA/iq7zlpe+7a6vay2stb9U7k/Da9m1a9lbfrZ6229epWeKNo4JokYyMGWQBPlL/cYkHkbFHLN/tZBPIt6eGLpE8Cnb0lcqMyEhS4fb8vCgM+M4OM9RTl+zXLKROUTYSm1TiR8lQHGAyggl2IBGE5IbAboLCSPMdqIw+MKuEdTISSBgsApVi7Mufm7AN3cIpJqWrbbV38K7215rdU2lqnHuOTvOPVcr2urNqzWj11X47aHa+G9Kac+ZiMp54RSu0htxGepUMyj5t5Ue5Bbn191GnxxmLYdkABTCMu/lSp5OSwGd27gtjIIxWN4M0829k1w8WJRE3kW0iqdzfN1JdQF5G13KjkHocU+7mkeSR5UZXcHGW3IpY7EUFGZTsAwmCwxkA9QdYycXfeVm/KyVrrrZpp2vzPW2l2Wl70eyjr0vJPVN67Xu2lrZLa55l8SLp5NFmaNyfMuGBRMKgjQEtGwON+M4JTKgqM4FeLaa73KiHZIwPyG4B5BIxjfnJDAAgqSQpUnnDD1X4lZj0yElWkU3BO5lWGLeFbzFOJOjYBH8PcjIrx/Q72OPaZsQxDd5nnqCWPUsFDsEAUYG7JGCRwcVjUk3dN6NXaT0eln92zV01ZLazElzXvrKz3srrVJNr3tu3Ro7ONJo4wZWBxhSUbcqkKf3bOTlUByEZiQRgegGDr8n2izljCgZXdHGrOFddwIw4xgqOwbJC5AOAa2kukKusa/aoBG3ysw2OzA7S23DoU4K4AAOScZrldTEcsK+QJBvyHcsGHmHK7Y33844UsCPlzjpg89SS5Gk+itru7rT7r3XVLW1teqnC2relrySu7q1ld9k9HbdW26+KWc5tNYtNpxHHceWCoPyhmKDeDjhywyMHGDnoxpPidbNbaj4d11Hw0N0bK6GSBIk/zIqYByyupOc4O0D7xwTUomju/NLSJ5MhD7sgPIJAN/wB3kAkADuS+WLD5drxtbnUvC3nHb59sILtC2TtkhAdmychXADFRjKkjBAIrl5nH3m2tVrd627621W6srpJWvoSrNN26avvbbW17Wtp03aMWTVL3VrjSNEsZRI2pXUEe6VisaRqQW8xmwiRYBJZsDAzk5UH6HsbSWO3h8K+HozOMk6nrbhYIbq4X93M4ZtrR2JLN9nDhneJFkYZbZXy/8Or+CS+n1OSVVaCNbaEuB8pcAyNhsBHI43EsUUEqd2DXuw8W3UVoV05V37k2sMgOWdUYBiG3cOdq/dY5wQcseujN3um5XktWtGnG2qe3R6JpOz21WTXMrdm9Oqvfa1uj67rfU9hs9M8HeEylzqU7axrSQiQQybha20xyPlLnEjD5TkIDtHULknTbx9r+tzDT9BiFlbSlYttopj3sCAuVPViflO0EAMxJxux4rpGl6hqlwLjVJBI0sweNNxI4IbcYyPvBgGx8zMQDgDlfoex0mw+HeiR+Itcj26tdxLNoelkJ506OABcPGzFoY3Vg6O6/vBtCgncF9SHuqLau9N9L6tWu9L2d273TS3uY1Erpr+VON9E7Plav3W97atq7Z2Gn6THoGirq3iS5SGRxMshlk33KuoV1kCKhLKN5UgFs5C4DEYzNLv5vF2pfYtOt3urYlSJpIzFFLynIXcM7AvKt1JzwVwOR0nRfFnxE1iS91Bp4tNG14EmcxwwqQ5K7AwRWKkkIcAgEBic19CaKNC8C25jWSKa9WMNGIshmeMeWd0SbiQdxVSV5GXwcgP0xqJWXZaaapJJNu+j0s2733fcxkrO13a91fRNdVbVW767pPY6NoIvBejo17dQR3jI0kdtG6uwPXYqoSBj5VdydiHaM5ODJ4Hj1DXr77ZfBpYADLFNKVgVQrAlGuHIDjA+YKz5O1eMrnzGVLzxHqv228MotnbbGhRceWJCfmTG4pgqcSMGDE7gBtx7V4evXtLWK2tls1WAiMu2JGZNnz4yBhgCAxU7QUIJO2u6KvazV2ne99Ho/NpW1d900tDOye+r1s3p66q7bfV21tqloz3SO/g00G2Ei7JI4VhW32DaU4Z1mYBCrDgKQSCAvLZx+uv7D3xj0TRfBmpJrl/dxzaG8Etjp8NrbzG+ugwgsoLu9linFpYJDI32kBAZJcoFU4x+H9qt3qLmOFluJXA8qQ5MS7CQViUMVcsAfkySwBAwqmvq79mfxzeeF/GEug3otx/wk2my6esGraXc3WniTzE8mRbKCa3mu54CHmhgjlSR5RsIwCB5Wb4NV6DWjfV6WTWrv1d1bfRWSWxrTquk9Wr7XemvlfdO+rdtUlofvlYftS+LWjutH0vwLaWGlXuo/bP7Q0XVpihvIQCsd21xpF/AVCtgFIhHGfmUqjCSu11D4q6f8RNHXQvFmj6zrdi5W4AttZuY/ENlcQuge1W9trm0sb7TbWNCLexu/9HIjV4iuM1+ec1hrGj+Ehc6Pr2p+Gbm4uLojT/E8kngrxD/ZcM0ltBq2k6Hb3LaqLa/RFla0gnnnjSQxzRmJXkrA0Pxvp/hXQ7aTwF8VtS8S+Lb/AMRRafr/AIVaLWvDPh2zhv3FpcXmq3Okyapfuq3lzLc3F7eTadKiW6PLYrA8j18WsG6c7pbWV3za3ulfW15au+zStKzZrKspRb0und6rdXV9d7pO1ru5+iPh28h8Zy6voVr8T7iNfEH2c6VpmseO0vkji8yS1WDVZrXWZ7JWeCSFdQjuZDaWMieUzL5ZkbmdS0H4j/DDUnimj0TSvDelLE1tqy+NfCQ0q+tYruJtQ03R7XTtRum1K9gtZJbiOGG4keEBp5I3AfH57W3jXXdE0nxBqOt+GLvVvDljqUmta/rfgW7stcsbd7WV7drjW/GMVqmr6hot5seRbay093t42lLwhQ7rv6F8dbjQdF1vwTLouj6Z4E8WS2k99Z65p0N7YtLbnz7WUWs+l28/26IyE217DBbzozplBHGyG62CbTbvZ6r3UtUrO3k/dVuy+ZxrEJc1k3d6a3Xk+7T6rTRaH6AQeMptTa41LQPi/wCFvDuk391NdWen33xN8OWl0UkIDXMsUd/KhaZ1bLBlI2bGRGRlBXyBr1noHxQ1A69e+EPgMZLC1stAi2al8L7dxbadaxSW32m1guLdrS7aG6V7i3uolvI3c/aQsh2KVw/2fN62k7635U7/ADau/mbLFwSS9neyWvNHXRd1ffa/Sx99aj4n0SyXWYtTvPDs+i+Erh57aTwpeP8AavEnid47bMms6Rd6daXd/CkK3EUGoROJnMIiEBVos/e37PfxF+C/7Rfwg8PeGvEek2cHiyTTXuLf4d+ILK60xdbaLy5bEFL7TBYXUNtc+TELi1luXtmHm3KxzsyN+Qtp8NPjF4cEuheGPhlqmp+GLwXepSa1FrvgbR59Yv8AVrmfUbqHT7Xxl4p0C8vJnvJpl828+xkSMMCKJIwOz8IfFe98O6baeFfE1p428CfEXQb27udK0a50EMvhrdAEnnt/HPhG58S+Frr7QIoXkjXXLeQyAxFSSXHo4SFqkFfVyWzu1fbyt3S211OGpZ7RvaybfLq9WndO999Ut7JptWOT/bvv/EnhC18R6Xrej/2I13rUd7eaNFEj3jtYRvaQC51IRQzXthEqKNLjkCJFDlkt4WZwPwi8d+JtOkju4RJMptHkEqylDJFI3ytGjbirSZUoVJ3kqDgkhR+jH7Unxk8a6pda94m8R6rF4juNRuJ7mL+1mlllYlBHbvJEwMVwlvAieVEqgLgOVDHn8x7uXw34mW8Oo+bolz5h3zXB3LdXl2SzMkW3zCiF381treWem4lc/d4epCNLl5rOyu+7sm7c38zT83o7rREUqTb91Ne9pdXdlZ8qtdWvq3fV6aHmUci6wJEgnhkjdSqxzFFMe52CIXcHEa4BPBAOTuwSa8Z8WWr6bqIMVm6+UhEkiNIFl2Kd+dsWxwB1xu2j7wBwK9B8SeB/EekXk0+iS/arYS+b+4c4RfkJmZEPm7VBBKuqAEModmAFc9e68ZoV0/XbWa3vEhlLS7RGhChpndZZEUybQPmBDbiSgBO4U5VU1dNW0UdVdtuz6722XybO32U0pdLK9mr63u0rLRP53atoeXah5WqQNNZ3UtvLHljC4d4t0Y3AKQgVHkKtGo3E5YZ2kg15bexarqMv2e58xRH5jxeYp6oQPvKRtYKSDkIWzwo5r0S+lW0nlWK782CedSXwDIiszFFIQ7fcqCcDocjnMvbO+glaa1VXjbEoJkJD7wpMrY37QMEYOCCQQSMGsKivJp736X3tdfct/wDhhRUk+t72v2td2aSe+3XrvseP6vo9/Zj7XJC88EZUyCJo9+DligOcPgAZ9yMk4JFSzuBHdubaeYQsQYVkCx7WYElSwkdVBJ2MuAxKE8jBr1u6LajbxxmB1lMbb0YkkKjA7ioX5iwPBIYsmWDBsBvHdetJ9JuRPGi3CGRTPEegKuNm0YVsoclflGDySM4PI42m22mrNadLpK3zadn0el7lylFpWW+u79Gr6WUn130stdti+e8S3ku40jRwhWSPlssxJB3KMlcghWBBySG55HnWv+IIbmwlt9QiMDLF5To6naQMEO+Ts2sGUg7WC9Qea9Kt9Ws7/TmATZPGFJcKdzICd25GbccsAR/CC3PJyfHvHoS6024v9LZLgCCRLmNSS4kRdpDRnaVVcZBwAuT0yC2VWKacrXdrJ9Errz+JPW9nu72sgV0tU07vR7/8P/mr2ueUeCtUsLuCc2MSww/2jcuoQBAf3pSRmRNv7wvEd5wT0LDdnPsm43MaNtkZUgWLBjOzIJJ3bhkMykZcgqc88gY+YfAF09jbLbtH5QN5chgMrlp7kyF+xG6Ri2CWCgg5PAP0tZaj59qLc4WZAq+YWOx+P3hyVG4g4J+Yszcc4GeXDTak4yeib0T6t330bu9m9H8KV7m75nGyWrSdvNK71e7l22fSxmugWeVEUKITwgUKM5XY6sWBKnB3Dp9SwAhm8vcqtCqsUVWLK/lFwd3zKAzAA5VQMtxksQSTtG2OBLtYyLneZCBIzMWaM7iWXDLgFcFgMEnJqO6tbggy+csbBQBIp2ttCfMrbsZIYBgQMkjnacmtK73tpdNXXS7XXfq7ejeyM1dxejbTSV732fW97b/P8eUn+ctsgA3AAuxXCs3ykLuYbVPG3cRjhQ2TXeeDraVLlAsec5kZlxIyrtztOQUyAONmcZAGe3AFXMzxtMS28mRvmC7dy4XC5Gctv4AwQeMqDXq3geFSXO9ZEWEKp3MjhiSGV2wAWbIb5AWKsRg8muamrSVlom4/JyTXVbvfe61XLdo1pxvGVlZq21m9nprZb3uld9d3Y9TTY6Ror5MnlSIzCQhQhVRkkAlg2Wwy4JA9s7NtaHe8vms0sQOFfJR1df3nYR7yqjaM85AwQecOOMwO3yiRNoK+YWKtuO4E5Awo7cAgrgDJ410kACLiMliCxVmjSIMhwWl+4xUdFYg5Awd2DXoUlrbmVle63Wrb1aSer0fZfMynpe3Vb+j10Xn001+Zm6izTIAtvtMZMiK5wwWMsG2IpKswGCpyFIxhgwAqCaeURFJMJuiAj+VBlXP3G2nPmY2sS3KqxABIIGneJOSN5iCRJ+7dVLO4B+45BxHvJAZmYgAE4OK5d5is7yi3KgDcjvL8sYIKO+4jGRkqu0nch+XAyKqpGLSabfwvRtWv01s9vJ26dbXFPlXmlzea1smvRp9r6HL6tbpGxVTKTKQQix/ulkAzlnwCox8pbJJLAYxkjl57ORU3SyMBGTgMzEl2IGcjACglSR0J2jOA1ei3Es0qvL5SFThSjHaWAG4MSVztUoM5wxYqRwSBi3tqUj3yOgSWPBzJuIVWUrtO0AuWACgggLkkhlJPNK19Pn5Pt/X3iTlpfuno23aOiulut7frucR5U8bIEEaJhWYMnzlSrZ2gkEbs9DggAYxni20QkhI86HG7MqkB5pCH6xhUx8uPmGccdQQMXrhIPMGUl2FFTJkAUkfMCuwKQVGACGwRkEjdkZ4uIyzpBCc7vLWPILKMbTIgPzYz0LclgPvLgghdtu2iSfrd63V/R/d5j5km3a6vZJ6baeq0u2aMMBIwrxeWGU7G27txyCDgM6kqGDAZxnDAHIPpHh3R/NvQ90LYkovl7RlEVV3qQQM53FlJwWI29uvN6XYo0sUfkOZW8uR2kQFJCFflcZPy7xgEgOQozkZHtPhvS0jeMRxRkjdKSy8hn+TB4+6rDhSwPOPXGsYNrVN3fXV2vq01pez1va7tdNGlNq9+65/Tl6+W9n5bnRRwR2sJRGSXfA0ayAyI25hu8vYQHKgIAxxjDjOecchqdyIWaCTzpCi7xGiYjDAR/KCoDZBDEL33EEpgrXoWoGD7I6ji5hC/Pg/vmAGWUyKm1HYMEC5LbDvK7a8xnvAsx85IwJFdYXbezmTHy7gpCqqnODvYMMb9p4KbTeiasredlezb25t27dG1sbzcbKXw3T21T00b691pZ32urnmnxPjkn8JxXQQiYSs0i5kL/PHlVUBdigMemRu5wQxxXytZ+JLyOURSxQswLBZGVhtBJG5kGADnJy2PujBx0+y/F1j5nha4VYTLtyzfMGfPYhdxUBmH3c5UlgFXjPw1q1tLa3dyADGwYu20bd3XYrZIAYgHqwAfIOMAjmr81/u1Ss7W0XZJptXWrSfWxHKlZ6baPa70a17WvdeVnrc9mt9UheJNgAYqcvGxyy4zvj+9ks+cZAweD0BFmTiJgsG5FYiOQ/O4BywG3bhnGQWyNud7ZJzXi+j6tNZyxzpKzhsYLMjLhcHGAzLjpztAGDjqSPTtM1qa6Qy8RhCxKMd4DFjkjk7lB+dQG+77jjn92SXlp1Wqfftbpu3rLU66dSLjJ+7ezivKzWq0+0mk11avocbr8HmzOzBIyoKsgB2snUEJydyHBwNuXAIyTmpRDFfaNPDLKV8q0liMQGScxlTLtXk/uzgKwG4DYMk7T1ur2sUkckwQt5sZKORt+dh8oIdiAQ5ztCnA5LDArkVt54IryMgtI+RngIYwfmKO7IWIQlRnaSvQnAJmUUo27Ss7/NX69Nf+H0yasm994+d3dd7367WeqTPmvwdqR03V76yuZCsb3bxbCAFBSRl3AMo2kqowMkYwCo+8PrvwraXXiKW10/RdLkuSSjmcLthLtgBWfou0srFgvzbSQcCvLfh98O/DGteKNR1LV7ohLa6DeQpMatKQskaA5ILOXAO4AcHIB4P1/pOp6fotrJpegQLEFVUX7PCJZZ245UDDMUCkkE4YkbeAQeiGjdmmopWskn7q0Su7rR7duqTM4XdrpxWulrt20euyT3veyXfY7vQ9I0LwFAupa5PaXup+SRHaq/mpZyuFfGNhUyrtzjJIHBI7c/N4n8PahqseveJrsarch3aCzmdwsMSxhYlZBx2DqSNoKhPuDFQQ/DzxN4zl8y/vbPw1ZoGkl1DxDLPAhIXO2Gzsba8vppZCPLiiW2DSF2dmCRs1dj4d+F3wx8MeXe65Lq3j28K4ktZmGi6NHLjiJEsh/aOoWytzi5ntS3mDzNhUZ7lOFo+8k+ZdbX01tq9NdW0o6aPqiVJtpK+l0m9bp/ZUlu7bqyvf1Il+Ia3wkh0iyvXWdwltYafA7SSuqlkcJAHeTceCRxuO0jDiu40bwL8U7qO21fXvCZ8OaPfPHNDq/iDUNL0wtCvHkLZ39/FrUjqCJPNttOntnKlPtJZStb2m609hGY/DWmaX4agBeOE2cH2adIipQxxz7WuHRgdrbnIwBlt27OvFa3upeRNPdXN25KJKrPI6nzGDFCzZVo8tvIABHK5Jzh/WqcHZNN6Xezur3erte3VaWs3eyZH1aU5pcummjT1trZ6aWTt0WiburHe+HPD3gO0t45tc8ZSa1eygxx6R4e06WK3t8lwr3Wq6msJZ1KgyR22mODyqT4HmN6NpUnw9V1jtPA/9rzQkrHe6vqt41tb5ASRhY2z21rhpBzvjcuWMZJVDjznRPDjWGHdIoI3lbbIHJlYr5ZcFVBQoEd8KZAWbO3IFdd/wkfhTw45mu9Ts42VF+SWRAUXOMLHHuYkSFjhkOX+XDEDFrNKNN3lUUb3Ss05S0dk3e+lm3bprdxul2Ucrr1ZNQozk7aWg5X7u/a1rbbfy6n0f4O8US6fHDp9ta+GNDsIp0nit7HRdOi5O1RnzrSRiojxj5ic5DDLZHrWkeLUnvVnvWtZXhJe3eHTLG2MO6QOG329rbl2Q4IJDYAOGBJ3fnTrX7S/hvw3Lctb6Xe6ncbUEbW9vCFQIAAo8x0+8cO2QuVUE5b5R846l/wAFB9W0vxZDodh4emt0lfIe6nSFWiYqu+ONFlLYbjynaHbyeea555nSrc0Y1VO62Uk9ldX2Wz6b+ZpisnrUafNWpSg43bTXw2T2Wqd9W0m021sz+hDTvEfgXxetxbpIjeJZdsMN1pV1Hb2+o3FkHhube+H7ny75vKAVld2kkBjCiVgjb2leJtb0Jbmy0DS9J1RZdJuDef2jpNxdz2iMXKTrfPHcw2TxuQqPJbPK4TiOSQ4r8IPAP7RXk/EPXJLK+mi03xM9prk1vFLGYrHW5LdBfyQgERxyzuA8/lIFmuQ8/V3J/cbwXrmnfFz4T+AvGI8c3Ph/TPEVrremeJNP/tHU7fT18S6Lftp2sTSWOiWsl45vZYre8s98csTpdJErYjeUebP3pxbTs21s97t2dtLNbLZvZnhVrQg1Z9YtWTsrW2S2tZW0v3Wp7PpfxY17VoinxGubzR/A1/ZaZp95pXg3WNO8NWl7pGgpLPb6Td2tloU1zqNvev5rSB9NU30pWMsIy2PKPiWnwxurHT7NrLxWt34kt21DRvDVs8Gvw2NlbyuRb+IPEVr9mg8P3F7aAPZ6fcQTTtFJtmubeXCClpmp/DzTYJPDWo/CHVvGWm2kl2L7xFB8QtV8L3F27xSWsWo3OktouoG4t7eJQ6adJeRbHO8yAbnWt4F1jX/B9jfWUfhS7g00LcxWusm7i1i512C7SRY7FXGkWs/223sz5DpdX1y0oAZrhEysXQqfMvgV2vds2nFJbvV3utddb6NdDyJyUZbpae9JtLpZbOz0+62mx12kXvgfT9I0q31v4c+KPD+o/YYZJLCw1Hw7JE0TlzbXMgttXvo4pp7fy2aI3BdEEe9I2JUFcVF8TfDgDRNf3N2YHMBMZW2a3KBc2kyahoVxO00DEhpBNJEylBEzKMkqPYW05YP1Um9l2jb7he0j/Pb/ALiJf+2v136n7zWvibxBpMyX+s6loN/qTKLyLQLO5tvEUOlCZbZLa01uK2s7W30uVi3nGxtrq+e3jWN0uFBaNZviFq3wy8X+ErrwfqfhrW9Ik8Wwpcp4u+H5ivte03W7a5eKGQWOpxW2iXFlFdpJaXVpqS26/Zd6yXSSATN3eoXHwU8N6pdeHo5db8O6loFhHe3sfiqwXw5Y67Y38TXUd74Q0i5uri8vreV5MyXErxmdQxht4g4jj8L8c/tG+B9KtZz4GvbjxDp/297HXNWsPDCw3mmyw7p1tNK0rVrKC5815fNt5b2O1mhLHzFD7vMm5acVCSaSabT0XLpu2rf3b6O0bvfVBSrKdrpK+z0u7vRvW+m9mk+nQ/Gf9qz9kL9sDSri48RaX4Dm+Ovwtigh1BPFHwytbey8c6ZGoLz2/if4RXWtXOqXD6cqAXV/4Av/ABfZTZaWK1gQiJfzntZvDnin97ouv6PqL2E8lteWUk/2PWNM1G1doptP1fQNQjs9a0e7guIpFktNTsbW4UK2Y2AJP9Nvgn4wfEbx1r9z4g8DfDqy+HPhjw0kH9ofErxf41sp9de2+2/ZdLGneE/tS6k0+o3iStHbfZ7eGRwUS2KyKo+Af2pv2avgt8QPGOr+Lm+HOif8LMn8R3OqWnxFkt7i08aX89010NXudUvLC4tYbsX6TBmt9Qivfs0shMDoy7n6cRmMaML8ztFNva+9o2vtF7NJN9HpqfTZPgZ4urThCPNdrZXkrp2sm0mt+71v5n5AWOmazYXN7fRXxjnnExdHUyoFCPjbKQCyKjNiJhtJHAIOTwmv6pBeM8XiXR7O8tY8xvLaIUuFjcFNyuh8wsoCuzlSQQMq6givuTxN+yt8UrS2uLrwvfRXtpDbN5ehanbiMTyLGflTVYUkuLdZFGJHe1vCDjarBTu+RfFvgzxp4QtZ5/G3g3XdImV2SS9tLG51bR7fzDsDtqNvax7YPSS5trY7htcLkBualntCSX7yKkt02k1tbyaey0923Xr9XiOHcTThzKlKSaWyd7bbXtpsuzuz5s1T4eeGNUea+0PxTPYSNKitpmpRnfEWRljaOY/u5IQzKzb0ibCNkEkE8vqHhjxlobJHdQQalHJDI8M1rKjgwHLMEaEui7VBwjAOfuAZIr1C/wDD+n3xb7PNDcssjM5jY70O3eBKqsXjYtnZ5jIQcqMAVjTab4m0tWn0/VpI1iIaBb63Sa3hzIpMUWySEum1SrI7HbljuJUKfUp5lTqfDOMtU02073u7PXRerW61tovn6uWVqbf7qScbytyuOl3pfa6d7Sb02t0PEjrV5ZyiO/iNt5jkJI0WQpCEGNpFDKCyOWYEliQQA3NUdUudF1BXS7ij84geW1ufkc8N5jN8iqxbHBXByxySFr07XtRm1ERW3iHw5Z3EeTLJf6SfLl3RqCwEHlKCGwXUiQgtlSQMsOF1Lwx4RvIjLpWuTWdzlhDZ39q8M+SMFN0BkQEDlmb92CQVc446I14TTle/Xpfz2ts9NLq+r6s4lh5ptxilyuLu07p62TfLdWd+nL1vbV+Pp9g07UPJadZLed2idZGdp1AAUgLjHlb5FDnrkbt2FC14d4/uJdE1DUbe188wzxyPHF8pTZIrFT2Ulj0XPT7xGAte5+JvBt7p6i9PmXcMRaV5bdfOxGjDO0qzOVfdzwo3KSC3JHinxMuYJtKF3Erh1hMQMgImQqOE37PlQsuSWAJJADqBhsqrTTte1krd97tJPe76vVLtqZ1KTS130d5K1npdNJ6Xe0ldN/Fuj5t8HXlxNHhpSx+0TyeYrBiwaZiygk4TLHBckjhQM44+g9BvJPJiBlD7GVvkcSeW4GQGGFJUg5PB5IwfvV8w+F5JYZpbeRTCyTyB0RiJCZXO1NjBFwdoc5xuGSQCRj3PSLhkRxGzrI+1dpU5Ypu3cgH5C3QfeIB7150ajjK97cuj216q97aaXS35l0vd6QUZRSa1973tbW0XR99lsvLr7LHrXmlY/KVQFUjcflmZMoQxAwpBDbCCCRjCjqcTU9WikMsfKjcoDRh3yMBWA5ALZXoF5IOSAN1cQ+q3AikVSwVAxAMW0+YGALAtkEg4wuMg5JG1hWC19qM1yHV2cMfugEFVUkFmIGSAAw4HyjAIYjnSpUckkpO1tZWtd6apdNNe12yeV+9ZWa38ntf7lf0sd3pxLyA7ywuJS28YwI5CQAMEtyvzHrznJB4PvHg61W3ty2PnkG1XchRjexUs2AcyDgHBIDMSCRg+J+GbR0WF7ti0jFSioCQnmD5QwwFGDt4BYEbcYBIH0TpNm8VmqtiMxeWhbLOCzhSEOCq56fKSVU5APIYqnK17LtZrVrW3TZd3u21ey2uGz1d9Nb2tda20dru/R79LtrYnuYUmWGVAsgeQq0UuEbyyQEDKfm5G4cbSoGAMitGLzXgkWBVDPnLFTufcud6pIwQsNxTKluSCBjBrnnimnMajy2ZQ7Bg5BDNIPlDEKvIZsgHgjOSTgb1gkgCgTsJoAy8hZGjCZzhsqCrxswG5OpAIYk576M776q2nmvSy2a13+7fmq6ySXmktE731VtvTXvurknmyXCeWtxEm1UQPIjne7AMSUUOOoG8HqSdhwBWHeRvBHcMSHUtzhNiMjPsfG4kKiHOF2r8ox711BklSVWRI5IyQWKJ8yoMAFkZCJCq5LMArcZBFYd9HNcNJB+6jLONzTEyKIAweVmQKuMrlQMk8HnqDtNe6tNnvp5tWX4Wv18jSLfLFbWW63SV9PvsvvaujGiGEklhZkZURVilRD5jFSyOoyVCbidx3nopXkFayb+1uJLd3IjCmUeau5AOVJBUBmbaCPm2AEMQDwSa1LpZFWZI1EkhRljjhYxq8e04YSMCPmweREAmR8owayXifzYIrl9hWMMkRG5XzHJvJAYAoGZAScqCBwCcjke7+/vbr+G1yElJeaa69nolrt0+XnYx5tLll2RyyBdyqA6ghV4xkEbSGxkgvjngcnFTxaB5cwkQmQuqAsI28xgMomCSpC5PRt3UZDAhhsjzbNZ5ZQHG5JAqMrEqw+XLEthtzA4JAUAEnBbGhYTXN2fMK+UAqMoJRguNpJA2+pG4EhR1DYAFXTV27rrFNrquV6dlbTzfyCa29de/VK/l0+41tA0yUyxTM8cnk/LIGO2TOWPzLtBBBIB4ONuGxgg+waYUsVSVlCGRVVNypwXHHyqc4YsHGQAQTnaTiuN0WGMTgv5IcgvI2AAQylnYMXIw2CAWBDMcDHfob7UQqGEKoEi7oUGMunACg8DCg5wrBd249AwHSou6ei7rVNWel7Nr4ddV1aetmaU3ZptN6K93bRq1l3SVnb13aRBrV/PDulZxKm4psXAVQAwyNuVwpYcHhScHIOa8uvZZZLgyOrSxxMojCHYnzALh2LKWUDaDhG6Hqea6S6vSC2JsIfmSIhXJySrBpAw2jKF/LxuC8jjgcxe3ZknMH2YjDpGAjjyljMfMkrKylirEZPGeccVjpeSts/Wzbe/lZJ+SdtnrpJ8yila+t0tOtlp1v02dtXa500cTXui3EMipGzxyKItylQ4YhCjbuhyD0GB1OAa+K/HGlvHfzR7SEJYyxSDa24EqxDZBYqysqrgNxgYwWr7A0u6aI/vGA/eRxtl/MjCBSqsG2qRlQpcjBLE5PQ15F8R9BhNxJJt3FpeGQknccbQVIIycr/F2ODk4OdWN0mm767K/TdbLvfyaSs0kUre9rd37p2aUVotrWdtFZdXe7fybDd/Y9yOI/LDAICG+ULnOVK4xjAzu5z90EZrYg1ya3cbA4jcqu5WUgu2BkrkKNo67AcnIOcZrE8RaZLZzsYoplO9gcgb2IJ2HoOHHIJGAeOWwRgRzTLIi71BDZKM2MH7y4xhSmBk/Lu4HTFeZK8W9Hyrv0bennb5fiOM+W7STV2nbsrW0W93Z32buuh73pGsQ3sAiu5U/d5QFDt+dhnIDAn5skYJXLDJZFBAk1bTg0TPC4EUaNKDuwh3KxywHzNy2CCQeCecDPhtvqcttLIUIJfeGUMXRiEzHjcOVIOMKd5znJLDG5deKp0tFjEsjuUIbnKbpOOfuZ24wV6jJAP95SqNRbk9nrfb8vue3dFQ9+UkrJu0n10V7u/le1lrrddTs/hN4dfUvEnie+v76LTtHtXtCB5qtd6hdhSkkdnACwRI4EZ5J5mRUZo1XzXYrX1lo86aWANIt4bG2L7mleWOfUnhGzc0tzIcxq68hImRQOn8RPwh8NPEd9D4uewESz/wBpAlI5ZmjjWVMsXYFGwBEGJKHhcAkA8/a1tqOkaTBDeaxeQS3E0qpDbSyARS3EhWOGC0tog89zICQfKVXDKCQTyDyV80pYanzSqciXVySs7NNX2vay63W57mX5RiMa4xp0pS5ZJNdrtNaJ3Ss9L3jrdu+i9PtTcXt0ZbcTXbSxtJO7+Y8WMpgM7s0kjKCSNrEYyDk8V21rpykwi6ubaEONn2e1iBG3argszMFifgtgkZYclSpz6p8Cf2Pv2yP2iJrS4+F/wUv9J8MXkiyHx58TLlvAPhOO0YLsubGK+t5NU1WNQwKfZbIROCAs+wl6/Yr4Gf8ABBuDV7yz1f8AaY+N+s+KhGUnk8EfCiym8K+G2uWUb4ZPE99JNrdzHBG8sZm+wyw3O/eLaFVUN8lj+NsHhn8fNOO9mnr7zs9XouvdNJI++yzw7zHHScpw9lTvG/M3to72VktNU1dtL5H4TTeIvAugvaRy36S3cnmKbVXF7dSSkH5Y7O2eSUsXmRXUBmwq5RxxXuHgP4bftF/FFLRPhn+z98RNX0tpFS28QarpMnhfQirsMzi51m3tZZ48MViiii3MGDLmPJr+wL4Lf8E4f2R/gO8F38Pvgx4RstUhjijOu6rp9trviC4Me4iW71fUYpJZZCHbcyQQh2x8gIBH1dD4A8PWIzFp9nExdmAjtoVCjJO2NVRURADwEC8qDxgBfnp8b18U5eyXInblbeiS0v8AOLd7WVrJXeh91gvDfLsKlKverPtbRaWdnd6u+rerS0Wh/IF4f/4JjftPeKmivfGniaTw5a8ebofh+IqYjMp82CfUWaW4kwGIaS3W0LBdqhU2k+it/wAEvpNACLdS3F5JExZ5rkTzySu8SGRsyCdh86scMzE4U7ucV/V/LoGnRpIiWsKhy8hKxozBiBwcDbnCjJJJG5QCRgjzDxB4R0+5mcLagsQDhFA3jgkkFsE7euB3YgA4xzPO8VV1dWfZWlLSz5etmtHre9k7q92j2v7AwGFjFUsLBNJLmaT0S5VZtLdd+qttv/Ktqf8AwT3VrmRDayNl84SJUGAeG80Bgd6YO0iPB4XDBq/Ev/gqL+y/e/s76x8LPFNkkqWXjGPxNplxJGDGlpq2jzWNzaw7vlLST2F28nJVTHGjHDbgP9ADWvhxZOjStaoAMuMxrkYLDcAwO/DHA7DGB1OfxK/4LGfsWeN/2mv2ddB0P4QeH4Ne+Ivhn4meHtY0rTHuLDTkl0y8tL7Tdcml1G9eNLa2hhlt57lmk52r+7chFHt5dmVSNSnzVHq1zPdPVPZ9Ol9EkfDcU5ZSVCs404p2bVlf1tbrortW0drXbR/F58NPiVqWg3Sz6hezSJEjSiSWVTtCjc5eRzwF25ALYUEgbutf1ZfsVeDL6D9lf4f3/wATZPEvhTVfH174i+IPh+x1CKytBa+EvEepgaNc3qKLjVLabUNOsW1eygNsxWK8gUoqtvPxx+zt/wAEffh58Mbux8WftEeP7v4geJrQo0PgbwHpEuneCtG1eL941nceJ9egvbjxbeW0i+WFg8P2lmZ96Rxzxqkz/rTpkFzc6Noltrmp3us6JdXsekW+n6yun3Xie002zvFs7WxuQlvp97bJBaoLZZIVsbPyVDi1EnI+6oZhCpa0rapSvre260vaOulttNb3PwPMsI4Sk1ql22upSve7V1ZrR+muhFP4PTQ7Pw7qnn313o2vQtqFlb3Eklvqi6fHctEn2tLu2hYz3sQWQOIJSyXG4xg5jFbWbOy0Ka78Q+F/DWq3mtQ3n2ufwcmo2vhiyHmXEbW0Fhrd9fapdPqEiZiGPD7SOW3RxyDctatnpwAm0zSfCGu6NBp91FqFzfXtrDq2qJpLiIC5u9MtdVvbPTrFVXzPs6am1x5WZZ0R1MS7/iXwn8MtVe0vdQ17VLrT/P0h1eHwVqBa8F46NeLYWmsalphntI7bzTFqW+2SZoyIIpoyslevDExjrZPbVWtyuN9LN67Xtrbpex8/Ojq7pJ6rTVqzbsru/WyvqnqnZHJQfF/Q9QtrWST4Hap4duYIEtbyw13XtO8Sam13DkXF3c6rZhIpmuXbeEaKGSPBVoYhtQFdTpfgKO5t5J9Mecaa9zOLA7tIgZ7WNhFG7walrtvdQufLIaJhKqYwJpDuIK2+sw/6efLmt8tH+Zyujq7ys+qad166dreu5+j2q32k/Fa7+3Wr3sevSXFu+m6R49tfEGp28lhIUX7XfalLIw022lEUcvl2sa20yt9oS3hV0Ds8S/DTRtCtLE65qmm3ev6jdTN/wj/hvUIzcywTshF5YWMUMV/JbRxL5caGBxIzjmQvw/XvEXhbwCPF95YtFrX22aB7ey1e5vfCmoN5s0Mx1P7NbWerLZRy+S8Rt5cP9n2JBI0YRhwfhv48+BvGhu7bw94L17Q/Eu2a0v8AxzJo8t/pN01hdEGbRL/VrBNMtdQggVYIpLy8u0doUdLeEM6V5dSsoxvdvfZJdNL3Sbs9L28knuVh6Dcla9rq7ett73STWrbbTfrZ7dNZ+I9V0680TwnZeGfD/h/QotasCl/B4Wh0DxJqV5LH/os2v6pJqco1J4VEjQvLY2Txpkyxtchpm7/xNpUOr64jT21vJHaFj5iO06TtJtO9ZHYyhmU4cFmVZN23evSGTVvDfjrxTZC2+0rpbanDNNa+I9VsPEGoS2WmCBIr5dc+yPbaTczTLJIun6fanT7QMLdHmy0g6+417T/EF8Lmw0dtEtrb/iXrZTT288srWjspvZLiGzsvN8/duUyW0MqJlGToF+VzjGSUZJPp06O+qutbO+u9rdmfrPA+B58VFyScUkkveb2VktG7JLrpvroRWHhC0aBfNs0RnUNEBGuRgkszAowIGMjBxjI43ZrauPhb4U1m3S31XRbe6E8ZJLwQMisRk71aEu4cjaB5iqrHLByCG6DT541AZmJjCAI6gEMVIBDEsM5AwSq4A+YJwAd5b/zABlQCGClRlhHEduWIUZJcHOclwCWGMV8LicfVpptSslo3fRLZvT7u11r1P37B5XSqwjFwg9FdSSdvPbW+rttvufFXxC/4J8fs9ePZZpbrwRBoGqSozjWvCtzc6DqLSs4ZZZbi1dopXJB3LLbvG4zFgKxx+f8A8Uf+CQXjmwinvfg/8YIdVs0eYv4Q+KekLGsyMHMUWneMPDqm4hcNsi8zVdJvIijNKWUxxxN+9cV1bjAMrSSEFgc7VjHZX6krgL75wSea30KmJJWX5WwrpKWfJbjk4wuwqSOQRuxggk1y0uJ8Vhn/ABJPW0bvW19btX0sr7WWzex3T4Ry7FQ9/Dwd7qVoJaSd7JxV3drS/ptq/wCMT4u/sp/tJfCKO4ufHvwX8V6do1mZUn8ReGrCTxn4ceBd0Ynj1PRIZZYYXJ3B7y2s5QCd8YQNXx3rmmWl5IiWTJcSsxVkRES5tyANyyZY3EUvHSVImyu0cA1/fdc20DLKpRl3HY4Ax8jK2QUxskBLbSHU5BOCBzXxD8dv2Q/2bfjClx/wnfwl8I6rqD7j/b+lWk3hXxVBKckT23iPw1PpmotOmGZftb3qZkJaEglX9/BceOHu17S+FJpqzd2vW9l1tZa2tY+MzTw3oxlOeDfLzJ2io+6u6erdt730TWup/E7fadrenyTx6dqUqsxfbDdss6mMkEK/yb4134XBV8o5O8Y58s16xh8Sar4f0HV9ElY3fiTQYZf7OcBdRjbUrV7qzJWBtsV2qypJK0ZZYi/y/Llf6BP2j/8AgltpGhtNqXwR+JWpWxE00x8K/Fa2g12zgCoSLbTPGPh2PRtYhLYZFl1vS9aKKBJI7mvyak+GfjvwH8Sb+Pxl4U1Cwm8B+Hdf8YXOpWLLq3hmS0s9OvdPstQTWIDEEC6pcQqsd2lrKZDCFi+bcfucp4gw+aOHs5Jv7WqdrrRW3ulbfTS6PyriLhvE5TSlOtD3btRlZ21bS1asmorma3s07dvzP+LWm6fpvxY8XNpsP2XS7jXr17GKFAi28IlMPkooU5iXbkZwNuzCYBp+mXfkhVdpDtGUVf8AWhS2SVJR0Pc7SAVDdQfmqf4kwPd3NvqDLiX7bOZ5QzFiZ2V1DAkkFWD/ADEglWyQT8pw7KQrBGWZi4jzv3Zxg53E8Ekg9jkdPlGAPanF7dHrdbt32UdbNtbvpp6fF03ZJq1m3t3ukml121103Whq3l21zKFNziPc02xD92NG2/vVzn5juxgjnOAR8w2dDtY5XMkrk7cMrKp27SScFcOSSfvAsCT1wuRXMW9tJd3DMqb1dFHzA7mO75+XyAAqqchSTk8Dq3q+g6duVYDuEewlmXHLgbhg7Qu3GwAchlB9cm7LRyv0st0k1yptdr6P79Nxyfut7NvV91a979dLX7bHX+G7d5JElSNZRGVbJU9UwxzvbouBtIXkDGVyCPXoproWkpMso3b3MXyb0whwFUkhiTjGSXGdu4gZrktFtvLeJHKKgj2OVKHPy8l8goAcZ4XgE7WIww6a4fyguZFkkcO1qvJRVAyRJkhXjBxhh0BGSxYCulRVmtErO6V07paa2va/zSe2hFOSu7a3j0undNu1+t9HdLbfsSxHenlq/kuqCRYpVB27VCgMqSNzwSNoAyQGB5zt6LKxIcq5JLYWRgu5lzgt/e+YbVHKnglugrh475kuUibEMqxvmQghVVcgthmfcp6hS27lWP3SK6bTzNcsGEjlEQhXCk5CgLkxApuycnnIVR1GBW1Bdb9/Ne80ml1SsvWxlK0rXbSTdnonfVvXVppuy6dtzuZXabaTH5ZiCqUQ7ULEFSWJRs4Rs7cLgjIznJx7mJ5dwmSOJGCrHKDvlRFZSGaMAKVYFhtyDt79wXMV1HLHEl4JxJ5UjRrEM4hK7T5jOQdoIYqwHOByRikuEDTPLI5DW6pmEnly21ZFJAw2VZkQgE5JOTg11777dL9HZ3a20tbXbfYI6attq11027pbtJ7+fS7SwL1ApKJJG22VQrs23cFyQyjJDDONwDKADgZ4WuanljtrtPNbe/EEoRHKAyN5haNycnLKP3bZwH77RXUTRP5WxhGkcJEkMZLhiw/5ZmTIAz1Ibcu0E5DDA5XUwky/J8skLeZ5cQJG3cELkoSxYM2QTlRu68gDnk4tOyV76N6bPW9ru1tL23t0BxXMknbmVnp228td1tZk4aWPKPG06yyBkJKoIV3EZaM4JVldQW3YG3BQ53r0WnygTeQ6NBswCobKhFRx5hAUbgecg56ZDcmsTTp47140NvMJkRSzyA8x5GSqAgdRjcxyQBuGVDHudPS08p5LlW3hZliO5RIAHUMAu5SVGRkEgEAjO0kVVFu6Tune7tttotr3/N7WVr3NqPKrqTlbz1uvLvf5p+TevYCExS5DMUhc5QjDBSAwKgs2w5YAbjtJxg7hik+oPIfKib7itHGoQn9wr5Z97sAJMdMEHHO0kczKhRBNG1xIZT5hQiNRtcLwzhJBsC7WCKSPvNgtxWPf3MsMu2ZoYgYtwjyGVQxdTIzAIwIwoC4Zckk9MDeTVpK6u9NN07d/T7rtdgaXOrK6dk99Ur3ba6u1raaJPe16uo39qivGBCNzkFHYPJ8ysrqY1jKqu0EFmIyd2OSCOVbVo433H5FZtsjAhVUEARrGCrAnaM8Eqg4OSWw+aeWSRo0kS5jYBt0KbZQjZJLk5IDYAJUAgHgqDhubmjeIzAYWOVBL5LAN5aFtpPKs2D8xwjZJXovSueLvKb6JXevS6Wnfp67GjWiel5Xau76JpdHr5p2utL3O40+R52glVkSPK742XLmXeRvJDuv3QM4VMEDHB5qeKBFeM85YKxyql9qkybcgYKOGBJ4IOSUGT1WsrTrqNY0gj4QEs4X/AFjOBtYrh8g7lJLNtwMdcnGtegyW+6MrNKpIIkI5CgMoTGFjdY8JsJIBO5sEkm5Rbimr2a81otJab2ur6qy2XcxScbtKz8t3ts+ivdteduh8+eI9I85pBJChLsH5Zt8a4GOoAYYOck47ADJFeK6zo6wyOkaBJCzAMxP7wL8oKgKNq87sqCRkDAYGvqXVoDeF5JFEe4OTuUFkL8jawLFduW7ncBnuceX6voiyvyGDli6PwFXAJckEcq2A3QHB6jJNefWpO94vta12rOTet1qrtp366bamikttVZtx5UtLt731S+/3rp20v82zSy2rhpogqgkEo+7KqVCYVsEYO0bdxIydp+XdTRdm5i3MDjOFxIPMbOSGYFWGRwcH73TcO3fa3pgDyZiRHRTwEJWTbjcw+YEFs7gCxySC7YyK871GKWyyYy0hDAGJgdyEvk4bGAgXdhskqQMEnNediJWpvfRNXWjT5ul/vb6ao68ImpKWml3ZtWuneyW2iabb1VrdbEmnajeaNqY1O1RHns4pWTzAdzMqOeoAAAwOCu0jhuBhv7Sv+Can7CvwR+HvhjwV8S/Efg208cfEvV9A0PxDdeMPGCDXruwuNZ0+y1KSPQNN1ATadoscXnrCq29q0yqMC4IZi38V1ji5eMeZlLmSOM+Yx3oZmSJsOT86kOUVCFO8jbngV/oufs16dHpPgnwxYQqEisfDHhyxUgl1VLXR9NhQM2Y8uxjAyyY4zjnFfknGWPqYelBKpJOcpLR2vpdJrZrfmej2Wx+8eG2XwxPt3OEZ8rhq0vino1rf3XZPsmk0kz9E/BFhaTSKv2aMQQqqxxodqBRt2KkeNiBVJAjiCDHIVguF9/tY1t4kVUVEGMEfMygLggfKvJOcvjDADIIya8C8CsUgilkYjcUZCXHmA8ZwRkEADqVDcj5gSDXr32tpgIw7gsFy25dnyYJDhehOCRggNg5P3a/J54idWtzXb5nq7t8zu2ldN67O3ZNbJX/eaOEjCHJGMYrROyWtlayt56p+t9Dqbu8SPaikFnIQKvOVbjk7to4IJOMECq91MQpiG3zSm4bztGxsZAOCTIRyh24GDu9smWbyNkvmxso2sE4LEqD0KnaAoHCAbgxLBs8HEn1JmeSQBi+3cvIYoRjO1cEkdsNu56cDFe5glUaXNfpe/Mt1ttfVtu1rSSTunY5cRGFGCirO6bb6t3atqumttdVfVHRIT5T+U+zzc7dzFpMqoV0YkZZiAegzxgnGM40gRi7P88ixhPMVMMxXG4gMQAOQFGc4wm4nOc9dT8qBt77mkdmBbscZCrtAYDJY4Yklt2e9VzqRmUEkF42wCNvzKwDEkjIDfMAcqMAAYyDn6jDUrpXVkk11a92S1VnezVnr827NHzeJqc17NaN26aPl36PtFdVfa13javb52sEyhBAO4MGUksQRyMA9cjOAORyR8fftI+ENS8Y/DrxV4e0XxDrnhHVNUtIoLTxN4WvTpGuaTKt1DOJ7C9VZkjlbaYpPPhliaNnDxnha+s9TvN0cvzhQWIjVcBgCNxzxncCRjcy5AyWJbjxLx1Js0u9UkSolvNNIsYEkrFVeTESKyB5Gk5CqyAngbR81evCEoODSaV/iT+XzWmz0eq7HxGf2nRrXd/dkv/SnptdrfRdLPc/Cz4q/sT/F6/8ABOo32oftYftKRXvh/SpdS8NyR+M9PjtbXUYYGnS5ltzpBGotCQFAthHJKwPmBR8o+ONH/Yx/blbwDpuoS/H74nal4nlsE1HXrHW9S/tLS7yS6Q3NyPs8aQ3NrciWYlGcvDI8btJCTIGX+j2HSbPxxobJcx6mwm0qTTIIdZXZ9hk1IrbPcvCv+qZTKqW0bkShtkZb5+ffdS07wdpcELXz3IS6ikhtoIWS3uZZlBJglZo8xkKH8rCOQiK7qAWI93A1qjqRV7K+19XZWb1duW70S3Wrs9T8IzKME52tKzktLbtSu720S0srWeqb2Z/L78Lf2cf2xxoohHxS8f6Ne3l5L/aVjp3imazsFggLWkZk0+Sxv7aaS4jAmCi3UQCVkSc7AG+kPAn7Hv7Z2iaVPJH8f/FukB4IzaxeIvCHw5+JWm2ckEjTM1lZ+JPClrqSxpCx8uGLWLUHBUXEEb7R+8Wk+F/DBjRrM2Ul1ewP9h003irdCQMZIDPcrbFIuFwzlgfLfcqqDuGjqOleJ9PsV1G21vT7C0nuUtF04adHq109ysRIthbG8s7meFR8y3EMkBLAHLKPKb7CjNtRv2TS220eztZ/Z7bN9T5ColzOy37q71TXb/Pproj8m9O/ZM/ai1qzg1DXP2ibjV9SljQT3Wnfs/8Awf0O0UeWrJBHpw0vXPKMasC7fbR5juWEKgh5Cvu/XfhF4y1/Up9ai1LxXpy6lidoNPuEtbVnTNu8yQ7UK+Y0J4beVACeY4UMSvRVSyXvtabck3byunZ/LQ5NVpZ6d2r/ADPzKs7rX/CniDVtO8cxeCfiVbWkVxLIfCHxEs9diu7xZIiuj6nBrd/4O1RLqON2E9skbuj5gjZsow8nvf8Agor+yhpfiHW/hp4r8eW3gvxj4cM+m3Xwv8X/AAf8aeF5PAl7BMbifSrNLC51a21SOSGTbHq80by3kTrcJf3EUyTN+oHhjwp8P7y436R4J1Ow8K3Gp/btaFtpd9dx6pc25jklvn1Cx0e+bSUuNpxBKqQsyvKzxlyY/wAO/wDgoD4T/wCEg/bpstWh0vw5pWnal4GufE3ijfpljbz3NnoM3hzR9FuJtTFl9rmNlaXSIJEvAJQ2ZwwUV5U6kpS5VeS3k+rs7t310vZPtdPY7cNRiprvKys9NErrayi3qtE7NPV3PqfTP27/AIKJd6ddeHPE/h7wctzc2djaR6xpniW2sZLJl81bhYxFpMaeZI4EoWSFYbohQscYO79avhXqI13wd4V8Qx3T39t4h0y31q01GQxk39lfhp7a93R8KlzH+8QJuAVwMscsfwEj8feD/A+pt4V0u10vxDJLLBoH9tnwrpniCx1DUZo/3lppf9tQPbwWYmZYv7Sihkll2ebGVUgD+ijwtop8PaJoOgTQwW50LRtI0iW3hiSC3gmsbG3guILe1hVYraBJkmWC3jVYokGxFCgV8zm9+fl2jLrrvd3TS7Pd3Vz9f4HpKMfaqN3zO7XV201utLaWdlJ6rrf0TT5QCVMKAbwqqTuQkFSGw2RgnJZQTvHynBBIuC9jcttClmHlhvm2KMsC0ZAXGFBBUkqSPm3A4rBQtbyKImLlBt2Iu4JnLF1wSy7UDDgDley8Cd5RAoyxLYyRk/dK4ZgSevOAMHIHXk18Tjo2Unbpsm3a7vr6O91t9x+45bP4OuitZdW7W6abtp6LeOjs9+3m8gyHzFKEBXDAl9p52hQOpCnpkDHOCa6ODVIRFuMrDahKohyC2CAdp2hXAJI4zk5AzzXlbXzKGUliQ2WkUY3EMCuWYnpkAgd84wet+31QRxsBjekYRmBIYhDv4BY8DC5JPY88nPxONajPRq+6s2rfE7b7N230v0a0X2WDg5W6xstOivbdadddbnezauvljznJk2MSxwWCMq7SQO4XAJHQHJUY48r8SXbHfsIJGZFLlju4bAyuAMjg44HXsMvu9Vbc+W+QqwABGAcglgBg7QDyFbGcfWvK9f8AEsdrDcoJSJUVgNwyBuY52uTk7RjbjjB3bsjJ8d4qcWormvzK+l+r7bN2fvbWW6vZ988LCakmleyW2jtF35VtdWbu3a0uraPAvixfK9tdl9zNlgPLY4PzbfnGCWJUkrlvlAIYmvw7/am8baNYaD8dPA8E9rH4i+IPgHwrpdsLi3kuJxoui+NBqOuwxSxRFbNJ0vbJJGaTMu07Cfs4z+unxQ8Rq0V6pkwGRwHHOC65/jOCWIyDkDj5s1+OP7Qnw+sZ/ht4x+OskDy6hrHie38A2V42pSlBoOhvqFxO8mlRjyUSfWJ71xfnYZYIbaMRusYlr9Z8OK062OXNty33bTa2TWid3qno+myPwrxcp0cPlcLNKU5xsrJPW91qk27NLRbLfofhl47tVMd7DFE6yrJ8gVcokagMrOOC0jKFXcRyOSSc58qtLOeRIgJCoLbHyQCJABu5PyYGTlcYLYfOck+yeJcTX165kLI0+75Tszu3AeWMJuUgKAo+VgMnDAqeV0KyYTSwSglUKsoZf3jq+QHJIDMq4wzKwAKe4z+4yjeVra3b32tbrvq76X1P5vpS91q+zukk3a6sr6aJWvprd2exoaR4fNs9tI0hnBCkrCFLKSzBiQDtLHk4wQDnBXjb61pVh5cDeayERFW3DbGzgY+X5V25JYZOMEZxz81YFtZxW4LQz7mw/wAojkBIQjMW5crgMWIBClWLfNtOa77R1EiGbawLIA8YxkhSoWRkZQSpwRu5LFueKSbUk7LVvby6rtfotk99yqjbSsnq7NNN7qz2u0k9NV2d9TT0tFgUu1vJCqxb8cuZFVVYY+YZQ/e6Z24JbOBSXl2YmN3HcB94CNHJEu+EZyAGUYznCkuSMAnnqbGp3f2eOIrKV+R08tkxuQKFWMNktjk/OeO2Bg7uIudQ81XJCBtx3bmdgBwoGegACkn5cdNvHJ0lLS6dm7K9tbWUrPvazu13XLdCpx5b3TvstHfa/wAtdNbctr3aujoLi8WaeZ2G10hUrIuUDNuBLuuWUYUlSNoOBwRgGuo0XzYIYJVYS27+ZEJPMYSNKw4QtsDbQFBIOFc8cZry5b5wzQ+fHIpkXoS7PFtHJZFJYcfOpKkBSc5Arv8ATJW2QrYNHKAgeVXV0iRs/OQVYtvjBwuSdw5JOFNaUHGMk7208rq7ertutVsrpfMpqLTTs3urq7Vk3d20s9LPVP1dl3b3Jni3WoO9QCdsitlgpIRV+Zd5IU7epwccZw1oWjRHkSVLhPnZtrOhY4cGTOQdoxhAoOCCGGADDppjlIVtryAEnY5WMyp/B97IbdhckkDgbAVq3PLhhG7CHaThY3L+a27ktJjjgYOOejKwCmu1WUXqm2pKzs7WSdtdk/idltozJN6u7tZ2u9LO19tk+2+ljHvLlp4PLVQJUbcWfdkRorFtpL4+6OQW5+71yRzMjXbXSuYoo42VYTKXAVI3wXZgGCnIUEbsgMCQQc7umv4sMHOGRicxRuVLBvunccjBOSTjJIxhSA1ZRWJ/PS4V0lhG5FAA+6JERjndvwRgdMnkggAVzzacm2tIqz10u3vsna9rX6A3fpq07vWzafw7XSad7tK3zSHW6XFtLGIpvkRQvHkl5B905YQg42tjjHAznGBXWWj27qUllA2F9rbw7JKTl1UMgLAtnknAyoUDnHGRGKfygkVy7rIiAq6qQ20sTg5yuVCkMMZGAvzGrkcE8Thp2kjZnV8MmFRdpARyCRvYgfMAM4Uc5OIpy99pN2stU/tK6v8APZdra6WNuSLabja2j3Vlyqy8m972adtWrnf32qGzstgjRpVjV2YrhY42BwAASAWGBwCUOACMmvPr+/kmaBnjVo5VJUB2LIAB8sfJOXyiDgAsCQCwOdSW5EsbwyyxE8iFXUIHXbkZUbSU6EsQcZyM455Zo4luBHKQwbmOSBzyqgmIFN4CuoUoDgKQo/vCteZLRttpJt6a37ea6/eQubd92tLq7V9X1Wm7tvpsOla0htp3iuDavNlMcNPErjDpsYKwbGACWJOclsgGuSuJ7uF99us0kaFVVpQMuoTLyKGDAlt5MgYnJUqAQM1oXtzHH5qsUUPI4+0zI5KhXKkDJUAD5chs4IwdwAB527vsOrmVp1iGFZAqxSBVWNdyqoXdxk85AJJJyc48zjK/fp3u/wBFZ+T1Ww2m7PtdXstbLmVmuy021euqRfsboxXCs00YLFi6fKjODhgqhdqoqsSBweFGBkk16Vay6ZeaeRnbtTBlY7HZlwpjVgxygIHDk5CgMCOnh11dKHWRPKYYDIoVsgBvukhj8uVbcTkHaCAcgV0Ona3cKAh8l4XLNtUNlJZFG1GTaBkABWYffZQTgitI1vis0pJa3erb0dr7q3f4r6Ldikmm0rbJro9fXbzezeys21r6zA1vOzMNiecUVogZAQ3G10J5GM7kYlf4gRmud1KAmBRt4Y582OPDkEhCAzeYo4OMgDnBPBxW5JqtvNbSGV9r+f8AvYyx/d4wpLKTncSAOMYO7IK8Dmb7VUXbBBMZAn9/ZHETgudo3HKE/wAT/dznGOKipJNWclZXbbaSflHS7SvZtbO/kwUZOVttuzS3d7rR+qvZ6Pe5yV7pUW9leAeW77QZmXefmVWX5fu716D5lXd1KjNeW+I9Dt0l8sDbCwaRkikUFVO7jAPPzNwDwQB1PFd9rWugRFouJy0jElgAGyQGC8jgKAMh8BQPm5FeR6pqU1xJKodmunDKY0C7GIU9z/fGQCpAQkdTgjycUnKMkt1vvy7aNO2j8tu99zooXhKLelm2+nbd66vokn1v5UNM0e2uL2KKHbH5RFydykIi2+6b7wBbcGRWAO7JbauAcj/Qj/Z21SO88NaBNEgSK90jSZUXJUAiwtSQGzl8cMjkAMCCBhgR/n1Yn02wnFuF+2X1lcLHGvzyoWhcOq5+6zAbVOVG/G4lOv8AdP8Asa6+upfC/wCGdyJDJHN4E8IXBkDllZ5fD2nBgrgZ3pKzlx99myCxUHb+H+IcOWNFtppyne17KWzfRpNNR2s372zP6M8IpqrDE62lpfXotNrdb31Sskn11/Xzwtch7KN22oYkHyrIFznHB2n5SSA3zfM2CcLnI9Ftbv7Pb7nkU5IJfIPytkFXUqoH8OGUcDqQD83h/hOaKSKPzJf3YwASMLkKdhZ1GWPzZAHBzls7Stenl18lTEylcEA4yXXA7kcYI+7kkk8A1+aULOUbbJ2btbVJdVZJJtrTrbWzufucnyX95W20vtbvZO7flvZeZrNqhDgspUHeFYyEqSQGxtLHnGMYPOTgA5zG00a/MG8kuvyne7ghj9xm3Nz0JIB7AnJxXIpdIJJFmlfZHIFUbtoUFSce+QPm3kZGCMYzUq36qvmKzOIyxKMFYgLkMHVsEDPOdxJOcAg5r67AwTSVndJbt9LaPXa17K9rp666eLjXJ3b6K13q21qo62S0bSS7bp2v1DFhEJEkJwNxRmG3cATkEgEEA/KASDnoeTVZrhUtmlAAzGTjLFhuwxDA4K4IwCvHBOO4y7e+eZ5FYgxSH/Z4kJz5ajjbgMr5BIJ6DIbKagVVISmXG3Cx7wDjIyrEkYU8DBBwM4BAFfW4WjG0Wk97d029tGk2vLptqj5PFzautN7OzfmtHvpZWe+ltkm8nUbxJBMVBi3oqknOAD8rsAzYUsQfmwTkja2MmvKvEZkms5hhGSSJo+WIT5lP7wghWBAJXJI5GQo4A9C1JWXkeV8w3FHGSgI+cKd21ss245yPmIAXGB5hrzHyLtXZJIjA2VcgLnbj5ihyNxOR8wxlM4NepClH4V3v3s7/AHJ2e2u9kuq+Lzqo5Yas1JaQl5tXu3dvRa9W78uqR80fFLx1q/w40LQn0nUVihl8b+BY9W0aO0gvbd7ZvF2jrHPa3bA3hluiy+dDLMUEbAQqkh3V+g1m+i/ECyS/trzRQyw3l1JdXKQzeXfpE58tGIaJbmKRfKjieGRgWaJwo3Cvy0+Ofw5s/FOp+AhN4peXTJfiV8JrVrfSp50aSJ/Gmi3msQX0QQNIbfTNMvFRB9zy32jaFNfe3gHWPCmrpqEenSjQkt9RvoLZEgFtqF2tzJI0F0tldwpbmHbLHHKYFYqzITtBG76TCYG8FKy91/E076WajH+7ZaL1Tdj+eszxkvrM4PTWV1uk7t3v1bu7LoubRq1tjXodP8M21tc6bbapql0sct3cw2htIY5lghYs1rJPHCkM7FtobyobeNMKUlTINTSvGvg/xJFpniCy0W4ttdsoZ11eyudbS2ubhbXdMJbe5tYGdtVs0WWMW6WiRXciCGKSJJgq8f8AEz4haPoOuab8O/t0N/qF/NPYXIlvhCtnapDNLfOk6yxIl2ba3kazgaRd9yACu0EV86ar8P8ATdH1TX4PC/iHUZNJjmN9p2tXl3b/ANo2SPEt8YJYXJSSeCRpoppUQ2sr4VCY2RB9BQpJRT3sr6W96/fta9ku69EeHVnJyur8tm7x+FN/D3dtW/NW2sfXel6/478QWceoWOreJ7CyyYbOCKTw1av9nQK8b3MWr6Fqd4blvMIkdrhVYKhEKNuLFfFmkftS+H7DTra1n8WeHVeBTCZL3UfsFxceQxt2uJLZi+wvJC6/Kdh2fIMYJK9FRikleOiXRfq1+RyuVW7tCbV9GpOz6XVtNTobG/sP7UhsLzxf4217QfDmoLZjSdDmvdE8H3tx5fm3Mst6rBNXt7mSUtFbpbpaQwl3u0uJmVx+Ff7SHjWz8Y/tz67pXhuOx1TT/BvwH0mK2sodP0a60y+1LXvHNzPqVnBZ21qLWKSC30vT9KBMIl820YlQWfd+98HxJ8IPFZeE9Hg1nxLb2kKak1loV5eWFzp15a6eJJL/AFDUFS/mRhNCsTy3gllngTys7FwPxe8Z+B/EnjH9u34hax4H0m8F9D8FPg//AMI20NpPr8ukaeuteMV1+7ntLCGzN5bPrun3zXM08iyCC4iHmlBGE8OL95yXVS28kuzbb01tvd32R61Fzi1a1r7WWmrb/LW+yejuyp8HNK1L4n/FDwZ4a1vwhY6JpD+M/Dt7qV3Poek6fqKW9rqNqLy0L2mnpdiApF5F3FFLFbeSZZwu/LD+i63klumkuLh0Mk00k06+WCXaaQyHYTlwokccckjb3AA+V/h74d+yXugx6r4G0az18xy3OpeIvDuhQ2en/aQoUSJdXkb6rDHLIGENo0rQwuDCshWIY+qrCOJQrP8ALOEV0lIHAK5UY5HVTllG4jhSpPHzmcKMpqSvd2aUXvazejts9Fpq736H7DwVG2FjKS96betmtLp2eq0UbpcyutFHQdFPJkKpaOOMtIxC7XbcMg5UZI2k5yeBk7s4qreXiykYkZWziM4PzDGQCTkM2MHdgYwTjGDVuYC4UvmNNpYghSd20ZIIOcq3Iy2RuOMZyK52ZFUuD5hdyVCfMwA2sD8ucRsFzhwASwA9CPiscuVTut+bRbK/w/dtd62u7XSR+zZY4tRequtX2V7L8bb9O+xI10SW3lcbSdh5yvU7lxjOMkZyeCckKTUUmo26BUd40GwKGTgDA+QbQNu1uwwoyMA4XFYlzIIllaQSM4Uxc5yyMCFJycHJx8ygNkclcjPBanqD2yqqMyRZBXnoyKSOMru2nKqOcFieo4/Pszk05K2ia1V33Wul7W+etz77L0uVXtazd2tlory8tHbrZq6Wh1+t6sVt2i85Yy0o2qrAt5SjcNpXGA2BuDMyggDkNXgvjPxBHHbzxLdRsAeWYqXYshO3IXPLdQCdwYhtwAwut+JpGZgrHLJIAC23ay7cKMEYwM54OeSTkgH598a647CRvNiZCrZUlQQ4Vt3QleowWHVSQx4wfn4KU5uye6TevVWa3Ssr6brRdVY9lqKgrdVpokuXfbTTRKz1aszxP4seLHt7O9d33QxxTkbA4kBVQCFCnexYAKF+bHAVcEV4B+1zJeaP+wn4E0A2M2kHTtf8MWt0j6LY2cmsat4mj8Va/falfamIxql5KbdoLa0t5D9ktLePcAzzjbb8fXZ8T+LPC3g+K9jgPiXxFp1ncyyyFYrTThIbzU55JVPmpHHp9tctuALBwoGN2D0P/BRHRta079mzSbyK5t7nwFH4/wBIsbC6ht4bdoNZg0PVrqz0gtHOZLiC3024ZUmWAeQ8qK7fvFJ/f/DXL3TXtnGTckkm9XZR2i317X0ezsj+WfGzNIyx2GwEJL3I89SKd0nLZtXvzPd3srauzVn/ADQ+I40tJrpTsaUFlCqVYbmCjIzncVwWUcgY/AcVcxXML298vmCa2SWQkFGJt1baUYHBLlcygZICsRjgZ7PWS63NzJtMyvJIET5wweTdsPABCqOGGAMkE9c1z8qyfZIVuFVzxJKM4bMpI2rhcbUjAQZU45UYDKD+uVINNvp7t9bXkla77dFpfVtdmfh0bJ7aW6Pd6Nbed9VffsdjoesQ39vGElMUYRwyy4yZcKWwTnnLcng8Eggkk9BB4lit1kLxgFIiglCgmRFOAdg64KqOCCWBJO7Gfn6ea4026juIsxW88jeSATsjKPsdWHCkowAYcjBIbdjjQXVprghROQodm+82SQijPDDCOQCOWwoAXuaxlNxs/RyT3SWm1t272tpbe7sax5ZSSStvd31W2jbae7t5r+9Y9RvfE099LtLAiUkDG9QoVskpg8SHBLZyAc7cYFZMmpqFlBEilCFbnCuDyXIPVOSS2CQASK5KC5kWVX8/arhX8qLcSZGA+VinJyBk5JKtndzwdSSYXCrHdJE3lyEqUyHZWIVEBznhP9YBxgbcZ5CdRWbu79uyvutOmzd76q2xsoxWidnK6s72tZt+bS2t+p2lhqsRlMUqKpSP70e1S5xuUnaQQrn5cDr03EGu70PVSknlmZQkkgUqihR8xAVVDAgkMOwBH8RIJJ8dtwBudJvLYbySw2tlTu5YhSFzjBB4HQEnJ1NOvmjkiLjAVg4ZCdrAnkqcBuo3AcbiQx5FaUpq6stt73aTt0/xJ26vfQhpXslbaz02ttfztp9la3tKx9M6ZGBOyNEd0g/dgthXUkt85JDF5M5ycbc4AAFP1QtBKmYmTYx/fKxIj3IPLDMQVU5PJDHJPy9c1g+H9Slnt1kczTPtWQu4JZRsHyIzlizbzkAA5yTzjm7cX9yImllMEmN5SNlBMqgszDG0qMLypOcMRtGRx6TklCPqouyTa0vfVLdab/5nPbSz6O72Vtb6+Wu2t7FC7vGnnaOKABwoKbGKtLsyZNoBO0bQdoZSrA/NtwAEimR9rC2aOV/NUkIGIKnh5Q4ZQ2GZdwUEFsZBODRSQ310HUpFKI1WM5VGZuMFiVUGIDJbBwwRgWAzWo0k8EMgUQGTKpIZAVQM2MBMHb+8YqWZPnKqxBADZxlFSUnZpJJ6vV2aa089OunyYrWfVbW66pb9d73d9FppdaU0OHFx5eWkZ2WRd6eUQjKpcMWCqQWUYVVyylslEI1LeeRrB5HnedTLEATk4cDC4Y7TJxuycZUgsCOMU4r545J942OkISRQC8O5huL7zt6ljtXGAcnAyTUMciQWxdYyFxJcIysAGYOFKbUIZhk5UZwqlt3BFZJxUrpNST81e+69G9NrXsdN1y33asr22vbbV2u++j3T3RLfTxQRymaFpGKgqMnAXKsFwxO9SMkkMMAYJwFFc1dZeISRyAFmDoIwU2svzfKQeA6nblkwfQmtUaqJ0KSW5kbGMSEyD5ueNwLcsSBncByCTUV4nmCR7a1EbEJuV0MpRTEGwm9f3G0/dCAOcEe1VJ3u9m3tvbq9VpdL8Rdr2vezV+7Sfz6Pv0voc/PdG6Hk3gaQwKzLsWPJGeqttGexIbLeuOhwZpbeCIIyy4iDHyZEyQp3FjtG1CpOSrncw53YJrYv7ieFh59uhkbGGchUUbcD7gG0MOPmHLc9c55O51JoJnYzElg6qJSZMAE7kGOPkyyFj93+EjAA5qik22m9VZ2vs0mnpol0d7N3KjT+JprR2XW7Tuuuit0avpp1RBd3MygnysK6RkFkX5EKglumVyf4ixIUnHOQOak1WWwn/dybnZSB5Z2h9xP3QeMD5gHAJYE7t1Ralr9yjGIQqzMgJKBTuI4RhuzmMjdvTICkHHNcdPK8yPJIHMyE87QGWMDJOSpG0g4+Y4AIVRt+WsvaOL0cne6TTSvZa7ptcuifyV1qKrrPzS6tNf3fh63d2m7W2s7o60a2WVJJQzBWCeWrMocDIfeMncpIIJIwR0PBNYd5q+7BgxFgqBNuYCMMAAijJ6DC9epyD0FYYklAC7QFwN4fO2NRuJBAIAI7AcBsEggYrJulh+QLM7ghmjCDaCBh8uvynJDEA8N3OCTR7R9LJ6PXWS095Japfk9GFnpotnrZaq+uz7p6LTvrqM1C9lCSKjh2ldl52sMvzgKw4LfNlRzlhg5zmG3hMCz6hdthI0IjQqqqhYHccja7MW+6S3LDGM81RjiV5ZSVKxxFyzuwCIqY+ZSAUOACSeQNuASKfLMNYmgtLbL6fGwfEilVlKrv3jrgAkH/AGmHzfKCKxlBz5orbWye3T4tb2ezt0ViOZqcFddWns3K9opeVr3trpobPh4SXOppdSqHLNiKJFGzC5Kr1A+VsbuQdvBJIFf2M/8ABPvxEJPgr8MEug6vaeENEsJoCHYrNaRLC6Hdn5tkfOd23cACUIUfyr/CT4eSeJdUtLN1zbvJsuZgXZhZYJmUEBWUlflG07gx3HlQtf1U/B2TSvC+ifCNvDmlWPh/QfEfwf8ABer6dZ2MaW9uZrFtR8NaoxjjIUXcl/ojy3YkHnGaVppAXlFfkniXg5LAU6qV1Gcm7K73a5d7Rvpu20ktL3Z+7eDOK5cyxOElJXqQjOCve/SSet2nbZrS1ntY/ZnwlrsckduQ0QAVCMAJ5fH3cRjdnBGCvI2g85Yn1KPVw1tu808AKpH3RwQCACCxxnOQcFScDJr48+HfiW1eGNQ5Z3RC7YHy7iPuHgAB/vA9B/CTzXvtpq3yLErNIpU5IYFujbT1G08nBY7gWGBg1+IYPEP2qje6ulaV0tW21bbonpv0P6UxFNWut9m7aWeu7eutm3+NmdnNeArKzsSWCsQDsUcHaQquCzLtz82Rg5ZQSBSW1+CrgphlOBuRRvwCckkYZQcnrtAPIUGuXi1DzxtUMU2gIsp3Fgu7JLjLN04DZAx2FXYZM4YohZtqBDGu4KrEHtu3YY7SSQM45Ar7/KpOVnraVtGtG499NUr3STW13fY+ax8nad01p002umt2uvVWvs3udjbXcSxASlXbkALISflwSoC7dnzHOM8E9cN8103dtJGXYAFgpbepLKVGFAB67VUlTxtbPTtk2jxI0IAYgjLkbch9oypLKQd20EkA5GAVOMG28sshZfLAiXJmDKi7gCGAYY4BbOFVQo2/MOuftMKuWKeya0vra73utr+l7u3U+Nxct1e97283oreSTtv362M/UVZ1yg2sVCBxkkLyy5yXO0hhuzk/wluF2+Ya/IojuELbSF8rIXgYGFcYHqcnfklcdelelX4JEjqXdGRCoQ46KduApI+XODtBBwp6ghfJ/FKI0N2EmJBRuin5JMYy38QwBzg4GMBTxXp0mozirN6pLVa3as159PK2luvx+bP9zWVm17Od9G72vfTd2va76Wsz83f26PHVz+zV4f8ABXxhktL3xT4b0b4sfCSe88MaLqUVj/av/CQXFzpiC81TypV02W3udWRozKEHnI6M6hQR9qeCvjxofiX4ReHL/wAPSQaBpljLqesT2Gs6ZBD4gPiG/ntopLHxLqNkwv7afRI44IBIJ0t7uEi7tWCyRsPiP4tfsweLv2rfh345+Cnxg+x+G/hZr3jnT9asfF3wv8X2TeMhB4fv/tmhDVbzxpcR6VoUdxcSJeXdlHpYijuUVRehIg1cfrvwJ+N/7POhaNpPw/m+G/xHh07Tlg1HVPjz8b/A3hfUZdNjkSCK0udF8AzazZ6lqtzbQW6Nq8Atbvy08z7OjGVj9rg7Oi/Vtx35nponvFLq16dT+cM2vHGVGrJqUn3SalJO7d0k++99FZXPaPH/AO034O8E3SalrHwotPiLHbat9ikXwP42uNT1DUriRJUn1K2u/FNtBCZI5pGxZRPFEIhJE0spCyV8n/E/4+fHj4p3l74b+Gfh4/Br4W6zb2UED21uvif4k3VvGjPeC48U3lxdLpdozLIxi0rTUhjW2LNO6RqRx2rah8XfCehXXiG8/Y88E/GaLXb1byV/g58RPC2uzaTemCY3Nxpem6nq3hfXba++1SRGNfJBkQs22VwFPgvh39r/AMVeBtfu7v4wfsOftj+A/DFpfWt3q/i+3+Bd7rCeHLGyklWee7mIIvNLNmWTFvfQRW+1ri3YyDI6qXutRSulpzbaO75drtprtpa7d7o401y83Xr02voulruytr1XZ/pl8Mv2YLTTPBulx+Lvibp99rdyJb64PirSvDWrapax3LZhtPtC6DG0dvHGokit5Q00bSyNI7F+Cvkm4/4Ksf8ABNvUmS5X4geP7hWijAlf4Q+JpT03socyyH5HdlYGSTa4ZQ7AA0V03fn8k2vvSaZlyp680l5K9l5LVbemu/U+mPAP/Ixaz/2L6/8Apzuq0fgP/wAnJ/Eb/skHhH/0++LaKK8el8UPSX/pLO6n8a/7d/8ASmfpEn/IYsP+xI8I/wDpNNXar96D/r3T+Roor53Mv43/AIEftHCn8Bf44/8ApuJJP/x+Q/8AXFP/AEKOsK6/5CVz/uRf+giiivjMx+F/4Y/+lH7BlfwR/wC3fyOd1frB/uJ/JK8c1/8A5a/7w/8ARooor87zLd/1/MfoGX7P/r1P8keH+Jf9ev8A28/+jhXz74w+6P8Arm/8zRRXj4b+I/8AF/7kPWq/wl/hf/pMD55+Cf8Aye3+zz/1/eKf/TVHS/8ABVP/AJJ7Yf8AZYdY/wDTC1FFf0p4f/7rS/7d/Q/i/wAXf+SoxH/XiH/pLP5yr3/WXH/Xw3/oKVyWoffk+h/9BNFFfodX4pfL80fnFP4I/P8ANnE6/wD8ge0/6+bj/wBKWrLg/wBZ/wAAg/8ARUdFFcj+16L/ANKZpR/z/NG9p/31/wB+T/0E1eg/4/V+h/8AQVooqXv/AF5nW94f19pmhP8A8eMH1g/pWjZf6qP/AD/cooq6X2f8f/yRMt16L9T6G8Gf8eln/uyf+iXqXUP9TL/17N/6IWiiu+e33f8ApETkf8SXy/NnM2X3x/1yb/0F666L/VQfQf8AotqKKqXwz/wr8maLb/t2X/pSM6X/AF2of9cT/wCgxVVj/wCPa1/66P8A+jIKKKx6x/wP80ax3n/gp/kNsf8AWR/9e7/+jZajtv8Aj4uv+ucv/oFFFC+1/i/RDXxf9vf/ACJyWsdJ/ov8mrh7z/j+g/65H/2Wiisqm0vWP/pURx6/9fF+pzmq/wCsi/65n/0E1ztv/wAfVz/1zH/obUUVxy3/APAv/SkZR3l6/qynef6q8/64v/6MWud/5eG/64t/I0UVEf4v/bs/zNOi+f6FO+/5B1z/ANcbf+dXfC/+r/7dh/6Jeiiuql8a/wAUf/SkZVP4lH/GvyR9zfs/f8jPpn/XK7/9Jnr+iLwH/wAkz/Ze/wCyYeJ//VmeI6KK/NfEr/kST/7CJ/kfrnhH/wAlPD/rxU/9LZ98fDX/AI9Lf/cb/wBCir6b0L/j2vP+ucf8pKKK/m6j/HXr+sj+tMR/Cfz/APSYnSWH+sT/AK5/+yiug0z/AI+B/wBdJP8A0Oiiv0XJv4dL5/kz5XH7Vf8AAdbpf3x9W/8ARi1Fe/8AH4f+uk//AKUJRRX2+G2h/X8p8ZjN5f4f0RVuP+PZ/wDdb+TV5R4g/wCPe4/65N/WiivQpfxIf4n/AOlxPksx+Cr/ANep/kz53tfv69/1+3H/AKUtX51+DP8AkffiZ/2FfEv/AKeNQoor7jBfC/8At784H83Zx/vWJ9J/+nJHe2P/AB6ap/2HI/8A0bX60/Af/kG65/2LUv8A6TTUUV2r46f+H/3JUPN+z/4B+aP81m3/AOQh4n/7HHxZ/wCn2+ooorrh8EfT9ZDP/9k=;" vertex="1" parent="1">
                    <mxGeometry x="340" y="-661.5" width="355.95" height="381.5" as="geometry"/>
                </mxCell>
                <mxCell id="97" value="&lt;font color=&quot;#ff1938&quot; style=&quot;font-size: 24px;&quot;&gt;Full stack Developer&lt;/font&gt;" style="text;html=1;align=center;verticalAlign=middle;whiteSpace=wrap;rounded=0;" vertex="1" parent="1">
                    <mxGeometry x="387.97" y="-260" width="260" height="30" as="geometry"/>
                </mxCell>
                <mxCell id="99" value="" style="dashed=0;outlineConnect=0;html=1;align=center;labelPosition=center;verticalLabelPosition=bottom;verticalAlign=top;shape=mxgraph.webicons.github;gradientColor=#DFDEDE" vertex="1" parent="1">
                    <mxGeometry x="387.97" y="-210" width="40" height="40" as="geometry"/>
                </mxCell>
                <mxCell id="100" value="" style="dashed=0;outlineConnect=0;html=1;align=center;labelPosition=center;verticalLabelPosition=bottom;verticalAlign=top;shape=mxgraph.webicons.gmail;gradientColor=#DFDEDE" vertex="1" parent="1">
                    <mxGeometry x="460" y="-210" width="42.4" height="40" as="geometry"/>
                </mxCell>
                <mxCell id="101" value="" style="dashed=0;outlineConnect=0;html=1;align=center;labelPosition=center;verticalLabelPosition=bottom;verticalAlign=top;shape=mxgraph.webicons.linkedin;fillColor=#0095DB;gradientColor=#006391" vertex="1" parent="1">
                    <mxGeometry x="537.6" y="-213.7" width="42.4" height="40" as="geometry"/>
                </mxCell>
                <mxCell id="102" value="" style="dashed=0;outlineConnect=0;html=1;align=center;labelPosition=center;verticalLabelPosition=bottom;verticalAlign=top;shape=mxgraph.weblogos.youtube_2;fillColor=#FF2626;gradientColor=#B5171F" vertex="1" parent="1">
                    <mxGeometry x="616.8000000000001" y="-206.3" width="46.400000000000006" height="32.6" as="geometry"/>
                </mxCell>
                <mxCell id="103" value="&lt;h2&gt;&lt;font color=&quot;#fff9fc&quot;&gt;Home&lt;/font&gt;&lt;/h2&gt;" style="text;html=1;align=center;verticalAlign=middle;whiteSpace=wrap;rounded=0;" vertex="1" parent="1">
                    <mxGeometry x="190" y="-727.5" width="100" height="35" as="geometry"/>
                </mxCell>
            </root>
        </mxGraphModel>
    </diagram>
</mxfile>